<?xml version="1.0" encoding="UTF-8"?><svg id="Layer_1" xmlns="http://www.w3.org/2000/svg" viewBox="0 0 162.17 564.11"><defs><style>.cls-1,.cls-2,.cls-3,.cls-4,.cls-5,.cls-6,.cls-7,.cls-8,.cls-9,.cls-10,.cls-11,.cls-12{stroke-miterlimit:10;}.cls-1,.cls-2,.cls-4,.cls-5,.cls-6,.cls-7,.cls-8,.cls-9,.cls-10,.cls-11,.cls-12{stroke:#000;}.cls-1,.cls-6{stroke-width:.75px;}.cls-2{stroke-width:1.1px;}.cls-2,.cls-3,.cls-4,.cls-5,.cls-6,.cls-8,.cls-9,.cls-10,.cls-11,.cls-12{fill:none;}.cls-3{stroke:#231f20;stroke-width:.4px;}.cls-4{stroke-width:.8px;}.cls-5{stroke-width:1.25px;}.cls-7{stroke-width:.5px;}.cls-8{stroke-width:2px;}.cls-10{stroke-width:1.2px;}.cls-11{stroke-width:1.75px;}.cls-12{stroke-width:2.75px;}</style></defs><g><g><g><polyline class="cls-9" points="4.75 117.84 4.75 113.34 11.42 113.34 11.42 109.4"/><polyline class="cls-9" points="11.85 117.12 7.84 117.05 7.84 110.02 4.32 109.96"/></g><g><polyline class="cls-9" points="4.75 106.54 4.75 102.3 11.42 102.3 11.42 98.59"/><polyline class="cls-9" points="11.85 105.86 7.84 105.8 7.84 99.18 4.32 99.13"/></g><g><polyline class="cls-9" points="4.75 138.37 4.75 133.87 11.42 133.87 11.42 129.92"/><polyline class="cls-9" points="11.85 137.65 7.84 137.58 7.84 130.55 4.32 130.49"/></g><g><polyline class="cls-9" points="4.75 127.72 4.75 123.48 11.42 123.48 11.42 119.77"/><polyline class="cls-9" points="11.85 127.04 7.84 126.98 7.84 120.36 4.32 120.3"/></g><g><polyline class="cls-9" points="4.75 159.72 4.75 155.22 11.42 155.22 11.42 151.28"/><polyline class="cls-9" points="11.85 159 7.84 158.94 7.84 151.9 4.32 151.85"/></g><g><polyline class="cls-9" points="4.75 148.28 4.75 144.04 11.42 144.04 11.42 140.33"/><polyline class="cls-9" points="11.85 147.6 7.84 147.54 7.84 140.92 4.32 140.87"/></g><g><polyline class="cls-9" points="4.75 180.18 4.75 175.67 11.42 175.67 11.42 171.73"/><polyline class="cls-9" points="11.85 179.45 7.84 179.39 7.84 172.35 4.32 172.3"/></g><g><polyline class="cls-9" points="4.75 169.45 4.75 165.21 11.42 165.21 11.42 161.5"/><polyline class="cls-9" points="11.85 168.77 7.84 168.71 7.84 162.09 4.32 162.04"/></g><g><polyline class="cls-9" points="4.75 201.81 4.75 197.31 11.42 197.31 11.42 193.37"/><polyline class="cls-9" points="11.85 201.09 7.84 201.03 7.84 193.99 4.32 193.94"/></g><g><polyline class="cls-9" points="4.75 190.51 4.75 186.27 11.42 186.27 11.42 182.56"/><polyline class="cls-9" points="11.85 189.83 7.84 189.77 7.84 183.15 4.32 183.1"/></g><g><polyline class="cls-9" points="4.75 222.34 4.75 217.84 11.42 217.84 11.42 213.9"/><polyline class="cls-9" points="11.85 221.62 7.84 221.55 7.84 214.52 4.32 214.46"/></g><g><polyline class="cls-9" points="4.75 211.69 4.75 207.45 11.42 207.45 11.42 203.74"/><polyline class="cls-9" points="11.85 211.01 7.84 210.95 7.84 204.33 4.32 204.27"/></g><g><polyline class="cls-9" points="4.75 243.69 4.75 239.19 11.42 239.19 11.42 235.25"/><polyline class="cls-9" points="11.85 242.97 7.84 242.91 7.84 235.87 4.32 235.82"/></g><g><polyline class="cls-9" points="4.75 232.25 4.75 228.01 11.42 228.01 11.42 224.3"/><polyline class="cls-9" points="11.85 231.57 7.84 231.51 7.84 224.89 4.32 224.84"/></g><g><polyline class="cls-9" points="4.75 264.15 4.75 259.64 11.42 259.64 11.42 255.7"/><polyline class="cls-9" points="11.85 263.42 7.84 263.36 7.84 256.32 4.32 256.27"/></g><g><polyline class="cls-9" points="4.75 253.42 4.75 249.18 11.42 249.18 11.42 245.47"/><polyline class="cls-9" points="11.85 252.74 7.84 252.68 7.84 246.06 4.32 246.01"/></g><g><polyline class="cls-9" points="4.75 34.3 4.75 29.8 11.42 29.8 11.42 25.86"/><polyline class="cls-9" points="11.85 33.58 7.84 33.52 7.84 26.48 4.32 26.42"/></g><g><polyline class="cls-9" points="4.75 23 4.75 18.76 11.42 18.76 11.42 15.05"/><polyline class="cls-9" points="11.85 22.32 7.84 22.26 7.84 15.64 4.32 15.59"/></g><g><polyline class="cls-9" points="4.75 54.83 4.75 50.33 11.42 50.33 11.42 46.38"/><polyline class="cls-9" points="11.85 54.11 7.84 54.04 7.84 47.01 4.32 46.95"/></g><g><polyline class="cls-9" points="4.75 44.18 4.75 39.94 11.42 39.94 11.42 36.23"/><polyline class="cls-9" points="11.85 43.5 7.84 43.44 7.84 36.82 4.32 36.76"/></g><g><polyline class="cls-9" points="4.75 76.18 4.75 71.68 11.42 71.68 11.42 67.74"/><polyline class="cls-9" points="11.85 75.46 7.84 75.4 7.84 68.36 4.32 68.31"/></g><g><polyline class="cls-9" points="4.75 64.74 4.75 60.5 11.42 60.5 11.42 56.79"/><polyline class="cls-9" points="11.85 64.06 7.84 64 7.84 57.38 4.32 57.33"/></g><g><polyline class="cls-9" points="4.75 96.64 4.75 92.13 11.42 92.13 11.42 88.19"/><polyline class="cls-9" points="11.85 95.91 7.84 95.85 7.84 88.81 4.32 88.76"/></g><g><polyline class="cls-9" points="4.75 85.91 4.75 81.67 11.42 81.67 11.42 77.96"/><polyline class="cls-9" points="11.85 85.23 7.84 85.17 7.84 78.55 4.32 78.5"/></g><g><polyline class="cls-9" points="4.75 369.92 4.75 365.41 11.42 365.41 11.42 361.47"/><polyline class="cls-9" points="11.85 369.19 7.84 369.13 7.84 362.09 4.32 362.04"/></g><g><polyline class="cls-9" points="4.75 358.61 4.75 354.37 11.42 354.37 11.42 350.66"/><polyline class="cls-9" points="11.85 357.93 7.84 357.87 7.84 351.25 4.32 351.2"/></g><g><polyline class="cls-9" points="4.75 390.45 4.75 385.94 11.42 385.94 11.42 382"/><polyline class="cls-9" points="11.85 389.72 7.84 389.66 7.84 382.62 4.32 382.57"/></g><g><polyline class="cls-9" points="4.75 379.79 4.75 375.55 11.42 375.55 11.42 371.84"/><polyline class="cls-9" points="11.85 379.11 7.84 379.05 7.84 372.43 4.32 372.38"/></g><g><polyline class="cls-9" points="4.75 411.8 4.75 407.29 11.42 407.29 11.42 403.35"/><polyline class="cls-9" points="11.85 411.07 7.84 411.01 7.84 403.97 4.32 403.92"/></g><g><polyline class="cls-9" points="4.75 400.36 4.75 396.12 11.42 396.12 11.42 392.41"/><polyline class="cls-9" points="11.85 399.67 7.84 399.61 7.84 392.99 4.32 392.94"/></g><g><polyline class="cls-9" points="4.75 432.25 4.75 427.74 11.42 427.74 11.42 423.8"/><polyline class="cls-9" points="11.85 431.52 7.84 431.46 7.84 424.43 4.32 424.37"/></g><g><polyline class="cls-9" points="4.75 421.53 4.75 417.29 11.42 417.29 11.42 413.58"/><polyline class="cls-9" points="11.85 420.84 7.84 420.78 7.84 414.16 4.32 414.11"/></g><g><polyline class="cls-9" points="4.75 453.89 4.75 449.38 11.42 449.38 11.42 445.44"/><polyline class="cls-9" points="11.85 453.16 7.84 453.1 7.84 446.06 4.32 446.01"/></g><g><polyline class="cls-9" points="4.75 442.59 4.75 438.35 11.42 438.35 11.42 434.64"/><polyline class="cls-9" points="11.85 441.9 7.84 441.84 7.84 435.22 4.32 435.17"/></g><g><polyline class="cls-9" points="4.75 474.42 4.75 469.91 11.42 469.91 11.42 465.97"/><polyline class="cls-9" points="11.85 473.69 7.84 473.63 7.84 466.59 4.32 466.54"/></g><g><polyline class="cls-9" points="4.75 463.76 4.75 459.52 11.42 459.52 11.42 455.81"/><polyline class="cls-9" points="11.85 463.08 7.84 463.02 7.84 456.4 4.32 456.35"/></g><g><polyline class="cls-9" points="4.75 495.77 4.75 491.26 11.42 491.26 11.42 487.32"/><polyline class="cls-9" points="11.85 495.04 7.84 494.98 7.84 487.95 4.32 487.89"/></g><g><polyline class="cls-9" points="4.75 484.33 4.75 480.09 11.42 480.09 11.42 476.38"/><polyline class="cls-9" points="11.85 483.65 7.84 483.59 7.84 476.97 4.32 476.91"/></g><g><polyline class="cls-9" points="4.75 516.22 4.75 511.71 11.42 511.71 11.42 507.77"/><polyline class="cls-9" points="11.85 515.5 7.84 515.43 7.84 508.4 4.32 508.34"/></g><g><polyline class="cls-9" points="4.75 505.5 4.75 501.26 11.42 501.26 11.42 497.55"/><polyline class="cls-9" points="11.85 504.81 7.84 504.75 7.84 498.13 4.32 498.08"/></g><g><polyline class="cls-9" points="4.75 286.38 4.75 281.87 11.42 281.87 11.42 277.93"/><polyline class="cls-9" points="11.85 285.65 7.84 285.59 7.84 278.55 4.32 278.5"/></g><g><polyline class="cls-9" points="4.75 275.07 4.75 270.83 11.42 270.83 11.42 267.12"/><polyline class="cls-9" points="11.85 274.39 7.84 274.33 7.84 267.71 4.32 267.66"/></g><g><polyline class="cls-9" points="4.75 306.91 4.75 302.4 11.42 302.4 11.42 298.46"/><polyline class="cls-9" points="11.85 306.18 7.84 306.12 7.84 299.08 4.32 299.03"/></g><g><polyline class="cls-9" points="4.75 296.25 4.75 292.01 11.42 292.01 11.42 288.3"/><polyline class="cls-9" points="11.85 295.57 7.84 295.51 7.84 288.89 4.32 288.84"/></g><g><polyline class="cls-9" points="4.75 328.26 4.75 323.75 11.42 323.75 11.42 319.81"/><polyline class="cls-9" points="11.85 327.53 7.84 327.47 7.84 320.43 4.32 320.38"/></g><g><polyline class="cls-9" points="4.75 316.82 4.75 312.58 11.42 312.58 11.42 308.87"/><polyline class="cls-9" points="11.85 316.13 7.84 316.07 7.84 309.45 4.32 309.4"/></g><g><polyline class="cls-9" points="4.75 348.71 4.75 344.2 11.42 344.2 11.42 340.26"/><polyline class="cls-9" points="11.85 347.98 7.84 347.92 7.84 340.89 4.32 340.83"/></g><g><polyline class="cls-9" points="4.75 337.99 4.75 333.75 11.42 333.75 11.42 330.04"/><polyline class="cls-9" points="11.85 337.3 7.84 337.24 7.84 330.62 4.32 330.57"/></g><polyline class="cls-9" points="4.75 527.82 4.75 523.32 11.42 523.32 11.42 519.38"/><polyline class="cls-9" points="11.85 527.1 7.84 527.04 7.84 520 4.32 519.94"/><polyline class="cls-9" points="4.75 548.27 4.75 543.77 11.42 543.77 11.42 539.83"/><polyline class="cls-9" points="11.85 547.55 7.84 547.49 7.84 540.45 4.32 540.4"/><polyline class="cls-9" points="4.75 537.55 4.75 533.31 11.42 533.31 11.42 529.6"/><polyline class="cls-9" points="11.85 536.87 7.84 536.81 7.84 530.19 4.32 530.14"/><g><g><g><polyline class="cls-9" points="4.26 5.17 7.98 5.17 7.98 12.61 11.23 12.61"/><polyline class="cls-9" points="4.86 13.1 4.91 8.62 10.72 8.62 10.76 4.69"/></g><g><polyline class="cls-9" points="13.75 5.17 17.47 5.17 17.47 12.61 20.72 12.61"/><polyline class="cls-9" points="14.34 13.1 14.4 8.62 20.21 8.62 20.25 4.69"/></g><g><polyline class="cls-9" points="22.23 5.17 25.96 5.17 25.96 12.61 29.21 12.61"/><polyline class="cls-9" points="22.83 13.1 22.89 8.62 28.7 8.62 28.74 4.69"/></g><g><polyline class="cls-9" points="31.72 5.17 35.44 5.17 35.44 12.61 38.7 12.61"/><polyline class="cls-9" points="32.32 13.1 32.37 8.62 38.18 8.62 38.23 4.69"/></g><g><polyline class="cls-9" points="41.21 5.17 44.93 5.17 44.93 12.61 48.19 12.61"/><polyline class="cls-9" points="41.81 13.1 41.86 8.62 47.67 8.62 47.72 4.69"/></g><g><polyline class="cls-9" points="49.7 5.17 53.42 5.17 53.42 12.61 56.68 12.61"/><polyline class="cls-9" points="50.3 13.1 50.35 8.62 56.16 8.62 56.21 4.69"/></g><g><polyline class="cls-9" points="58.95 5.17 62.67 5.17 62.67 12.61 65.93 12.61"/><polyline class="cls-9" points="59.55 13.1 59.6 8.62 65.41 8.62 65.46 4.69"/></g><g><polyline class="cls-9" points="68.21 5.17 71.93 5.17 71.93 12.61 75.18 12.61"/><polyline class="cls-9" points="68.8 13.1 68.86 8.62 74.67 8.62 74.71 4.69"/></g><g><polyline class="cls-9" points="77.7 5.17 81.42 5.17 81.42 12.61 84.67 12.61"/><polyline class="cls-9" points="78.29 13.1 78.35 8.62 84.16 8.62 84.2 4.69"/></g><g><polyline class="cls-9" points="86.65 5.17 90.37 5.17 90.37 12.61 93.63 12.61"/><polyline class="cls-9" points="87.25 13.1 87.3 8.62 93.11 8.62 93.16 4.69"/></g><g><polyline class="cls-9" points="95.74 5.17 99.46 5.17 99.46 12.61 102.72 12.61"/><polyline class="cls-9" points="96.34 13.1 96.39 8.62 102.2 8.62 102.25 4.69"/></g><g><polyline class="cls-9" points="104.63 5.17 108.35 5.17 108.35 12.61 111.61 12.61"/><polyline class="cls-9" points="105.23 13.1 105.28 8.62 111.09 8.62 111.14 4.69"/></g><g><polyline class="cls-9" points="114.52 5.17 118.24 5.17 118.24 12.61 121.5 12.61"/><polyline class="cls-9" points="115.12 13.1 115.17 8.62 120.98 8.62 121.03 4.69"/></g><g><polyline class="cls-9" points="123.41 5.17 127.13 5.17 127.13 12.61 130.39 12.61"/><polyline class="cls-9" points="124.01 13.1 124.06 8.62 129.87 8.62 129.92 4.69"/></g><g><polyline class="cls-9" points="132.3 5.17 136.02 5.17 136.02 12.61 139.28 12.61"/><polyline class="cls-9" points="132.9 13.1 132.95 8.62 138.76 8.62 138.81 4.69"/></g><g><polyline class="cls-9" points="141.19 5.17 144.91 5.17 144.91 12.61 148.17 12.61"/><polyline class="cls-9" points="141.79 13.1 141.84 8.62 147.65 8.62 147.7 4.69"/></g><g><polyline class="cls-9" points="151.08 5.17 154.8 5.17 154.8 12.61 158.06 12.61"/><polyline class="cls-9" points="151.68 13.1 151.73 8.62 157.54 8.62 157.59 4.69"/></g></g><g><g><polyline class="cls-9" points="4.16 550.08 7.88 550.08 7.88 557.52 11.13 557.52"/><polyline class="cls-9" points="4.76 558 4.81 553.53 10.62 553.53 10.66 549.6"/></g><g><polyline class="cls-9" points="13.65 550.08 17.37 550.08 17.37 557.52 20.62 557.52"/><polyline class="cls-9" points="14.24 558 14.3 553.53 20.11 553.53 20.15 549.6"/></g><g><polyline class="cls-9" points="141.09 550.08 144.81 550.08 144.81 557.52 148.07 557.52"/><polyline class="cls-9" points="141.69 558 141.74 553.53 147.55 553.53 147.6 549.6"/></g><g><polyline class="cls-9" points="150.98 550.08 154.7 550.08 154.7 557.52 157.96 557.52"/><polyline class="cls-9" points="151.58 558 151.63 553.53 157.44 553.53 157.49 549.6"/></g></g><g><polyline class="cls-9" points="150.92 117.84 150.92 113.34 157.6 113.34 157.6 109.4"/><polyline class="cls-9" points="158.03 117.12 154.01 117.05 154.01 110.02 150.49 109.96"/></g><g><polyline class="cls-9" points="150.92 106.54 150.92 102.3 157.6 102.3 157.6 98.59"/><polyline class="cls-9" points="158.03 105.86 154.01 105.8 154.01 99.18 150.49 99.13"/></g><g><polyline class="cls-9" points="150.92 138.37 150.92 133.87 157.6 133.87 157.6 129.92"/><polyline class="cls-9" points="158.03 137.65 154.01 137.58 154.01 130.55 150.49 130.49"/></g><g><polyline class="cls-9" points="150.92 127.72 150.92 123.48 157.6 123.48 157.6 119.77"/><polyline class="cls-9" points="158.03 127.04 154.01 126.98 154.01 120.36 150.49 120.3"/></g><g><polyline class="cls-9" points="150.92 159.72 150.92 155.22 157.6 155.22 157.6 151.28"/><polyline class="cls-9" points="158.03 159 154.01 158.94 154.01 151.9 150.49 151.85"/></g><g><polyline class="cls-9" points="150.92 148.28 150.92 144.04 157.6 144.04 157.6 140.33"/><polyline class="cls-9" points="158.03 147.6 154.01 147.54 154.01 140.92 150.49 140.87"/></g><g><polyline class="cls-9" points="150.92 180.18 150.92 175.67 157.6 175.67 157.6 171.73"/><polyline class="cls-9" points="158.03 179.45 154.01 179.39 154.01 172.35 150.49 172.3"/></g><g><polyline class="cls-9" points="150.92 169.45 150.92 165.21 157.6 165.21 157.6 161.5"/><polyline class="cls-9" points="158.03 168.77 154.01 168.71 154.01 162.09 150.49 162.04"/></g><g><polyline class="cls-9" points="150.92 201.81 150.92 197.31 157.6 197.31 157.6 193.37"/><polyline class="cls-9" points="158.03 201.09 154.01 201.03 154.01 193.99 150.49 193.94"/></g><g><polyline class="cls-9" points="150.92 190.51 150.92 186.27 157.6 186.27 157.6 182.56"/><polyline class="cls-9" points="158.03 189.83 154.01 189.77 154.01 183.15 150.49 183.1"/></g><g><polyline class="cls-9" points="150.92 222.34 150.92 217.84 157.6 217.84 157.6 213.9"/><polyline class="cls-9" points="158.03 221.62 154.01 221.55 154.01 214.52 150.49 214.46"/></g><g><polyline class="cls-9" points="150.92 211.69 150.92 207.45 157.6 207.45 157.6 203.74"/><polyline class="cls-9" points="158.03 211.01 154.01 210.95 154.01 204.33 150.49 204.27"/></g><g><polyline class="cls-9" points="150.92 243.69 150.92 239.19 157.6 239.19 157.6 235.25"/><polyline class="cls-9" points="158.03 242.97 154.01 242.91 154.01 235.87 150.49 235.82"/></g><g><polyline class="cls-9" points="150.92 232.25 150.92 228.01 157.6 228.01 157.6 224.3"/><polyline class="cls-9" points="158.03 231.57 154.01 231.51 154.01 224.89 150.49 224.84"/></g><g><polyline class="cls-9" points="150.92 264.15 150.92 259.64 157.6 259.64 157.6 255.7"/><polyline class="cls-9" points="158.03 263.42 154.01 263.36 154.01 256.32 150.49 256.27"/></g><g><polyline class="cls-9" points="150.92 253.42 150.92 249.18 157.6 249.18 157.6 245.47"/><polyline class="cls-9" points="158.03 252.74 154.01 252.68 154.01 246.06 150.49 246.01"/></g><g><polyline class="cls-9" points="150.92 34.3 150.92 29.8 157.6 29.8 157.6 25.86"/><polyline class="cls-9" points="158.03 33.58 154.01 33.52 154.01 26.48 150.49 26.42"/></g><g><polyline class="cls-9" points="150.92 23 150.92 18.76 157.6 18.76 157.6 15.05"/><polyline class="cls-9" points="158.03 22.32 154.01 22.26 154.01 15.64 150.49 15.59"/></g><g><polyline class="cls-9" points="150.92 54.83 150.92 50.33 157.6 50.33 157.6 46.38"/><polyline class="cls-9" points="158.03 54.11 154.01 54.04 154.01 47.01 150.49 46.95"/></g><g><polyline class="cls-9" points="150.92 44.18 150.92 39.94 157.6 39.94 157.6 36.23"/><polyline class="cls-9" points="158.03 43.5 154.01 43.44 154.01 36.82 150.49 36.76"/></g><g><polyline class="cls-9" points="150.92 76.18 150.92 71.68 157.6 71.68 157.6 67.74"/><polyline class="cls-9" points="158.03 75.46 154.01 75.4 154.01 68.36 150.49 68.31"/></g><g><polyline class="cls-9" points="150.92 64.74 150.92 60.5 157.6 60.5 157.6 56.79"/><polyline class="cls-9" points="158.03 64.06 154.01 64 154.01 57.38 150.49 57.33"/></g><g><polyline class="cls-9" points="150.92 96.64 150.92 92.13 157.6 92.13 157.6 88.19"/><polyline class="cls-9" points="158.03 95.91 154.01 95.85 154.01 88.81 150.49 88.76"/></g><g><polyline class="cls-9" points="150.92 85.91 150.92 81.67 157.6 81.67 157.6 77.96"/><polyline class="cls-9" points="158.03 85.23 154.01 85.17 154.01 78.55 150.49 78.5"/></g><g><polyline class="cls-9" points="150.92 369.92 150.92 365.41 157.6 365.41 157.6 361.47"/><polyline class="cls-9" points="158.03 369.19 154.01 369.13 154.01 362.09 150.49 362.04"/></g><g><polyline class="cls-9" points="150.92 358.61 150.92 354.37 157.6 354.37 157.6 350.66"/><polyline class="cls-9" points="158.03 357.93 154.01 357.87 154.01 351.25 150.49 351.2"/></g><g><polyline class="cls-9" points="150.92 390.45 150.92 385.94 157.6 385.94 157.6 382"/><polyline class="cls-9" points="158.03 389.72 154.01 389.66 154.01 382.62 150.49 382.57"/></g><g><polyline class="cls-9" points="150.92 379.79 150.92 375.55 157.6 375.55 157.6 371.84"/><polyline class="cls-9" points="158.03 379.11 154.01 379.05 154.01 372.43 150.49 372.38"/></g><g><polyline class="cls-9" points="150.92 411.8 150.92 407.29 157.6 407.29 157.6 403.35"/><polyline class="cls-9" points="158.03 411.07 154.01 411.01 154.01 403.97 150.49 403.92"/></g><g><polyline class="cls-9" points="150.92 400.36 150.92 396.12 157.6 396.12 157.6 392.41"/><polyline class="cls-9" points="158.03 399.67 154.01 399.61 154.01 392.99 150.49 392.94"/></g><g><polyline class="cls-9" points="150.92 432.25 150.92 427.74 157.6 427.74 157.6 423.8"/><polyline class="cls-9" points="158.03 431.52 154.01 431.46 154.01 424.43 150.49 424.37"/></g><g><polyline class="cls-9" points="150.92 421.53 150.92 417.29 157.6 417.29 157.6 413.58"/><polyline class="cls-9" points="158.03 420.84 154.01 420.78 154.01 414.16 150.49 414.11"/></g><g><polyline class="cls-9" points="150.92 453.89 150.92 449.38 157.6 449.38 157.6 445.44"/><polyline class="cls-9" points="158.03 453.16 154.01 453.1 154.01 446.06 150.49 446.01"/></g><g><polyline class="cls-9" points="150.92 442.59 150.92 438.35 157.6 438.35 157.6 434.64"/><polyline class="cls-9" points="158.03 441.9 154.01 441.84 154.01 435.22 150.49 435.17"/></g><g><polyline class="cls-9" points="150.92 474.42 150.92 469.91 157.6 469.91 157.6 465.97"/><polyline class="cls-9" points="158.03 473.69 154.01 473.63 154.01 466.59 150.49 466.54"/></g><g><polyline class="cls-9" points="150.92 463.76 150.92 459.52 157.6 459.52 157.6 455.81"/><polyline class="cls-9" points="158.03 463.08 154.01 463.02 154.01 456.4 150.49 456.35"/></g><g><polyline class="cls-9" points="150.92 495.77 150.92 491.26 157.6 491.26 157.6 487.32"/><polyline class="cls-9" points="158.03 495.04 154.01 494.98 154.01 487.95 150.49 487.89"/></g><g><polyline class="cls-9" points="150.92 484.33 150.92 480.09 157.6 480.09 157.6 476.38"/><polyline class="cls-9" points="158.03 483.65 154.01 483.59 154.01 476.97 150.49 476.91"/></g><g><polyline class="cls-9" points="150.92 516.22 150.92 511.71 157.6 511.71 157.6 507.77"/><polyline class="cls-9" points="158.03 515.5 154.01 515.43 154.01 508.4 150.49 508.34"/></g><g><polyline class="cls-9" points="150.92 505.5 150.92 501.26 157.6 501.26 157.6 497.55"/><polyline class="cls-9" points="158.03 504.81 154.01 504.75 154.01 498.13 150.49 498.08"/></g><g><polyline class="cls-9" points="150.92 286.38 150.92 281.87 157.6 281.87 157.6 277.93"/><polyline class="cls-9" points="158.03 285.65 154.01 285.59 154.01 278.55 150.49 278.5"/></g><g><polyline class="cls-9" points="150.92 275.07 150.92 270.83 157.6 270.83 157.6 267.12"/><polyline class="cls-9" points="158.03 274.39 154.01 274.33 154.01 267.71 150.49 267.66"/></g><g><polyline class="cls-9" points="150.92 306.91 150.92 302.4 157.6 302.4 157.6 298.46"/><polyline class="cls-9" points="158.03 306.18 154.01 306.12 154.01 299.08 150.49 299.03"/></g><g><polyline class="cls-9" points="150.92 296.25 150.92 292.01 157.6 292.01 157.6 288.3"/><polyline class="cls-9" points="158.03 295.57 154.01 295.51 154.01 288.89 150.49 288.84"/></g><g><polyline class="cls-9" points="150.92 328.26 150.92 323.75 157.6 323.75 157.6 319.81"/><polyline class="cls-9" points="158.03 327.53 154.01 327.47 154.01 320.43 150.49 320.38"/></g><g><polyline class="cls-9" points="150.92 316.82 150.92 312.58 157.6 312.58 157.6 308.87"/><polyline class="cls-9" points="158.03 316.13 154.01 316.07 154.01 309.45 150.49 309.4"/></g><g><polyline class="cls-9" points="150.92 348.71 150.92 344.2 157.6 344.2 157.6 340.26"/><polyline class="cls-9" points="158.03 347.98 154.01 347.92 154.01 340.89 150.49 340.83"/></g><g><polyline class="cls-9" points="150.92 337.99 150.92 333.75 157.6 333.75 157.6 330.04"/><polyline class="cls-9" points="158.03 337.3 154.01 337.24 154.01 330.62 150.49 330.57"/></g><polyline class="cls-9" points="150.92 527.82 150.92 523.32 157.6 523.32 157.6 519.38"/><polyline class="cls-9" points="158.03 527.1 154.01 527.04 154.01 520 150.49 519.94"/><polyline class="cls-9" points="150.92 548.27 150.92 543.77 157.6 543.77 157.6 539.83"/><polyline class="cls-9" points="158.03 547.55 154.01 547.49 154.01 540.45 150.49 540.4"/><polyline class="cls-9" points="150.92 537.55 150.92 533.31 157.6 533.31 157.6 529.6"/><polyline class="cls-9" points="158.03 536.87 154.01 536.81 154.01 530.19 150.49 530.14"/></g></g><path class="cls-9" d="M110.57,483.65H55.03c-1.89,0-3.42-1.53-3.42-3.42V137.49c0-1.89,1.53-3.42,3.42-3.42h55.55c1.89,0,3.42,1.53,3.42,3.42V480.23c0,1.89-1.54,3.42-3.43,3.42Z"/><g><g><path class="cls-10" d="M43.88,38.96c.55,.47,.42,1.38,.01,1.98-.41,.6-1.02,1.03-1.44,1.62-.51,.72-.67,1.68-.44,2.53s.86,1.59,1.66,1.95c-.23-.88,.69-1.19,1.57-1.42,2.16,2.07-2.13,5.93-3.29,7.58"/><path class="cls-10" d="M43.89,37.89c.41,3.18,9.53,1.69,6.3,6.28-1.85-1.55-3.47,.81-1.46,1.9"/><path class="cls-10" d="M76.56,43.23s-7.36-5.33-16.03-.72c-1.8,1.16-11.65,8.62-12.09,2.07"/><path class="cls-10" d="M40.08,53.83c.02-.85,.04-1.7,.06-2.54,.55-.52,1.44,.07,1.82,.73s.71,1.49,1.46,1.63c.57,.11,1.29-.23,1.67,.21,.36,.41-.03,1.06-.5,1.34s-1.06,.43-1.35,.89c-.31,.48-.17,1.11-.11,1.68s-.04,1.27-.56,1.5c-.52,.23-1.11-.18-1.45-.63-.34-.46-.59-1.02-1.08-1.3-.53-.31-1.19-.21-1.8-.24s-1.33-.31-1.43-.91c-.11-.68,.64-1.18,1.3-1.38,.67-.2,1.45-.36,1.76-.98"/><path class="cls-10" d="M29.08,53.73c-.41,.33-1.09,1.41-1.5,1.09-.59-.46-.36-1.41,.03-2.05,.45-.73,1.07-1.4,1.89-1.68,.81-.27,1.83-.05,2.3,.67,.52,.82,.2,1.88,.15,2.84-.07,1.41,.53,2.84,1.59,3.77s2.55,1.36,3.94,1.12c-1.02,.8-2.23,1.43-3.53,1.51s-2.68-.46-3.37-1.56c-1.11-1.78,.1-3.87-.55-5.73-.17-.56-.63-.25-.95,.02Z"/><path class="cls-10" d="M34.1,61.53c-.85,1.21-2.46,1.84-3.91,1.52s-2.64-1.57-2.9-3.03c-.13-.75-.04-1.52-.11-2.27-.08-.76-.38-1.56-1.06-1.91-1-.52-2.17,.18-3.08,.86-.9,.67-1.8,1.35-2.69,2.02-.18,.14-.37,.28-.48,.47-.36,.6,.2,1.44,.89,1.56,.69,.12,1.38-.28,1.87-.77s.87-1.11,1.38-1.59c.33-.32,.74-.59,1.2-.59,.46-.01,.94,.34,.94,.79,0,1.14-.34,3.47,.17,4.49s1.49,1.8,2.6,2.06c1.5,.35,3.05-.2,4.43-.9,2.66-1.34,5.04-3.25,6.93-5.55"/><path class="cls-10" d="M58.99,50.44c.58,.92,1.17,1.85,1.75,2.77,.11,.18,.24,.36,.44,.42,.39,.11,.69-.34,.87-.71,1.03-2.22,2.66-3.83,4.01-5.77-2.38,.26-5.08,1.98-7.07,3.29Z"/><path class="cls-10" d="M44.29,53.73c.87-1.55,1.74-3.09,2.6-4.64,.21-.37,.44-.76,.83-.93,.43-.18,.92-.04,1.35,.11,1.16,.41,3.6,1.06,4.66,1.68"/><path class="cls-10" d="M59.63,58.28c-.05,.81-1.04,1.32-1.83,1.12-.79-.19-1.37-.87-1.77-1.58-.4-.71-.66-1.5-1.12-2.17-.71-1.03-1.81-1.7-2.74-2.52s-1.8-2.67-1.63-3.9"/><path class="cls-10" d="M58.17,60.01c-1.53,1.01-3.73,.85-5.09-.37-.37-.33-.69-.75-.79-1.24s.06-1.05,.47-1.33c.2-.14,.45-.2,.62-.38,.36-.38,.09-1.06-.38-1.29-.47-.23-1.03-.14-1.53-.02-.51,.12-1.04,.26-1.54,.11-.87-.25-1.54-1.31-2.41-1.05-.65,.2-.85,1.03-.76,1.7s.34,1.34,.18,2c-.11,.46-.42,.85-.7,1.24s-.55,.82-.55,1.3,.37,.98,.85,.95c.48-.03,.77-.53,1-.95s.63-.88,1.1-.76c.33,.08,.52,.42,.71,.71,1.34,2.12,4.2,2.86,6.67,2.43s5.51-2.04,8.14-4.27"/><path class="cls-10" d="M49.62,61.75c-1.53,.92-5.52,4.61-2.13,5.52,.47,.13,1,.48,.91,.95-.07,.41-.55,.6-.96,.65s-.87,.04-1.18,.32c-.37,.34-.34,.91-.4,1.41s-.38,1.1-.87,1.02c-.29-.04-.49-.31-.61-.58-.11-.27-.16-.57-.32-.82-.24-.39-.68-.61-1.11-.77-.43-.15-.89-.27-1.26-.55-.37-.27-.63-.76-.48-1.19,.18-.51,.79-.69,1.32-.78,1.77-.31,1.16-1.07,2.07-2.18,.32-.38,.96-.53,1.3-.18,.16,.17,.21,.38,.22,.61"/><path class="cls-10" d="M51.48,62.14c-1.85,1.38-3.04,2.62-4.62,4.55"/><path class="cls-10" d="M42.48,69.74c-.68,.41-1.14,1.09-1.58,1.74-.44,.66-.89,1.34-1.54,1.78-.66,.44-1.59,.56-2.22,.08-.58-.45-.74-1.26-1.25-1.78-.62-.63-1.65-.68-2.48-.36s-1.49,.94-2.13,1.54c-.47,.44-.96,1.14-.57,1.64,.39,.51,1.23,.18,1.65-.32,.42-.49,.74-1.15,1.36-1.31,.55-.15,1.11,.15,1.54,.53s.78,.84,1.26,1.12c.86,.51,1.98,.36,2.85-.13s1.53-1.26,2.16-2.04c.63-.77,1.25-1.58,2.07-2.14"/><path class="cls-10" d="M40.59,70.86c-.68,.2-1.42-.23-1.79-.84-.37-.6-.46-1.33-.54-2.04-.08-.7-.16-1.43-.53-2.04-.55-.92-1.74-1.39-2.77-1.1-.95,.27-1.64,1.06-2.2,1.87-.22,.31-.43,.65-.48,1.02-.05,.38,.11,.81,.47,.95,.45,.19,.94-.16,1.29-.51,.34-.35,.74-.76,1.23-.71,.38,.04,.68,.35,.83,.69,.16,.34,.21,.73,.31,1.09,.42,1.51,1.8,2.7,3.36,2.89"/></g><g><g><path class="cls-9" d="M79.31,33.03c-1.74,.67-2.77,2.8-2.21,4.58,.57,1.78,2.65,2.92,4.45,2.43,1.8-.49,3.01-2.55,2.56-4.36s-2.99-3.1-4.8-2.65"/><path class="cls-9" d="M82.34,27.32c.46-.96,1.4-.86,1.87-1.81,.15,1.14-1.27,3.49-1.12,4.63,.48-.35,1.54-1.91,2.02-2.26,.02,.92-.54,3.04-.52,3.95,.29-.35,1.21-.67,1.49-1.02,.01,.83-.62,1.63-.61,2.46,.17-.15,1.19-.71,1.36-.86-.67,2.24,.08,4.18-.63,5.94-.71,1.76-2.16,3.38-4.01,3.8-2.11,.48-4.22-.27-4.67-.88"/><path class="cls-9" d="M80.08,29.13c-.23-1.11-.27-1.47-.69-2.51-.43-1.07-.09-2-.57-2.04-.63-.06-1.33,2.94-1.32,3.58,.03,1.71,.42,1.64,.45,3.36-.19-1.14-.97-2.16-2.01-2.66-.38,.32-.28,.94-.05,1.38,.22,.44,.55,.88,.51,1.38s-.73,.91-1.03,.51c-.36-.32-1.26,.1-1.62-.22,.86,.09,1.35,1.07,1.33,1.93s-.39,1.68-.51,2.53c-.29,2.04,1.01,4.2,2.95,4.89"/><path class="cls-9" d="M78.82,36.94c-.08,.94,.74,1.87,1.69,1.9,.95,.04,1.83-.82,1.83-1.76"/><path class="cls-9" d="M79.72,25.61c.41-1.05,.82-2.1,1.24-3.15-.18,.84,.07,1.7,.32,2.52,.24,.82,.49,1.68,.3,2.52s-.95,1.61-1.8,1.48"/></g><path class="cls-9" d="M78.56,42.33c.39-.03,.58,.52,.41,.87-.17,.35-.53,.55-.83,.8s-.56,.64-.43,1c.3,.22,.74,.22,1.04,0,.54,.59,1.33,.95,2.14,.95,.8,.01,1.6-.33,2.15-.92,.17,.24,.53,.33,.8,.2,.27-.13,.42-.46,.34-.75-.09-.32-.41-.52-.71-.66-.3-.14-.64-.27-.83-.54-.19-.27-.13-.75,.2-.83"/></g><g><path class="cls-2" d="M76.47,50.96c-1.17-.08-2.22,.67-3.14,1.41-1.28,1.02-2.53,2.08-3.78,3.14-.56,.47-1.12,.95-1.5,1.57s-.56,1.41-.28,2.08,1.1,1.12,1.77,.84c.42-.18,.73-.6,1.19-.66,.6-.07,1.03,.52,1.46,.94,1.12,1.08,3.06,1.18,4.28,.2,.24-.19,.49-.44,.8-.43,.43,0,.69,.45,.93,.8,1.2,1.76,3.98,2.16,5.63,.81,.44-.36,.84-.84,1.4-.93,1.17-.19,2.03,1.43,3.21,1.3,1.4-.16,1.71-2.54,3.12-2.6,.53-.03,1.02,.32,1.55,.32,.79-.01,1.38-.83,1.41-1.62,.03-.79-.35-1.53-.76-2.21-.87-1.45-1.94-2.83-3.37-3.74-1.43-.91-3.26-1.3-4.85-.71-1.54,.57-2.91,1.83-4.67,1.51-1.61-.31-2.73-1.9-4.4-2.02Z"/><g><path class="cls-2" d="M73.43,54.82c.71-.06,1.51,.52,1.58,1.23,.07,.71-.5,1.43-1.21,1.51s-1.44-.48-1.53-1.19c-.1-.71,.45-1.45,1.16-1.55"/><path class="cls-2" d="M77.25,55.37c.7-.02,1.43,.59,1.46,1.29,.03,.7-.57,1.36-1.27,1.39-.7,.04-1.36-.55-1.41-1.25-.05-.7,.53-1.37,1.22-1.43"/><path class="cls-2" d="M80.98,56.23c.63,.21,1.14,1,.94,1.64s-.94,1.04-1.58,.86-1.06-.92-.9-1.56c.17-.65,.89-1.09,1.54-.94"/><path class="cls-2" d="M84.51,55.3c.71-.07,1.51,.49,1.59,1.2,.08,.71-.48,1.43-1.18,1.52-.71,.09-1.43-.45-1.54-1.16s.42-1.44,1.13-1.56"/><path class="cls-2" d="M88.24,54.18c-.56,.24-.92,.9-.78,1.5,.14,.59,.8,1.02,1.4,.88s.98-.88,.73-1.43c-.29-.65-1.12-.8-1.83-.87"/></g></g><g><path class="cls-8" d="M64.16,72.92c-6.17-.8-9.86,1.95-13.35,4.7s-4.08,4.56-8.04,6.58c-1.73,.89-5.3,2.45-7.39,2.04"/><path class="cls-8" d="M95.81,71.28c6.17-.8,12.23,2.7,15.72,5.46,3.49,2.75,4.08,4.56,8.04,6.58,1.73,.89,5.3,2.45,7.39,2.04"/></g><path class="cls-12" d="M36.43,86.3c1.52,1.72-.15,4.56,6.02,5.53,.28,1.36-.36,1.75,.56,2.79,1.64,1.86,3.61,2.14,5.88,1.86,1.3-.16,3.39-2.11,4.17-3.16,2.48-3.37,4.23-7.04,7.04-10.14s5.3-6.9,9.21-8.39"/><g><path class="cls-1" d="M45.82,42.17c-.41,.05-.68,.56-.5,.93s.73,.48,1.05,.22,.34-.8,.04-1.09c-.29-.29-.82-.28-1.11,.02"/><path class="cls-1" d="M41.52,55c-.41-.21-.98,.26-.85,.7,.13,.45,.85,.54,1.09,.14,.23-.4-.21-.99-.66-.86"/><path class="cls-1" d="M49.31,57.01c-.27-.2-.7-.13-.89,.15s-.08,.71,.22,.86,.72-.03,.8-.36-.22-.69-.55-.66"/><path class="cls-1" d="M44.69,67.41c-.45-.02-.79,.58-.53,.95s.95,.23,1.05-.21c.1-.44-.49-.85-.87-.6"/><path class="cls-1" d="M22.73,71.62c-.41,.18-.62,.72-.43,1.13,.19,.41,.73,.61,1.14,.41,.35-.27,.21-.88-.15-1.14-.37-.26-.84-.26-1.29-.25"/><path class="cls-1" d="M30.82,98.92c-.43-.11-.92,.18-1.03,.61s.2,.92,.64,1,.9-.29,.91-.74c0-.44-.44-.84-.88-.76"/></g><path class="cls-12" d="M125.61,85.66c-1.52,1.72,.15,4.56-6.02,5.53-.28,1.36,.36,1.75-.56,2.79-1.64,1.86-3.61,2.14-5.88,1.86-1.3-.16-3.39-2.11-4.17-3.16-2.48-3.37-4.23-7.04-7.04-10.14s-6.3-5.5-10.11-9.14"/><g><path class="cls-8" d="M83.36,79.54c-1.26-1.46-4.28-3.63-7.35-2.43-1.8,.7-2.18,1.54-3.77,2.64-2.27,1.58-4.22,1.3-5.93,2.81-1.97,1.75-3.4,4.9-5.16,6.86-1.59,1.77-3.74,5.26-5.2,7.14-1.21,1.57-2.97,2.56-2.21,4.39,.54,1.3,1.91,2.91,3.31,2.99,1.4,.08,4.13-.15,5.47-.59,.97,1.35,1.75,3.31,3.48,4.2,1.48,.76,2.3,1.48,3.96,1.45,1.3-.02,4.76-1.89,6.06-1.98,3.27-.23,2.33,2.97,5.94,2.62"/><path class="cls-8" d="M82.14,79.59c1.26-1.46,2.89-3.39,5.96-2.18,1.8,.7,2.18,1.54,3.77,2.64,2.27,1.58,4.22,1.3,5.93,2.81,1.97,1.75,3.4,4.9,5.16,6.86,1.59,1.77,3.74,5.26,5.2,7.14,1.21,1.57,2.97,2.56,2.21,4.39-.54,1.3-1.91,2.91-3.31,2.99-1.4,.08-5.29-.58-6.62-1.02-.97,1.35-1.96,3.16-3.69,4.05-1.48,.76-2.08,.89-3.74,.85-1.3-.02-3.55-1.88-4.84-1.97-3.27-.23-4.47,4.62-7.41,3.15"/></g><g><path class="cls-11" d="M81.49,49.22c-2.67,.37-3-1.74-4.68-1.66-1.35,.06-2.58,.74-3.71,1.49-3.21,2.13-5.97,4.96-8.02,8.22-.6,.95-1.15,2.08-.82,3.15,.31,1.01,1.36,1.64,2.4,1.79s2.1-.11,3.12-.35c.69,1.26,1.94,2.19,3.34,2.49,1.4,.3,2.93-.05,4.07-.92,1.29,1.62,3.37,2.59,5.45,2.53"/><g><path class="cls-11" d="M53.74,49.95s1.44,.16,2.84-.65c1.39-.81,2.57-1.95,3.89-2.88,4.2-2.94,9.96-3.5,14.65-1.41-1.33-.41-3.78,.59-4.73,1.6-2.9,3.07-5.81,6.14-8.71,9.2-.46,.48-.93,.98-1.54,1.24-.61,.26-1.4,.22-1.85-.28-.65-.72-.24-1.9-.64-2.79-.44-.98-.26-1.5-1.28-1.83-1.03-.33-2.63-2.2-2.63-2.2Z"/><path class="cls-11" d="M80.88,49.22c2.67,.37,3-1.74,4.68-1.66,1.35,.06,2.58,.74,3.71,1.49,3.21,2.13,5.97,4.96,8.02,8.22,.6,.95,1.15,2.08,.82,3.15-.31,1.01-1.36,1.64-2.4,1.79s-2.1-.11-3.12-.35c-.69,1.26-1.94,2.19-3.34,2.49s-2.47,.26-3.6-.61c-1.29,1.62-2.31,2.28-4.39,2.22"/><path class="cls-11" d="M108.44,49.64s-1.44,.16-2.84-.65c-1.39-.81-2.57-1.95-3.89-2.88-4.2-2.94-9.96-3.5-14.65-1.41,1.33-.41,3.78,.59,4.73,1.6,2.9,3.07,5.81,6.14,8.71,9.2,.46,.48,.93,.98,1.54,1.24,.61,.26,1.4,.22,1.85-.28,.65-.72,.24-1.9,.64-2.79,.44-.98,.26-1.5,1.28-1.83,1.03-.33,2.63-2.2,2.63-2.2Z"/></g></g><g><path class="cls-2" d="M103.14,49.26c-.58,.76-1.17,1.52-1.75,2.28-.11,.14-.24,.3-.44,.35-.39,.09-.69-.28-.87-.58-1.03-1.82-2.66-3.15-4.01-4.75,2.38,.2,5.08,1.62,7.07,2.7Z"/><g><path class="cls-2" d="M118.3,38.65c-.55,.47-.42,1.38,0,1.98,.41,.6,1.02,1.03,1.44,1.62,.51,.72,.67,1.68,.44,2.53s-.86,1.59-1.66,1.95c.23-.88-.69-1.19-1.57-1.42-2.16,2.07,2.13,5.93,3.29,7.58"/><path class="cls-2" d="M118.29,37.58c-.41,3.18-9.53,1.69-6.3,6.28,1.85-1.55,3.47,.81,1.46,1.9"/><path class="cls-2" d="M85.63,42.91s7.36-5.33,16.03-.72c1.8,1.16,11.65,8.62,12.09,2.07"/><path class="cls-2" d="M122.1,53.52c-.02-.85-.04-1.7-.06-2.54-.55-.52-1.44,.07-1.82,.73-.38,.65-.71,1.49-1.46,1.63-.57,.11-1.29-.23-1.67,.21-.36,.41,.03,1.06,.5,1.34s1.06,.43,1.35,.89c.31,.48,.17,1.11,.11,1.68s.04,1.27,.56,1.5,1.11-.18,1.45-.63c.34-.46,.59-1.02,1.08-1.3,.53-.31,1.19-.21,1.8-.24s1.33-.31,1.43-.91c.11-.68-.64-1.18-1.3-1.38s-1.45-.36-1.76-.98"/><path class="cls-2" d="M133.1,53.41c.41,.33,1.09,1.41,1.5,1.09,.59-.46,.36-1.41-.03-2.05-.45-.73-1.07-1.4-1.89-1.68-.81-.27-1.83-.05-2.3,.67-.52,.82-.2,1.88-.15,2.84,.07,1.41-.53,2.84-1.59,3.77s-2.55,1.36-3.94,1.12c1.02,.8,2.23,1.43,3.53,1.51s2.68-.46,3.37-1.56c1.11-1.78-.1-3.87,.55-5.73,.17-.55,.63-.24,.95,.02Z"/><path class="cls-2" d="M128.08,61.22c.85,1.21,2.46,1.84,3.91,1.52s2.64-1.57,2.9-3.03c.13-.75,.04-1.52,.11-2.27,.08-.76,.38-1.56,1.06-1.91,1-.52,2.17,.18,3.08,.86,.9,.67,1.8,1.35,2.69,2.02,.18,.14,.37,.28,.48,.47,.36,.6-.2,1.44-.89,1.56-.69,.12-1.38-.28-1.87-.77-.5-.5-.87-1.11-1.38-1.59-.33-.32-.74-.59-1.2-.59-.46-.01-.94,.34-.94,.79,0,1.14,.34,3.47-.17,4.49s-1.49,1.8-2.6,2.06c-1.5,.35-3.05-.2-4.43-.9-2.66-1.34-5.04-3.25-6.93-5.55"/><path class="cls-2" d="M117.89,53.41c-.87-1.55-1.74-3.09-2.6-4.64-.21-.37-.44-.76-.83-.93-.43-.18-.92-.04-1.35,.11-1.16,.41-3.6,1.06-4.66,1.68"/><path class="cls-2" d="M102.55,57.97c.05,.81,1.04,1.32,1.83,1.12,.79-.19,1.37-.87,1.77-1.58s.66-1.5,1.12-2.17c.71-1.03,1.81-1.7,2.74-2.52s1.8-2.67,1.63-3.9"/><path class="cls-2" d="M104.01,59.7c1.53,1.01,3.73,.85,5.09-.37,.37-.33,.69-.75,.79-1.24,.1-.49-.06-1.05-.47-1.33-.2-.14-.45-.2-.62-.38-.36-.38-.09-1.06,.38-1.29s1.03-.14,1.53-.02c.51,.12,1.04,.26,1.54,.11,.87-.25,1.54-1.31,2.41-1.05,.65,.2,.85,1.03,.76,1.7-.09,.67-.34,1.34-.18,2,.11,.46,.42,.85,.7,1.24s.55,.82,.55,1.3-.37,.98-.85,.95c-.48-.03-.77-.53-1-.95s-.63-.88-1.1-.76c-.33,.08-.52,.42-.71,.71-1.34,2.12-4.2,2.86-6.67,2.43-2.47-.44-5.51-2.04-8.14-4.27"/><path class="cls-2" d="M112.56,61.44c1.53,.92,5.52,4.61,2.13,5.52-.47,.13-1,.48-.91,.95,.07,.41,.55,.6,.96,.65s.87,.04,1.18,.32c.37,.34,.34,.91,.4,1.41s.38,1.1,.87,1.02c.29-.04,.49-.31,.61-.58,.11-.27,.16-.57,.32-.82,.24-.39,.68-.61,1.11-.77,.43-.15,.89-.27,1.26-.55,.37-.27,.63-.76,.48-1.19-.18-.51-.79-.69-1.32-.78-1.77-.31-1.16-1.07-2.07-2.18-.32-.38-.96-.53-1.3-.18-.16,.17-.21,.38-.22,.61"/><path class="cls-2" d="M110.7,61.83c1.85,1.38,3.04,2.62,4.62,4.55"/><path class="cls-2" d="M119.7,69.43c.68,.41,1.14,1.09,1.58,1.74,.44,.66,.89,1.34,1.54,1.78,.66,.44,1.59,.56,2.22,.08,.58-.45,.74-1.26,1.25-1.78,.62-.63,1.65-.68,2.48-.36s1.49,.94,2.13,1.54c.47,.44,.96,1.14,.57,1.64-.39,.51-1.23,.18-1.65-.32-.42-.49-.74-1.15-1.36-1.31-.55-.15-1.11,.15-1.54,.53-.42,.37-.78,.84-1.26,1.12-.86,.51-1.98,.36-2.85-.13s-1.53-1.26-2.16-2.04c-.63-.77-1.25-1.58-2.07-2.14"/><path class="cls-2" d="M121.59,70.55c.68,.2,1.42-.23,1.79-.84,.37-.6,.46-1.33,.54-2.04s.16-1.43,.53-2.04c.55-.92,1.74-1.39,2.77-1.1,.95,.27,1.64,1.06,2.2,1.87,.22,.31,.43,.65,.48,1.02s-.11,.81-.47,.95c-.45,.19-.94-.16-1.29-.51s-.74-.76-1.23-.71c-.38,.04-.68,.35-.83,.69-.16,.34-.21,.73-.31,1.09-.42,1.51-1.8,2.7-3.36,2.89"/></g></g><g><path class="cls-1" d="M132.63,96.94c.43-.11,.92,.18,1.03,.61s-.2,.92-.64,1-.9-.29-.91-.74c0-.44,.44-.84,.88-.76"/><g><path class="cls-1" d="M117.33,67.31c-.32-.02-.56,.43-.37,.71,.18,.27,.67,.17,.74-.16s-.35-.64-.61-.45"/><path class="cls-1" d="M139.32,70.98c.41,.18,.62,.72,.43,1.13s-.73,.61-1.14,.41c-.35-.27-.21-.88,.15-1.14,.37-.26,.84-.26,1.29-.25"/><path class="cls-1" d="M116.36,41.86c.41,.05,.68,.56,.5,.93s-.73,.48-1.05,.22-.34-.8-.04-1.09c.29-.29,.82-.28,1.11,.02"/><path class="cls-1" d="M120.67,54.68c.41-.21,.98,.26,.85,.7-.13,.45-.85,.54-1.09,.14-.23-.4,.21-.99,.66-.86"/><path class="cls-1" d="M112.87,56.7c.27-.2,.7-.13,.89,.15s.08,.71-.22,.86-.72-.03-.8-.36,.22-.69,.55-.66"/></g></g><path class="cls-7" d="M102.68,66.71c-.42-.41-.99-.61-1.55-.8,1.48-1.42,1.44-4.12-.09-5.5l-.21-.15c-1.17,2.61-4.19,4.26-7.02,3.83-1.06,1.64-1.48,2.4-3.36,2.91-.68,.18-2.93,.21-3.61,0-.68-.21-1.01-.23-1.09-.93-1.28,1.26-3.08,1.96-4.87,1.88-1.79-.07-3.53-.92-4.69-2.28-2.24,1.37-5.49,.7-7-1.45,.03,.04-2.54,.23-2.81,.19-1.05-.16-1.9-.59-2.82-1.08-.65-.35-2.24,.03-2.03,.91,.55,2.25,.28,1.46,.36,1.73,.6,1.97-1.03,1.2-1.67,1.6-1.86,1.17-.59,1.65-.59,1.65,1.05,.7,1.32,.8,2.37,1.5,1.51,1,3.02,2.01,4.67,2.76,2.45,1.12,7.2,1.17,9.89,1.35,9.44,.65,16.55-2.34,25.37-5.77,.43-.17,.88-.36,1.11-.76,.29-.51,.06-1.18-.36-1.59Zm-3.03-2.77c.3-.5,.9-1.32,1.48-1.42,.27,.65,.08,1.49-.24,2.09-.06,.12-1.4,1.64-1.52,1.35-.26-.66-.09-1.42,.28-2.02Zm-25.84,3.64c1.28,.26,2.28,1.55,2.2,2.86-1.27-.4-2.23-1.63-2.32-2.95l.12,.09Zm-1.19,.33c.37,.5,.62,1.08,.87,1.65,.14,.32,.24,.77-.06,.94-.3,.18-.64-.13-.85-.41-.47-.63-.94-1.26-1.41-1.89-1.15-1.55,.68-1.34,1.45-.29Zm-3.58-1.68l.03,.23c1.14,.67,1.83,2.05,1.68,3.37-1.4-.48-2.22-2.21-1.71-3.6Zm-2.39,.26c.07-.22,.33-.4,.54-.3l-.02-.05c.43,.59,.75,1.28,.92,2,.06,.28,.03,.68-.26,.71-.19,.02-.33-.15-.43-.31-.27-.43-.5-.89-.67-1.37-.08-.22-.15-.46-.08-.68Zm-2.24-.69c.07-.18,.13-.36,.2-.54,.16,0,.33,.01,.49,.01,.28,.75,.56,1.5,.83,2.25,.08,.22,.13,.52-.07,.63-.17,.1-.37-.02-.52-.15-.76-.68-1.16-1.74-1.04-2.75l.11,.55Zm-2.43,.01c-.26-.58-.15-1.31,.27-1.8l-.26,.3c0-.12,.01-.24,.01-.36,.13,.01,.26,.03,.39,.04,.67,.79,1.06,1.81,1.1,2.84-.64-.02-1.25-.44-1.51-1.02Zm-1.09,3.22c-.35,0-.8-.12-.8-.47,0-.39,.54-.44,.9-.66-.01,0-.02,0-.04,.01l.28-.26c-.05,.11-.14,.19-.24,.25,.53-.2,1.1-.32,1.66-.34,.44-.01,1.01,.16,1,.59,0,.38-.44,.58-.81,.66-.64,.14-1.29,.22-1.95,.22Zm4.45,1.48c-.75,.14-1.53,.08-2.25-.19h.13c.46-.75,1.31-1.23,2.18-1.24,.35,0,.77,.12,.88,.45,.08,.25-.04,.52-.23,.69-.2,.17-.46,.24-.71,.29Zm1.77,1.76c-.28,.1-.61,.2-.84,.02-.2-.15-.23-.45-.14-.69,.09-.24,.28-.42,.46-.59,.29-.27,.59-.55,.96-.67,.33-.11,.74-.05,.98,.2h.13c.11,.41-.1,.86-.42,1.14-.32,.29-.73,.44-1.13,.59Zm2.19,1.52c-.36,.07-.83-.03-.93-.39-.11-.37,.25-.71,.6-.88,.35-.17,.76-.32,.9-.68-.03,.03-.06,.07-.09,.1l.02-.36c.02,.08,.05,.17,.07,.26h0c.23-.25,.48-.49,.8-.59,.37-.1,.84,.08,.9,.46,.05,.3-.18,.57-.4,.8-.53,.55-1.12,1.14-1.87,1.28Zm4-.26c-.26,.25-.56,.47-.92,.51-.36,.04-.76-.16-.84-.51-.06-.25,.06-.52,.22-.73,.37-.48,.97-.77,1.58-.81h.28c-.09-.02-.19,0-.28,0,.32,.04,.52,.41,.47,.73-.05,.32-.27,.59-.51,.81Zm2.91-.68c-.37,.39-.8,.72-1.27,.98-.25,.14-.6,.25-.79,.04-.25-.27,.06-.7,.38-.89,.32-.18,.73-.39,.73-.76l-.07,.4c.13-.26,.27-.54,.52-.7,.25-.16,.64-.12,.77,.14,.13,.27-.07,.57-.27,.79Zm.4-5.06h.14c.95,.35,1.76,1.07,2.2,1.98,.09,.19,.17,.41,.11,.61-.14,.43-.76,.44-1.17,.24-1.01-.49-1.58-1.75-1.28-2.83Zm2.48,4.84c-.25,.84-.94,1.53-1.78,1.77-.18,.05-.4,.08-.55-.04-.27-.21-.09-.64,.13-.9,.52-.64,1.17-1.17,1.88-1.57,0,0-.01,0-.02,0l-.16,.08c.04-.05,.1-.07,.16-.08l.08-.04s-.04,.03-.06,.04c.12,0,.24,.06,.31,.16,.1,.18,.07,.39,.01,.58Zm1.64-2.22v.25c.16-1.1,.91-2.09,1.92-2.55,.14,.9-.17,1.87-.8,2.53-.2,.2-.46,.39-.74,.37-.28-.02-.54-.36-.38-.6Zm2.09,3.58c-.26,.04-.53-.07-.76-.21-.54-.34-.95-.91-1.08-1.54l-.12-.03c.73-.02,1.47,.21,2.07,.64,.21,.15,.41,.35,.41,.61s-.25,.49-.52,.53Zm.43-3.27c-.19-.21-.15-.54,0-.77,.12-.18,.3-.31,.48-.43,.24-.89,1.15-1.54,2.07-1.48,.18,1.16-.56,2.39-1.67,2.78-.29,.1-.67,.13-.88-.1Zm2.59,2.74c-.2,.12-.45,.03-.65-.08-.5-.29-.89-.75-1.09-1.29l.09,.03c.11-.28,.49-.38,.77-.28,.28,.1,.5,.33,.7,.56,.14,.15,.28,.32,.34,.51s.01,.44-.16,.55Zm.36-2.08c0-.68,.3-1.36,.8-1.82,.51-.46,1.21-.7,1.89-.63v.21c.06,.68-.24,1.38-.76,1.82-.52,.44-1.27,.6-1.93,.42Zm3.01,.91c-.27,.15-.6,.14-.91,.1-.26-.04-.53-.1-.7-.3-.17-.2-.15-.56,.09-.66l.06-.04c.57-.19,1.2-.15,1.74,.11,.16,.27-.01,.64-.28,.79Zm3.1-5.66l-.19,.03c.09-.18,.39-.12,.48,.05,.1,.17,.05,.38-.02,.57-.43,1.18-1.54,2.08-2.78,2.26,.13-1.36,1.19-2.58,2.51-2.91Zm.64,5c-.2,.41-.81,.32-1.24,.16-.29-.11-.58-.22-.79-.44-.17-.18-.26-.46-.19-.69-.01,.02-.03,.04-.04,.07l.1-.21s-.04,.09-.06,.14c.12-.21,.38-.33,.64-.33,.28,0,.54,.12,.8,.23,.23,.1,.46,.21,.63,.39s.26,.46,.15,.68Zm2.32-6.79l.16,.06c.33,.7,.27,1.57-.15,2.22-.42,.65-1.19,1.06-1.96,1.05,.25-1.29,.95-2.48,1.95-3.33Zm.02,6.15c-.31,.09-.64,.01-.94-.09-.3-.1-.59-.24-.8-.47-.21-.23-.3-.59-.15-.87,.15-.28,.57-.39,.79-.16l-.09-.25c.18,.31,.58,.4,.92,.5,.35,.1,.73,.29,.79,.64,.05,.31-.21,.61-.52,.7Zm1.13-3.68c-.06-.24-.01-.49,.05-.73,.15-.64,.76-2.68,1.73-1.92,.83,.64-.34,2.2-.76,2.74-.13,.16-.29,.33-.5,.35-.24,.02-.46-.2-.52-.44Zm.69,2.21c-.33-.24-.61-.67-.42-1.03,.18-.36,.69-.38,1.08-.28,.73,.19,1.39,.65,1.82,1.27l.1,.1c-.76,.5-1.84,.47-2.58-.06Zm4.37-.95c-.26,.1-.54,.09-.82,.07-.41-.02-.85-.06-1.17-.31-.27-.21-.38-.64-.22-.92-.08,.04-.17,.07-.24,.12l.33-.26s-.06,.09-.09,.14c.64-.33,1.41-.39,2.08-.12,.29,.12,.59,.35,.6,.66,.02,.28-.21,.52-.47,.62Z"/><path class="cls-5" d="M24.5,81.34c-.92,0-1.64-.84-1.94-1.72s-.31-1.82-.57-2.7c-.27-.88-.91-1.76-1.83-1.85-.41-.04-.82,.08-1.23,.02-.83-.12-1.4-1.03-1.3-1.86,.1-.83,.75-1.53,1.52-1.86,.57-.25,1.25-.35,1.69-.79,.49-.48,.55-1.23,.77-1.88,.21-.65,.78-1.33,1.45-1.17,.83,.2,.85,1.35,1.2,2.13,.37,.82,1.23,1.29,2.04,1.69s1.67,.85,2.07,1.66c.4,.81,0,2.04-.91,2.09-.43,.02-.83-.23-1.27-.26-1.01-.08-1.75,1.09-1.63,2.09s.8,1.84,1.45,2.61"/><path class="cls-5" d="M59.63,70.22c-4.56,.05-7.54,2.3-10.46,4.59-2.92,2.28-5.69,5.1-8.88,6.97-3.2,1.88-6.48,2.51-10.54,.72-.96-.42-2.04-.78-2.58-1.68"/><path class="cls-5" d="M26.82,83.18c2.36,1.93,5.51,2.87,8.55,2.55"/><path class="cls-5" d="M35.09,102.13c-.63-.41-1.27-.84-1.69-1.47-.41-.63-.53-1.51-.08-2.11,.42-.55,1.25-.81,1.39-1.48,.12-.54-.33-1.08-.87-1.2-.54-.12-1.1,.11-1.52,.46-.45,.38-.87,.95-1.46,.9-.77-.06-1.19-1.16-1.96-1.11-.58,.04-.89,.72-.92,1.31s.08,1.21-.21,1.71c-.22,.38-.61,.61-.93,.91-.39,.36-.67,.88-.63,1.4,.04,.53,.47,1.04,1.01,1.04s.97-.5,1.48-.73c1-.46,2.15,.15,3.02,.82,.87,.67,1.83,1.45,2.92,1.34"/><path class="cls-5" d="M137.55,80.69c.92,0,1.64-.84,1.94-1.72,.3-.87,.31-1.82,.57-2.7,.27-.88,.91-1.76,1.83-1.85,.41-.04,.82,.08,1.23,.02,.83-.12,1.4-1.03,1.3-1.86-.1-.83-.75-1.53-1.52-1.86-.57-.25-1.25-.35-1.69-.79-.49-.48-.55-1.23-.77-1.88s-.78-1.33-1.45-1.17c-.83,.2-.85,1.35-1.2,2.13-.37,.82-1.23,1.29-2.04,1.69s-1.67,.85-2.07,1.66c-.4,.81,0,2.04,.91,2.09,.43,.02,.83-.23,1.27-.26,1.01-.08,1.75,1.09,1.63,2.09s-.8,1.84-1.45,2.61"/><path class="cls-5" d="M102.42,69.58c4.56,.05,7.54,2.3,10.46,4.59s5.69,5.1,8.88,6.97c3.2,1.88,6.48,2.51,10.54,.72,.96-.42,2.04-.78,2.58-1.68"/><path class="cls-5" d="M135.22,82.54c-2.36,1.93-5.51,2.87-8.55,2.55"/><path class="cls-5" d="M51.94,95.64c.11-.05-1.34,1.56-1.35,1.68s-.65,.44-.74,.53c-1.36,1.37-2.8,2.68-4.44,3.7-1.64,1.02-3.51,1.73-5.43,1.8-1.51,.06-3-.27-4.47-.6"/><path class="cls-5" d="M36.96,105.49c4.68,.35,9.48-1.36,12.9-4.58"/><path class="cls-5" d="M130.36,102.97c.62-.07,1.09-.6,1.42-1.14,.33-.53,.63-1.13,1.16-1.46,.69-.42,1.6-.28,2.29,.14,.69,.42,1.19,1.07,1.68,1.71,.6-1.06,.49-2.49-.28-3.44-.24-.3-.56-.59-.6-.98-.07-.65,.65-1.13,.75-1.78,.1-.66-.54-1.25-1.2-1.34s-1.32,.19-1.9,.51c-.59,.32-1.17,.68-1.83,.79-.67,.11-1.36-.06-2.03,.03s-1.39,.6-1.32,1.28c.07,.62,.74,.96,1.16,1.43,.56,.62,.69,1.6,.3,2.34-.39,.74-1.27,1.19-2.1,1.07,.09,.1,.18,.2,.26,.3"/><g><g><path class="cls-9" d="M26.56,79.38c-.64,.28-1.27,.7-1.56,1.34s-.08,1.54,.57,1.79c.74,.29,1.59-.45,1.62-1.25s-.52-1.51-1.18-1.96"/><path class="cls-9" d="M25.49,100.21c-.04-.45-.24-.91-.63-1.13-.5-.29-1.24-.03-1.45,.51s.15,1.23,.72,1.36,1.19-.33,1.23-.91"/><path class="cls-9" d="M25.43,97.79c.09,.62-.56,1.22-1.17,1.07s-.92-.98-.56-1.49c.36-.5,1.35-.88,1.73,.42"/><path class="cls-9" d="M24.41,95.11c.5,.19,.94,.3,.64,1.38-.14,.51-1.12,.27-1.34-.21-.22-.49,.17-1.14,.7-1.17"/><path class="cls-9" d="M25.24,88.32c-.45,0-.91,.24-1.12,.64s-.14,.95,.22,1.23c.35,.28,.96,.2,1.18-.2,.15-.27,.11-.62-.04-.89-.14-.28-.38-.49-.61-.7"/><path class="cls-9" d="M25.37,84.41c-.4-.36-1.11-.26-1.4,.19-.29,.45-.06,1.15,.44,1.33,.5,.19,1.13-.2,1.18-.74,.05-.53-.52-1.03-1.04-.9"/><path class="cls-9" d="M24.57,90.31c-.57-.14-1.21,.29-1.29,.87s.45,1.16,1.03,1.14c.58-.02,1.06-.66,.91-1.22s-.9-.87-1.4-.57"/><path class="cls-9" d="M24.5,86.25c-.56,.01-1.02,.63-.87,1.17s.86,.84,1.35,.56,.61-1.03,.22-1.44c-.28-.29-.75-.37-1.12-.2"/><path class="cls-9" d="M24.41,92.57c-.55-.03-1.08,.46-1.09,1.01s.51,1.06,1.06,1.03c.55-.03,1.01-.6,.93-1.14-.09-.55-.71-.94-1.24-.78"/><path class="cls-9" d="M25.33,82.48c-.42,.04-.77,.46-.71,.88s.51,.74,.93,.64c.41-.1,.67-.61,.49-1-.18-.38-.74-.52-1.07-.25"/></g><g><path class="cls-9" d="M135.49,78.74c.64,.28,1.27,.7,1.56,1.34s.08,1.54-.57,1.79c-.74,.29-1.59-.45-1.62-1.25s.52-1.51,1.18-1.96"/><path class="cls-9" d="M136.56,99.56c.04-.45,.24-.91,.63-1.13,.5-.29,1.24-.03,1.45,.51s-.15,1.23-.72,1.36-1.19-.33-1.23-.91"/><path class="cls-9" d="M136.61,97.15c-.09,.62,.56,1.22,1.17,1.07s.92-.98,.56-1.49c-.36-.5-1.35-.89-1.73,.42"/><path class="cls-9" d="M137.63,94.46c-.5,.19-.94,.3-.64,1.38,.14,.51,1.12,.27,1.34-.21,.23-.49-.17-1.14-.7-1.17"/><path class="cls-9" d="M136.8,87.68c.45,0,.91,.24,1.12,.64,.21,.4,.14,.95-.22,1.23-.35,.28-.96,.2-1.18-.2-.15-.27-.11-.62,.04-.89,.14-.28,.38-.49,.61-.7"/><path class="cls-9" d="M136.68,83.77c.4-.36,1.11-.26,1.4,.19,.29,.45,.06,1.15-.44,1.33s-1.13-.2-1.18-.74c-.05-.53,.52-1.03,1.04-.9"/><path class="cls-9" d="M137.48,89.66c.57-.14,1.21,.29,1.29,.87,.08,.58-.45,1.16-1.03,1.14-.58-.02-1.06-.66-.91-1.22s.9-.87,1.4-.57"/><path class="cls-9" d="M137.55,85.6c.56,.01,1.02,.63,.87,1.17-.15,.54-.86,.84-1.35,.56-.49-.27-.61-1.03-.22-1.44,.28-.29,.75-.37,1.12-.2"/><path class="cls-9" d="M137.63,91.93c.55-.03,1.08,.46,1.09,1.01s-.51,1.06-1.06,1.03-1.01-.6-.93-1.14c.09-.55,.71-.94,1.24-.78"/><path class="cls-9" d="M136.71,81.83c.42,.04,.77,.46,.71,.88s-.51,.74-.93,.64c-.41-.1-.67-.61-.49-1s.74-.52,1.07-.25"/></g><g><path class="cls-9" d="M37.24,103.57c-.25-.28-.52-.54-.86-.69-.34-.14-.77-.14-1.06,.09-.45,.35-.39,1.11,.02,1.51,.25,.24,.6,.39,.94,.34s.66-.3,.74-.64-.1-.73-.42-.85"/><path class="cls-9" d="M35.71,105.35c-.55-.02-1.11,.34-1.27,.87s.15,1.17,.68,1.32c.53,.15,1.16-.29,1.14-.84,0-.54-.53-.92-.99-1.2"/><path class="cls-9" d="M35.51,110.48c.47-.14,1.01,.22,1.09,.7s-.29,.99-.77,1.07c-1.06,.18-1.49-1.18-.83-1.86,.49-.5,1.56-.49,1.46-1.47-.06-.59-.8-1-1.32-.72"/><path class="cls-9" d="M34.98,107.99c-.42,.19-.69,.67-.63,1.13s.45,.86,.9,.93"/><path class="cls-9" d="M34.59,115.92c-.34,.51-.27,1.22,.09,1.71,.24,.32,.62,.56,1.01,.55,.5-.02,.92-.43,1.1-.9,.14-.35,.17-.75,.04-1.1-.35-.95-1.67-1.12-2.24-.26Z"/><path class="cls-9" d="M35.19,121.53c.36,.07,.78,0,1.02-.3,.22-.27,.23-.65,.23-1-.02-1.15-.75-2.31-1.86-1.26-.86,.8-.64,2.3,.61,2.56Z"/><path class="cls-9" d="M34.58,113.74c-.06,.55,.33,1.11,.86,1.25s1.14-.15,1.38-.65c.78-1.69-2.03-2.37-2.24-.6Z"/></g><g><path class="cls-9" d="M109.95,98.19c3.6,.67,6.87,2.7,9.75,4.97,4.15,3.27,6.48,.87,8.87,.82"/><g><path class="cls-9" d="M130.46,103.07c-.25-.28-.52-.54-.86-.69-.34-.14-.77-.14-1.06,.09-.45,.35-.39,1.11,.02,1.51,.25,.24,.6,.39,.94,.34s.66-.3,.74-.64-.1-.73-.42-.85"/><path class="cls-9" d="M128.86,104.56c-1.82,.44-.69,1.9-.16,2.05,.53,.15,1.16-.29,1.14-.84,0-.54-.52-.92-.98-1.21"/><path class="cls-9" d="M129.09,109.56c.47-.14,1.01,.22,1.09,.7s-.29,.99-.77,1.07c-1.06,.18-1.49-1.18-.83-1.86,.49-.5,1.56-.49,1.46-1.47-.06-.59-.8-1-1.32-.72"/><path class="cls-9" d="M128.56,107.06c-.42,.19-.69,.67-.63,1.13s.45,.86,.9,.93"/><path class="cls-9" d="M128.18,115c-.34,.51-.27,1.22,.09,1.71,.24,.32,.62,.56,1.01,.55,.5-.02,.92-.43,1.1-.9,.14-.35,.17-.75,.04-1.1-.36-.96-1.68-1.12-2.24-.26Z"/><path class="cls-9" d="M129.29,120.6c.36,.07,.78,0,1.02-.3,.22-.27,.23-.65,.23-1-.02-1.15-.75-2.31-1.86-1.26-.85,.8-.64,2.31,.61,2.56Z"/><path class="cls-9" d="M128.16,112.81c-.06,.55,.33,1.11,.86,1.25s1.14-.15,1.38-.65c.79-1.68-2.03-2.37-2.24-.6Z"/></g></g></g><path class="cls-5" d="M118.3,100.45c2.5,1.73,5.65,2.49,8.67,2.09"/><g><path class="cls-6" d="M34.16,85.81c-.63,.65-.78,1.67-.53,2.53,.25,.87,.85,1.6,1.55,2.17s1.5,1,2.28,1.45c.49,.28,.99,.59,1.33,1.04,.38,.52,.51,1.18,.71,1.8,.48,1.5,1.45,2.84,2.72,3.77s2.85,1.44,4.43,1.43"/><path class="cls-6" d="M33.21,87.07c-1.13,2.57-.9,5.7,.6,8.08,.33,.53,.76,1.05,1.35,1.27,.76,.28,1.69,.01,2.38,.44,.58,.37,.78,1.11,.86,1.79s.09,1.4,.45,1.99c.2,.32,.48,.57,.74,.85,.26,.28,.49,.6,.53,.97,.05,.37-.16,.8-.52,.89"/><path class="cls-6" d="M34.52,89.43c-.49,1.76-.64,3.62-.42,5.43"/><path class="cls-6" d="M35.65,91.3c-.17,.29-.67,4.37-.49,4.67"/><path class="cls-6" d="M38.02,96.8c.02-1.3,.04-2.6,.05-3.91-.02,1.59-.01,2.33-.05,3.91Z"/><path class="cls-6" d="M39.2,95.55c-.41,.82-.6,1.74-.56,2.65"/><path class="cls-6" d="M40.61,97.79c-.46,.96-.75,2-.87,3.06"/><path class="cls-6" d="M42.9,99.02c-.27,1-.34,2.06-.19,3.09"/><path class="cls-6" d="M44.61,99.73c-.04,.65-.09,1.3-.13,1.95"/><path class="cls-6" d="M37.08,92.05c-.5,1.53-.69,3.15-.56,4.76"/><path class="cls-6" d="M41.86,98.2c-.14,1.72-.27,3.44-.41,5.16"/><path class="cls-6" d="M115.33,99.58c-1.69,2.05-3.42,4.14-5.67,5.57s-5.12,2.14-7.6,1.18c-2.94,4.2-8.68,6.22-13.6,4.77-4.06,2.79-9.95,2.53-13.75-.6-2.99,2.23-7.55,2.03-10.33-.46-1.29-1.16-2.27-2.76-3.87-3.43-1.3-.54-2.77-.37-4.17-.54-2.14-.25-4.15-1.39-5.53-3.04-.97-1.16-1.31-1.51-.4-2.55,.81-.92,2.06-1.62,2.96-2.49"/><path class="cls-6" d="M120.25,104.04l-1.38,1.2c-1.16-.12-2.26,.56-3.05,1.41-.79,.85-1.37,1.88-2.12,2.77-2.47,2.93-6.92,3.99-10.45,2.5-.91,2.38-2.94,4.3-5.37,5.09s-5.19,.42-7.33-.97c-1.97,1.44-3.99,2.88-6.31,3.64s-5,.76-7.05-.56c-.76-.49-1.42-1.15-2.25-1.49-1.59-.65-3.38,0-5.09,.2-2.59,.29-5.28-.56-7.23-2.28-1.21-1.07-2.28-2.52-3.87-2.76-1.09-.16-2.17,.3-3.27,.33-2.39,.06-4.32-1.89-5.67-3.86s-2.54-4.22-4.63-5.36"/><path class="cls-6" d="M48.69,103.78c-.28,.95-.38,1.95-.28,2.93"/><path class="cls-6" d="M50.09,102.1c-.48,1.8-.88,3.79-1.03,6.02"/><path class="cls-6" d="M51.34,103.64c-.14,2.41-.16,4.84-.06,7.25"/><path class="cls-6" d="M52.83,105.5c.03,2.33-.07,4.66-.3,6.97"/><path class="cls-6" d="M53.98,106.15c.32,2.25,.35,4.53,.09,6.79"/><path class="cls-6" d="M55.55,106.53c.46,2.21,.45,4.52-.05,6.72"/><path class="cls-6" d="M57.09,106.15c-.01,2.36-.03,4.71-.04,7.07"/><path class="cls-6" d="M58.68,106.43c-.16,2.17-.31,4.34-.47,6.51"/><path class="cls-6" d="M59.95,106.71c-.5,2.13-.66,4.33-.46,6.51"/><path class="cls-6" d="M61.63,107.85c-.42,2.08-.7,4.18-.83,6.29"/><path class="cls-6" d="M62.73,109.04c-.14,2.2-.14,4.41,0,6.61"/><path class="cls-6" d="M64.33,110.34c-.44,2.2-.49,4.48-.17,6.7"/><path class="cls-6" d="M65.78,111.28c-.43,2.1-.51,4.26-.25,6.39-.03-.12-.07-.24-.1-.36"/><path class="cls-6" d="M67.16,111.73l.03,6.33"/><path class="cls-6" d="M68.4,118.34c-.09-2.05-.04-4.1,.18-6.14-.2,1.79-.15,4.34-.18,6.14Z"/><path class="cls-6" d="M70.1,112.11c.02,1.95,.03,3.91,.05,5.86"/><path class="cls-6" d="M71.58,112.01c-.1,1.9,0,3.81,.3,5.68"/><path class="cls-6" d="M72.66,111.37c.1,2.01,.27,4.03,.5,6.03"/><path class="cls-6" d="M75.81,111.82c-.43,2.08-.41,4.26,.06,6.33"/><path class="cls-6" d="M74.08,111.27c.6,1.92,.69,4,.25,5.97"/><path class="cls-6" d="M76.76,112.1c-.21,2.26-.19,4.55,.07,6.81"/><path class="cls-6" d="M78.52,112.57c-.12,2.35-.25,4.71-.37,7.06"/><path class="cls-6" d="M79.87,112.85c-.16,2.56-.18,5.14-.04,7.71,.01-.09,.02-.17,.02-.26"/><path class="cls-6" d="M81.4,113.13c.07,2.57,.13,5.13,.2,7.7,.01-.09,.01-.17,.02-.26"/><path class="cls-6" d="M82.71,113.22c.03,2.36,.06,4.71,.09,7.07"/><path class="cls-6" d="M84.44,112.95c-.37,2.34-.37,4.73,0,7.07-.07-.22-.14-.43-.21-.65"/><path class="cls-6" d="M85.86,112.48c.03,2.29,.06,4.58,.09,6.88-.01-.15-.03-.3-.04-.46"/><path class="cls-6" d="M88.65,111.46c.22,2,.35,4.02,.37,6.04"/><path class="cls-6" d="M90.59,111.45c-.02,1.67-.04,3.35-.06,5.02"/><path class="cls-6" d="M92.03,111.92c-.15,1.67-.29,3.35-.44,5.02"/><path class="cls-6" d="M93.52,111.55c-.03,1.92-.21,3.84-.52,5.74l.33,.03"/><path class="cls-6" d="M95.06,111c-.28,2.13-.3,4.28-.07,6.42"/><path class="cls-6" d="M96.73,110.62c-.06,2.29-.11,4.58-.17,6.87l.03-.36"/><path class="cls-6" d="M98.29,110.15c-.06,2.18-.06,4.35,0,6.53,.07,.03,.16-.03,.16-.1"/><path class="cls-6" d="M99.68,109.04c-.16,2.14-.04,4.31,.35,6.42"/><path class="cls-6" d="M100.74,107.83c.26,2.14,.52,4.28,.77,6.41"/><path class="cls-6" d="M102.43,106.72c.59,1.79,.79,3.7,.58,5.57"/><path class="cls-6" d="M104.53,107.26c.44,1.62,.47,3.36,.09,5"/><path class="cls-6" d="M105.85,106.8c.24,1.93,.47,3.86,.71,5.78"/><path class="cls-6" d="M107.36,106.44c-.13,2.05-.06,4.12,.22,6.16"/><path class="cls-6" d="M108.56,105.68c.13,2.2,.26,4.41,.39,6.61"/><path class="cls-6" d="M109.79,105.21c.45,2.26,.63,4.59,.53,6.89"/><path class="cls-6" d="M111.24,104.17c.51,2.29,.63,4.66,.36,6.99,.02-.12,.04-.23,.06-.35"/><path class="cls-6" d="M113.02,102.81c-.04,2.51-.1,5.02-.19,7.53"/><path class="cls-6" d="M113.98,101.5c.18,2.14,.37,4.28,.55,6.42"/><path class="cls-6" d="M115.12,100.76c0,1.91,.24,3.83,.71,5.68"/><path class="cls-6" d="M116.6,101.42c.19,1.24,.37,2.47,.56,3.71"/><path class="cls-6" d="M118.25,102.8c.02,.68,.05,1.36,.07,2.05"/><path class="cls-6" d="M115.54,96.79c.63,1.13,1.71,2.94,3.13,2.91,1.38-.03,3.01-1.64,3.8-2.62,1.02-1.26,1.72-2.74,2.42-4.2,3.02-.93,5.3-3.88,5.44-7.03,1.19,1.93,1.4,4.43,.55,6.53-.85,2.1-2.01,4.3-4.21,4.86,.4,1.1,.27,2.18-.5,3.06s-1.12,.81-2.14,1.37"/><path class="cls-6" d="M130.29,94.15c-.14-1.53-.28-3.07-.42-4.6,.09,1.21,.34,3.39,.42,4.6Z"/><path class="cls-6" d="M128.85,96.11c-.21-1.63-.42-3.26-.62-4.89,.14,1.4,.48,3.5,.62,4.89Z"/><path class="cls-6" d="M125.82,93.04c.24,1.44,.48,2.88,.73,4.32"/><path class="cls-6" d="M124.53,94.34c.23,2.27,.46,4.53,.69,6.8"/><path class="cls-6" d="M123.17,96.76c.39,1.65,.63,3.33,.72,5.02"/><path class="cls-6" d="M121.9,97.78c.56,1.17,.72,2.52,.44,3.79"/><path class="cls-6" d="M120.41,99.45c-.11,.69,0,1.41,.28,2.05"/><path class="cls-6" d="M126.66,92.31c.3,1.39,.59,2.78,.89,4.18"/><path class="cls-6" d="M87.36,112.01c.39,2.09,.61,4.2,.66,6.32"/></g><g><g><path class="cls-5" d="M42.31,87.16c2.51-.11,4.75-1.59,6.58-3.31s3.38-3.73,5.34-5.29,4.91-3.66,7.36-3.16c-4.52,3.77-7.41,10.89-12.52,15.77-.18,.18-.33,.4-.56,.51-.64,.31-1.38-.25-1.75-.86s-.62-1.35-1.22-1.74c-.56-.35-1.27-.31-1.91-.43-.65-.11-1.39-.84-1.32-1.49Z"/><path class="cls-5" d="M119.71,87.16c-2.51-.11-4.75-1.59-6.58-3.31s-3.38-3.73-5.34-5.29c-1.96-1.56-4.91-3.66-7.36-3.16,4.52,3.77,7.41,10.89,12.52,15.77,.18,.18,.33,.4,.56,.51,.64,.31,1.38-.25,1.75-.86s.62-1.35,1.22-1.74c.56-.35,1.27-.31,1.91-.43s1.38-.84,1.32-1.49Z"/><path class="cls-5" d="M87.46,81.11c-1.08-.39-2.35-.16-3.23,.57-.79,.66-1.37,1.73-2.39,1.86-1.11,.14-1.95-.91-2.77-1.68-.72-.67-1.66-1.2-2.64-1.14s-1.95,.88-1.91,1.86c.05,1.2-1.69,3.06-2.84,3.39s-2.37,.48-3.43,1.03c-1.97,1.03-3,3.2-3.96,5.2s-2.19,4.12-4.28,4.87c-.6,.22-1.27,.31-1.77,.72-.49,.41-.67,1.3-.13,1.64,.46,.29,1.06,0,1.61,.02,1.17,.05,1.74,1.63,1.25,2.7-.49,1.06-1.59,1.68-2.62,2.23"/><path class="cls-5" d="M75.62,81.94c1.42,.02,2.58,1.15,3.7,2.09s2.6,1.79,3.9,1.17c1.08-.51,1.65-1.87,2.72-2.41,1.16-.58,2.51-.01,3.68,.55,2.49,1.2,5.08,2.48,6.83,4.75,1.33,1.72,2.07,3.89,3.26,5.73,1.19,1.84,2.56,3.09,4.17,3.29"/><path class="cls-5" d="M105.01,100.45c-.28,.41-.34-.6-2.12-.13-1.38,.36-2.6,.61-3.82-.06-1.11,1.87-3.04,3.23-5.18,3.64-2.14,.4-4.44-.16-6.15-1.51-2.72,3.33-8.19,3.95-11.57,1.3-1.83,1.4-4.3,1.92-6.54,1.38s-4.2-2.13-5.2-4.2c-1.01,.77-2.55,.76-3.55-.02"/><path class="cls-5" d="M71.04,90.13c-.93-.09-1.86,.69-1.91,1.63-.05,.93,.81,1.81,1.75,1.77,.93-.05,1.7-1.03,1.51-1.95-.2-.91-1.33-1.49-2.18-1.09"/><path class="cls-5" d="M93.2,89.53c1.14-.05,2.08,1.31,1.63,2.36-.45,1.05-2.09,1.31-2.84,.45s-.28-2.71,1.21-2.81"/><path class="cls-5" d="M88.15,82.74c6.8,2.92,7.12,4.31,9.88,8.5,1.36,2.08,2.43,4.64,4.8,5.57,.93,.36,1.98,.43,2.83,.93s1.36,1.75,.64,2.41c-.82,.74-2.6,.93-3.4,.18-1.08,.74,.27,1.06,.96,2.18,1.03,1.69,3.19,1.74,5.1,1.09,1.21-.41,1.62-4.28,1-5.4s-3.07-3.86-4.09-4.66c-1.02-.81-2.04-2.85-2.91-3.81-1.49-1.66-2.35-3.63-3.91-5.23-2.88-2.93-8.89-5.84-8.89-5.84"/></g><path class="cls-5" d="M75.51,92.18c-1.1,.33-1.53,1.96-.73,2.8,.8,.83,2.44,.47,2.82-.62,.38-1.09-.69-2.39-1.83-2.24-.3,.06-.6,.13-.89,.19"/><path class="cls-5" d="M81.83,93.27c-1.1,.33-1.53,1.96-.73,2.8,.8,.83,2.44,.47,2.82-.62,.38-1.09-.69-2.39-1.83-2.24-.3,.06-.6,.13-.89,.19"/><path class="cls-5" d="M88.01,92.26c-1.1,.33-1.53,1.96-.73,2.8,.8,.83,2.44,.47,2.82-.62,.38-1.09-.69-2.39-1.83-2.24-.3,.06-.6,.13-.89,.19"/></g></g><g><path d="M80.76,143.82l.2,.14c-.08,.35-.18,.62-.31,.82s-.32,.36-.58,.48c-.25,.12-.54,.17-.87,.17-.17,0-.39,0-.64-.03v5.42c.54-.16,.97-.38,1.29-.63,.32-.26,.62-.63,.89-1.12l.21,.1c-.16,.48-.34,.86-.55,1.15-.33,.47-.76,.84-1.29,1.11s-1.13,.41-1.83,.41-1.3-.13-1.89-.39c-.34-.15-.65-.36-.93-.63s-.51-.6-.7-.99-.27-.83-.27-1.32,.1-.97,.29-1.42c.2-.45,.49-.88,.87-1.29,.24-.26,.59-.54,1.03-.85l-.67-.04c-.25,0-.53,.04-.83,.16-.3,.12-.54,.28-.71,.48s-.32,.5-.44,.9l-.21-.12c.12-.51,.28-.9,.47-1.19,.26-.38,.6-.67,1.02-.87s.9-.31,1.44-.31c.38,0,1.04,.08,1.99,.24s1.61,.24,1.96,.24c.24,0,.42-.04,.55-.11,.16-.08,.32-.25,.51-.51Zm-4.45,1.19l-.28-.03c-.48,.41-.83,.82-1.06,1.24-.3,.56-.46,1.13-.46,1.71,0,1,.41,1.82,1.24,2.45,.26-.22,.42-.4,.48-.53,.06-.14,.09-.41,.09-.83v-4.01h-.01Zm2.01,.34c-.34-.05-.64-.1-.9-.15v3.21c0,.38-.02,.62-.05,.72s-.1,.22-.21,.35c-.2,.22-.6,.57-1.2,1.05,.3,.15,.54,.24,.73,.29,.32,.09,.63,.13,.93,.13,.16,0,.39-.02,.7-.06v-5.54Z"/><path d="M83.69,144.15l.05,.13c-.26,.16-.43,.34-.53,.53s-.14,.48-.14,.89v1.75l1.66-1.32c.35,.23,.58,.45,.69,.66s.16,.58,.16,1.09v2.43c0,.47-.05,.81-.15,1.02-.15,.35-.44,.68-.85,.99-.54,.41-1.24,.76-2.08,1.06l-.08-.2c.68-.28,1.16-.54,1.43-.77,.27-.23,.44-.48,.53-.74,.06-.2,.09-.71,.09-1.54v-2.25c0-.25-.02-.42-.08-.52-.08-.13-.21-.26-.41-.39l-.92,.74v2.99l.38,.38-.94,.77-.95-.78,.42-.42v-4.88c0-.44-.04-.75-.12-.91s-.23-.31-.46-.45l.06-.13c.19,.05,.34,.11,.46,.18,.11,.07,.26,.18,.45,.35,.22-.21,.43-.36,.63-.46,.2-.1,.43-.17,.7-.2Z"/><path d="M88.82,146.12l1.51,1.77-2.41,1.69v.98l1.25,.49,.84-.57,.12,.16-1.74,1.21c-.35-.19-.65-.33-.88-.41s-.56-.17-.98-.26v-.13c.12-.07,.2-.16,.24-.27s.06-.33,.06-.68v-3.07c.34-.12,.62-.23,.84-.33,.17-.09,.55-.28,1.15-.58Zm-.82,.62l-.08,.04v2.44l1.42-.99-1.34-1.49Z"/><path d="M68.2,157.37c.41,.11,.71,.27,.92,.48,.29,.3,.44,.64,.44,1.02,0,.32-.11,.64-.34,.98-.23,.34-.65,.74-1.26,1.2,.52,.05,.91,.13,1.15,.26,.24,.12,.41,.29,.51,.48s.15,.52,.15,.98v2.02c-1.39,.16-2.57,.64-3.55,1.45-.34-.23-.66-.4-.97-.5-.49-.16-1.02-.25-1.58-.25-.69,0-1.25,.14-1.67,.42-.28,.19-.42,.38-.42,.56,0,.07,.04,.17,.12,.31s.12,.25,.12,.33-.03,.15-.09,.21-.12,.09-.19,.09c-.11,0-.21-.05-.3-.16s-.13-.24-.13-.4c0-.15,.05-.33,.16-.52s.34-.47,.7-.83,.59-.63,.69-.8,.15-.32,.15-.47c0-.17-.06-.31-.17-.42s-.26-.17-.43-.17c-.16,0-.29,.04-.39,.13-.1,.09-.17,.24-.21,.45h-.21c0-.07-.01-.13-.01-.16,0-.33,.11-.6,.33-.81,.22-.21,.51-.32,.88-.32,.04,0,.11,0,.2,0,0-.38-.06-.66-.17-.83-.17-.28-.43-.42-.78-.42-.22,0-.41,.06-.58,.17-.09,.06-.18,.18-.27,.36l-.23-.08c.04-.37,.18-.67,.44-.89,.25-.22,.57-.33,.96-.33,.14,0,.32,0,.54,.04,.02-.55,.07-.95,.15-1.2s.23-.48,.43-.69,.59-.5,1.15-.87c-.54,.18-.99,.27-1.36,.27-.24,0-.55-.05-.94-.14-.22-.05-.38-.08-.47-.08-.18,0-.32,.06-.45,.18s-.2,.33-.24,.64h-.23c.01-.36,.08-.66,.2-.9s.3-.44,.55-.58c.25-.15,.51-.22,.78-.22,.2,0,.54,.06,1.01,.18s.86,.18,1.15,.18c.21,0,.42-.02,.62-.07,.2-.05,.47-.14,.79-.28l.12,.26c-.85,.41-1.41,.81-1.69,1.2s-.42,.91-.42,1.55v2.41c0,.53-.06,.94-.18,1.23s-.35,.63-.71,1c.69-.29,1.16-.61,1.39-.94s.36-.83,.36-1.48v-1.73c0-.8,.07-1.37,.21-1.7s.4-.61,.78-.85,1.22-.57,2.49-.96Zm-1.02,.57c-.42,.19-.71,.35-.85,.49-.15,.13-.25,.29-.31,.47s-.08,.49-.08,.92v2.4c0,.43-.04,.75-.12,.97s-.23,.43-.45,.64c-.22,.21-.67,.51-1.35,.91,.37-.05,.71-.08,1.03-.08,.54,0,1.05,.07,1.53,.22v-4.88h.26v1.52c.54-.32,.94-.66,1.2-1,.26-.34,.39-.71,.39-1.11,0-.33-.1-.61-.3-.85-.22-.23-.53-.44-.95-.62Zm-.35,4.43c.32,.11,.61,.17,.87,.17s.55-.06,.87-.17c0-.27-.06-.49-.18-.65s-.35-.32-.69-.46c-.43,.28-.71,.46-.87,.54v.57Zm1.73,.25c-.33,.12-.62,.18-.87,.18-.27,0-.56-.06-.87-.18v1.04c.3-.11,.58-.16,.84-.16s.55,.05,.89,.16v-1.04h.01Zm0,1.32c-.36-.13-.66-.19-.91-.19s-.54,.06-.82,.19v1.04c.17,.07,.33,.16,.48,.25,.4-.21,.82-.37,1.26-.49v-.8h-.01Z"/><path d="M74.91,160l1.05,.87-.47,.43v3.08c0,.36,.05,.61,.15,.76,.06,.11,.13,.16,.21,.16,.06,0,.16-.06,.32-.19l.14,.18-1.25,.96c-.31-.22-.51-.42-.61-.59-.09-.17-.15-.45-.15-.83-.61,.39-1.22,.86-1.85,1.42-.38-.3-.62-.56-.74-.78-.12-.22-.17-.52-.17-.89v-2.89c0-.2-.02-.34-.05-.4-.06-.11-.15-.16-.26-.16-.08,0-.2,.07-.37,.2l-.14-.18,1.39-1.14,1.06,.87-.44,.39v3.12c0,.23,.03,.4,.09,.51s.2,.24,.43,.41l1.07-.79v-3.2l-.42-.43,1.01-.89Z"/><path d="M76.86,158l3.98,2.74c.06-.14,.13-.25,.21-.33s.19-.14,.35-.21v.24c-.08,.11-.13,.2-.15,.29s-.04,.26-.04,.53v3.94c-.5,.19-.86,.35-1.11,.49-.24,.14-.5,.33-.78,.56-.46-.3-.87-.52-1.23-.66s-.74-.23-1.15-.28v-.11c.14-.12,.23-.24,.27-.37s.06-.38,.06-.76v-3.07c.54-.15,.91-.32,1.14-.5l-1.56-1.06v-1.44h.01Zm3.15,3.58l-1.21-.83c-.11,.09-.22,.16-.33,.23v3.62l1.54,.69v-3.71Z"/><path d="M82.23,158l3.98,2.74c.06-.14,.13-.25,.21-.33s.19-.14,.35-.21v.24c-.08,.11-.13,.2-.15,.29s-.04,.26-.04,.53v3.94c-.5,.19-.86,.35-1.11,.49-.24,.14-.5,.33-.78,.56-.46-.3-.87-.52-1.23-.66s-.74-.23-1.15-.28v-.11c.14-.12,.23-.24,.27-.37s.06-.38,.06-.76v-3.07c.54-.15,.91-.32,1.14-.5l-1.56-1.06v-1.44h.01Zm3.16,3.58l-1.21-.83c-.11,.09-.22,.16-.33,.23v3.62l1.54,.69v-3.71Z"/><path d="M90.05,157.85l.06,.14c-.28,.18-.47,.37-.57,.57s-.15,.53-.15,.97v1.91l1.81-1.44c.39,.25,.64,.49,.75,.72,.12,.23,.17,.63,.17,1.19v2.66c0,.51-.05,.88-.16,1.11-.17,.38-.48,.74-.93,1.08-.59,.45-1.35,.83-2.27,1.16l-.08-.22c.75-.31,1.27-.59,1.56-.84s.48-.52,.57-.81c.07-.21,.1-.77,.1-1.68v-2.46c0-.27-.03-.46-.08-.57-.08-.14-.23-.29-.45-.43l-1,.81v3.26l.42,.42-1.03,.84-1.05-.84,.46-.46v-5.33c0-.48-.04-.82-.13-1-.08-.18-.25-.34-.5-.49l.06-.15c.21,.06,.37,.12,.5,.2,.12,.07,.29,.2,.49,.38,.24-.23,.47-.39,.69-.5,.22-.09,.47-.16,.76-.2Z"/><path d="M97.28,160.25l.21,.08c-.21,.33-.34,.58-.4,.75s-.08,.41-.08,.71v2.5c0,.41,.03,.67,.09,.78s.13,.16,.21,.16c.04,0,.09,0,.13-.03,.03-.02,.11-.09,.25-.2l.14,.18-1.25,1.08c-.3-.23-.5-.44-.61-.63-.1-.19-.16-.44-.17-.78l-1.78,1.41c-.67-.55-1-1.09-1-1.62,0-.36,.07-.69,.22-1,.19-.41,.52-.89,.99-1.44l-.71-1.51,.08-.15c.15,0,.26,.02,.34,.02,.46,0,.87-.18,1.22-.54,.28,.17,.6,.3,.93,.4,.34,.1,.59,.15,.77,.15,.08,0,.14,0,.19-.04,.06-.05,.13-.14,.23-.28Zm-1.47,1.11l-2-.62,.71,1.51,1.29,.61v-1.5Zm0,1.75l-1.42-.67c-.22,.48-.33,.9-.33,1.26,0,.63,.29,1.16,.86,1.57l.88-.71v-1.45h.01Z"/><path d="M98.88,158.35l.87-.86,.86,.81c-.22,.95-.75,1.62-1.59,2.03l-.14-.21c.26-.21,.42-.36,.47-.45,.09-.15,.13-.29,.13-.44,0-.13-.04-.26-.12-.39-.08-.13-.24-.29-.48-.49Z"/><path d="M103.45,162.17l1.36,.71v2.47c-.33,.03-.63,.11-.89,.24-.27,.13-.57,.35-.9,.66-.29-.17-.54-.29-.75-.36s-.44-.1-.68-.1c-.37,0-.69,.11-.98,.33-.11,.08-.18,.12-.23,.12-.04,0-.09-.02-.13-.06s-.06-.09-.06-.13c0-.05,.04-.11,.12-.19,.05-.05,.13-.14,.24-.27l.53-.66,.75-1-1.28-.69v-2.19c.4-.12,.72-.26,.95-.42,.23-.15,.45-.37,.66-.64,.5,.21,.9,.36,1.21,.45,.22,.06,.43,.09,.63,.09,.22,0,.39-.05,.51-.14,.12-.1,.18-.2,.18-.3,0-.07-.04-.14-.12-.21-.15-.14-.23-.27-.23-.4,0-.12,.03-.22,.1-.29s.14-.11,.22-.11c.11,0,.21,.05,.3,.15s.13,.23,.13,.4-.04,.33-.11,.49-.21,.37-.41,.62l-1.12,1.43Zm-.71,.94l-1.41,1.89c.17-.06,.33-.1,.48-.13s.28-.04,.4-.04c.45,0,.92,.15,1.4,.45v-1.7l-.87-.47Zm-1.01-.53l.8,.42,1.28-1.7c-.26,.08-.49,.11-.68,.11-.48,0-.95-.16-1.4-.48v1.65Z"/></g><g><path d="M65.68,174.44l.09,.16c-.3,.05-.52,.15-.66,.29-.15,.15-.22,.36-.22,.64,0,.16,.01,.38,.04,.67,.05,.5,.08,.92,.08,1.23,0,.43-.08,.81-.25,1.13s-.56,.79-1.18,1.39c.41-.15,.77-.23,1.1-.23,.3,0,.56,.05,.8,.14,.24,.09,.5,.25,.79,.48l.39-.4,.11,.15-1,.98c-.27-.23-.54-.4-.82-.51-.27-.11-.59-.16-.95-.16-.34,0-.65,.05-.95,.14-.3,.09-.68,.27-1.15,.53l-.08-.12c.47-.39,.78-.71,.93-.94,.15-.24,.23-.46,.23-.67s-.06-.37-.17-.5-.24-.2-.38-.2c-.07,0-.15,.02-.25,.07l-.12-.13c.1-.1,.18-.16,.26-.2s.17-.06,.28-.06c.06,0,.12,0,.19,.03,.06,.02,.13,.05,.19,.09,.01-.07,.01-.12,.01-.16,0-.19-.06-.35-.18-.49s-.28-.21-.46-.21c-.13,0-.26,.06-.4,.18l-.14-.11c.09-.14,.19-.24,.29-.3,.16-.1,.33-.14,.51-.14,.04,0,.08,0,.13,0,.05,0,.1,.02,.15,.04-.01-.18-.02-.33-.02-.45,0-.35,.05-.66,.14-.91s.26-.51,.48-.78c-.25,.1-.46,.15-.63,.15s-.38-.05-.64-.14c-.12-.04-.21-.06-.28-.06-.13,0-.25,.05-.34,.14-.09,.1-.14,.21-.14,.35,0,.05,.01,.11,.03,.18l-.17,.07c-.03-.14-.04-.25-.04-.34,0-.28,.1-.53,.29-.74s.42-.31,.69-.31c.12,0,.31,.05,.57,.16s.46,.16,.6,.16c.26,0,.51-.11,.75-.32l.11,.16c-.26,.22-.44,.44-.54,.65s-.16,.47-.16,.78c0,.23,.01,.49,.04,.78,.05,.56,.08,.93,.08,1.13,0,.42-.06,.81-.18,1.15s-.34,.74-.65,1.19c.48-.39,.83-.79,1.03-1.2,.21-.41,.31-.87,.31-1.38,0-.29-.02-.61-.05-.96-.04-.35-.05-.64-.05-.88,0-.21,.04-.42,.13-.62s.2-.37,.35-.48,.3-.2,.48-.25c.13-.02,.33-.04,.6-.05Z"/><path d="M67.87,176.41l.69,.65-.3,.34v2.39c0,.25,.02,.42,.06,.49s.08,.11,.12,.11c.03,0,.05,0,.08-.02,.03-.02,.1-.08,.2-.18l.09,.14-.83,.76c-.21-.17-.34-.32-.4-.47-.06-.15-.09-.41-.09-.78v-2.45l-.29-.34,.67-.64Zm.29-1.5h.49l-.53,.95h-.16l.2-.95Z"/><path d="M71.06,176.41l1.2,.64,.72-.41v.99l-.7-.15v2c0,.32,.02,.54,.05,.65,.04,.15,.14,.32,.27,.52,.22,.33,.34,.56,.34,.7s-.06,.28-.18,.4-.43,.33-.94,.6c-.17-.07-.34-.12-.49-.16s-.31-.05-.45-.05c-.34,0-.73,.07-1.18,.21l-.05-.15,.91-1.21-.91-.75v-3.18c.51-.13,.98-.34,1.41-.65Zm-.72,5.14c.33-.06,.61-.09,.81-.09s.37,.03,.56,.08c.19,.06,.38,.14,.57,.25l.16-.11c-.35-.37-.58-.67-.71-.9-.12-.23-.2-.48-.24-.75l-1.15,1.52Zm1.16-4.08l-1.05-.41v2.88l.57,.47,.48-.66v-2.28Z"/><path d="M74.93,174.8l.04,.11c-.18,.13-.31,.28-.38,.43s-.1,.39-.1,.73v1.43l1.2-1.08c.25,.19,.42,.37,.5,.54s.12,.47,.12,.89v1.99c0,.38-.03,.66-.1,.84-.11,.29-.32,.56-.61,.81-.39,.33-.89,.62-1.5,.87l-.05-.17c.49-.23,.83-.44,1.03-.63,.19-.19,.32-.39,.38-.61,.04-.16,.07-.58,.07-1.26v-1.84c0-.21-.02-.35-.05-.43-.05-.11-.15-.22-.3-.32l-.66,.61v2.45l.27,.31-.68,.63-.69-.63,.3-.34v-4c0-.36-.03-.61-.08-.75-.06-.13-.17-.26-.33-.36l.04-.11c.14,.04,.25,.09,.33,.15,.08,.05,.19,.15,.32,.28,.16-.17,.31-.29,.45-.37s.29-.14,.48-.17Z"/><path d="M76.83,176.89l1.08-1.51h.11l-.04,1.21h.78v.49h-.78v2.96l.43,.36,.25-.22,.1,.13-.85,.77c-.29-.34-.62-.57-.98-.69v-.09c.1-.08,.17-.16,.21-.25,.04-.11,.07-.27,.07-.47v-2.52h-.36v-.17h-.02Z"/><path d="M83.39,174.53l1.74,.66,.13-.26c.05-.09,.08-.15,.1-.17s.04-.03,.07-.03,.05,0,.06,.03c.02,.02,.03,.04,.03,.07,0,.04-.03,.12-.1,.25l-.84,1.63,.67-.05c.2,0,.43,.02,.7,.1s.5,.19,.69,.34,.34,.34,.45,.54c.11,.21,.17,.44,.17,.69,0,.46-.17,.92-.51,1.36-.34,.45-.95,.92-1.82,1.41-.31-.13-.66-.27-1.07-.41-.72,.38-1.32,.57-1.79,.57-.33,0-.59-.08-.77-.25s-.27-.36-.27-.57c0-.23,.11-.44,.32-.64,.22-.19,.54-.29,.96-.29,.17,0,.37,.02,.62,.07l.31-.63-.57,.05c-.13,0-.31-.02-.54-.06s-.41-.12-.56-.22-.25-.23-.33-.38-.11-.31-.11-.47c0-.26,.08-.49,.24-.69,.1-.13,.27-.24,.51-.35v-.05c0-.27,.11-.58,.32-.94,.24-.36,.63-.79,1.19-1.31Zm.2,6.06c-.64-.24-1.17-.37-1.58-.36-.21,0-.38,.05-.5,.16-.08,.07-.13,.16-.13,.26,0,.11,.04,.19,.13,.26,.13,.11,.33,.16,.58,.16,.4,0,.89-.17,1.5-.48Zm.39-3.08c-.34,.05-.66,.08-.97,.08-.35,0-.6-.05-.75-.14s-.26-.24-.33-.44c-.19,.13-.28,.3-.28,.5,0,.18,.07,.33,.22,.45,.19,.15,.52,.23,.98,.23,.22,0,.49-.02,.83-.07l.3-.61Zm.81-1.62c-.4-.23-.72-.38-.94-.46s-.43-.12-.6-.12c-.24,0-.44,.08-.59,.23-.15,.16-.23,.34-.23,.54,0,.21,.07,.37,.2,.51s.33,.2,.59,.2c.17,0,.56-.03,1.17-.09l.4-.81Zm-1.67,3.73c.24,.06,.44,.12,.59,.17,.15,.05,.43,.15,.82,.31,.62-.32,.93-.64,.93-.94,0-.09-.04-.18-.11-.26s-.17-.11-.28-.11c-.14,0-.31,0-.51,.04-.56,.07-.93,.1-1.11,.1l-.33,.69Zm.76-1.51c.61-.07,1.04-.1,1.28-.1,.33,0,.58,.08,.75,.25s.26,.37,.26,.6c0,.21-.08,.41-.25,.6s-.53,.44-1.09,.72l.79,.24c.34-.24,.6-.49,.78-.77s.27-.58,.27-.91c0-.22-.06-.43-.17-.64-.12-.21-.29-.38-.53-.5s-.51-.19-.82-.19c-.25,0-.57,.03-.96,.08l-.31,.62Z"/><path d="M89.39,174.8l.04,.11c-.18,.13-.31,.28-.38,.43s-.1,.39-.1,.73v1.43l1.2-1.08c.25,.19,.42,.37,.5,.54s.12,.47,.12,.89v1.99c0,.38-.03,.66-.1,.84-.11,.29-.32,.56-.61,.81-.39,.33-.89,.62-1.5,.87l-.05-.17c.49-.23,.83-.44,1.03-.63,.19-.19,.32-.39,.38-.61,.04-.16,.07-.58,.07-1.26v-1.84c0-.21-.02-.35-.05-.43-.05-.11-.15-.22-.3-.32l-.66,.61v2.45l.27,.31-.68,.63-.69-.63,.3-.34v-4c0-.36-.03-.61-.08-.75-.06-.13-.17-.26-.33-.36l.04-.11c.14,.04,.25,.09,.33,.15,.08,.05,.19,.15,.32,.28,.16-.17,.31-.29,.45-.37s.29-.14,.48-.17Z"/><path d="M92.14,176.41l.69,.65-.3,.34v2.39c0,.25,.02,.42,.06,.49s.08,.11,.12,.11c.03,0,.05,0,.08-.02,.03-.02,.1-.08,.2-.18l.09,.14-.83,.76c-.21-.17-.34-.32-.4-.47-.06-.15-.09-.41-.09-.78v-2.45l-.29-.34,.67-.64Zm.29-1.5h.49l-.53,.95h-.16l.2-.95Z"/><path d="M96.04,176.41l.53,.66,.38-.41,.11,.12c-.18,.19-.29,.33-.33,.43-.05,.13-.08,.31-.08,.53v2.1c0,.19,.03,.34,.08,.43,.03,.06,.07,.09,.11,.09s.12-.06,.26-.17l.09,.14-.83,.77c-.21-.18-.35-.35-.41-.49-.06-.14-.09-.37-.09-.68v-2.4l-.34-.41-.66,.6v2.44l.29,.31-.68,.63-.69-.63,.29-.31v-2.24c0-.32-.03-.53-.09-.65-.04-.08-.08-.11-.13-.11s-.13,.06-.23,.17l-.09-.14,.82-.77c.23,.19,.37,.34,.43,.46s.09,.27,.09,.47v.16l1.17-1.1Z"/><path d="M99.33,176.41l1.09,1.45-1.73,1.38v.8l.9,.4,.61-.47,.08,.13-1.25,.99c-.25-.16-.47-.27-.63-.33s-.4-.14-.7-.21v-.11c.09-.06,.15-.13,.18-.22s.04-.27,.04-.56v-2.51c.24-.1,.44-.19,.6-.27,.11-.06,.39-.22,.81-.47Zm-.58,.51l-.05,.03v2l1.02-.81-.97-1.22Z"/><path d="M102.79,178.04l.9,.53v1.85c-.22,.02-.41,.08-.59,.18-.17,.1-.37,.26-.6,.49-.19-.13-.36-.22-.5-.27s-.29-.07-.45-.07c-.24,0-.46,.08-.65,.25-.07,.06-.12,.09-.15,.09s-.06-.02-.08-.05-.04-.06-.04-.1,.03-.08,.08-.14c.03-.04,.08-.1,.16-.2l.35-.5,.5-.75-.84-.52v-1.64c.27-.09,.47-.2,.62-.31,.15-.12,.3-.27,.44-.48,.33,.16,.59,.27,.79,.33,.14,.04,.28,.07,.41,.07,.14,0,.26-.04,.34-.11,.08-.07,.12-.15,.12-.23,0-.05-.03-.11-.08-.16-.1-.1-.15-.2-.15-.3,0-.09,.02-.16,.07-.22s.09-.08,.15-.08c.07,0,.14,.04,.2,.11,.06,.08,.09,.17,.09,.3s-.02,.25-.07,.37-.14,.28-.27,.47l-.75,1.09Zm-.46,.71l-.93,1.42c.11-.04,.22-.08,.32-.1s.19-.03,.27-.03c.3,0,.6,.11,.92,.33v-1.27l-.58-.35Zm-.67-.4l.53,.31,.84-1.27c-.17,.06-.32,.08-.45,.08-.32,0-.62-.12-.92-.36v1.24Z"/><path d="M71.03,185.47l.12,.13c-.22,.31-.36,.54-.41,.68s-.08,.35-.08,.63v3.13c0,.43,.03,.71,.1,.82,.06,.11,.14,.17,.23,.17,.07,0,.14-.04,.21-.13l.06,.26-.82,.73c-.22-.16-.37-.31-.45-.46-.07-.15-.12-.4-.14-.76-.41,.44-.8,.76-1.16,.94-.36,.19-.76,.28-1.19,.28-.79,0-1.39-.32-1.81-.97-.31-.48-.47-1.03-.47-1.67,0-.47,.09-.91,.27-1.31,.18-.41,.45-.8,.81-1.18,.25-.25,.58-.52,.99-.81-.33,.09-.57,.14-.73,.14-.12,0-.25,0-.39-.02s-.26-.02-.36-.02c-.22,0-.39,.07-.51,.22s-.19,.36-.19,.62c0,.1,.01,.22,.02,.36h-.16c-.03-.21-.05-.38-.05-.51,0-.47,.11-.84,.32-1.11s.47-.41,.76-.41c.08,0,.16,0,.23,.03,.05,0,.2,.07,.46,.18,.26,.11,.5,.16,.71,.16,.19,0,.36-.04,.53-.12,.08-.04,.18-.12,.29-.25h.18v2.46c.26,.16,.51,.25,.75,.25,.12,0,.23-.02,.33-.05s.21-.1,.36-.2v-1.27l-.43-.36-.44,.55-.13-.14,.93-1.18,.82,.67,.44-.48Zm-4.38,5.23c.17-.21,.29-.4,.34-.58s.08-.51,.08-.97v-1.31c0-.34,.01-.56,.03-.66s.06-.22,.13-.35c.12-.23,.32-.53,.6-.91-.41,.27-.74,.53-.98,.78-.24,.25-.44,.56-.6,.94s-.24,.8-.24,1.26c0,.41,.07,.78,.2,1.12,.08,.22,.23,.45,.44,.68Zm1.59-5.03c-.16,.2-.27,.37-.31,.53s-.07,.46-.07,.92v2.04c0,.22-.01,.39-.04,.5-.04,.14-.11,.27-.21,.41-.15,.2-.42,.45-.8,.77,.19,.14,.36,.25,.52,.3s.35,.09,.58,.09c.11,0,.22,0,.34-.03v-5.53h0Zm1.61,2.27c-.15,.09-.28,.15-.38,.18s-.21,.04-.33,.04c-.23,0-.47-.07-.73-.22v1.02c.27-.13,.52-.2,.74-.2s.44,.07,.69,.2v-1.02h.01Zm0,1.23c-.26-.14-.49-.22-.7-.22-.13,0-.24,.02-.35,.05s-.24,.1-.39,.2v1.96c.26-.06,.49-.15,.7-.26s.46-.28,.73-.52v-1.21h0Z"/><path d="M71.51,187.89l.81-.68c.21,.16,.35,.32,.42,.46s.1,.33,.1,.58l1-1.04c.34,.28,.56,.52,.68,.72,.07,.13,.11,.32,.11,.58v2.46c-.34,.17-.72,.48-1.14,.93-.15-.11-.37-.24-.65-.39v.31c0,.37,.03,.63,.1,.79,.06,.16,.18,.3,.35,.42l-.05,.12c-.28-.11-.5-.22-.64-.33-.1-.08-.19-.18-.27-.31-.19,.19-.36,.31-.53,.38l-.05-.09c.11-.12,.19-.24,.23-.37,.04-.13,.07-.3,.07-.53v-.64c-.14-.03-.29-.05-.45-.05h-.06v-.37c.19-.05,.36-.08,.51-.1v-2.19c0-.24-.03-.4-.09-.49s-.12-.14-.18-.14c-.05,0-.11,.04-.19,.11l-.08-.14Zm1.33,.58v2.27c.3,.07,.51,.12,.62,.16,.11,.04,.24,.09,.38,.17v-2.47c0-.13,0-.21-.01-.24s-.05-.07-.11-.13c-.15-.15-.27-.25-.35-.32l-.53,.56Z"/><path d="M78.05,187.85v3.29c-.39,.18-.67,.33-.84,.44-.13,.08-.26,.19-.38,.32-.37-.26-.68-.44-.93-.54-.19-.08-.4-.12-.63-.13l-.04-.09c.1-.09,.16-.18,.19-.25,.04-.1,.05-.27,.05-.51v-2.41c.47-.18,.88-.43,1.21-.76,.37,.28,.82,.49,1.37,.64Zm-1.8,2.87l1.01,.47v-2.79c-.32-.17-.54-.28-.67-.33-.09-.04-.2-.07-.34-.1v2.75Z"/><path d="M81.21,187.21l.53,.66,.38-.41,.11,.12c-.18,.19-.29,.33-.33,.43-.05,.13-.08,.31-.08,.53v2.1c0,.19,.03,.34,.08,.43,.03,.06,.07,.09,.11,.09s.12-.06,.26-.17l.09,.14-.83,.77c-.21-.18-.35-.35-.41-.49-.06-.14-.09-.37-.09-.68v-2.4l-.34-.41-.66,.6v2.44l.29,.31-.68,.63-.69-.63,.29-.31v-2.24c0-.32-.03-.53-.09-.65-.04-.08-.08-.11-.13-.11s-.13,.06-.23,.17l-.09-.14,.82-.77c.23,.19,.37,.34,.43,.46s.09,.27,.09,.47v.16l1.17-1.1Z"/><path d="M88.01,185.33c.45,.05,.8,.13,1.05,.22,.38,.14,.71,.33,1,.59,.29,.25,.51,.55,.67,.9s.24,.72,.24,1.12-.08,.74-.25,1.11-.46,.77-.88,1.23-.83,.8-1.25,1.04c-.42,.24-.83,.36-1.23,.36-.43,0-.85-.12-1.25-.36s-.71-.58-.93-1c-.22-.43-.33-.9-.33-1.41,0-.3,.03-.58,.08-.85s.15-.59,.28-.95c.25-.14,.55-.34,.9-.59,.18-.14,.65-.47,1.39-1,.15-.13,.32-.26,.51-.41Zm-1.61,1.42c-.22,.18-.38,.34-.47,.47-.13,.17-.23,.37-.32,.61s-.13,.5-.13,.79c0,.62,.21,1.2,.63,1.74,.12-.13,.2-.25,.23-.38s.05-.37,.05-.73v-2.5h0Zm1.31-.55c-.18,0-.35-.02-.52-.03v2.6c0,.28-.02,.48-.05,.59-.03,.11-.09,.23-.18,.35l-.71,.78c.24,.23,.47,.4,.68,.5s.48,.16,.78,.18v-4.97Zm.17,1.18c.19,.18,.36,.31,.53,.39s.35,.12,.54,.12c.18,0,.35-.04,.5-.12s.31-.21,.48-.39c-.15-.22-.28-.38-.41-.48-.23-.19-.48-.34-.75-.45s-.57-.18-.9-.23v1.16h.01Zm0,1.83c.18-.21,.35-.35,.51-.43s.34-.12,.55-.12,.42,.04,.59,.13c.17,.09,.36,.24,.56,.46,.07-.29,.1-.54,.1-.76,0-.2-.01-.37-.04-.51-.02-.11-.06-.24-.13-.4-.22,.21-.42,.35-.58,.42-.17,.08-.35,.11-.55,.11-.18,0-.35-.03-.5-.1s-.33-.19-.52-.37v1.57h.01Zm0,1.96c.32-.02,.59-.08,.79-.18,.31-.15,.58-.35,.8-.62s.41-.58,.56-.95c-.36-.38-.72-.57-1.09-.57-.22,0-.42,.07-.62,.2-.14,.09-.29,.25-.45,.47v1.65h0Z"/><path d="M94.2,187.21l.69,.65-.31,.32v2.31c0,.27,.03,.46,.1,.57,.04,.08,.09,.12,.14,.12,.04,0,.11-.05,.21-.14l.09,.14-.82,.72c-.21-.16-.34-.31-.4-.44s-.1-.34-.1-.62c-.4,.29-.81,.65-1.22,1.06-.25-.22-.41-.42-.49-.59-.08-.17-.12-.39-.12-.67v-2.17c0-.15-.01-.25-.04-.3-.04-.08-.1-.12-.17-.12-.05,0-.14,.05-.24,.15l-.09-.14,.91-.85,.7,.65-.29,.29v2.34c0,.17,.02,.3,.06,.38s.13,.18,.28,.31l.71-.59v-2.4l-.27-.32,.67-.66Z"/><path d="M97.71,187.21l.58,.8-.58,.59-.49-.7-.38,.4v2.56l.44,.36,.4-.36,.09,.14-.99,.9c-.21-.21-.39-.37-.53-.46s-.3-.17-.47-.22v-.1c.11-.09,.19-.18,.22-.27,.03-.09,.05-.27,.05-.53v-1.79c0-.23-.02-.38-.07-.45-.04-.08-.09-.11-.15-.11s-.14,.06-.24,.18l-.09-.13,.81-.8c.22,.19,.37,.36,.45,.5,.05,.09,.08,.21,.08,.36l.87-.87Z"/><path d="M70.98,196.13c.45,.05,.8,.13,1.05,.22,.38,.14,.71,.33,1,.59,.29,.25,.51,.55,.67,.9s.24,.72,.24,1.12-.08,.74-.25,1.11-.46,.77-.88,1.23-.83,.8-1.25,1.04c-.42,.24-.83,.36-1.23,.36-.43,0-.85-.12-1.25-.36s-.71-.58-.93-1c-.22-.43-.33-.9-.33-1.41,0-.3,.03-.58,.08-.85s.15-.59,.28-.95c.25-.14,.55-.34,.9-.59,.18-.14,.65-.47,1.39-1,.15-.13,.32-.26,.51-.41Zm-1.61,1.42c-.22,.18-.38,.34-.47,.47-.13,.17-.23,.37-.32,.61s-.13,.5-.13,.79c0,.62,.21,1.2,.63,1.74,.12-.13,.2-.25,.23-.38s.05-.37,.05-.73v-2.5h0Zm1.31-.55c-.18,0-.35-.02-.52-.03v2.6c0,.28-.02,.48-.05,.59-.03,.11-.09,.23-.18,.35l-.71,.78c.24,.23,.47,.4,.68,.5s.48,.16,.78,.18v-4.97Zm.17,1.18c.19,.18,.36,.31,.53,.39s.35,.12,.54,.12c.18,0,.35-.04,.5-.12s.31-.21,.48-.39c-.15-.22-.28-.38-.41-.48-.23-.19-.48-.34-.75-.45s-.57-.18-.9-.23v1.16h.01Zm0,1.83c.18-.21,.35-.35,.51-.43s.34-.12,.55-.12,.42,.04,.59,.13c.17,.09,.36,.24,.56,.46,.07-.29,.1-.54,.1-.76,0-.2-.01-.37-.04-.51-.02-.11-.06-.24-.13-.4-.22,.21-.42,.35-.58,.42-.17,.08-.35,.11-.55,.11-.18,0-.35-.03-.5-.1s-.33-.19-.52-.37v1.57h.01Zm0,1.96c.32-.02,.59-.08,.79-.18,.31-.15,.58-.35,.8-.62s.41-.58,.56-.95c-.36-.38-.72-.57-1.09-.57-.22,0-.42,.07-.62,.2-.14,.09-.29,.25-.45,.47v1.65h0Z"/><path d="M76.64,198.01l.58,.8-.58,.59-.49-.7-.38,.4v2.56l.44,.36,.4-.36,.09,.14-.99,.9c-.21-.21-.39-.37-.53-.46s-.3-.17-.47-.22v-.1c.11-.09,.19-.18,.22-.27,.03-.09,.05-.27,.05-.53v-1.79c0-.23-.02-.38-.07-.45-.04-.08-.09-.11-.15-.11s-.14,.06-.24,.18l-.09-.13,.81-.8c.22,.19,.37,.36,.45,.5,.05,.09,.08,.21,.08,.36l.87-.87Z"/><path d="M78.36,198.01l.69,.65-.3,.34v2.39c0,.25,.02,.42,.06,.49s.08,.11,.12,.11c.03,0,.05,0,.08-.02,.03-.02,.1-.08,.2-.18l.09,.14-.83,.76c-.21-.17-.34-.32-.4-.47-.06-.15-.09-.41-.09-.78v-2.45l-.29-.34,.67-.64Zm.29-1.5h.49l-.53,.95h-.16l.2-.95Z"/><path d="M81.55,198.01l1.2,.64,.72-.41v.99l-.7-.15v2c0,.32,.02,.54,.05,.65,.04,.15,.14,.32,.27,.52,.22,.33,.34,.56,.34,.7s-.06,.28-.18,.4-.43,.33-.94,.6c-.17-.07-.34-.12-.49-.16s-.31-.05-.45-.05c-.34,0-.73,.07-1.18,.21l-.05-.15,.91-1.21-.91-.75v-3.18c.51-.13,.98-.34,1.41-.65Zm-.73,5.14c.33-.06,.61-.09,.81-.09s.37,.03,.56,.08c.19,.06,.38,.14,.57,.25l.16-.11c-.35-.37-.58-.67-.71-.9-.12-.23-.2-.48-.24-.75l-1.15,1.52Zm1.16-4.08l-1.05-.41v2.88l.57,.47,.48-.66v-2.28Z"/><path d="M84.61,198.01l.69,.65-.3,.34v2.39c0,.25,.02,.42,.06,.49s.08,.11,.12,.11c.03,0,.05,0,.08-.02,.03-.02,.1-.08,.2-.18l.09,.14-.83,.76c-.21-.17-.34-.32-.4-.47-.06-.15-.09-.41-.09-.78v-2.45l-.29-.34,.67-.64Zm.29-1.5h.49l-.53,.95h-.16l.2-.95Z"/><path d="M88.52,198.01l.53,.66,.38-.41,.11,.12c-.18,.19-.29,.33-.33,.43-.05,.13-.08,.31-.08,.53v2.1c0,.19,.03,.34,.08,.43,.03,.06,.07,.09,.11,.09s.12-.06,.26-.17l.09,.14-.83,.77c-.21-.18-.35-.35-.41-.49-.06-.14-.09-.37-.09-.68v-2.4l-.34-.41-.66,.6v2.44l.29,.31-.68,.63-.69-.63,.29-.31v-2.24c0-.32-.03-.53-.09-.65-.04-.08-.08-.11-.13-.11s-.13,.06-.23,.17l-.09-.14,.82-.77c.23,.19,.37,.34,.43,.46s.09,.27,.09,.47v.16l1.17-1.1Z"/><path d="M92.89,198.2l.14,.06c-.14,.25-.23,.43-.26,.56-.04,.13-.06,.31-.06,.53v1.87c0,.31,.02,.5,.06,.58s.08,.12,.14,.12c.03,0,.06,0,.09-.02,.02,0,.07-.06,.17-.15l.09,.14-.82,.81c-.2-.18-.33-.33-.4-.47s-.1-.33-.11-.58l-1.17,1.05c-.44-.41-.66-.82-.66-1.21,0-.27,.05-.52,.14-.75,.13-.31,.35-.67,.66-1.08l-.46-1.13,.05-.11c.1,0,.17,0,.22,0,.3,0,.57-.14,.8-.41,.19,.12,.39,.22,.62,.3,.22,.08,.39,.11,.51,.11,.05,0,.09,0,.12-.03s.06-.09,.13-.2Zm-.97,.84l-1.32-.46,.47,1.13,.85,.45v-1.12Zm0,1.31l-.93-.5c-.14,.36-.22,.67-.22,.94,0,.48,.19,.87,.57,1.18l.58-.54v-1.08Z"/><path d="M95.35,196.4v.11c-.2,.12-.35,.27-.43,.44s-.13,.44-.13,.79v3.91l.44,.37,.17-.16,.1,.16-.77,.67c-.23-.23-.41-.39-.52-.46s-.27-.15-.46-.21v-.1c.07-.05,.13-.11,.17-.19s.07-.17,.08-.27c.01-.04,.01-.21,.01-.53v-3.14c0-.27-.01-.45-.03-.56-.02-.1-.05-.2-.11-.3-.05-.1-.15-.2-.27-.32l.06-.09c.24,.08,.45,.23,.63,.47,.19-.23,.37-.39,.52-.47s.34-.11,.54-.12Z"/><path d="M69.36,206.84l.09,.16c-.3,.05-.52,.15-.66,.29-.15,.15-.22,.36-.22,.64,0,.16,.01,.38,.04,.67,.05,.5,.08,.92,.08,1.23,0,.43-.08,.81-.25,1.13s-.56,.79-1.18,1.39c.41-.15,.77-.23,1.1-.23,.3,0,.56,.05,.8,.14,.24,.09,.5,.25,.79,.48l.39-.4,.11,.15-1,.98c-.27-.23-.54-.4-.82-.51-.27-.11-.59-.16-.95-.16-.34,0-.65,.05-.95,.14-.3,.09-.68,.27-1.15,.53l-.08-.12c.47-.39,.78-.71,.93-.94,.15-.24,.23-.46,.23-.67s-.06-.37-.17-.5-.24-.2-.38-.2c-.07,0-.15,.02-.25,.07l-.12-.13c.1-.1,.18-.16,.26-.2s.17-.06,.28-.06c.06,0,.12,0,.19,.03,.06,.02,.13,.05,.19,.09,.01-.07,.01-.12,.01-.16,0-.19-.06-.35-.18-.49s-.28-.21-.46-.21c-.13,0-.26,.06-.4,.18l-.14-.11c.09-.14,.19-.24,.29-.3,.16-.1,.33-.14,.51-.14,.04,0,.08,0,.13,0,.05,0,.1,.02,.15,.04-.01-.18-.02-.33-.02-.45,0-.35,.05-.66,.14-.91s.26-.51,.48-.78c-.25,.1-.46,.15-.63,.15s-.38-.05-.64-.14c-.12-.04-.21-.06-.28-.06-.13,0-.25,.05-.34,.14-.09,.1-.14,.21-.14,.35,0,.05,.01,.11,.03,.18l-.17,.07c-.03-.14-.04-.25-.04-.34,0-.28,.1-.53,.29-.74s.42-.31,.69-.31c.12,0,.31,.05,.57,.16s.46,.16,.6,.16c.26,0,.51-.11,.75-.32l.11,.16c-.26,.22-.44,.44-.54,.65s-.16,.47-.16,.78c0,.23,.01,.49,.04,.78,.05,.56,.08,.93,.08,1.13,0,.42-.06,.81-.18,1.15s-.34,.74-.65,1.19c.48-.39,.83-.79,1.03-1.2,.21-.41,.31-.87,.31-1.38,0-.29-.02-.61-.05-.96-.04-.35-.05-.64-.05-.88,0-.21,.04-.42,.13-.62s.2-.37,.35-.48,.3-.2,.48-.25c.13-.02,.33-.04,.6-.05Z"/><path d="M71.55,208.81l.69,.65-.3,.34v2.39c0,.25,.02,.42,.06,.49s.08,.11,.12,.11c.03,0,.05,0,.08-.02,.03-.02,.1-.08,.2-.18l.09,.14-.83,.76c-.21-.17-.34-.32-.4-.47-.06-.15-.09-.41-.09-.78v-2.45l-.29-.34,.67-.64Zm.29-1.5h.49l-.53,.95h-.15l.19-.95Z"/><path d="M74.89,207.41l-.12,.73-.71-.18v1.06h.6v.49h-.6v2.95l.44,.37,.3-.28,.09,.12-.9,.82c-.32-.33-.64-.55-.98-.67l-.02-.11c.09-.07,.16-.14,.19-.21,.06-.12,.09-.27,.09-.44v-2.57h-.36v-.49h.36v-1.06c.39-.3,.68-.55,.88-.76l.74,.23Z"/><path d="M76.94,208.81l1.09,1.45-1.73,1.38v.8l.9,.4,.61-.47,.08,.13-1.25,.99c-.25-.16-.47-.27-.63-.33s-.4-.14-.7-.21v-.11c.09-.06,.15-.13,.18-.22s.04-.27,.04-.56v-2.51c.24-.1,.44-.19,.6-.27,.11-.06,.38-.22,.81-.47Zm-.59,.51l-.05,.03v2l1.02-.81-.97-1.22Z"/><path d="M79.43,210.9h1.34v.57h-1.34v-.57Z"/><path d="M87.63,206.93h.17c-.01,.26-.04,.45-.1,.59-.08,.18-.2,.32-.37,.43s-.34,.16-.54,.16c-.21,0-.46-.06-.75-.19v1.16h1.21l-.22,.65h-.99v2.09c0,.41-.03,.71-.08,.9-.05,.19-.15,.37-.29,.54s-.33,.32-.55,.44c-.32,.17-.57,.29-.76,.37l-1.62,.62c-.51-.22-.81-.33-.89-.33-.07,0-.14,.03-.19,.09-.06,.06-.1,.15-.12,.28l-.16-.04c0-.2,.02-.36,.07-.48,.07-.19,.17-.33,.29-.43,.13-.1,.26-.15,.41-.15,.2,0,.47,.08,.79,.24,.23,.11,.36,.18,.42,.2,.05,.02,.1,.03,.14,.03,.08,0,.15-.04,.22-.11s.11-.19,.13-.34,.03-.47,.03-.96v-2.94h-.24c-.4,0-.69,.05-.88,.16-.19,.1-.36,.28-.5,.53l-.15-.07c.1-.39,.24-.66,.41-.83,.28-.29,.68-.43,1.18-.43h.19v-.94h.27c.29,0,.57-.06,.85-.19,.28-.13,.52-.29,.71-.48,.13-.13,.26-.31,.4-.54,.42,.31,.77,.46,1.04,.46,.12,0,.22-.04,.3-.11,.06-.1,.13-.22,.17-.38Zm-2.37,1.16c-.17,.11-.37,.19-.59,.24v3.54c0,.12-.01,.35-.03,.69-.01,.2-.03,.35-.06,.45-.04,.15-.11,.3-.19,.43-.08,.14-.23,.31-.43,.53,.34-.14,.6-.31,.81-.52,.2-.21,.33-.43,.4-.67s.1-.6,.1-1.07v-3.62h-.01Z"/><path d="M91.04,209.45v3.29c-.39,.18-.67,.33-.84,.44-.13,.08-.26,.19-.38,.32-.37-.26-.68-.44-.93-.54-.19-.08-.4-.12-.63-.13l-.04-.09c.1-.09,.16-.18,.19-.25,.04-.1,.05-.27,.05-.51v-2.41c.47-.18,.88-.43,1.21-.76,.37,.28,.82,.49,1.37,.64Zm-1.8,2.87l1.01,.47v-2.79c-.32-.17-.54-.28-.67-.33-.09-.04-.2-.07-.34-.1v2.75Z"/><path d="M93.93,208.81l.58,.8-.58,.59-.49-.7-.38,.4v2.56l.44,.36,.4-.36,.09,.14-.99,.9c-.21-.21-.39-.37-.53-.46s-.3-.17-.47-.22v-.1c.11-.09,.19-.18,.22-.27,.03-.09,.05-.27,.05-.53v-1.79c0-.23-.02-.38-.07-.45-.04-.08-.09-.11-.15-.11s-.14,.06-.24,.18l-.09-.13,.81-.8c.22,.19,.37,.36,.45,.5,.05,.09,.08,.21,.08,.36l.87-.87Z"/><path d="M96.17,208.81l1,.65-.41,.68-.76-.5v2.8l.76,.39,.4-.33,.04,.19-.96,.8c-.25-.16-.46-.27-.63-.35-.17-.07-.39-.14-.64-.2v-.11c.09-.07,.15-.15,.18-.23,.04-.11,.06-.29,.06-.54v-2.5c.33-.14,.64-.4,.96-.75Z"/><path d="M99.23,208.81l1.09,1.45-1.73,1.38v.8l.9,.4,.61-.47,.08,.13-1.25,.99c-.25-.16-.47-.27-.63-.33s-.4-.14-.7-.21v-.11c.09-.06,.15-.13,.18-.22s.04-.27,.04-.56v-2.51c.24-.1,.44-.19,.6-.27,.11-.06,.38-.22,.81-.47Zm-.59,.51l-.05,.03v2l1.02-.81-.97-1.22Z"/></g><g><g><path class="cls-4" d="M34.4,498.44c1.29,1.09,3.65,2.31,4.43,5.87"/><path class="cls-4" d="M40.31,502.54c-1.55,1.19-2.33,3.22-2.26,5.17,.11,3.41,2.18,7.26,5.34,8.66-1.1-1.67-2.33-3.28-2.71-5.29"/><path class="cls-4" d="M40.19,514.79c-4.03-.56-4.88-4.62-6.7-7.17-1.82-2.56-1.05-6.46,.89-8.93"/><path class="cls-4" d="M46.22,506.12c-.46-1.48-1.54-2.66-2.66-3.73-1.12-1.07-2.31-2.09-3.1-3.42-.53,.87-3.06,4.38-2.41,7.15"/><path class="cls-4" d="M33.49,500.13c.91-1.85,1.82-3.73,1.84-4.69,1.41,.88,3.18,4.04,3.87,5.55"/><path class="cls-4" d="M35.94,507.62c.6,1.91,1.68,3.66,3.1,5.06"/><path class="cls-4" d="M40.62,502.3c.79,1.85,2.86,2.68,4.18,4.08,1.59,1.69,.28,3.43,.45,5.52,.22,2.8,2.72,6.39,5.19,7.74"/><path class="cls-4" d="M45.52,508.65c.7-2.53,2.96-4.36,4.27-4.93,.27-.12,.57-.22,.73-.47,.37-.59,1.26,.04,.96,.01,1.49,2.14,5.05,3.67,6.48,6.26,.84,1.53,.97,2.79,1.02,4.54,.03,1.04-.85,3.16-1.3,4.09-.88,1.82-1.96,2.12-3.87,2.79"/><path class="cls-4" d="M52.21,518.72c-.36-1.28-.73-2.57-1.09-3.85"/><path class="cls-4" d="M50.82,505.03c.29,1.71,2.16,2.55,3.47,3.69,1.63,1.42,2.52,3.65,2.31,5.81-.21,2.15-1.51,4.17-3.39,5.25"/><path class="cls-4" d="M50.82,505.03c-2.44,1.72-3.79,4.73-3.56,6.94,.24,2.21,3.16,6.76,5.95,7.8"/><path class="cls-4" d="M70.78,522.46c2.03-1.36,3.37-2.76,4.2-5.06,1-2.77,.52-6.06-1.58-8.11s-5.96-3.17-8.12-5.5c-1.34,1.36-3,2.34-4.47,3.54-1.47,1.21-1.73,2.75-2,4.63-.31,2.1,.6,5.16,2,6.76,1.4,1.6,2.24,1.92,3.65,3.52"/><path class="cls-4" d="M66.31,521.2c-1.42-1.09-2.85-2.2-3.94-3.62-1.09-1.42-1.81-3.22-1.58-4.99,.33-2.56,2.47-3.14,4.45-6.1,1.47,.63,3.64,2.24,4.93,3.18s2.4,2.22,2.82,3.76c.47,1.72,.23,3.79-1,5.07-2.59,2.7-3.97,2.19-5.68,2.7Z"/><path class="cls-4" d="M65.68,516.19c.61,1.35,.98,2.81,1.09,4.28"/><path class="cls-4" d="M133.3,499.64c-1.25,1.09-3.52,2.31-4.28,5.87"/><path class="cls-4" d="M127.6,503.74c1.49,1.19,2.24,3.22,2.18,5.17-.11,3.41-2.1,7.26-5.15,8.66,1.06-1.67,2.25-3.28,2.62-5.29"/><path class="cls-4" d="M127.72,516c3.89-.56,4.71-4.62,6.46-7.17,1.75-2.56,1.01-6.46-.86-8.93"/><path class="cls-4" d="M134.18,501.33c-.88-1.85-1.76-3.73-1.77-4.69-1.36,.88-3.07,4.04-3.74,5.55"/><path class="cls-4" d="M131.82,508.82c-.58,1.91-1.62,3.66-2.99,5.06"/><path class="cls-4" d="M127.31,503.5c-.76,1.85-2.76,2.68-4.03,4.08-1.54,1.69-.27,3.43-.43,5.52-.21,2.8-2.62,6.39-5,7.74"/><path class="cls-4" d="M122.58,509.86c-.68-2.53-2.86-4.36-4.12-4.93-.26-.12-.55-.22-.71-.47-.36-.59-1.21,.04-.93,.01-1.44,2.14-4.87,3.67-6.25,6.26-.81,1.53-.93,2.79-.99,4.54-.03,1.04,.82,3.16,1.26,4.09,.85,1.82,1.89,2.12,3.73,2.79"/><path class="cls-4" d="M116.13,519.92c.35-1.28,.7-2.57,1.05-3.85"/><path class="cls-4" d="M117.47,506.23c-.28,1.71-2.08,2.55-3.34,3.69-1.57,1.42-2.43,3.65-2.23,5.8,.2,2.15,1.46,4.17,3.27,5.25"/><path class="cls-4" d="M117.47,506.23c2.35,1.72,3.66,4.73,3.43,6.94s-3.05,6.76-5.74,7.8"/><path class="cls-4" d="M98.21,523.66c-1.95-1.36-3.25-2.76-4.05-5.06-.96-2.77-.5-6.06,1.53-8.11s5.75-3.17,7.83-5.5c1.29,1.36,2.89,2.34,4.31,3.54,1.42,1.21,1.66,2.75,1.93,4.63,.3,2.1-.58,5.16-1.93,6.76-1.35,1.6-2.16,1.92-3.52,3.52"/><path class="cls-4" d="M102.53,522.41c1.37-1.09,2.75-2.2,3.8-3.62,1.05-1.42,1.74-3.21,1.52-4.99-.32-2.56-2.38-3.14-4.29-6.1-1.42,.63-3.51,2.24-4.75,3.18s-2.31,2.22-2.72,3.76c-.46,1.72-.22,3.79,.97,5.07,2.49,2.7,3.82,2.18,5.47,2.7Z"/><path class="cls-4" d="M103.13,517.39c-.59,1.35-.95,2.81-1.06,4.28"/><path class="cls-4" d="M84.08,517.21c-.3,1.21,.23,4.01,.39,5.25"/><path class="cls-4" d="M80.06,522.72c-1.21-1.35-2.44-2.71-3.32-4.29-.89-1.58-1.42-3.42-1.15-5.21,.3-1.96,2.33-4.02,4.13-4.84,2.46-1.11,2.27-2.24,4.06-3.1,2.03,.7,4.94,1.94,6.62,3.28s3,3.22,3.3,5.35c.46,3.22-1.42,6.26-3.23,8.97"/><path class="cls-4" d="M84.56,507.17c2.14,1.49,4.47,2.29,6.36,7.05,.75,1.9,.05,4.19-1.2,5.8-1.26,1.61-3.21,2.3-5.25,2.45-1.26,.09-3.97-1.63-4.65-2.69-1-1.55-1.1-3.06-.97-4.9,.11-1.55,.96-2.96,2.06-4.05,1.1-1.1,2.63-1.99,3.65-3.66"/><path class="cls-4" d="M93.03,509.45c.08,.7,.15,1.39,.23,2.09"/></g><g><path class="cls-4" d="M42.58,496.41c2.07,2.42,7.28,4.29,12.53,4.95,17.91,2.24,36.05,1.13,54.07,.01,4.54-.28,9.08-.57,13.62-.85,2.08-.13,4.71-.75,5-2.81,.18-1.33-.65-2.76-1.84-3.38-6.58-3.42-10.67-3.56-15.63-4.29-18.02-2.65-33.03-3.03-51.09-.24-12.91,2-18.49,3.6-16.66,6.61Z"/><path class="cls-4" d="M121.9,507.32c.44-1.48,1.49-2.66,2.57-3.73s2.23-2.09,2.99-3.42c.51,.87,2.95,4.38,2.33,7.15"/><path class="cls-4" d="M41.48,495.06c-1.14,1.04-1.73,2.66-1.51,4.19"/><path class="cls-4" d="M43.33,497.57c-.55,1.18-.74,2.53-.52,3.82"/><path class="cls-4" d="M44.37,498.79c-.13,1.21-.25,2.42-.38,3.63"/><path class="cls-4" d="M45.67,499.1c.01,1.68-.16,3.36-.5,5"/><path class="cls-4" d="M46.72,499.93c.19,1.38,.22,2.79,.07,4.18"/><path class="cls-4" d="M48.33,500.35c-.02,.19-.05,.37-.07,.56"/><path class="cls-4" d="M48.26,502.51v1.74"/><path class="cls-4" d="M41.28,498.12c-.02,.51-.05,1.02-.07,1.53"/><path class="cls-4" d="M49.52,500.7c-.06,1.05-.01,2.11,.17,3.14"/><path class="cls-4" d="M50.78,500.78c.13,.76,.14,1.55,.01,2.31"/><path class="cls-4" d="M52.42,501.26c.02,.88-.15,1.76-.48,2.58"/><path class="cls-4" d="M53.92,501.47c-.33,1.12-.2,2.4-.4,3.55"/><path class="cls-4" d="M55.11,501.36c.09,.84,.36,2.81,.18,3.63"/><path class="cls-4" d="M55.26,505.68v.56"/><path class="cls-4" d="M57.13,501.85c.33,2.13-.53,4.37,.05,6.45"/><path class="cls-4" d="M58.88,501.96c-.16,2.25-.06,4.52,.31,6.75"/><path class="cls-4" d="M59.12,505.44c.19,.03,.37,.06,.56,.09"/><path class="cls-4" d="M60.3,502.05c-.14,1.89-.1,3.79,.13,5.67"/><path class="cls-4" d="M61.97,502.33c-.01,1.37-.09,2.73-.25,4.09"/><path class="cls-4" d="M63.31,502.38c-.13,1.09-.26,2.17-.39,3.26"/><path class="cls-4" d="M65.04,502.47c.04,.53,.04,1.06-.02,1.58"/><path class="cls-4" d="M66.7,502.47c.07,.68,.03,1.38-.12,2.05"/><path class="cls-4" d="M67.64,502.56c.01,.85,.02,1.71,.03,2.56"/><path class="cls-4" d="M69.1,502.75l-.18,3.3c.01-.08,.01-.15,.02-.23"/><path class="cls-4" d="M70.68,502.61c-.03,1.38-.05,2.76-.08,4.14"/><path class="cls-4" d="M72.27,502.89c-.23,1.67-.27,3.38-.11,5.06,0-.06-.01-.12-.01-.18"/><path class="cls-4" d="M73.77,502.93c-.05,2.09-.1,4.19-.15,6.28"/><path class="cls-4" d="M75.05,502.89c-.01,2.67-.01,5.33-.02,8"/><path class="cls-4" d="M76.5,502.84c.01,2.64,.03,5.27,.04,7.91"/><path class="cls-4" d="M77.98,502.7c.26,2.33,.15,4.7-.31,7,.07-.09,.13-.17,.2-.26"/><path class="cls-4" d="M79.55,502.7c.26,1.9,.2,3.84-.18,5.72"/><path class="cls-4" d="M80.89,502.84c.07,.76,.13,1.52,.2,2.28"/><path class="cls-4" d="M80.79,506.42c-.05,.34-.03,.69,.06,1.02"/><path class="cls-4" d="M82.64,502.89l.18,2.43c.02,.22,.02,.48-.15,.62"/><path class="cls-4" d="M84.18,502.8c.24,.92,.33,1.88,.29,2.84"/><path class="cls-4" d="M85.51,502.93c0,.93,.01,1.86,.01,2.79"/><path class="cls-4" d="M87.21,502.84c-.01,1.02-.01,2.05,0,3.07,0,.18,.06,.42,.24,.42"/><path class="cls-4" d="M88.55,502.66c-.05,1.54-.11,3.09-.16,4.63,.01-.09,.02-.18,.03-.26"/><path class="cls-4" d="M90.22,502.93c.06,1.7-.07,3.4-.38,5.06"/><path class="cls-4" d="M91.71,502.42c.38,2.35,.29,4.77-.28,7.08"/><path class="cls-4" d="M93.18,502.52c.15,1.82,.13,3.66-.06,5.49"/><path class="cls-4" d="M94.66,502.37c.08,2.26,.09,4.53,.01,6.79"/><path class="cls-4" d="M95.92,502.33c-.07,2.29-.15,4.59-.22,6.88-.04-.08-.08-.15-.12-.23"/><path class="cls-4" d="M97.27,502.47c-.11,2.12-.09,4.25,.07,6.37"/><path class="cls-4" d="M98.61,502.28c-.03,2-.06,4-.08,6"/><path class="cls-4" d="M100.27,502.1c.22,1.78,.21,3.58-.03,5.36"/><path class="cls-4" d="M101.63,501.93c.39,.66,.36,1.48,.28,2.24s-.21,1.55,.01,2.28"/><path class="cls-4" d="M103.26,503.58c-.01,.61,.07,1.23,.24,1.81"/><path class="cls-4" d="M104.95,501.96l.12,4.14"/><path class="cls-4" d="M106.51,503.63c.07,.69,.09,1.4,.06,2.09"/><path class="cls-4" d="M108.02,501.96c-.05,2.26,0,4.53,.16,6.79"/><path class="cls-4" d="M109.88,501.54c.06,3.32,.11,6.64,.17,9.95"/><path class="cls-4" d="M111.08,501.49c0,2.05,.02,4.09,.03,6.14"/><path class="cls-4" d="M112.9,501.54c-.05,2.11-.03,4.22,.07,6.33"/><path class="cls-4" d="M111.04,508.42c.02,.39,.04,.77,.06,1.16"/><path class="cls-4" d="M114.11,501.36c.08,1.85,.15,3.71,.23,5.56,0-.1,0-.21,0-.31"/><path class="cls-4" d="M115.51,501.07c.05,1.49,.11,2.98,.16,4.46"/><path class="cls-4" d="M117.4,502.51c.02,.77,.13,1.54,.32,2.28"/><path class="cls-4" d="M119.76,500.93c.08,1.04,.07,2.08-.04,3.12"/><path class="cls-4" d="M120.81,501.12c-.09,1.72-.09,3.44,0,5.16"/><path class="cls-4" d="M122.03,500.89c.13,1.82,.26,3.63,.39,5.45-.02-.1-.03-.19-.05-.29"/><path class="cls-4" d="M123.44,500.75c0,.54,.03,1.09,.04,1.63"/><path class="cls-4" d="M123.21,503.63c.03,.29,.06,.59,.09,.88"/><path class="cls-4" d="M124.84,500.79c-.1,.3-.13,.62-.08,.93"/><path class="cls-4" d="M126.28,499.96l-.09,.51"/><path class="cls-4" d="M128.14,496.45s0,.04,0,0c.79,1.02,1.19,2.2,1.14,3.49"/></g><path class="cls-4" d="M50.99,496.45c-.38-.19-.88,.03-1.04,.42-.16,.39,.02,.87,.36,1.1,.35,.23,.83,.22,1.2,.01,.42-.24,.69-.78,.53-1.24-.16-.46-.8-.7-1.18-.4"/><path class="cls-4" d="M55.94,493.12c-.46-.31-1.16,.12-1.21,.68-.05,.55,.42,1.06,.96,1.2,.39,.1,.84,.04,1.13-.24,.29-.28,.37-.78,.12-1.09-.36-.45-1.2-.38-1.41-.92"/><path class="cls-4" d="M60.3,496.43c-.39-.17-.84-.28-1.24-.14s-.72,.59-.59,1c.1,.3,.39,.49,.68,.59,.31,.11,.66,.16,.98,.05s.56-.43,.52-.76-.44-.59-.73-.43"/><path class="cls-4" d="M56.79,498.53c-.4-.18-.83,.35-.71,.77,.13,.42,.59,.65,1.02,.71,.37,.05,.81-.03,.98-.36,.17-.32-.01-.74-.31-.95-.29-.21-.67-.27-1.03-.32"/><path class="cls-4" d="M64.89,498.96c-.34-.27-.91-.06-1.06,.34-.15,.4,.07,.89,.44,1.11,.3,.18,.7,.2,1,.02s.46-.58,.34-.91-.54-.52-.86-.37"/><path class="cls-4" d="M63.03,492.12c.97-.49,1.43,.46,1.28,1.07s-1.01,.89-1.49,.49c-.47-.41-.35-1.3,.21-1.56"/><path class="cls-4" d="M68.1,496.36c-.57,.2-.9,.89-.71,1.46s.89,.91,1.46,.71,.9-.91,.68-1.47-.94-.86-1.49-.61"/><path class="cls-4" d="M71.06,491.33c.79-.54,1.51,.61,1.3,1.19-.22,.58-1.07,.78-1.53,.37-.46-.42-.33-1.29,.23-1.56"/><path class="cls-4" d="M74.71,496.62c.58,.15,.85,.95,.49,1.43-.36,.47-1.21,.43-1.51-.09-.3-.51,0-1.6,1.02-1.34"/><path class="cls-4" d="M72.66,499.74c-.52,.05-.92,.62-.79,1.12s.75,.81,1.23,.62c.48-.2,.71-.85,.45-1.3s-.93-.59-1.35-.29"/><path class="cls-4" d="M80.93,491.06c.68-.04,1.25,.75,1.02,1.38-.24,.63-1.19,.84-1.67,.37-.49-.48-.4-1.62,.65-1.75"/><path class="cls-4" d="M75.65,491.4c.54-.29,1.32,.12,1.39,.73s-.59,1.18-1.18,1.03c-.59-.16-1.38-1.18-.21-1.76"/><path class="cls-4" d="M80.29,495.89c-.51,.22-.74,.91-.48,1.4,.26,.49,.97,.66,1.43,.36,.46-.31,.57-1.03,.22-1.46s-1.08-.46-1.47-.06"/><path class="cls-4" d="M80.56,499.47c.47-.03,.88,.52,.71,.96s-.85,.58-1.17,.23-.39-.96,.46-1.19"/><path class="cls-4" d="M87.67,492.47c.02,.46,.3,.9,.69,1.14,.26,.16,.59,.24,.88,.14,.89-.28,.85-1.77,.29-2.34-.75-.75-1.91,.17-1.86,1.06Z"/><path class="cls-4" d="M88.38,496.33c-.2,.19-.4,.39-.53,.64s-.17,.56-.04,.8c.15,.28,.52,.41,.82,.32,.31-.09,.53-.38,.59-.69s-.05-.64-.25-.89c-.1-.13-.24-.24-.4-.26s-.34,.09-.35,.26"/><path class="cls-4" d="M88.55,500.15c.69-.27,1.04,.08,1.13,.39,.09,.3-.09,.66-.39,.77-.3,.1-.67-.07-.78-.37s.05-.67,.34-.79"/><path class="cls-4" d="M97.84,491.61c-.67-.23-1.11,.23-1.2,.59-.08,.36,.12,.75,.43,.94,.33,.2,.77,.21,1.09-.01,.31-.22,.46-.66,.33-1.02s-.56-.59-.93-.48"/><path class="cls-4" d="M93.68,496.75c-.07,0-.15,.01-.22,.01-.07,.21-.14,.43-.13,.66s.1,.46,.29,.58c.2,.12,.46,.09,.65-.03,.19-.13,.32-.33,.38-.55s.07-.46-.02-.67c-.09-.21-.3-.37-.52-.37s-.45,.19-.44,.42l-.18-.03"/><path class="cls-4" d="M96.17,499.32c-.1,.15-.5,.5-.55,.68s-.04,.39,.08,.53c.2,.25,.59,.21,.88,.09,.31-.13,.61-.33,.75-.64,.13-.31,.04-.73-.26-.88-.2-.1-.44-.06-.63,.03-.2,.1-.36,.25-.51,.4"/><path class="cls-4" d="M101.14,498.52c.35-.13,.63-.51,.54-.87-.1-.43-.6-.62-1.03-.68-.55-.08-1.46,.13-1.2,.88,.21,.57,1.15,.86,1.69,.67Z"/><path class="cls-4" d="M104.25,493.47c.15,.3,.47,.48,.79,.6,.36,.14,.75,.22,1.12,.12s.68-.46,.64-.84c-.03-.26-.22-.48-.44-.61s-.48-.2-.73-.26c-.59-.14-1.86,.05-1.38,.99Z"/><path class="cls-4" d="M104.55,499.07c-.2,.06-.33,.27-.34,.48-.01,.21,.09,.41,.24,.56,.4,.38,1.14,.28,1.42-.19,.28-.47,.03-1.17-.49-1.34-.52-.17-1.15,.23-1.2,.77"/><path class="cls-4" d="M109.21,498.33c.2,.17,.46,.27,.72,.32,.23,.05,.47,.07,.69,.02,.23-.05,.44-.2,.54-.4,.15-.3,.03-.68-.21-.92s-.57-.35-.9-.41c-.29-.06-.6-.08-.86,.05-.57,.28-.38,1,.02,1.34Z"/><path class="cls-4" d="M112.98,494.19c-.21,.02-.35,.27-.31,.48s.19,.38,.35,.53c.15,.14,.32,.28,.52,.34,.2,.07,.43,.06,.6-.07,.21-.16,.26-.48,.15-.72s-.33-.41-.57-.51c-.24-.1-.51-.13-.77-.16"/><path class="cls-4" d="M119.4,496.38c-.23-.12-.5-.19-.74-.12s-.47,.29-.47,.54c0,.35,.35,.6,.68,.72,.35,.12,.8,.13,1-.17,.15-.22,.09-.55-.08-.75-.18-.2-.45-.3-.72-.35"/><g><path class="cls-4" d="M48.87,519.34c-2.51-1.86-5.8-2.35-8.92-2.21-3.12,.14-6.19,.86-9.3,1.16s-6.92-.3-7.85-.73c.6,.89,2.07,2.31,2.96,2.9"/><path class="cls-4" d="M44.58,521.14c-.56-1.76-3.53-2.44-5.38-2.42-1.84,.02-2.62,.51-4.36,1.12-3.33,1.18-7.09,1.9-10.34,.51,1.61,2.28,3.86,4.1,6.43,5.18"/><path class="cls-4" d="M54.54,521.85c-1.1-1.35-3.92-1.47-5.66-1.38-3.87,.2-6.6,1.73-10.12,3.33-3.53,1.61-7.25,3.15-11.13,2.97"/><path class="cls-4" d="M28.66,526.78c1.06,.87,3.58,2.11,4.86,1.64,4.43-1.61,6.99-3.2,11.42-4.81,1.12-.4,3.25-.51,4.44-.61,1.18-.1,2.44,.15,3.34,.92"/><path class="cls-4" d="M32.46,528.84c2.08,2.51,6.46,3.58,9.05,3.27,2.03-.24,3.83-1.42,5.37-2.77,1.54-1.35,3-2.77,4.5-4.15,4.35-3.99,8.77-3.95,13.33-2.82"/><path class="cls-4" d="M66.91,523.5c-3.13-.41-6.29,.77-8.95,2.49s-4.93,3.95-7.37,5.97c-1.56,1.28-2,1.58-3.98,1.91s-3.22-.12-5.1-1.75"/><path class="cls-4" d="M77.89,523.6c-4.44-3.31-9.45-1.42-12.73,1.39-3.03,2.6-4.73,6.58-8.02,8.86-3.26,2.27-7.87,2.4-11.25,.33"/><path class="cls-4" d="M52.21,536c5.47,3.16,8.99-.16,11.23-2.55,2.19-2.34,3.09-4.55,5.5-6.67,2.59-2.28,5.79-4.55,8.96-3.18"/><path class="cls-4" d="M74.14,535.53c-2.04,.92-3.38,1.39-5.67,1.77-.76,.13-3.42,.05-4.19,0-.77-.06-2.43-.54-2.98-1.08"/></g><g><path class="cls-4" d="M119.33,520.62c2.51-1.86,5.8-2.35,8.92-2.21,3.12,.14,6.19,.86,9.3,1.16s6.92-.3,7.85-.73c-.6,.89-2.07,2.31-2.96,2.9"/><path class="cls-4" d="M123.62,522.42c.56-1.76,3.53-2.44,5.38-2.42,1.84,.02,2.62,.51,4.36,1.12,3.33,1.18,7.09,1.9,10.34,.51-1.61,2.28-3.86,4.1-6.43,5.18"/><path class="cls-4" d="M113.66,523.14c1.1-1.35,3.92-1.47,5.66-1.38,3.87,.2,6.6,1.73,10.12,3.33,3.53,1.61,7.25,3.15,11.13,2.97"/><path class="cls-4" d="M139.55,528.07c-1.06,.87-3.58,2.11-4.86,1.64-4.43-1.61-6.99-3.2-11.42-4.81-1.12-.4-3.25-.51-4.44-.61-1.18-.1-2.44,.15-3.34,.92"/><path class="cls-4" d="M135.74,530.12c-2.08,2.51-6.46,3.58-9.05,3.27-2.03-.24-3.83-1.42-5.37-2.77-1.54-1.35-3-2.77-4.5-4.15-4.35-3.99-8.77-3.95-13.33-2.82"/><path class="cls-4" d="M101.29,524.78c3.13-.41,6.29,.77,8.95,2.49s4.93,3.95,7.37,5.97c1.56,1.28,2,1.58,3.98,1.91,1.99,.34,3.22-.12,5.1-1.75"/><path class="cls-4" d="M90.31,524.89c4.44-3.31,9.45-1.42,12.73,1.39,3.03,2.6,4.73,6.58,8.02,8.86,3.26,2.27,7.87,2.4,11.25,.33"/><path class="cls-4" d="M115.99,537.29c-5.47,3.16-8.99-.16-11.23-2.55-2.19-2.34-3.09-4.55-5.5-6.67-2.59-2.28-5.79-4.55-8.96-3.18"/><path class="cls-4" d="M91.94,536.45c2.3,1.5,5.5,1.75,7.79,2.14,.76,.13,3.42,.05,4.19,0,.77-.06,2.43-.54,2.98-1.08"/></g><g><path class="cls-4" d="M81.51,523c-1.68-.32-3.46,.45-4.6,1.74s-2.21,3.79-2.3,5.51c-.14,2.61,.91,5.4,3.51,6.56,2.63,1.18,3.93,1.89,6.1,3.65,1.55-2.4,3.94-3.07,6.2-4.82,2.03-1.56,3.35-5.73,1.52-8.71-1.49-2.43-2.8-3.46-5.59-4.02"/><path class="cls-4" d="M78.59,530.83c-.01,2.89,2.04,5.68,4.8,6.52,2.09-.97,4.35-2.11,5.25-4.23,.52-1.22,.51-2.61,.17-3.89-.58-2.22-2.97-5.29-5.62-4.79-2.67,.5-4.59,3.89-4.6,6.39Z"/></g></g></g><rect class="cls-3" x="26.58" y="539.07" width="108.95" height="20.93"/></svg>