<?xml version="1.0" encoding="UTF-8"?><svg id="Layer_2" xmlns="http://www.w3.org/2000/svg" viewBox="0 0 162.83 564.34"><defs><style>.cls-1{stroke-width:1.1px;}.cls-1,.cls-2,.cls-3,.cls-4,.cls-5,.cls-6,.cls-7,.cls-8,.cls-9,.cls-10,.cls-11{stroke:#231f20;stroke-miterlimit:10;}.cls-1,.cls-2,.cls-3,.cls-4,.cls-5,.cls-6,.cls-7,.cls-8,.cls-10,.cls-11{fill:none;}.cls-2{stroke-width:.8px;}.cls-12,.cls-13,.cls-14,.cls-9{fill:#231f20;}.cls-15{letter-spacing:-.12em;}.cls-13{font-size:9px;}.cls-13,.cls-14{font-family:OldEnglishTextMT, 'Old English Text MT';}.cls-3{stroke-width:1.25px;}.cls-4,.cls-9{stroke-width:.75px;}.cls-5{stroke-width:2px;}.cls-7{stroke-width:1.2px;}.cls-8{stroke-width:1.75px;}.cls-16{font-size:12px;}.cls-17{font-size:11px;}.cls-10{stroke-width:.5px;}.cls-11{stroke-width:2.75px;}</style></defs><path class="cls-12" d="M102.49,64.95c-.42-.41-1-.61-1.55-.8,1.48-1.43,1.44-4.12-.08-5.5l-.23-.16c-1.17,2.61-4.19,4.26-7.02,3.83-1.06,1.64-1.48,2.4-3.36,2.91-.68,.18-2.94,.21-3.61,0s-1-.23-1.09-.93c-1.27,1.26-3.08,1.95-4.87,1.88-1.79-.08-3.53-.92-4.69-2.28-2.24,1.37-5.49,.7-7-1.45,.03,.05-2.54,.24-2.81,.19-1.05-.16-1.9-.59-2.82-1.08-.64-.35-2.24,.04-2.03,.91,.55,2.26,.28,1.46,.36,1.73,.6,1.97-1.03,1.2-1.67,1.6-1.86,1.17-.59,1.65-.59,1.65,1.05,.7,1.32,.8,2.37,1.5,1.51,1,3.02,2.01,4.67,2.76,2.45,1.12,7.2,1.16,9.89,1.35,9.44,.65,16.55-2.35,25.37-5.77,.43-.17,.89-.36,1.11-.76,.29-.51,.07-1.19-.36-1.59Zm-3.03-2.76c.3-.5,.9-1.32,1.48-1.42,.27,.65,.08,1.49-.24,2.09-.06,.12-1.4,1.63-1.51,1.35-.26-.66-.09-1.42,.28-2.02Zm-25.85,3.63c1.28,.26,2.28,1.55,2.2,2.86-1.27-.4-2.23-1.62-2.32-2.95l.12,.09Zm-1.18,.33c.37,.5,.62,1.08,.87,1.65,.14,.32,.24,.77-.06,.94-.3,.17-.64-.14-.85-.41-.47-.63-.94-1.26-1.41-1.89-1.16-1.55,.67-1.34,1.45-.29Zm-3.58-1.68l.03,.23c1.14,.67,1.83,2.05,1.68,3.37-1.4-.48-2.22-2.21-1.71-3.6Zm-2.39,.26c.07-.22,.33-.4,.54-.3l-.03-.05c.43,.6,.75,1.28,.92,2,.07,.28,.03,.68-.26,.71-.19,.02-.33-.16-.43-.31-.27-.43-.49-.89-.67-1.37-.08-.22-.15-.46-.08-.68Zm-2.25-.68c.07-.18,.14-.36,.2-.54h.49l.83,2.26c.08,.22,.13,.52-.07,.63-.17,.1-.37-.02-.52-.15-.76-.68-1.16-1.74-1.04-2.75l.09,.55Zm-2.43,0c-.26-.59-.15-1.32,.27-1.8l-.26,.3c0-.12,0-.24,.01-.36l.39,.04c.67,.79,1.06,1.81,1.1,2.84-.64-.02-1.25-.44-1.51-1.02Zm-1.08,3.22c-.35,0-.8-.12-.8-.47,0-.4,.56-.45,.91-.67-.02,0-.04,0-.05,.02l.29-.25c-.05,.1-.13,.17-.23,.24,.53-.2,1.09-.31,1.65-.33,.44-.01,1.01,.16,1,.59,0,.38-.44,.58-.81,.66-.64,.14-1.29,.22-1.95,.22Zm4.44,1.49c-.75,.14-1.53,.08-2.25-.19l.13-.03c.46-.74,1.31-1.22,2.18-1.23,.35,0,.77,.12,.88,.45,.08,.25-.04,.52-.23,.69-.2,.17-.46,.24-.71,.29Zm1.77,1.74c-.27,.1-.6,.2-.84,.02-.2-.15-.23-.45-.14-.69,.09-.23,.28-.41,.46-.59,.29-.27,.58-.55,.96-.67,.34-.11,.74-.05,.98,.2h.13c.11,.41-.1,.86-.42,1.14-.32,.28-.73,.44-1.13,.59Zm2.2,1.52c-.36,.07-.83-.03-.93-.39-.11-.37,.25-.71,.6-.88,.34-.17,.75-.32,.9-.67-.03,.03-.06,.06-.09,.1l.02-.37,.07,.26h0c.23-.24,.48-.49,.81-.58,.37-.1,.84,.08,.9,.46,.05,.3-.18,.57-.4,.8-.53,.55-1.12,1.14-1.87,1.28Zm3.99-.25c-.26,.24-.57,.47-.92,.51-.36,.04-.76-.16-.84-.51-.06-.26,.06-.52,.22-.73,.43-.56,1.15-.88,1.86-.82l-.29,.02c.32,.03,.53,.41,.48,.73-.05,.32-.27,.59-.51,.81Zm2.91-.68c-.37,.39-.8,.72-1.27,.98-.25,.14-.6,.25-.79,.04-.25-.27,.06-.7,.38-.89,.32-.18,.73-.39,.73-.76l-.06,.39c.13-.26,.27-.54,.52-.7,.25-.16,.64-.12,.77,.14,.13,.27-.07,.57-.27,.79Zm.4-5.06h.14c.95,.35,1.76,1.08,2.2,1.98,.09,.19,.17,.41,.11,.61-.13,.43-.76,.44-1.17,.24-1.01-.49-1.58-1.75-1.28-2.83Zm2.48,4.85c-.25,.84-.94,1.53-1.78,1.77-.18,.05-.4,.08-.55-.04-.27-.21-.09-.64,.13-.9,.52-.63,1.16-1.16,1.87-1.56,0,0-.02,0-.02,0l-.15,.08c.04-.05,.09-.07,.15-.08l.09-.05s-.05,.03-.07,.05c.12,0,.25,.05,.32,.16,.1,.17,.07,.39,.01,.58Zm1.65-2.23v.24c.16-1.1,.91-2.08,1.92-2.55,.14,.91-.16,1.87-.8,2.53-.2,.21-.45,.39-.74,.37s-.54-.36-.38-.6Zm2.1,3.58c-.27,.04-.54-.07-.76-.21-.55-.34-.95-.91-1.08-1.54l-.11-.04c.74-.02,1.48,.21,2.07,.64,.21,.15,.41,.36,.41,.61,0,.27-.26,.49-.52,.53Zm.42-3.27c-.19-.21-.15-.54,0-.77,.12-.19,.3-.32,.49-.44,.25-.88,1.15-1.52,2.06-1.47,.18,1.16-.56,2.39-1.67,2.78-.29,.1-.67,.13-.88-.1Zm2.59,2.74c-.19,.12-.45,.04-.65-.08-.5-.29-.89-.75-1.09-1.29l.08,.02c.11-.28,.49-.38,.77-.28s.5,.33,.7,.56c.14,.15,.28,.31,.34,.51,.06,.2,.02,.44-.16,.55Zm.37-3.08c0-.68,.29-1.36,.8-1.82,.5-.46,1.21-.69,1.89-.63v.2c.07,.68-.22,1.39-.75,1.83-.53,.44-1.27,.6-1.93,.42Zm3,1.92c-.27,.15-.6,.14-.91,.1-.26-.04-.53-.1-.7-.3-.17-.2-.15-.56,.09-.66l.07-.04c.56-.19,1.2-.15,1.74,.11,.16,.27,0,.64-.28,.79Zm3.1-5.67l-.18,.03c.09-.18,.39-.12,.48,.05,.09,.17,.04,.39-.02,.57-.43,1.18-1.54,2.08-2.78,2.26,.13-1.36,1.18-2.58,2.51-2.91Zm.63,5c-.2,.42-.81,.32-1.24,.16-.28-.11-.58-.22-.79-.44-.19-.2-.27-.51-.16-.75-.03,.04-.06,.07-.07,.12l.1-.2s-.02,.06-.03,.08c.13-.18,.37-.29,.61-.28,.28,0,.55,.12,.8,.23,.23,.1,.46,.21,.63,.39,.17,.18,.26,.46,.15,.68Zm2.33-6.78l.16,.07c.33,.7,.27,1.57-.15,2.22-.42,.65-1.19,1.06-1.96,1.05,.25-1.29,.95-2.48,1.95-3.33Zm.01,6.14c-.31,.09-.64,.02-.94-.09-.3-.1-.59-.24-.8-.47-.21-.24-.3-.6-.15-.87,.15-.28,.58-.38,.79-.16l-.09-.25c.18,.31,.58,.4,.92,.5,.34,.1,.73,.29,.79,.64,.05,.32-.21,.61-.52,.7Zm1.14-3.67c-.06-.24-.01-.49,.05-.73,.15-.64,.76-2.68,1.74-1.93,.83,.64-.34,2.2-.76,2.74-.13,.17-.29,.34-.5,.35-.25,.02-.46-.2-.52-.44Zm.68,2.2c-.33-.24-.61-.67-.42-1.03,.19-.36,.69-.38,1.08-.28,.73,.19,1.39,.65,1.82,1.27l.1,.09c-.77,.5-1.84,.47-2.58-.06Zm4.38-.93c-.26,.1-.55,.08-.82,.07-.41-.02-.84-.06-1.17-.31-.27-.21-.38-.62-.24-.9-.07,.04-.15,.06-.22,.11l.32-.27c-.05,.04-.08,.11-.1,.16,.64-.35,1.43-.41,2.11-.13,.29,.12,.59,.35,.6,.66,.01,.28-.22,.52-.47,.62Z"/><g><g><polyline class="cls-6" points="4.94 116.14 4.94 111.63 11.61 111.63 11.61 107.69"/><polyline class="cls-6" points="12.04 115.41 8.03 115.35 8.03 108.32 4.51 108.26"/></g><g><polyline class="cls-6" points="4.94 104.84 4.94 100.6 11.61 100.6 11.61 96.89"/><polyline class="cls-6" points="12.04 104.15 8.03 104.09 8.03 97.47 4.51 97.42"/></g><g><polyline class="cls-6" points="4.94 136.67 4.94 132.16 11.61 132.16 11.61 128.22"/><polyline class="cls-6" points="12.04 135.94 8.03 135.88 8.03 128.84 4.51 128.79"/></g><g><polyline class="cls-6" points="4.94 126.01 4.94 121.77 11.61 121.77 11.61 118.06"/><polyline class="cls-6" points="12.04 125.33 8.03 125.27 8.03 118.65 4.51 118.6"/></g><g><polyline class="cls-6" points="4.94 158.02 4.94 153.51 11.61 153.51 11.61 149.57"/><polyline class="cls-6" points="12.04 157.29 8.03 157.23 8.03 150.2 4.51 150.14"/></g><g><polyline class="cls-6" points="4.94 146.58 4.94 142.34 11.61 142.34 11.61 138.63"/><polyline class="cls-6" points="12.04 145.9 8.03 145.84 8.03 139.22 4.51 139.16"/></g><g><polyline class="cls-6" points="4.94 178.47 4.94 173.97 11.61 173.97 11.61 170.02"/><polyline class="cls-6" points="12.04 177.75 8.03 177.68 8.03 170.65 4.51 170.59"/></g><g><polyline class="cls-6" points="4.94 167.75 4.94 163.51 11.61 163.51 11.61 159.8"/><polyline class="cls-6" points="12.04 167.07 8.03 167.01 8.03 160.39 4.51 160.33"/></g><g><polyline class="cls-6" points="4.94 200.11 4.94 195.6 11.61 195.6 11.61 191.66"/><polyline class="cls-6" points="12.04 199.38 8.03 199.32 8.03 192.29 4.51 192.23"/></g><g><polyline class="cls-6" points="4.94 188.81 4.94 184.57 11.61 184.57 11.61 180.86"/><polyline class="cls-6" points="12.04 188.13 8.03 188.07 8.03 181.45 4.51 181.39"/></g><g><polyline class="cls-6" points="4.94 220.64 4.94 216.13 11.61 216.13 11.61 212.19"/><polyline class="cls-6" points="12.04 219.91 8.03 219.85 8.03 212.82 4.51 212.76"/></g><g><polyline class="cls-6" points="4.94 209.98 4.94 205.74 11.61 205.74 11.61 202.03"/><polyline class="cls-6" points="12.04 209.3 8.03 209.24 8.03 202.62 4.51 202.57"/></g><g><polyline class="cls-6" points="4.94 241.99 4.94 237.48 11.61 237.48 11.61 233.54"/><polyline class="cls-6" points="12.04 241.27 8.03 241.2 8.03 234.17 4.51 234.11"/></g><g><polyline class="cls-6" points="4.94 230.55 4.94 226.31 11.61 226.31 11.61 222.6"/><polyline class="cls-6" points="12.04 229.87 8.03 229.81 8.03 223.19 4.51 223.13"/></g><g><polyline class="cls-6" points="4.94 262.44 4.94 257.94 11.61 257.94 11.61 253.99"/><polyline class="cls-6" points="12.04 261.72 8.03 261.65 8.03 254.62 4.51 254.56"/></g><g><polyline class="cls-6" points="4.94 251.72 4.94 247.48 11.61 247.48 11.61 243.77"/><polyline class="cls-6" points="12.04 251.04 8.03 250.98 8.03 244.36 4.51 244.3"/></g><g><polyline class="cls-6" points="4.94 32.6 4.94 28.09 11.61 28.09 11.61 24.15"/><polyline class="cls-6" points="12.04 31.87 8.03 31.81 8.03 24.78 4.51 24.72"/></g><g><polyline class="cls-6" points="4.94 21.3 4.94 17.06 11.61 17.06 11.61 13.35"/><polyline class="cls-6" points="12.04 20.61 8.03 20.55 8.03 13.93 4.51 13.88"/></g><g><polyline class="cls-6" points="4.94 53.13 4.94 48.62 11.61 48.62 11.61 44.68"/><polyline class="cls-6" points="12.04 52.4 8.03 52.34 8.03 45.3 4.51 45.25"/></g><g><polyline class="cls-6" points="4.94 42.47 4.94 38.23 11.61 38.23 11.61 34.52"/><polyline class="cls-6" points="12.04 41.79 8.03 41.73 8.03 35.11 4.51 35.06"/></g><g><polyline class="cls-6" points="4.94 74.48 4.94 69.97 11.61 69.97 11.61 66.03"/><polyline class="cls-6" points="12.04 73.75 8.03 73.69 8.03 66.66 4.51 66.6"/></g><g><polyline class="cls-6" points="4.94 63.04 4.94 58.8 11.61 58.8 11.61 55.09"/><polyline class="cls-6" points="12.04 62.36 8.03 62.3 8.03 55.68 4.51 55.62"/></g><g><polyline class="cls-6" points="4.94 94.93 4.94 90.43 11.61 90.43 11.61 86.48"/><polyline class="cls-6" points="12.04 94.21 8.03 94.14 8.03 87.11 4.51 87.05"/></g><g><polyline class="cls-6" points="4.94 84.21 4.94 79.97 11.61 79.97 11.61 76.26"/><polyline class="cls-6" points="12.04 83.53 8.03 83.47 8.03 76.85 4.51 76.79"/></g><g><polyline class="cls-6" points="4.94 368.21 4.94 363.71 11.61 363.71 11.61 359.76"/><polyline class="cls-6" points="12.04 367.49 8.03 367.42 8.03 360.39 4.51 360.33"/></g><g><polyline class="cls-6" points="4.94 356.91 4.94 352.67 11.61 352.67 11.61 348.96"/><polyline class="cls-6" points="12.04 356.23 8.03 356.17 8.03 349.55 4.51 349.5"/></g><g><polyline class="cls-6" points="4.94 388.74 4.94 384.24 11.61 384.24 11.61 380.29"/><polyline class="cls-6" points="12.04 388.02 8.03 387.95 8.03 380.92 4.51 380.86"/></g><g><polyline class="cls-6" points="4.94 378.09 4.94 373.85 11.61 373.85 11.61 370.14"/><polyline class="cls-6" points="12.04 377.4 8.03 377.34 8.03 370.72 4.51 370.67"/></g><g><polyline class="cls-6" points="4.94 410.09 4.94 405.59 11.61 405.59 11.61 401.64"/><polyline class="cls-6" points="12.04 409.37 8.03 409.3 8.03 402.27 4.51 402.21"/></g><g><polyline class="cls-6" points="4.94 398.65 4.94 394.41 11.61 394.41 11.61 390.7"/><polyline class="cls-6" points="12.04 397.97 8.03 397.91 8.03 391.29 4.51 391.24"/></g><g><polyline class="cls-6" points="4.94 430.54 4.94 426.04 11.61 426.04 11.61 422.1"/><polyline class="cls-6" points="12.04 429.82 8.03 429.76 8.03 422.72 4.51 422.67"/></g><g><polyline class="cls-6" points="4.94 419.82 4.94 415.58 11.61 415.58 11.61 411.87"/><polyline class="cls-6" points="12.04 419.14 8.03 419.08 8.03 412.46 4.51 412.41"/></g><g><polyline class="cls-6" points="4.94 452.18 4.94 447.68 11.61 447.68 11.61 443.73"/><polyline class="cls-6" points="12.04 451.46 8.03 451.39 8.03 444.36 4.51 444.3"/></g><g><polyline class="cls-6" points="4.94 440.88 4.94 436.64 11.61 436.64 11.61 432.93"/><polyline class="cls-6" points="12.04 440.2 8.03 440.14 8.03 433.52 4.51 433.47"/></g><g><polyline class="cls-6" points="4.94 472.71 4.94 468.21 11.61 468.21 11.61 464.26"/><polyline class="cls-6" points="12.04 471.99 8.03 471.92 8.03 464.89 4.51 464.83"/></g><g><polyline class="cls-6" points="4.94 462.06 4.94 457.82 11.61 457.82 11.61 454.11"/><polyline class="cls-6" points="12.04 461.37 8.03 461.31 8.03 454.69 4.51 454.64"/></g><g><polyline class="cls-6" points="4.94 494.06 4.94 489.56 11.61 489.56 11.61 485.62"/><polyline class="cls-6" points="12.04 493.34 8.03 493.28 8.03 486.24 4.51 486.18"/></g><g><polyline class="cls-6" points="4.94 482.62 4.94 478.38 11.61 478.38 11.61 474.67"/><polyline class="cls-6" points="12.04 481.94 8.03 481.88 8.03 475.26 4.51 475.21"/></g><g><polyline class="cls-6" points="4.94 514.51 4.94 510.01 11.61 510.01 11.61 506.07"/><polyline class="cls-6" points="12.04 513.79 8.03 513.73 8.03 506.69 4.51 506.64"/></g><g><polyline class="cls-6" points="4.94 503.79 4.94 499.55 11.61 499.55 11.61 495.84"/><polyline class="cls-6" points="12.04 503.11 8.03 503.05 8.03 496.43 4.51 496.38"/></g><g><polyline class="cls-6" points="4.94 284.67 4.94 280.17 11.61 280.17 11.61 276.22"/><polyline class="cls-6" points="12.04 283.95 8.03 283.88 8.03 276.85 4.51 276.79"/></g><g><polyline class="cls-6" points="4.94 273.37 4.94 269.13 11.61 269.13 11.61 265.42"/><polyline class="cls-6" points="12.04 272.69 8.03 272.63 8.03 266.01 4.51 265.96"/></g><g><polyline class="cls-6" points="4.94 305.2 4.94 300.7 11.61 300.7 11.61 296.75"/><polyline class="cls-6" points="12.04 304.48 8.03 304.41 8.03 297.38 4.51 297.32"/></g><g><polyline class="cls-6" points="4.94 294.55 4.94 290.31 11.61 290.31 11.61 286.6"/><polyline class="cls-6" points="12.04 293.86 8.03 293.8 8.03 287.18 4.51 287.13"/></g><g><polyline class="cls-6" points="4.94 326.55 4.94 322.05 11.61 322.05 11.61 318.1"/><polyline class="cls-6" points="12.04 325.83 8.03 325.76 8.03 318.73 4.51 318.67"/></g><g><polyline class="cls-6" points="4.94 315.11 4.94 310.87 11.61 310.87 11.61 307.16"/><polyline class="cls-6" points="12.04 314.43 8.03 314.37 8.03 307.75 4.51 307.7"/></g><g><polyline class="cls-6" points="4.94 347 4.94 342.5 11.61 342.5 11.61 338.56"/><polyline class="cls-6" points="12.04 346.28 8.03 346.22 8.03 339.18 4.51 339.13"/></g><g><polyline class="cls-6" points="4.94 336.28 4.94 332.04 11.61 332.04 11.61 328.33"/><polyline class="cls-6" points="12.04 335.6 8.03 335.54 8.03 328.92 4.51 328.87"/></g><polyline class="cls-6" points="4.94 526.12 4.94 521.61 11.61 521.61 11.61 517.67"/><polyline class="cls-6" points="12.04 525.39 8.03 525.33 8.03 518.3 4.51 518.24"/><polyline class="cls-6" points="4.94 546.57 4.94 542.06 11.61 542.06 11.61 538.12"/><polyline class="cls-6" points="12.04 545.85 8.03 545.78 8.03 538.75 4.51 538.69"/><polyline class="cls-6" points="4.94 535.85 4.94 531.61 11.61 531.61 11.61 527.9"/><polyline class="cls-6" points="12.04 535.17 8.03 535.11 8.03 528.49 4.51 528.43"/><g><g><g><polyline class="cls-6" points="4.44 3.47 8.17 3.47 8.17 10.91 11.42 10.91"/><polyline class="cls-6" points="5.04 11.39 5.1 6.91 10.91 6.91 10.95 2.99"/></g><g><polyline class="cls-6" points="13.93 3.47 17.65 3.47 17.65 10.91 20.91 10.91"/><polyline class="cls-6" points="14.53 11.39 14.58 6.91 20.39 6.91 20.44 2.99"/></g><g><polyline class="cls-6" points="22.42 3.47 26.14 3.47 26.14 10.91 29.4 10.91"/><polyline class="cls-6" points="23.02 11.39 23.07 6.91 28.88 6.91 28.93 2.99"/></g><g><polyline class="cls-6" points="31.91 3.47 35.63 3.47 35.63 10.91 38.89 10.91"/><polyline class="cls-6" points="32.51 11.39 32.56 6.91 38.37 6.91 38.42 2.99"/></g><g><polyline class="cls-6" points="41.4 3.47 45.12 3.47 45.12 10.91 48.38 10.91"/><polyline class="cls-6" points="42 11.39 42.05 6.91 47.86 6.91 47.91 2.99"/></g><g><polyline class="cls-6" points="49.89 3.47 53.61 3.47 53.61 10.91 56.86 10.91"/><polyline class="cls-6" points="50.48 11.39 50.54 6.91 56.35 6.91 56.39 2.99"/></g><g><polyline class="cls-6" points="59.14 3.47 62.86 3.47 62.86 10.91 66.12 10.91"/><polyline class="cls-6" points="59.74 11.39 59.79 6.91 65.6 6.91 65.65 2.99"/></g><g><polyline class="cls-6" points="68.39 3.47 72.11 3.47 72.11 10.91 75.37 10.91"/><polyline class="cls-6" points="68.99 11.39 69.04 6.91 74.85 6.91 74.9 2.99"/></g><g><polyline class="cls-6" points="77.88 3.47 81.6 3.47 81.6 10.91 84.86 10.91"/><polyline class="cls-6" points="78.48 11.39 78.53 6.91 84.34 6.91 84.39 2.99"/></g><g><polyline class="cls-6" points="86.84 3.47 90.56 3.47 90.56 10.91 93.82 10.91"/><polyline class="cls-6" points="87.44 11.39 87.49 6.91 93.3 6.91 93.35 2.99"/></g><g><polyline class="cls-6" points="95.93 3.47 99.65 3.47 99.65 10.91 102.9 10.91"/><polyline class="cls-6" points="96.52 11.39 96.58 6.91 102.39 6.91 102.43 2.99"/></g><g><polyline class="cls-6" points="104.82 3.47 108.54 3.47 108.54 10.91 111.79 10.91"/><polyline class="cls-6" points="105.41 11.39 105.47 6.91 111.28 6.91 111.32 2.99"/></g><g><polyline class="cls-6" points="114.71 3.47 118.43 3.47 118.43 10.91 121.68 10.91"/><polyline class="cls-6" points="115.31 11.39 115.36 6.91 121.17 6.91 121.21 2.99"/></g><g><polyline class="cls-6" points="123.6 3.47 127.32 3.47 127.32 10.91 130.57 10.91"/><polyline class="cls-6" points="124.2 11.39 124.25 6.91 130.06 6.91 130.1 2.99"/></g><g><polyline class="cls-6" points="132.49 3.47 136.21 3.47 136.21 10.91 139.46 10.91"/><polyline class="cls-6" points="133.09 11.39 133.14 6.91 138.95 6.91 138.99 2.99"/></g><g><polyline class="cls-6" points="141.38 3.47 145.1 3.47 145.1 10.91 148.36 10.91"/><polyline class="cls-6" points="141.98 11.39 142.03 6.91 147.84 6.91 147.89 2.99"/></g><g><polyline class="cls-6" points="151.27 3.47 154.99 3.47 154.99 10.91 158.25 10.91"/><polyline class="cls-6" points="151.87 11.39 151.92 6.91 157.73 6.91 157.78 2.99"/></g></g><g><g><polyline class="cls-6" points="4.34 548.38 8.06 548.38 8.06 555.82 11.32 555.82"/><polyline class="cls-6" points="4.94 556.3 4.99 551.82 10.8 551.82 10.85 547.9"/></g><g><polyline class="cls-6" points="13.83 548.38 17.55 548.38 17.55 555.82 20.81 555.82"/><polyline class="cls-6" points="14.43 556.3 14.48 551.82 20.29 551.82 20.34 547.9"/></g><g><polyline class="cls-6" points="141.28 548.38 145 548.38 145 555.82 148.25 555.82"/><polyline class="cls-6" points="141.88 556.3 141.93 551.82 147.74 551.82 147.78 547.9"/></g><g><polyline class="cls-6" points="151.17 548.38 154.89 548.38 154.89 555.82 158.14 555.82"/><polyline class="cls-6" points="151.77 556.3 151.82 551.82 157.63 551.82 157.67 547.9"/></g></g><g><polyline class="cls-6" points="151.11 116.14 151.11 111.63 157.78 111.63 157.78 107.69"/><polyline class="cls-6" points="158.21 115.41 154.2 115.35 154.2 108.32 150.68 108.26"/></g><g><polyline class="cls-6" points="151.11 104.84 151.11 100.6 157.78 100.6 157.78 96.89"/><polyline class="cls-6" points="158.21 104.15 154.2 104.09 154.2 97.47 150.68 97.42"/></g><g><polyline class="cls-6" points="151.11 136.67 151.11 132.16 157.78 132.16 157.78 128.22"/><polyline class="cls-6" points="158.21 135.94 154.2 135.88 154.2 128.84 150.68 128.79"/></g><g><polyline class="cls-6" points="151.11 126.01 151.11 121.77 157.78 121.77 157.78 118.06"/><polyline class="cls-6" points="158.21 125.33 154.2 125.27 154.2 118.65 150.68 118.6"/></g><g><polyline class="cls-6" points="151.11 158.02 151.11 153.51 157.78 153.51 157.78 149.57"/><polyline class="cls-6" points="158.21 157.29 154.2 157.23 154.2 150.2 150.68 150.14"/></g><g><polyline class="cls-6" points="151.11 146.58 151.11 142.34 157.78 142.34 157.78 138.63"/><polyline class="cls-6" points="158.21 145.9 154.2 145.84 154.2 139.22 150.68 139.16"/></g><g><polyline class="cls-6" points="151.11 178.47 151.11 173.97 157.78 173.97 157.78 170.02"/><polyline class="cls-6" points="158.21 177.75 154.2 177.68 154.2 170.65 150.68 170.59"/></g><g><polyline class="cls-6" points="151.11 167.75 151.11 163.51 157.78 163.51 157.78 159.8"/><polyline class="cls-6" points="158.21 167.07 154.2 167.01 154.2 160.39 150.68 160.33"/></g><g><polyline class="cls-6" points="151.11 200.11 151.11 195.6 157.78 195.6 157.78 191.66"/><polyline class="cls-6" points="158.21 199.38 154.2 199.32 154.2 192.29 150.68 192.23"/></g><g><polyline class="cls-6" points="151.11 188.81 151.11 184.57 157.78 184.57 157.78 180.86"/><polyline class="cls-6" points="158.21 188.13 154.2 188.07 154.2 181.45 150.68 181.39"/></g><g><polyline class="cls-6" points="151.11 220.64 151.11 216.13 157.78 216.13 157.78 212.19"/><polyline class="cls-6" points="158.21 219.91 154.2 219.85 154.2 212.82 150.68 212.76"/></g><g><polyline class="cls-6" points="151.11 209.98 151.11 205.74 157.78 205.74 157.78 202.03"/><polyline class="cls-6" points="158.21 209.3 154.2 209.24 154.2 202.62 150.68 202.57"/></g><g><polyline class="cls-6" points="151.11 241.99 151.11 237.48 157.78 237.48 157.78 233.54"/><polyline class="cls-6" points="158.21 241.27 154.2 241.2 154.2 234.17 150.68 234.11"/></g><g><polyline class="cls-6" points="151.11 230.55 151.11 226.31 157.78 226.31 157.78 222.6"/><polyline class="cls-6" points="158.21 229.87 154.2 229.81 154.2 223.19 150.68 223.13"/></g><g><polyline class="cls-6" points="151.11 262.44 151.11 257.94 157.78 257.94 157.78 253.99"/><polyline class="cls-6" points="158.21 261.72 154.2 261.65 154.2 254.62 150.68 254.56"/></g><g><polyline class="cls-6" points="151.11 251.72 151.11 247.48 157.78 247.48 157.78 243.77"/><polyline class="cls-6" points="158.21 251.04 154.2 250.98 154.2 244.36 150.68 244.3"/></g><g><polyline class="cls-6" points="151.11 32.6 151.11 28.09 157.78 28.09 157.78 24.15"/><polyline class="cls-6" points="158.21 31.87 154.2 31.81 154.2 24.78 150.68 24.72"/></g><g><polyline class="cls-6" points="151.11 21.3 151.11 17.06 157.78 17.06 157.78 13.35"/><polyline class="cls-6" points="158.21 20.61 154.2 20.55 154.2 13.93 150.68 13.88"/></g><g><polyline class="cls-6" points="151.11 53.13 151.11 48.62 157.78 48.62 157.78 44.68"/><polyline class="cls-6" points="158.21 52.4 154.2 52.34 154.2 45.3 150.68 45.25"/></g><g><polyline class="cls-6" points="151.11 42.47 151.11 38.23 157.78 38.23 157.78 34.52"/><polyline class="cls-6" points="158.21 41.79 154.2 41.73 154.2 35.11 150.68 35.06"/></g><g><polyline class="cls-6" points="151.11 74.48 151.11 69.97 157.78 69.97 157.78 66.03"/><polyline class="cls-6" points="158.21 73.75 154.2 73.69 154.2 66.66 150.68 66.6"/></g><g><polyline class="cls-6" points="151.11 63.04 151.11 58.8 157.78 58.8 157.78 55.09"/><polyline class="cls-6" points="158.21 62.36 154.2 62.3 154.2 55.68 150.68 55.62"/></g><g><polyline class="cls-6" points="151.11 94.93 151.11 90.43 157.78 90.43 157.78 86.48"/><polyline class="cls-6" points="158.21 94.21 154.2 94.14 154.2 87.11 150.68 87.05"/></g><g><polyline class="cls-6" points="151.11 84.21 151.11 79.97 157.78 79.97 157.78 76.26"/><polyline class="cls-6" points="158.21 83.53 154.2 83.47 154.2 76.85 150.68 76.79"/></g><g><polyline class="cls-6" points="151.11 368.21 151.11 363.71 157.78 363.71 157.78 359.76"/><polyline class="cls-6" points="158.21 367.49 154.2 367.42 154.2 360.39 150.68 360.33"/></g><g><polyline class="cls-6" points="151.11 356.91 151.11 352.67 157.78 352.67 157.78 348.96"/><polyline class="cls-6" points="158.21 356.23 154.2 356.17 154.2 349.55 150.68 349.5"/></g><g><polyline class="cls-6" points="151.11 388.74 151.11 384.24 157.78 384.24 157.78 380.29"/><polyline class="cls-6" points="158.21 388.02 154.2 387.95 154.2 380.92 150.68 380.86"/></g><g><polyline class="cls-6" points="151.11 378.09 151.11 373.85 157.78 373.85 157.78 370.14"/><polyline class="cls-6" points="158.21 377.4 154.2 377.34 154.2 370.72 150.68 370.67"/></g><g><polyline class="cls-6" points="151.11 410.09 151.11 405.59 157.78 405.59 157.78 401.64"/><polyline class="cls-6" points="158.21 409.37 154.2 409.3 154.2 402.27 150.68 402.21"/></g><g><polyline class="cls-6" points="151.11 398.65 151.11 394.41 157.78 394.41 157.78 390.7"/><polyline class="cls-6" points="158.21 397.97 154.2 397.91 154.2 391.29 150.68 391.24"/></g><g><polyline class="cls-6" points="151.11 430.54 151.11 426.04 157.78 426.04 157.78 422.1"/><polyline class="cls-6" points="158.21 429.82 154.2 429.76 154.2 422.72 150.68 422.67"/></g><g><polyline class="cls-6" points="151.11 419.82 151.11 415.58 157.78 415.58 157.78 411.87"/><polyline class="cls-6" points="158.21 419.14 154.2 419.08 154.2 412.46 150.68 412.41"/></g><g><polyline class="cls-6" points="151.11 452.18 151.11 447.68 157.78 447.68 157.78 443.73"/><polyline class="cls-6" points="158.21 451.46 154.2 451.39 154.2 444.36 150.68 444.3"/></g><g><polyline class="cls-6" points="151.11 440.88 151.11 436.64 157.78 436.64 157.78 432.93"/><polyline class="cls-6" points="158.21 440.2 154.2 440.14 154.2 433.52 150.68 433.47"/></g><g><polyline class="cls-6" points="151.11 472.71 151.11 468.21 157.78 468.21 157.78 464.26"/><polyline class="cls-6" points="158.21 471.99 154.2 471.92 154.2 464.89 150.68 464.83"/></g><g><polyline class="cls-6" points="151.11 462.06 151.11 457.82 157.78 457.82 157.78 454.11"/><polyline class="cls-6" points="158.21 461.37 154.2 461.31 154.2 454.69 150.68 454.64"/></g><g><polyline class="cls-6" points="151.11 494.06 151.11 489.56 157.78 489.56 157.78 485.62"/><polyline class="cls-6" points="158.21 493.34 154.2 493.28 154.2 486.24 150.68 486.18"/></g><g><polyline class="cls-6" points="151.11 482.62 151.11 478.38 157.78 478.38 157.78 474.67"/><polyline class="cls-6" points="158.21 481.94 154.2 481.88 154.2 475.26 150.68 475.21"/></g><g><polyline class="cls-6" points="151.11 514.51 151.11 510.01 157.78 510.01 157.78 506.07"/><polyline class="cls-6" points="158.21 513.79 154.2 513.73 154.2 506.69 150.68 506.64"/></g><g><polyline class="cls-6" points="151.11 503.79 151.11 499.55 157.78 499.55 157.78 495.84"/><polyline class="cls-6" points="158.21 503.11 154.2 503.05 154.2 496.43 150.68 496.38"/></g><g><polyline class="cls-6" points="151.11 284.67 151.11 280.17 157.78 280.17 157.78 276.22"/><polyline class="cls-6" points="158.21 283.95 154.2 283.88 154.2 276.85 150.68 276.79"/></g><g><polyline class="cls-6" points="151.11 273.37 151.11 269.13 157.78 269.13 157.78 265.42"/><polyline class="cls-6" points="158.21 272.69 154.2 272.63 154.2 266.01 150.68 265.96"/></g><g><polyline class="cls-6" points="151.11 305.2 151.11 300.7 157.78 300.7 157.78 296.75"/><polyline class="cls-6" points="158.21 304.48 154.2 304.41 154.2 297.38 150.68 297.32"/></g><g><polyline class="cls-6" points="151.11 294.55 151.11 290.31 157.78 290.31 157.78 286.6"/><polyline class="cls-6" points="158.21 293.86 154.2 293.8 154.2 287.18 150.68 287.13"/></g><g><polyline class="cls-6" points="151.11 326.55 151.11 322.05 157.78 322.05 157.78 318.1"/><polyline class="cls-6" points="158.21 325.83 154.2 325.76 154.2 318.73 150.68 318.67"/></g><g><polyline class="cls-6" points="151.11 315.11 151.11 310.87 157.78 310.87 157.78 307.16"/><polyline class="cls-6" points="158.21 314.43 154.2 314.37 154.2 307.75 150.68 307.7"/></g><g><polyline class="cls-6" points="151.11 347 151.11 342.5 157.78 342.5 157.78 338.56"/><polyline class="cls-6" points="158.21 346.28 154.2 346.22 154.2 339.18 150.68 339.13"/></g><g><polyline class="cls-6" points="151.11 336.28 151.11 332.04 157.78 332.04 157.78 328.33"/><polyline class="cls-6" points="158.21 335.6 154.2 335.54 154.2 328.92 150.68 328.87"/></g><polyline class="cls-6" points="151.11 526.12 151.11 521.61 157.78 521.61 157.78 517.67"/><polyline class="cls-6" points="158.21 525.39 154.2 525.33 154.2 518.3 150.68 518.24"/><polyline class="cls-6" points="151.11 546.57 151.11 542.06 157.78 542.06 157.78 538.12"/><polyline class="cls-6" points="158.21 545.85 154.2 545.78 154.2 538.75 150.68 538.69"/><polyline class="cls-6" points="151.11 535.85 151.11 531.61 157.78 531.61 157.78 527.9"/><polyline class="cls-6" points="158.21 535.17 154.2 535.11 154.2 528.49 150.68 528.43"/></g></g><rect class="cls-10" x="22.97" y="542.27" width="117.39" height="16.69"/><rect class="cls-6" x="51.79" y="132.37" width="62.38" height="349.57" rx="3.42" ry="3.42"/><g><path class="cls-7" d="M44.07,37.25c.55,.47,.42,1.38,.01,1.98s-1.02,1.03-1.44,1.62c-.51,.72-.67,1.68-.44,2.53s.86,1.59,1.66,1.95c-.23-.88,.69-1.19,1.57-1.42,2.16,2.07-2.13,5.93-3.29,7.58"/><path class="cls-7" d="M44.08,36.19c.41,3.18,9.53,1.69,6.3,6.28-1.85-1.55-3.47,.81-1.46,1.9"/><path class="cls-7" d="M76.74,41.52s-7.36-5.33-16.03-.72c-1.8,1.16-11.65,8.62-12.09,2.07"/><path class="cls-7" d="M40.27,52.13l.06-2.54c.55-.52,1.44,.07,1.82,.73s.71,1.49,1.46,1.63c.57,.11,1.29-.23,1.67,.21,.36,.41-.03,1.06-.5,1.34s-1.06,.43-1.35,.89c-.31,.48-.17,1.11-.11,1.68s-.04,1.27-.56,1.5c-.52,.23-1.11-.18-1.45-.63s-.59-1.02-1.08-1.3c-.53-.31-1.19-.21-1.8-.24s-1.33-.31-1.43-.91c-.11-.68,.64-1.18,1.3-1.38s1.45-.36,1.76-.98"/><path class="cls-7" d="M29.27,52.02c-.41,.33-1.09,1.41-1.5,1.09-.59-.46-.36-1.41,.03-2.05,.45-.73,1.07-1.4,1.89-1.68s1.83-.05,2.3,.67c.52,.82,.2,1.88,.15,2.84-.07,1.41,.53,2.84,1.59,3.77s2.55,1.36,3.94,1.12c-1.02,.8-2.23,1.43-3.53,1.51s-2.68-.46-3.37-1.56c-1.11-1.78,.1-3.87-.55-5.73-.16-.58-.62-.26-.94,0Z"/><path class="cls-7" d="M34.29,59.83c-.85,1.21-2.46,1.84-3.91,1.52s-2.64-1.57-2.9-3.03c-.13-.75-.04-1.52-.11-2.27s-.38-1.56-1.06-1.91c-1-.52-2.17,.18-3.08,.86l-2.69,2.02c-.18,.14-.37,.28-.48,.47-.36,.6,.2,1.44,.89,1.56s1.38-.28,1.87-.77,.87-1.11,1.38-1.59c.33-.32,.74-.59,1.2-.59s.94,.34,.94,.79c.01,1.14-.34,3.47,.17,4.49s1.49,1.8,2.6,2.06c1.5,.35,3.05-.2,4.43-.9,2.66-1.34,5.04-3.25,6.93-5.55"/><path class="cls-7" d="M59.18,48.73l1.75,2.77c.11,.18,.24,.36,.44,.42,.39,.11,.69-.34,.87-.71,1.03-2.22,2.66-3.83,4.01-5.77-2.38,.26-5.08,1.99-7.07,3.29Z"/><path class="cls-7" d="M44.48,52.02l2.6-4.64c.21-.37,.44-.76,.83-.93,.43-.18,.92-.04,1.35,.11,1.16,.41,3.6,1.06,4.66,1.68"/><path class="cls-7" d="M59.82,56.57c-.05,.81-1.04,1.32-1.83,1.12s-1.37-.87-1.77-1.58-.66-1.5-1.12-2.17c-.71-1.03-1.81-1.7-2.74-2.52s-1.8-2.67-1.63-3.9"/><path class="cls-7" d="M58.36,58.31c-1.53,1.01-3.73,.85-5.09-.37-.37-.33-.69-.75-.79-1.24s.06-1.05,.47-1.33c.2-.14,.45-.2,.62-.38,.36-.38,.09-1.06-.38-1.29s-1.03-.14-1.53-.02-1.04,.26-1.54,.11c-.87-.25-1.54-1.31-2.41-1.05-.65,.2-.85,1.03-.76,1.7s.34,1.34,.18,2c-.11,.46-.42,.85-.7,1.24s-.55,.82-.55,1.3,.37,.98,.85,.95c.48-.03,.77-.53,1-.95s.63-.88,1.1-.76c.33,.08,.52,.42,.71,.71,1.34,2.12,4.2,2.86,6.67,2.43s5.51-2.04,8.14-4.27"/><path class="cls-7" d="M49.81,60.05c-1.53,.92-5.52,4.61-2.13,5.52,.47,.13,1,.48,.91,.95-.07,.41-.55,.6-.96,.65s-.87,.04-1.18,.32c-.37,.34-.34,.91-.4,1.41s-.38,1.1-.87,1.02c-.29-.04-.49-.31-.61-.58s-.16-.57-.32-.82c-.24-.39-.68-.61-1.11-.77s-.89-.27-1.26-.55-.63-.76-.48-1.19c.18-.51,.79-.69,1.32-.78,1.77-.31,1.16-1.07,2.07-2.18,.32-.38,.96-.53,1.3-.18,.16,.17,.21,.38,.22,.61"/><path class="cls-7" d="M51.66,60.44c-1.85,1.38-3.04,2.62-4.62,4.55"/><path class="cls-7" d="M42.67,68.04c-.68,.41-1.14,1.09-1.58,1.74s-.89,1.34-1.54,1.78-1.59,.56-2.22,.08c-.58-.45-.74-1.26-1.25-1.78-.62-.63-1.65-.68-2.48-.36s-1.49,.94-2.13,1.54c-.47,.44-.96,1.14-.57,1.64,.39,.51,1.23,.18,1.65-.32s.74-1.15,1.36-1.31c.55-.15,1.11,.15,1.54,.53s.78,.84,1.26,1.12c.86,.51,1.98,.36,2.85-.13s1.53-1.26,2.16-2.04,1.25-1.58,2.07-2.14"/><path class="cls-7" d="M40.78,69.16c-.68,.2-1.42-.23-1.79-.84s-.46-1.33-.54-2.04-.16-1.43-.53-2.04c-.55-.92-1.74-1.39-2.77-1.1-.95,.27-1.64,1.06-2.2,1.87-.22,.31-.43,.65-.48,1.02s.11,.81,.47,.95c.45,.19,.94-.16,1.29-.51s.74-.76,1.23-.71c.38,.04,.68,.35,.83,.69s.21,.73,.31,1.09c.42,1.51,1.8,2.7,3.36,2.89"/></g><g><g><path class="cls-6" d="M79.5,31.33c-1.74,.67-2.77,2.8-2.21,4.58s2.65,2.92,4.45,2.43,3.01-2.55,2.56-4.36-2.99-3.1-4.8-2.64"/><path class="cls-6" d="M82.53,25.61c.46-.96,1.4-.86,1.87-1.81,.15,1.14-1.27,3.49-1.12,4.63,.48-.35,1.54-1.91,2.02-2.26,.02,.92-.54,3.04-.52,3.95,.29-.35,1.21-.67,1.49-1.02,0,.83-.62,1.63-.61,2.46,.17-.15,1.19-.71,1.36-.86-.67,2.24,.08,4.18-.63,5.94s-2.16,3.38-4.01,3.8c-2.11,.48-4.22-.27-4.67-.88"/><path class="cls-6" d="M80.26,27.42c-.23-1.11-.27-1.47-.69-2.51s-.09-2-.57-2.04c-.63-.06-1.33,2.94-1.32,3.58,.03,1.71,.42,1.64,.45,3.36-.19-1.14-.97-2.16-2.01-2.66-.38,.32-.28,.94-.05,1.38s.55,.88,.51,1.38-.73,.91-1.03,.51c-.36-.32-1.26,.1-1.62-.22,.86,.09,1.35,1.07,1.33,1.93s-.39,1.68-.51,2.53c-.29,2.04,1.01,4.2,2.95,4.89"/><path class="cls-6" d="M79.01,35.24c-.08,.94,.74,1.87,1.69,1.9s1.83-.82,1.83-1.76"/><path class="cls-6" d="M79.91,23.91l1.24-3.15c-.18,.84,.07,1.7,.32,2.52s.49,1.68,.3,2.52-.95,1.61-1.8,1.48"/></g><path class="cls-6" d="M78.75,40.63c.39-.03,.58,.52,.41,.87s-.53,.55-.83,.8-.56,.64-.43,1c.3,.22,.74,.22,1.04,0,.54,.59,1.33,.95,2.14,.95s1.6-.33,2.15-.92c.17,.24,.53,.33,.8,.2s.42-.46,.34-.75c-.09-.32-.41-.52-.71-.66s-.64-.27-.83-.54-.13-.75,.2-.83"/></g><g><path class="cls-1" d="M76.65,49.26c-1.17-.08-2.22,.67-3.14,1.41-1.28,1.02-2.53,2.08-3.78,3.14-.56,.47-1.12,.95-1.5,1.57s-.56,1.41-.28,2.08,1.1,1.12,1.77,.84c.42-.18,.73-.6,1.19-.66,.6-.07,1.03,.52,1.46,.94,1.12,1.08,3.06,1.18,4.28,.2,.24-.19,.49-.44,.8-.43,.43,0,.69,.45,.93,.8,1.2,1.76,3.98,2.16,5.63,.81,.44-.36,.84-.84,1.4-.93,1.17-.19,2.03,1.43,3.21,1.3,1.4-.16,1.71-2.54,3.12-2.6,.53-.03,1.02,.32,1.55,.32,.79,0,1.38-.83,1.41-1.62s-.35-1.53-.76-2.21c-.87-1.45-1.94-2.83-3.37-3.74s-3.26-1.3-4.85-.71c-1.54,.57-2.91,1.83-4.67,1.51-1.62-.3-2.73-1.89-4.41-2.01Z"/><g><path class="cls-1" d="M73.62,53.11c.71-.06,1.51,.52,1.58,1.23s-.5,1.43-1.21,1.51-1.44-.48-1.53-1.19,.46-1.44,1.16-1.55"/><path class="cls-1" d="M77.44,53.66c.7-.02,1.43,.59,1.46,1.29s-.57,1.36-1.27,1.39-1.36-.55-1.41-1.25,.53-1.37,1.22-1.43"/><path class="cls-1" d="M81.17,54.52c.63,.21,1.14,1,.94,1.64s-.94,1.04-1.58,.86-1.06-.92-.9-1.56,.89-1.09,1.54-.94"/><path class="cls-1" d="M84.69,53.59c.71-.07,1.51,.49,1.59,1.2s-.48,1.43-1.18,1.52-1.43-.45-1.54-1.16,.43-1.44,1.13-1.56"/><path class="cls-1" d="M88.42,52.47c-.56,.24-.92,.9-.78,1.5s.8,1.02,1.4,.88,.98-.88,.73-1.43c-.29-.65-1.12-.8-1.83-.87"/></g></g><g><path class="cls-5" d="M64.34,71.21c-6.17-.8-9.86,1.95-13.35,4.7-3.49,2.75-4.08,4.56-8.04,6.58-1.73,.89-5.3,2.45-7.39,2.04"/><path class="cls-5" d="M95.99,69.58c6.17-.8,12.23,2.7,15.72,5.46,3.49,2.75,4.08,4.56,8.04,6.58,1.73,.89,5.3,2.45,7.39,2.04"/></g><path class="cls-11" d="M36.62,84.6c1.52,1.72-.15,4.56,6.02,5.53,.28,1.36-.36,1.75,.56,2.79,1.64,1.86,3.61,2.14,5.88,1.86,1.3-.16,3.39-2.11,4.17-3.16,2.48-3.37,4.23-7.04,7.04-10.14s5.3-6.9,9.21-8.39"/><g><path class="cls-9" d="M46.01,40.47c-.41,.05-.68,.56-.5,.93s.73,.48,1.05,.22,.34-.8,.04-1.09-.82-.28-1.11,.02"/><path class="cls-9" d="M41.7,53.29c-.41-.21-.98,.26-.85,.7s.85,.54,1.09,.14-.21-.99-.66-.86"/><path class="cls-9" d="M49.5,55.31c-.27-.2-.7-.13-.89,.15s-.08,.71,.22,.86,.72-.03,.8-.36-.22-.69-.55-.66"/><path class="cls-9" d="M44.88,65.71c-.45-.02-.79,.58-.53,.95s.95,.23,1.05-.21-.49-.85-.87-.6"/><path class="cls-9" d="M22.91,69.92c-.41,.18-.62,.72-.43,1.13s.73,.61,1.14,.41c.35-.27,.21-.88-.15-1.14s-.84-.26-1.29-.25"/><path class="cls-9" d="M31.01,97.21c-.43-.11-.92,.18-1.03,.61s.2,.92,.64,1,.9-.29,.91-.74-.44-.84-.88-.76"/></g><path class="cls-11" d="M125.8,83.95c-1.52,1.72,.15,4.56-6.02,5.53-.28,1.36,.36,1.75-.56,2.79-1.64,1.86-3.61,2.14-5.88,1.86-1.3-.16-3.39-2.11-4.17-3.16-2.48-3.37-4.23-7.04-7.04-10.14-2.81-3.1-6.3-5.5-10.11-9.14"/><g><path class="cls-5" d="M83.55,77.84c-1.26-1.46-4.28-3.63-7.35-2.43-1.8,.7-2.18,1.54-3.77,2.64-2.27,1.58-4.22,1.3-5.93,2.81-1.97,1.75-3.4,4.9-5.16,6.86-1.59,1.77-3.74,5.26-5.2,7.14-1.21,1.57-2.97,2.56-2.21,4.39,.54,1.3,1.91,2.91,3.31,2.99,1.4,.08,4.13-.15,5.47-.59,.97,1.35,1.75,3.31,3.48,4.2,1.48,.76,2.3,1.48,3.96,1.45,1.3-.02,4.76-1.89,6.06-1.98,3.27-.23,2.33,2.97,5.94,2.62"/><path class="cls-5" d="M82.32,77.89c1.26-1.46,2.89-3.39,5.96-2.18,1.8,.7,2.18,1.54,3.77,2.64,2.27,1.58,4.22,1.3,5.93,2.81,1.97,1.75,3.4,4.9,5.16,6.86,1.59,1.77,3.74,5.26,5.2,7.14,1.21,1.57,2.97,2.56,2.21,4.39-.54,1.3-1.91,2.91-3.31,2.99-1.4,.08-5.29-.58-6.62-1.02-.97,1.35-1.96,3.16-3.69,4.05-1.48,.76-2.08,.89-3.74,.85-1.3-.02-3.55-1.88-4.84-1.97-3.27-.23-4.47,4.62-7.41,3.15"/></g><g><path class="cls-8" d="M81.67,47.52c-2.67,.37-3-1.74-4.68-1.66-1.35,.06-2.58,.74-3.71,1.49-3.21,2.13-5.97,4.96-8.02,8.22-.6,.95-1.15,2.08-.82,3.15,.31,1.01,1.36,1.64,2.4,1.79s2.1-.11,3.12-.35c.69,1.26,1.94,2.19,3.34,2.49s2.93-.05,4.07-.92c1.29,1.62,3.37,2.59,5.45,2.53"/><g><path class="cls-8" d="M53.93,48.25s1.44,.16,2.84-.65,2.57-1.95,3.89-2.88c4.2-2.94,9.96-3.5,14.65-1.41-1.33-.41-3.78,.59-4.73,1.6l-8.71,9.2c-.46,.48-.93,.98-1.54,1.24s-1.4,.22-1.85-.28c-.65-.72-.24-1.9-.64-2.79-.44-.98-.26-1.5-1.28-1.83s-2.62-2.2-2.62-2.2Z"/><path class="cls-8" d="M81.06,47.52c2.67,.37,3-1.74,4.68-1.66,1.35,.06,2.58,.74,3.71,1.49,3.21,2.13,5.97,4.96,8.02,8.22,.6,.95,1.15,2.08,.82,3.15-.31,1.01-1.36,1.64-2.4,1.79s-2.1-.11-3.12-.35c-.69,1.26-1.94,2.19-3.34,2.49s-2.47,.26-3.6-.61c-1.29,1.62-2.31,2.28-4.39,2.22"/><path class="cls-8" d="M108.62,47.93s-1.44,.16-2.84-.65-2.57-1.95-3.89-2.88c-4.2-2.94-9.96-3.5-14.65-1.41,1.33-.41,3.78,.59,4.73,1.6l8.71,9.2c.46,.48,.93,.98,1.54,1.24s1.4,.22,1.85-.28c.65-.72,.24-1.9,.64-2.79,.44-.98,.26-1.5,1.28-1.83s2.62-2.2,2.62-2.2Z"/></g></g><g><path class="cls-1" d="M103.33,47.55l-1.75,2.28c-.11,.14-.24,.3-.44,.35-.39,.09-.69-.28-.87-.58-1.03-1.82-2.66-3.15-4.01-4.75,2.38,.22,5.08,1.64,7.07,2.71Z"/><g><path class="cls-1" d="M118.49,36.94c-.55,.47-.42,1.38-.01,1.98s1.02,1.03,1.44,1.62c.51,.72,.67,1.68,.44,2.53s-.86,1.59-1.66,1.95c.23-.88-.69-1.19-1.57-1.42-2.16,2.07,2.13,5.93,3.29,7.58"/><path class="cls-1" d="M118.48,35.88c-.41,3.18-9.53,1.69-6.3,6.28,1.85-1.55,3.47,.81,1.46,1.9"/><path class="cls-1" d="M85.81,41.21s7.36-5.33,16.03-.72c1.8,1.16,11.65,8.62,12.09,2.07"/><path class="cls-1" d="M122.29,51.82l-.06-2.54c-.55-.52-1.44,.07-1.82,.73s-.71,1.49-1.46,1.63c-.57,.11-1.29-.23-1.67,.21-.36,.41,.03,1.06,.5,1.34s1.06,.43,1.35,.89c.31,.48,.17,1.11,.11,1.68s.04,1.27,.56,1.5c.52,.23,1.11-.18,1.45-.63s.59-1.02,1.08-1.3c.53-.31,1.19-.21,1.8-.24s1.33-.31,1.43-.91c.11-.68-.64-1.18-1.3-1.38s-1.45-.36-1.76-.98"/><path class="cls-1" d="M133.29,51.71c.41,.33,1.09,1.41,1.5,1.09,.59-.46,.36-1.41-.03-2.05-.45-.73-1.07-1.4-1.89-1.68s-1.83-.05-2.3,.67c-.52,.82-.2,1.88-.15,2.84,.07,1.41-.53,2.84-1.59,3.77s-2.55,1.36-3.94,1.12c1.02,.8,2.23,1.43,3.53,1.51s2.68-.46,3.37-1.56c1.11-1.78-.1-3.87,.55-5.73,.16-.58,.62-.26,.94,0Z"/><path class="cls-1" d="M128.27,59.52c.85,1.21,2.46,1.84,3.91,1.52s2.64-1.57,2.9-3.03c.13-.75,.04-1.52,.11-2.27s.38-1.56,1.06-1.91c1-.52,2.17,.18,3.08,.86l2.69,2.02c.18,.14,.37,.28,.48,.47,.36,.6-.2,1.44-.89,1.56s-1.38-.28-1.87-.77-.87-1.11-1.38-1.59c-.33-.32-.74-.59-1.2-.59s-.94,.34-.94,.79c-.01,1.14,.34,3.47-.17,4.49s-1.49,1.8-2.6,2.06c-1.5,.35-3.05-.2-4.43-.9-2.66-1.34-5.04-3.25-6.93-5.55"/><path class="cls-1" d="M118.07,51.71l-2.6-4.64c-.21-.37-.44-.76-.83-.93-.43-.18-.92-.04-1.35,.11-1.16,.41-3.6,1.06-4.66,1.68"/><path class="cls-1" d="M102.74,56.26c.05,.81,1.04,1.32,1.83,1.12s1.37-.87,1.77-1.58,.66-1.5,1.12-2.17c.71-1.03,1.81-1.7,2.74-2.52s1.8-2.67,1.63-3.9"/><path class="cls-1" d="M104.2,58c1.53,1.01,3.73,.85,5.09-.37,.37-.33,.69-.75,.79-1.24s-.06-1.05-.47-1.33c-.2-.14-.45-.2-.62-.38-.36-.38-.09-1.06,.38-1.29s1.03-.14,1.53-.02,1.04,.26,1.54,.11c.87-.25,1.54-1.31,2.41-1.05,.65,.2,.85,1.03,.76,1.7s-.34,1.34-.18,2c.11,.46,.42,.85,.7,1.24s.55,.82,.55,1.3-.37,.98-.85,.95c-.48-.03-.77-.53-1-.95s-.63-.88-1.1-.76c-.33,.08-.52,.42-.71,.71-1.34,2.12-4.2,2.86-6.67,2.43s-5.51-2.04-8.14-4.27"/><path class="cls-1" d="M112.75,59.74c1.53,.92,5.52,4.61,2.13,5.52-.47,.13-1,.48-.91,.95,.07,.41,.55,.6,.96,.65s.87,.04,1.18,.32c.37,.34,.34,.91,.4,1.41s.38,1.1,.87,1.02c.29-.04,.49-.31,.61-.58s.16-.57,.32-.82c.24-.39,.68-.61,1.11-.77s.89-.27,1.26-.55,.63-.76,.48-1.19c-.18-.51-.79-.69-1.32-.78-1.77-.31-1.16-1.07-2.07-2.18-.32-.38-.96-.53-1.3-.18-.16,.17-.21,.38-.22,.61"/><path class="cls-1" d="M110.89,60.13c1.85,1.38,3.04,2.62,4.62,4.55"/><path class="cls-1" d="M119.89,67.73c.68,.41,1.14,1.09,1.58,1.74s.89,1.34,1.54,1.78,1.59,.56,2.22,.08c.58-.45,.74-1.26,1.25-1.78,.62-.63,1.65-.68,2.48-.36s1.49,.94,2.13,1.54c.47,.44,.96,1.14,.57,1.64-.39,.51-1.23,.18-1.65-.32s-.74-1.15-1.36-1.31c-.55-.15-1.11,.15-1.54,.53s-.78,.84-1.26,1.12c-.86,.51-1.98,.36-2.85-.13s-1.53-1.26-2.16-2.04-1.25-1.58-2.07-2.14"/><path class="cls-1" d="M121.78,68.84c.68,.2,1.42-.23,1.79-.84s.46-1.33,.54-2.04,.16-1.43,.53-2.04c.55-.92,1.74-1.39,2.77-1.1,.95,.27,1.64,1.06,2.2,1.87,.22,.31,.43,.65,.48,1.02s-.11,.81-.47,.95c-.45,.19-.94-.16-1.29-.51s-.74-.76-1.23-.71c-.38,.04-.68,.35-.83,.69s-.21,.73-.31,1.09c-.42,1.51-1.8,2.7-3.36,2.89"/></g></g><g><path class="cls-9" d="M132.82,95.23c.43-.11,.92,.18,1.03,.61s-.2,.92-.64,1-.9-.29-.91-.74,.44-.84,.88-.76"/><g><path class="cls-9" d="M117.52,65.6c-.32-.02-.56,.43-.37,.71s.67,.17,.74-.16-.35-.64-.61-.45"/><path class="cls-9" d="M139.5,69.28c.41,.18,.62,.72,.43,1.13s-.73,.61-1.14,.41c-.35-.27-.21-.88,.15-1.14s.84-.26,1.29-.25"/><path class="cls-9" d="M116.55,40.15c.41,.05,.68,.56,.5,.93s-.73,.48-1.05,.22-.34-.8-.04-1.09,.82-.28,1.11,.02"/><path class="cls-9" d="M120.85,52.98c.41-.21,.98,.26,.85,.7s-.85,.54-1.09,.14,.21-.99,.66-.86"/><path class="cls-9" d="M113.06,55c.27-.2,.7-.13,.89,.15s.08,.71-.22,.86-.72-.03-.8-.36,.22-.69,.55-.66"/></g></g><path class="cls-3" d="M24.68,79.63c-.92,0-1.64-.84-1.94-1.72s-.31-1.82-.57-2.7-.91-1.76-1.83-1.85c-.41-.04-.82,.08-1.23,.02-.83-.12-1.4-1.03-1.3-1.86s.75-1.53,1.52-1.86c.57-.25,1.25-.35,1.69-.79,.49-.48,.55-1.23,.77-1.88s.78-1.33,1.45-1.17c.83,.2,.85,1.35,1.2,2.13,.37,.82,1.23,1.29,2.04,1.69s1.67,.85,2.07,1.66-.01,2.04-.91,2.09c-.43,.02-.83-.23-1.27-.26-1.01-.08-1.75,1.09-1.63,2.09s.8,1.84,1.45,2.61"/><path class="cls-3" d="M59.82,68.52c-4.56,.05-7.54,2.3-10.46,4.59s-5.69,5.1-8.88,6.97-6.48,2.51-10.54,.72c-.96-.42-2.04-.78-2.58-1.68"/><path class="cls-3" d="M27.01,81.48c2.36,1.93,5.51,2.87,8.55,2.55"/><path class="cls-3" d="M35.28,100.43c-.63-.41-1.27-.84-1.69-1.47s-.53-1.51-.08-2.11c.42-.55,1.25-.81,1.39-1.48,.12-.54-.33-1.08-.87-1.2s-1.1,.11-1.52,.46c-.45,.38-.87,.95-1.46,.9-.77-.06-1.19-1.16-1.96-1.11-.58,.04-.89,.72-.92,1.31s.08,1.21-.21,1.71c-.22,.38-.61,.61-.93,.91-.39,.36-.67,.88-.63,1.4s.47,1.04,1.01,1.04c.56,0,.97-.5,1.48-.73,1-.46,2.15,.15,3.02,.82s1.83,1.45,2.92,1.34"/><path class="cls-3" d="M137.73,78.99c.92,0,1.64-.84,1.94-1.72s.31-1.82,.57-2.7,.91-1.76,1.83-1.85c.41-.04,.82,.08,1.23,.02,.83-.12,1.4-1.03,1.3-1.86s-.75-1.53-1.52-1.86c-.57-.25-1.25-.35-1.69-.79-.49-.48-.55-1.23-.77-1.88s-.78-1.33-1.45-1.17c-.83,.2-.85,1.35-1.2,2.13-.37,.82-1.23,1.29-2.04,1.69s-1.67,.85-2.07,1.66,.01,2.04,.91,2.09c.43,.02,.83-.23,1.27-.26,1.01-.08,1.75,1.09,1.63,2.09s-.8,1.84-1.45,2.61"/><path class="cls-3" d="M102.6,67.87c4.56,.05,7.54,2.3,10.46,4.59s5.69,5.1,8.88,6.97,6.48,2.51,10.54,.72c.96-.42,2.04-.78,2.58-1.68"/><path class="cls-3" d="M135.41,80.84c-2.36,1.93-5.51,2.87-8.55,2.55"/><path class="cls-3" d="M52.13,93.94c.11-.05-1.34,1.56-1.35,1.68s-.65,.44-.74,.53c-1.36,1.37-2.8,2.68-4.44,3.7s-3.51,1.73-5.43,1.8c-1.51,.06-3-.27-4.47-.6"/><path class="cls-3" d="M37.15,103.78c4.68,.35,9.48-1.36,12.9-4.58"/><path class="cls-3" d="M130.55,101.26c.62-.07,1.09-.6,1.42-1.14s.63-1.13,1.16-1.46c.69-.42,1.6-.28,2.29,.14s1.19,1.07,1.68,1.71c.6-1.06,.49-2.49-.28-3.44-.24-.3-.56-.59-.6-.98-.07-.65,.65-1.13,.75-1.78,.1-.66-.54-1.25-1.2-1.34s-1.32,.19-1.9,.51-1.17,.68-1.83,.79c-.67,.11-1.36-.06-2.03,.03s-1.39,.6-1.32,1.28c.07,.62,.74,.96,1.16,1.43,.56,.62,.69,1.6,.3,2.34s-1.27,1.19-2.1,1.07l.26,.3"/><g><g><path class="cls-6" d="M26.74,77.67c-.64,.28-1.27,.7-1.56,1.34s-.08,1.54,.57,1.79c.74,.29,1.59-.45,1.62-1.25s-.52-1.51-1.18-1.96"/><path class="cls-6" d="M25.67,98.5c-.04-.45-.24-.91-.63-1.13-.5-.29-1.24-.03-1.45,.51s.15,1.23,.72,1.36,1.19-.33,1.23-.91"/><path class="cls-6" d="M25.62,96.09c.09,.62-.56,1.22-1.17,1.07s-.92-.98-.56-1.49,1.35-.89,1.73,.41"/><path class="cls-6" d="M24.6,93.4c.5,.19,.94,.3,.64,1.38-.14,.51-1.12,.27-1.34-.21s.17-1.14,.7-1.16"/><path class="cls-6" d="M25.43,86.62c-.45,0-.91,.24-1.12,.64s-.14,.95,.22,1.23,.96,.2,1.18-.2c.15-.27,.11-.62-.04-.89s-.38-.49-.61-.7"/><path class="cls-6" d="M25.56,82.71c-.4-.36-1.11-.26-1.4,.19s-.06,1.15,.44,1.33,1.13-.2,1.18-.74-.52-1.03-1.04-.9"/><path class="cls-6" d="M24.75,88.6c-.57-.14-1.21,.29-1.29,.87s.45,1.16,1.03,1.14,1.06-.66,.91-1.22-.9-.87-1.4-.57"/><path class="cls-6" d="M24.68,84.54c-.56,.01-1.02,.63-.87,1.17s.86,.84,1.35,.56,.61-1.03,.22-1.44c-.28-.29-.75-.37-1.12-.2"/><path class="cls-6" d="M24.6,90.87c-.55-.03-1.08,.46-1.09,1.01s.51,1.06,1.06,1.03,1.01-.6,.93-1.14-.71-.94-1.24-.78"/><path class="cls-6" d="M25.52,80.77c-.42,.04-.77,.46-.71,.88s.51,.74,.93,.64,.67-.61,.49-1-.74-.52-1.07-.25"/></g><g><path class="cls-6" d="M135.67,77.03c.64,.28,1.27,.7,1.56,1.34s.08,1.54-.57,1.79c-.74,.29-1.59-.45-1.62-1.25s.52-1.51,1.18-1.96"/><path class="cls-6" d="M136.74,97.86c.04-.45,.24-.91,.63-1.13,.5-.29,1.24-.03,1.45,.51s-.15,1.23-.72,1.36-1.19-.33-1.23-.91"/><path class="cls-6" d="M136.8,95.45c-.09,.62,.56,1.22,1.17,1.07s.92-.98,.56-1.49-1.35-.89-1.73,.41"/><path class="cls-6" d="M137.82,92.76c-.5,.19-.94,.3-.64,1.38,.14,.51,1.12,.27,1.34-.21s-.17-1.14-.7-1.16"/><path class="cls-6" d="M136.99,85.98c.45,0,.91,.24,1.12,.64s.14,.95-.22,1.23-.96,.2-1.18-.2c-.15-.27-.11-.62,.04-.89s.38-.49,.61-.7"/><path class="cls-6" d="M136.86,82.06c.4-.36,1.11-.26,1.4,.19s.06,1.15-.44,1.33-1.13-.2-1.18-.74,.52-1.03,1.04-.9"/><path class="cls-6" d="M137.66,87.96c.57-.14,1.21,.29,1.29,.87s-.45,1.16-1.03,1.14-1.06-.66-.91-1.22,.9-.87,1.4-.57"/><path class="cls-6" d="M137.74,83.9c.56,.01,1.02,.63,.87,1.17s-.86,.84-1.35,.56-.61-1.03-.22-1.44c.28-.29,.75-.37,1.12-.2"/><path class="cls-6" d="M137.82,90.22c.55-.03,1.08,.46,1.09,1.01s-.51,1.06-1.06,1.03-1.01-.6-.93-1.14,.71-.94,1.24-.78"/><path class="cls-6" d="M136.9,80.13c.42,.04,.77,.46,.71,.88s-.51,.74-.93,.64-.67-.61-.49-1,.74-.52,1.07-.25"/></g><g><path class="cls-6" d="M37.43,101.87c-.25-.28-.52-.54-.86-.69s-.77-.14-1.06,.09c-.45,.35-.39,1.11,.02,1.51,.25,.24,.6,.39,.94,.34s.66-.3,.74-.64-.1-.73-.42-.85"/><path class="cls-6" d="M35.89,103.65c-.55-.02-1.11,.34-1.27,.87s.15,1.17,.68,1.32,1.16-.29,1.14-.84c-.01-.54-.53-.92-.99-1.2"/><path class="cls-6" d="M35.69,108.78c.47-.14,1.01,.22,1.09,.7s-.29,.99-.77,1.07c-1.06,.18-1.49-1.18-.83-1.86,.49-.5,1.56-.49,1.46-1.47-.06-.59-.8-1-1.32-.72"/><path class="cls-6" d="M35.17,106.28c-.42,.19-.69,.67-.63,1.13s.45,.86,.9,.93"/><path class="cls-6" d="M34.78,114.22c-.34,.51-.27,1.22,.09,1.71,.24,.32,.62,.56,1.01,.55,.5-.02,.92-.43,1.1-.9,.14-.35,.17-.75,.04-1.1-.35-.95-1.68-1.12-2.24-.26Z"/><path class="cls-6" d="M35.37,119.82c.36,.07,.78-.01,1.02-.3,.22-.27,.23-.65,.23-1-.02-1.15-.75-2.31-1.86-1.26-.84,.8-.63,2.31,.62,2.56Z"/><path class="cls-6" d="M34.77,112.03c-.06,.55,.33,1.11,.86,1.25s1.14-.15,1.38-.65c.78-1.67-2.03-2.36-2.24-.59Z"/></g><g><path class="cls-6" d="M110.14,96.49c3.6,.67,6.87,2.7,9.75,4.97,4.15,3.27,6.48,.87,8.87,.82"/><g><path class="cls-6" d="M130.65,101.37c-.25-.28-.52-.54-.86-.69s-.77-.14-1.06,.09c-.45,.35-.39,1.11,.02,1.51,.25,.24,.6,.39,.94,.34s.66-.3,.74-.64-.1-.73-.42-.85"/><path class="cls-6" d="M129.05,102.86c-1.82,.44-.69,1.9-.16,2.05s1.16-.29,1.14-.84c-.01-.54-.53-.92-.99-1.2"/><path class="cls-6" d="M129.28,107.85c.47-.14,1.01,.22,1.09,.7s-.29,.99-.77,1.07c-1.06,.18-1.49-1.18-.83-1.86,.49-.5,1.56-.49,1.46-1.47-.06-.59-.8-1-1.32-.72"/><path class="cls-6" d="M128.75,105.36c-.42,.19-.69,.67-.63,1.13s.45,.86,.9,.93"/><path class="cls-6" d="M128.36,113.29c-.34,.51-.27,1.22,.09,1.71,.24,.32,.62,.56,1.01,.55,.5-.02,.92-.43,1.1-.9,.14-.35,.17-.75,.04-1.1-.35-.95-1.68-1.12-2.24-.26Z"/><path class="cls-6" d="M129.48,118.9c.36,.07,.78-.01,1.02-.3,.22-.27,.23-.65,.23-1-.02-1.15-.75-2.31-1.86-1.26-.84,.8-.63,2.31,.62,2.56Z"/><path class="cls-6" d="M128.35,111.11c-.06,.55,.33,1.11,.86,1.25s1.14-.15,1.38-.65c.78-1.67-2.03-2.36-2.24-.59Z"/></g></g></g><path class="cls-3" d="M118.49,98.75c2.5,1.73,5.65,2.49,8.67,2.09"/><g><path class="cls-4" d="M34.34,84.11c-.63,.65-.78,1.67-.53,2.53s.85,1.6,1.55,2.17,1.5,1,2.28,1.45c.49,.28,.99,.59,1.33,1.04,.38,.52,.51,1.18,.71,1.8,.48,1.5,1.45,2.84,2.72,3.77s2.85,1.44,4.43,1.43"/><path class="cls-4" d="M33.39,85.36c-1.13,2.57-.9,5.7,.6,8.08,.33,.53,.76,1.05,1.35,1.27,.76,.28,1.69,0,2.38,.44,.58,.37,.78,1.11,.86,1.79s.09,1.4,.45,1.99c.2,.32,.48,.57,.74,.85s.49,.6,.53,.97-.16,.8-.52,.89"/><path class="cls-4" d="M34.71,87.72c-.49,1.76-.64,3.62-.42,5.43"/><path class="cls-4" d="M35.83,89.59c-.17,.29-.67,4.37-.49,4.67"/><path class="cls-4" d="M38.21,95.1l.05-3.91c-.03,1.58-.02,2.33-.05,3.91Z"/><path class="cls-4" d="M39.39,93.84c-.41,.82-.6,1.74-.56,2.65"/><path class="cls-4" d="M40.79,96.08c-.46,.96-.75,2-.87,3.06"/><path class="cls-4" d="M43.08,97.31c-.27,1-.34,2.06-.19,3.09"/><path class="cls-4" d="M44.79,98.03l-.13,1.95"/><path class="cls-4" d="M37.26,90.35c-.5,1.53-.69,3.15-.56,4.76"/><path class="cls-4" d="M42.05,96.5l-.41,5.16"/><path class="cls-4" d="M115.52,97.87c-1.69,2.05-3.42,4.14-5.67,5.57s-5.12,2.14-7.6,1.18c-2.94,4.2-8.68,6.22-13.6,4.77-4.06,2.79-9.95,2.53-13.75-.6-2.99,2.23-7.55,2.03-10.33-.46-1.29-1.16-2.27-2.76-3.87-3.43-1.3-.54-2.77-.37-4.17-.54-2.14-.25-4.15-1.39-5.53-3.04-.97-1.16-1.31-1.51-.4-2.55,.81-.92,2.06-1.62,2.96-2.49"/><path class="cls-4" d="M120.44,102.34c-.46,.4-.92,.8-1.38,1.2-1.16-.12-2.26,.56-3.05,1.41-.79,.85-1.37,1.88-2.12,2.77-2.47,2.93-6.92,3.99-10.45,2.5-.91,2.38-2.94,4.3-5.37,5.09s-5.19,.42-7.33-.97c-1.97,1.44-3.99,2.88-6.31,3.64-2.32,.76-5,.76-7.05-.56-.76-.49-1.42-1.15-2.25-1.49-1.59-.65-3.38,0-5.09,.2-2.59,.29-5.28-.56-7.23-2.28-1.21-1.07-2.28-2.52-3.87-2.76-1.09-.16-2.17,.3-3.27,.33-2.39,.06-4.32-1.89-5.67-3.86s-2.54-4.22-4.63-5.36"/><path class="cls-4" d="M48.87,102.08c-.28,.95-.38,1.95-.28,2.93"/><path class="cls-4" d="M50.28,100.4c-.48,1.8-.88,3.79-1.03,6.02"/><path class="cls-4" d="M51.53,101.94c-.14,2.41-.16,4.84-.06,7.25"/><path class="cls-4" d="M53.01,103.79c.03,2.33-.07,4.66-.3,6.97"/><path class="cls-4" d="M54.17,104.45c.32,2.25,.35,4.53,.09,6.79"/><path class="cls-4" d="M55.74,104.82c.46,2.21,.45,4.52-.05,6.72"/><path class="cls-4" d="M57.28,104.45l-.04,7.07"/><path class="cls-4" d="M58.87,104.73l-.47,6.51"/><path class="cls-4" d="M60.14,105.01c-.5,2.13-.66,4.33-.46,6.51"/><path class="cls-4" d="M61.81,106.14c-.42,2.08-.7,4.18-.83,6.29"/><path class="cls-4" d="M62.91,107.33c-.14,2.2-.14,4.41,0,6.61"/><path class="cls-4" d="M64.52,108.64c-.44,2.2-.49,4.48-.17,6.7"/><path class="cls-4" d="M65.97,109.58c-.43,2.1-.51,4.26-.25,6.39l-.1-.36"/><path class="cls-4" d="M67.35,110.03l.03,6.33"/><path class="cls-4" d="M68.59,116.63c-.09-2.05-.04-4.1,.18-6.14-.2,1.79-.15,4.34-.18,6.14Z"/><path class="cls-4" d="M70.28,110.4l.05,5.86"/><path class="cls-4" d="M71.77,110.31c-.1,1.9,0,3.81,.3,5.68"/><path class="cls-4" d="M72.84,109.66c.1,2.01,.27,4.03,.5,6.03"/><path class="cls-4" d="M75.99,110.11c-.43,2.08-.41,4.26,.06,6.33"/><path class="cls-4" d="M74.27,109.56c.6,1.92,.69,4,.25,5.97"/><path class="cls-4" d="M76.94,110.4c-.21,2.26-.19,4.55,.07,6.81"/><path class="cls-4" d="M78.71,110.87l-.37,7.06"/><path class="cls-4" d="M80.06,111.14c-.16,2.56-.18,5.14-.04,7.71l.02-.26"/><path class="cls-4" d="M81.58,111.42l.2,7.7,.02-.26"/><path class="cls-4" d="M82.9,111.52l.09,7.07"/><path class="cls-4" d="M84.62,111.24c-.37,2.34-.37,4.73,0,7.07l-.21-.65"/><path class="cls-4" d="M86.04,110.77l.09,6.88-.04-.46"/><path class="cls-4" d="M88.84,109.75c.22,2,.35,4.02,.37,6.04"/><path class="cls-4" d="M90.78,109.75l-.06,5.02"/><path class="cls-4" d="M92.22,110.21l-.44,5.02"/><path class="cls-4" d="M93.71,109.84c-.03,1.92-.21,3.84-.52,5.74l.33,.03"/><path class="cls-4" d="M95.24,109.29c-.28,2.13-.31,4.28-.07,6.42"/><path class="cls-4" d="M96.92,108.91l-.17,6.87,.03-.36"/><path class="cls-4" d="M98.47,108.45c-.06,2.18-.06,4.35,0,6.53,.07,.03,.16-.03,.16-.1"/><path class="cls-4" d="M99.86,107.33c-.16,2.14-.04,4.31,.35,6.42"/><path class="cls-4" d="M100.92,106.13l.77,6.41"/><path class="cls-4" d="M102.62,105.01c.59,1.79,.79,3.7,.58,5.57"/><path class="cls-4" d="M104.72,105.56c.44,1.62,.47,3.36,.09,5"/><path class="cls-4" d="M106.04,105.09l.71,5.78"/><path class="cls-4" d="M107.54,104.73c-.13,2.05-.06,4.12,.22,6.16"/><path class="cls-4" d="M108.75,103.98l.39,6.61"/><path class="cls-4" d="M109.97,103.5c.45,2.26,.63,4.59,.53,6.89"/><path class="cls-4" d="M111.43,102.46c.51,2.29,.63,4.66,.36,6.99l.06-.35"/><path class="cls-4" d="M113.21,101.1c-.04,2.51-.1,5.02-.19,7.53"/><path class="cls-4" d="M114.17,99.8l.55,6.42"/><path class="cls-4" d="M115.31,99.05c0,1.91,.24,3.83,.71,5.68"/><path class="cls-4" d="M116.79,99.72l.56,3.71"/><path class="cls-4" d="M118.44,101.1l.07,2.05"/><path class="cls-4" d="M115.73,95.09c.63,1.13,1.71,2.94,3.13,2.91s3.01-1.64,3.8-2.62c1.02-1.26,1.72-2.74,2.42-4.2,3.02-.93,5.3-3.88,5.44-7.03,1.19,1.93,1.4,4.43,.55,6.53s-2.01,4.3-4.21,4.86c.4,1.1,.27,2.18-.5,3.06s-1.12,.81-2.14,1.37"/><path class="cls-4" d="M130.48,92.45l-.42-4.6c.08,1.21,.34,3.39,.42,4.6Z"/><path class="cls-4" d="M129.04,94.41l-.62-4.89c.14,1.39,.48,3.5,.62,4.89Z"/><path class="cls-4" d="M126.01,91.34l.73,4.32"/><path class="cls-4" d="M124.72,92.63l.69,6.8"/><path class="cls-4" d="M123.36,95.06c.39,1.65,.63,3.33,.72,5.02"/><path class="cls-4" d="M122.08,96.08c.56,1.17,.72,2.52,.44,3.79"/><path class="cls-4" d="M120.59,97.75c-.11,.69-.01,1.41,.28,2.05"/><path class="cls-4" d="M126.85,90.6l.89,4.18"/><path class="cls-4" d="M87.55,110.31c.39,2.09,.61,4.2,.66,6.32"/></g><g><g><path class="cls-3" d="M42.49,85.45c2.51-.11,4.75-1.59,6.58-3.31s3.38-3.73,5.34-5.29,4.91-3.66,7.36-3.16c-4.52,3.77-7.41,10.89-12.52,15.77-.18,.18-.33,.4-.56,.51-.64,.31-1.38-.25-1.75-.86s-.62-1.35-1.22-1.74c-.56-.35-1.27-.31-1.91-.43s-1.39-.85-1.33-1.5Z"/><path class="cls-3" d="M119.89,85.45c-2.51-.11-4.75-1.59-6.58-3.31s-3.38-3.73-5.34-5.29-4.91-3.66-7.36-3.16c4.52,3.77,7.41,10.89,12.52,15.77,.18,.18,.33,.4,.56,.51,.64,.31,1.38-.25,1.75-.86s.62-1.35,1.22-1.74c.56-.35,1.27-.31,1.91-.43s1.39-.85,1.33-1.5Z"/><path class="cls-3" d="M87.65,79.41c-1.08-.39-2.35-.16-3.23,.57-.79,.66-1.37,1.73-2.39,1.86-1.11,.14-1.95-.91-2.77-1.68-.72-.67-1.66-1.2-2.64-1.14s-1.95,.88-1.91,1.86c.05,1.2-1.69,3.06-2.84,3.39s-2.37,.48-3.43,1.03c-1.97,1.03-3,3.2-3.96,5.2s-2.19,4.12-4.28,4.87c-.6,.22-1.27,.31-1.77,.72s-.67,1.3-.13,1.64c.46,.29,1.06,0,1.61,.02,1.17,.05,1.74,1.63,1.25,2.7s-1.59,1.68-2.62,2.23"/><path class="cls-3" d="M75.81,80.23c1.42,.02,2.58,1.15,3.7,2.09s2.6,1.79,3.9,1.17c1.08-.51,1.65-1.87,2.72-2.41,1.16-.58,2.51-.01,3.68,.55,2.49,1.2,5.08,2.48,6.83,4.75,1.33,1.72,2.07,3.89,3.26,5.73s2.56,3.09,4.17,3.29"/><path class="cls-3" d="M105.19,98.75c-.28,.41-.34-.6-2.12-.13-1.38,.36-2.6,.61-3.82-.06-1.11,1.87-3.04,3.23-5.18,3.64s-4.44-.16-6.15-1.51c-2.72,3.33-8.19,3.95-11.57,1.3-1.83,1.4-4.3,1.92-6.54,1.38s-4.2-2.13-5.2-4.2c-1.01,.77-2.55,.76-3.55-.02"/><path class="cls-3" d="M71.22,88.43c-.93-.09-1.86,.69-1.91,1.63s.81,1.81,1.75,1.77,1.7-1.03,1.51-1.95-1.33-1.49-2.18-1.09"/><path class="cls-3" d="M93.39,87.83c1.14-.05,2.08,1.31,1.63,2.36s-2.09,1.31-2.84,.45-.28-2.71,1.2-2.81"/><path class="cls-3" d="M88.34,81.03c6.8,2.92,7.12,4.31,9.88,8.5,1.36,2.08,2.43,4.64,4.8,5.57,.93,.36,1.98,.43,2.83,.93s1.36,1.75,.64,2.41c-.82,.74-2.6,.93-3.4,.18-1.08,.74,.27,1.06,.96,2.18,1.03,1.69,3.19,1.74,5.1,1.09,1.21-.41,1.62-4.28,1-5.4s-3.07-3.86-4.09-4.66-2.04-2.85-2.91-3.81c-1.49-1.66-2.35-3.63-3.91-5.23-2.88-2.93-8.89-5.84-8.89-5.84"/></g><path class="cls-3" d="M75.7,90.47c-1.1,.33-1.53,1.96-.73,2.8s2.44,.47,2.82-.62-.69-2.39-1.83-2.24l-.89,.19"/><path class="cls-3" d="M82.01,91.56c-1.1,.33-1.53,1.96-.73,2.8s2.44,.47,2.82-.62-.69-2.39-1.83-2.24l-.89,.19"/><path class="cls-3" d="M88.2,90.55c-1.1,.33-1.53,1.96-.73,2.8s2.44,.47,2.82-.62-.69-2.39-1.83-2.24l-.89,.19"/></g><text class="cls-14" transform="translate(72.65 150.14)"><tspan class="cls-17"><tspan x="0" y="0">The </tspan></tspan><tspan class="cls-16"><tspan x="-12.15" y="14.4">Buddha</tspan><tspan class="cls-15" x="25.61" y="14.4"></tspan><tspan x="27.53" y="14.4">s</tspan></tspan></text><text class="cls-13" transform="translate(61.29 179.39) scale(.88 1)"><tspan x="0" y="0">Light Shines</tspan><tspan x="4.16" y="10.8">Upon Our </tspan><tspan x="7.33" y="21.6">Original </tspan><tspan x="4.19" y="32.4">Life-Force</tspan></text><g><g><path class="cls-2" d="M34.59,496.74c1.29,1.09,3.65,2.31,4.43,5.87"/><path class="cls-2" d="M40.5,500.83c-1.55,1.19-2.33,3.22-2.26,5.17,.11,3.41,2.18,7.26,5.34,8.66-1.1-1.67-2.33-3.28-2.71-5.29"/><path class="cls-2" d="M40.38,513.09c-4.03-.56-4.88-4.62-6.7-7.17s-1.05-6.46,.89-8.93"/><path class="cls-2" d="M46.41,504.42c-.46-1.48-1.54-2.66-2.66-3.73s-2.31-2.09-3.1-3.42c-.53,.87-3.06,4.38-2.41,7.15"/><path class="cls-2" d="M33.68,498.43c.91-1.85,1.82-3.73,1.84-4.69,1.41,.88,3.18,4.04,3.87,5.55"/><path class="cls-2" d="M36.13,505.92c.6,1.91,1.68,3.66,3.1,5.06"/><path class="cls-2" d="M40.8,500.59c.79,1.85,2.86,2.68,4.18,4.08,1.59,1.69,.28,3.43,.45,5.52,.22,2.8,2.72,6.39,5.19,7.74"/><path class="cls-2" d="M45.71,506.95c.7-2.53,2.96-4.36,4.27-4.93,.27-.12,.57-.22,.73-.47,.37-.59,1.26,.04,.96,0,1.49,2.14,5.05,3.67,6.48,6.26,.84,1.53,.97,2.79,1.02,4.54,.03,1.04-.85,3.16-1.3,4.09-.88,1.82-1.96,2.12-3.87,2.79"/><path class="cls-2" d="M52.4,517.02l-1.09-3.85"/><path class="cls-2" d="M51,503.32c.29,1.71,2.16,2.55,3.47,3.69,1.63,1.42,2.52,3.65,2.31,5.81s-1.51,4.17-3.39,5.25"/><path class="cls-2" d="M51,503.32c-2.44,1.72-3.79,4.73-3.56,6.94s3.16,6.76,5.95,7.8"/><path class="cls-2" d="M70.97,520.75c2.03-1.36,3.37-2.76,4.2-5.06,1-2.77,.52-6.06-1.58-8.11s-5.96-3.17-8.12-5.5c-1.34,1.36-3,2.34-4.47,3.54s-1.73,2.75-2,4.63c-.31,2.1,.6,5.16,2,6.76s2.24,1.92,3.65,3.52"/><path class="cls-2" d="M66.5,519.5c-1.42-1.09-2.85-2.2-3.94-3.62s-1.81-3.21-1.58-4.99c.33-2.56,2.47-3.14,4.45-6.1,1.47,.63,3.64,2.24,4.93,3.18s2.4,2.22,2.82,3.76c.47,1.72,.23,3.79-1,5.07-2.58,2.69-3.97,2.18-5.67,2.69Z"/><path class="cls-2" d="M65.87,514.48c.61,1.35,.98,2.81,1.09,4.28"/><path class="cls-2" d="M133.49,497.94c-1.25,1.09-3.52,2.31-4.28,5.87"/><path class="cls-2" d="M127.79,502.03c1.49,1.19,2.24,3.22,2.18,5.17-.11,3.41-2.1,7.26-5.15,8.66,1.06-1.67,2.25-3.28,2.62-5.29"/><path class="cls-2" d="M127.91,514.29c3.89-.56,4.71-4.62,6.46-7.17s1.01-6.46-.86-8.93"/><path class="cls-2" d="M134.37,499.63c-.88-1.85-1.76-3.73-1.77-4.69-1.36,.88-3.07,4.04-3.74,5.55"/><path class="cls-2" d="M132,507.12c-.58,1.91-1.62,3.66-2.99,5.06"/><path class="cls-2" d="M127.5,501.79c-.76,1.85-2.76,2.68-4.03,4.08-1.54,1.69-.27,3.43-.43,5.52-.21,2.8-2.62,6.39-5,7.74"/><path class="cls-2" d="M122.77,508.15c-.68-2.53-2.86-4.36-4.12-4.93-.26-.12-.55-.22-.71-.47-.36-.59-1.21,.04-.93,0-1.44,2.14-4.87,3.67-6.25,6.26-.81,1.53-.93,2.79-.99,4.54-.03,1.04,.82,3.16,1.26,4.09,.85,1.82,1.89,2.12,3.73,2.79"/><path class="cls-2" d="M116.31,518.22l1.05-3.85"/><path class="cls-2" d="M117.66,504.52c-.28,1.71-2.08,2.55-3.34,3.69-1.57,1.42-2.43,3.65-2.23,5.81s1.46,4.17,3.27,5.25"/><path class="cls-2" d="M117.66,504.52c2.35,1.72,3.66,4.73,3.43,6.94s-3.05,6.76-5.74,7.8"/><path class="cls-2" d="M98.4,521.95c-1.95-1.36-3.25-2.76-4.05-5.06-.96-2.77-.5-6.06,1.53-8.11s5.75-3.17,7.83-5.5c1.29,1.36,2.89,2.34,4.31,3.54s1.66,2.75,1.93,4.63c.3,2.1-.58,5.16-1.93,6.76s-2.16,1.92-3.52,3.52"/><path class="cls-2" d="M102.71,520.7c1.37-1.09,2.75-2.2,3.8-3.62s1.74-3.21,1.52-4.99c-.32-2.56-2.38-3.14-4.29-6.1-1.42,.63-3.51,2.24-4.75,3.18s-2.31,2.22-2.72,3.76c-.46,1.72-.22,3.79,.97,5.07,2.49,2.69,3.83,2.18,5.47,2.69Z"/><path class="cls-2" d="M103.32,515.69c-.59,1.35-.95,2.81-1.06,4.28"/><path class="cls-2" d="M84.27,515.51c-.3,1.21,.23,4.01,.39,5.25"/><path class="cls-2" d="M80.25,521.02c-1.21-1.35-2.44-2.71-3.32-4.29s-1.42-3.42-1.15-5.21c.3-1.96,2.33-4.02,4.13-4.84,2.46-1.11,2.27-2.24,4.06-3.1,2.03,.7,4.94,1.94,6.62,3.28s3,3.22,3.3,5.35c.46,3.22-1.42,6.26-3.23,8.97"/><path class="cls-2" d="M84.75,505.46c2.14,1.49,4.47,2.29,6.36,7.05,.75,1.9,.05,4.19-1.2,5.8s-3.21,2.3-5.25,2.45c-1.26,.09-3.97-1.63-4.65-2.69-1-1.55-1.1-3.06-.97-4.9,.11-1.55,.96-2.96,2.06-4.05s2.63-1.98,3.65-3.65"/><path class="cls-2" d="M93.22,507.74l.23,2.09"/></g><g><path class="cls-2" d="M42.77,494.71c2.07,2.42,7.28,4.29,12.53,4.95,17.91,2.24,36.05,1.13,54.07,0l13.62-.85c2.08-.13,4.71-.75,5-2.81,.18-1.33-.65-2.76-1.84-3.38-6.58-3.42-10.67-3.56-15.63-4.29-18.02-2.65-33.03-3.03-51.09-.24-12.91,1.99-18.49,3.59-16.66,6.6Z"/><path class="cls-2" d="M122.09,505.62c.44-1.48,1.49-2.66,2.57-3.73s2.23-2.09,2.99-3.42c.51,.87,2.95,4.38,2.33,7.15"/><path class="cls-2" d="M41.67,493.36c-1.14,1.04-1.73,2.66-1.51,4.19"/><path class="cls-2" d="M43.52,495.87c-.55,1.18-.74,2.53-.52,3.82"/><path class="cls-2" d="M44.56,497.09l-.38,3.63"/><path class="cls-2" d="M45.86,497.39c0,1.68-.16,3.36-.5,5"/><path class="cls-2" d="M46.9,498.23c.19,1.38,.22,2.79,.07,4.18"/><path class="cls-2" d="M48.52,498.65l-.07,.56"/><path class="cls-2" d="M48.45,500.81v1.74"/><path class="cls-2" d="M41.47,496.41l-.07,1.53"/><path class="cls-2" d="M49.71,499c-.06,1.05,0,2.11,.17,3.14"/><path class="cls-2" d="M50.97,499.08c.13,.76,.14,1.55,0,2.31"/><path class="cls-2" d="M52.61,499.55c.02,.88-.15,1.76-.48,2.58"/><path class="cls-2" d="M54.11,499.77c-.33,1.12-.2,2.4-.4,3.55"/><path class="cls-2" d="M55.3,499.66c.09,.84,.36,2.81,.18,3.63"/><path class="cls-2" d="M55.45,503.97v.56"/><path class="cls-2" d="M57.32,500.14c.33,2.13-.53,4.37,.05,6.45"/><path class="cls-2" d="M59.06,500.26c-.16,2.25-.06,4.52,.31,6.75"/><path class="cls-2" d="M59.31,503.74l.56,.09"/><path class="cls-2" d="M60.49,500.35c-.14,1.89-.1,3.79,.13,5.67"/><path class="cls-2" d="M62.15,500.62c0,1.37-.09,2.73-.25,4.09"/><path class="cls-2" d="M63.5,500.67l-.39,3.26"/><path class="cls-2" d="M65.23,500.77c.04,.53,.04,1.06-.02,1.58"/><path class="cls-2" d="M66.88,500.76c.07,.68,.03,1.38-.12,2.05"/><path class="cls-2" d="M67.83,500.86l.03,2.56"/><path class="cls-2" d="M69.29,501.04l-.18,3.3,.02-.23"/><path class="cls-2" d="M70.86,500.9l-.08,4.14"/><path class="cls-2" d="M72.45,501.19c-.23,1.67-.27,3.38-.11,5.06v-.18"/><path class="cls-2" d="M73.96,501.23l-.15,6.28"/><path class="cls-2" d="M75.24,501.18l-.02,8"/><path class="cls-2" d="M76.69,501.14l.04,7.91"/><path class="cls-2" d="M78.17,500.99c.26,2.33,.15,4.7-.31,7l.2-.26"/><path class="cls-2" d="M79.74,500.99c.26,1.9,.2,3.84-.18,5.72"/><path class="cls-2" d="M81.08,501.14l.2,2.28"/><path class="cls-2" d="M80.97,504.72c-.05,.34-.03,.69,.06,1.02"/><path class="cls-2" d="M82.83,501.18l.18,2.43c.02,.22,.02,.48-.15,.62"/><path class="cls-2" d="M84.37,501.09c.24,.92,.33,1.88,.29,2.84"/><path class="cls-2" d="M85.7,501.23v2.79"/><path class="cls-2" d="M87.4,501.14c-.01,1.02,0,2.05,0,3.07,0,.18,.06,.42,.24,.42"/><path class="cls-2" d="M88.74,500.95l-.16,4.63,.03-.26"/><path class="cls-2" d="M90.41,501.23c.06,1.7-.07,3.4-.38,5.06"/><path class="cls-2" d="M91.9,500.71c.38,2.35,.29,4.77-.28,7.08"/><path class="cls-2" d="M93.36,500.81c.15,1.82,.13,3.66-.06,5.49"/><path class="cls-2" d="M94.85,500.67c.08,2.26,.09,4.53,.01,6.79"/><path class="cls-2" d="M96.11,500.62l-.22,6.88-.12-.23"/><path class="cls-2" d="M97.46,500.76c-.11,2.12-.09,4.25,.07,6.37"/><path class="cls-2" d="M98.8,500.58l-.08,6"/><path class="cls-2" d="M100.46,500.39c.22,1.78,.21,3.58-.03,5.36"/><path class="cls-2" d="M101.82,500.22c.39,.66,.36,1.48,.28,2.24s-.21,1.55,0,2.28"/><path class="cls-2" d="M103.44,501.88c-.01,.61,.07,1.23,.24,1.81"/><path class="cls-2" d="M105.13,500.25l.12,4.14"/><path class="cls-2" d="M106.7,501.93c.07,.69,.09,1.4,.06,2.09"/><path class="cls-2" d="M108.21,500.25c-.05,2.26,0,4.53,.16,6.79"/><path class="cls-2" d="M110.07,499.83l.17,9.95"/><path class="cls-2" d="M111.26,499.79l.03,6.14"/><path class="cls-2" d="M113.09,499.83c-.05,2.11-.03,4.22,.07,6.33"/><path class="cls-2" d="M111.23,506.72l.06,1.16"/><path class="cls-2" d="M114.3,499.65l.23,5.56v-.31"/><path class="cls-2" d="M115.7,499.37l.16,4.46"/><path class="cls-2" d="M117.59,500.81c.02,.77,.13,1.54,.32,2.28"/><path class="cls-2" d="M119.95,499.23c.08,1.04,.07,2.08-.04,3.12"/><path class="cls-2" d="M121,499.42c-.09,1.72-.09,3.44-.01,5.16"/><path class="cls-2" d="M122.22,499.18l.39,5.45-.05-.29"/><path class="cls-2" d="M123.62,499.04l.04,1.63"/><path class="cls-2" d="M123.4,501.93l.09,.88"/><path class="cls-2" d="M125.02,499.09c-.1,.3-.13,.62-.08,.93"/><path class="cls-2" d="M126.47,498.25l-.09,.51"/><path class="cls-2" d="M128.33,494.74s0,.05,0,0c.79,1.02,1.19,2.2,1.14,3.49"/></g><path class="cls-2" d="M51.18,494.75c-.38-.19-.88,.03-1.04,.42s.02,.87,.36,1.1,.83,.22,1.2,.01c.42-.24,.69-.78,.53-1.24s-.8-.7-1.18-.4"/><path class="cls-2" d="M56.13,491.41c-.46-.31-1.16,.12-1.21,.68s.42,1.06,.96,1.2c.39,.1,.84,.04,1.13-.24s.37-.78,.12-1.09c-.36-.45-1.2-.38-1.41-.92"/><path class="cls-2" d="M60.49,494.73c-.39-.17-.84-.28-1.24-.14s-.72,.59-.59,1c.1,.3,.39,.49,.68,.59,.31,.11,.66,.16,.98,.05s.56-.43,.52-.76-.44-.59-.73-.43"/><path class="cls-2" d="M56.98,496.82c-.4-.18-.83,.35-.71,.77s.59,.65,1.02,.71c.37,.05,.81-.03,.98-.36,.17-.32-.01-.74-.31-.95s-.67-.27-1.03-.32"/><path class="cls-2" d="M65.07,497.25c-.34-.27-.91-.06-1.06,.34s.07,.89,.44,1.11c.3,.18,.7,.2,1,.02s.46-.58,.34-.91-.54-.52-.86-.37"/><path class="cls-2" d="M63.22,490.41c.97-.49,1.43,.46,1.28,1.07s-1.01,.89-1.49,.49-.36-1.29,.21-1.55"/><path class="cls-2" d="M68.29,494.66c-.57,.2-.9,.89-.71,1.46s.89,.91,1.46,.71,.9-.91,.68-1.47-.94-.86-1.49-.61"/><path class="cls-2" d="M71.25,489.63c.79-.54,1.51,.61,1.3,1.19s-1.07,.78-1.53,.37-.33-1.29,.23-1.55"/><path class="cls-2" d="M74.9,494.92c.58,.15,.85,.95,.49,1.43s-1.21,.43-1.51-.09,0-1.6,1.02-1.34"/><path class="cls-2" d="M72.85,498.04c-.52,.05-.92,.62-.79,1.12s.75,.81,1.23,.62,.71-.85,.45-1.3-.93-.59-1.35-.29"/><path class="cls-2" d="M81.12,489.36c.68-.04,1.25,.75,1.02,1.38s-1.19,.84-1.67,.37-.4-1.62,.66-1.75"/><path class="cls-2" d="M75.84,489.7c.54-.29,1.32,.12,1.39,.73s-.59,1.18-1.18,1.03-1.38-1.17-.21-1.75"/><path class="cls-2" d="M80.48,494.19c-.51,.22-.74,.91-.48,1.4s.97,.66,1.43,.36,.57-1.03,.22-1.46-1.08-.46-1.47-.06"/><path class="cls-2" d="M80.75,497.76c.47-.03,.88,.52,.71,.96s-.85,.58-1.17,.23-.4-.96,.46-1.19"/><path class="cls-2" d="M87.85,490.76c.02,.46,.3,.9,.69,1.14,.26,.16,.59,.24,.88,.14,.89-.28,.85-1.77,.29-2.34-.74-.74-1.9,.18-1.86,1.06Z"/><path class="cls-2" d="M88.56,494.63c-.2,.19-.4,.39-.53,.64s-.17,.56-.04,.8c.15,.28,.52,.41,.82,.32s.53-.38,.59-.69-.05-.64-.25-.89c-.1-.13-.24-.24-.4-.26s-.34,.09-.35,.26"/><path class="cls-2" d="M88.74,498.44c.69-.27,1.04,.08,1.13,.39s-.09,.66-.39,.77-.67-.07-.78-.37,.05-.67,.34-.79"/><path class="cls-2" d="M98.03,489.9c-.67-.23-1.11,.23-1.2,.59s.12,.75,.43,.94c.33,.2,.77,.21,1.09-.01s.46-.66,.33-1.02-.56-.59-.93-.48"/><path class="cls-2" d="M93.87,495.04h-.22c-.07,.22-.14,.44-.13,.67s.1,.46,.29,.58c.2,.12,.46,.09,.65-.03s.32-.33,.38-.55c.06-.22,.07-.46-.02-.67s-.3-.37-.52-.37-.45,.19-.44,.42l-.18-.03"/><path class="cls-2" d="M96.36,497.61c-.1,.15-.5,.5-.55,.68s-.04,.39,.08,.53c.2,.25,.59,.21,.88,.09,.31-.13,.61-.33,.75-.64s.04-.73-.26-.88c-.2-.1-.44-.06-.63,.03s-.36,.25-.51,.4"/><path class="cls-2" d="M101.32,496.81c.35-.13,.63-.51,.54-.87-.1-.43-.6-.62-1.03-.68-.55-.08-1.46,.13-1.2,.88,.21,.59,1.15,.87,1.69,.68Z"/><path class="cls-2" d="M104.43,491.77c.15,.3,.47,.48,.79,.6,.36,.14,.75,.22,1.12,.12s.68-.46,.64-.84c-.03-.26-.22-.48-.44-.61s-.48-.2-.73-.26c-.59-.14-1.85,.05-1.38,.99Z"/><path class="cls-2" d="M104.74,497.36c-.2,.06-.33,.27-.34,.48s.09,.41,.24,.56c.4,.38,1.14,.28,1.42-.19s.03-1.17-.49-1.34-1.15,.23-1.2,.77"/><path class="cls-2" d="M109.39,496.62c.2,.17,.46,.27,.72,.32,.23,.05,.47,.07,.69,.02s.44-.2,.54-.4c.15-.3,.03-.68-.21-.92s-.57-.35-.9-.41c-.29-.06-.6-.08-.86,.05-.56,.28-.37,1.01,.03,1.34Z"/><path class="cls-2" d="M113.16,492.48c-.21,.02-.35,.27-.31,.48s.19,.38,.35,.53c.15,.14,.32,.28,.52,.34s.43,.06,.6-.07c.21-.16,.26-.48,.15-.72s-.33-.41-.57-.51-.51-.13-.77-.16"/><path class="cls-2" d="M119.58,494.68c-.23-.12-.5-.19-.74-.12s-.47,.29-.47,.54c0,.35,.35,.6,.68,.72,.35,.12,.8,.13,1-.17,.15-.22,.09-.55-.08-.75s-.45-.3-.72-.35"/><g><path class="cls-2" d="M49.06,517.64c-2.51-1.86-5.8-2.35-8.92-2.21-3.12,.14-6.19,.86-9.3,1.16-3.11,.3-6.92-.3-7.85-.73,.6,.89,2.07,2.31,2.96,2.9"/><path class="cls-2" d="M44.77,519.43c-.56-1.76-3.53-2.44-5.38-2.42s-2.62,.51-4.36,1.12c-3.33,1.18-7.09,1.9-10.34,.51,1.61,2.28,3.86,4.1,6.43,5.18"/><path class="cls-2" d="M54.72,520.15c-1.1-1.35-3.92-1.47-5.66-1.38-3.87,.2-6.6,1.73-10.12,3.33s-7.25,3.15-11.13,2.97"/><path class="cls-2" d="M28.84,525.08c1.06,.87,3.58,2.11,4.86,1.64,4.43-1.61,6.99-3.2,11.42-4.81,1.12-.4,3.25-.51,4.44-.61s2.44,.15,3.34,.92"/><path class="cls-2" d="M32.65,527.14c2.08,2.51,6.46,3.58,9.05,3.27,2.03-.24,3.83-1.42,5.37-2.77s3-2.77,4.5-4.15c4.35-3.99,8.77-3.95,13.33-2.82"/><path class="cls-2" d="M67.1,521.79c-3.13-.41-6.29,.77-8.95,2.49s-4.93,3.95-7.37,5.97c-1.56,1.28-2,1.58-3.98,1.91s-3.22-.12-5.1-1.75"/><path class="cls-2" d="M78.08,521.9c-4.44-3.31-9.45-1.42-12.73,1.39-3.03,2.6-4.73,6.58-8.02,8.86-3.26,2.27-7.87,2.4-11.25,.33"/><path class="cls-2" d="M52.4,534.3c5.47,3.16,8.99-.16,11.23-2.55,2.19-2.34,3.09-4.55,5.5-6.67,2.59-2.28,5.79-4.55,8.96-3.18"/><path class="cls-2" d="M74.33,533.83c-2.04,.92-3.38,1.39-5.67,1.77-.76,.13-3.42,.05-4.19,0s-2.43-.54-2.98-1.08"/></g><g><path class="cls-2" d="M119.51,518.92c2.51-1.86,5.8-2.35,8.92-2.21s6.19,.86,9.3,1.16,6.92-.3,7.85-.73c-.6,.89-2.07,2.31-2.96,2.9"/><path class="cls-2" d="M123.81,520.72c.56-1.76,3.53-2.44,5.38-2.42s2.62,.51,4.36,1.12c3.33,1.18,7.09,1.9,10.34,.51-1.61,2.28-3.86,4.1-6.43,5.18"/><path class="cls-2" d="M113.85,521.43c1.1-1.35,3.92-1.47,5.66-1.38,3.87,.2,6.6,1.73,10.12,3.33,3.53,1.61,7.25,3.15,11.13,2.97"/><path class="cls-2" d="M139.73,526.36c-1.06,.87-3.58,2.11-4.86,1.64-4.43-1.61-6.99-3.2-11.42-4.81-1.12-.4-3.25-.51-4.44-.61s-2.44,.15-3.34,.92"/><path class="cls-2" d="M135.93,528.42c-2.08,2.51-6.46,3.58-9.05,3.27-2.03-.24-3.83-1.42-5.37-2.77s-3-2.77-4.5-4.15c-4.35-3.99-8.77-3.95-13.33-2.82"/><path class="cls-2" d="M101.48,523.08c3.13-.41,6.29,.77,8.95,2.49s4.93,3.95,7.37,5.97c1.56,1.28,2,1.58,3.98,1.91s3.22-.12,5.1-1.75"/><path class="cls-2" d="M90.49,523.18c4.44-3.31,9.45-1.42,12.73,1.39,3.03,2.6,4.73,6.58,8.02,8.86,3.26,2.27,7.87,2.4,11.25,.33"/><path class="cls-2" d="M116.18,535.58c-5.47,3.16-8.99-.16-11.23-2.55-2.19-2.34-3.09-4.55-5.5-6.67-2.59-2.28-5.79-4.55-8.96-3.18"/><path class="cls-2" d="M92.13,534.75c2.3,1.5,5.5,1.75,7.79,2.14,.76,.13,3.42,.05,4.19,0s2.43-.54,2.98-1.08"/></g><g><path class="cls-2" d="M81.7,521.3c-1.68-.32-3.46,.45-4.6,1.74s-2.21,3.79-2.3,5.5c-.14,2.61,.91,5.4,3.51,6.56s3.93,1.89,6.1,3.65c1.55-2.4,3.94-3.07,6.2-4.82,2.03-1.56,3.35-5.73,1.52-8.71-1.49-2.43-2.8-3.46-5.59-4.02"/><path class="cls-2" d="M78.77,529.13c-.01,2.89,2.04,5.68,4.8,6.52,2.09-.97,4.35-2.11,5.25-4.23,.52-1.22,.51-2.61,.17-3.89-.58-2.22-2.97-5.29-5.62-4.79s-4.6,3.89-4.61,6.39Z"/></g></g></svg>