<?xml version="1.0" encoding="utf-8"?>
<!-- Generator: Adobe Illustrator 26.3.1, SVG Export Plug-In . SVG Version: 6.00 Build 0)  -->
<svg version="1.1" id="Layer_1" xmlns="http://www.w3.org/2000/svg" xmlns:xlink="http://www.w3.org/1999/xlink" x="0px" y="0px"
	 viewBox="0 0 204.42 612" style="enable-background:new 0 0 204.42 612;" xml:space="preserve">
<style type="text/css">
	
		.st0{fill:none;stroke:#000000;stroke-width:0.75;stroke-linecap:round;stroke-linejoin:round;stroke-miterlimit:10;stroke-dasharray:0,1.5;}
	.st1{fill:none;stroke:#231F20;stroke-miterlimit:10;}
	.st2{fill:#231F20;}
	.st3{fill:#FFFFFF;stroke:#231F20;stroke-width:1.25;stroke-miterlimit:10;}
	.st4{fill:#FFFFFF;stroke:#231F20;stroke-miterlimit:10;}
	.st5{fill:none;stroke:#231F20;stroke-width:1.25;stroke-miterlimit:10;}
	.st6{fill:#FFFFFF;stroke:#231F20;stroke-width:1.45;stroke-miterlimit:10;}
	.st7{fill:#FFFFFF;stroke:#231F20;stroke-width:1.35;stroke-miterlimit:10;}
	.st8{fill:none;stroke:#231F20;stroke-width:1.15;stroke-miterlimit:10;}
	.st9{fill:none;stroke:#231F20;stroke-width:1.5;stroke-miterlimit:10;}
	.st10{fill:none;stroke:#231F20;stroke-width:1.45;stroke-miterlimit:10;}
	.st11{fill:none;stroke:#231F20;stroke-width:1.35;stroke-miterlimit:10;}
	.st12{fill:#FFFFFF;}
	.st13{fill:#FFFFFF;stroke:#231F20;stroke-width:0.4;stroke-miterlimit:10;}
</style>
<line class="st0" x1="1.67" y1="4.4" x2="1.67" y2="609.2"/>
<line class="st0" x1="203.33" y1="3.8" x2="203.33" y2="608.6"/>
<g>
	<g>
		<g>
			<g>
				<polyline class="st1" points="29.12,142.99 29.12,138.49 35.79,138.49 35.79,134.54 				"/>
				<polyline class="st1" points="36.22,142.27 32.21,142.2 32.21,135.17 28.69,135.11 				"/>
			</g>
			<g>
				<polyline class="st1" points="29.12,131.69 29.12,127.45 35.79,127.45 35.79,123.74 				"/>
				<polyline class="st1" points="36.22,131.01 32.21,130.95 32.21,124.33 28.69,124.28 				"/>
			</g>
			<g>
				<polyline class="st1" points="29.12,163.52 29.12,159.01 35.79,159.01 35.79,155.07 				"/>
				<polyline class="st1" points="36.22,162.8 32.21,162.73 32.21,155.7 28.69,155.64 				"/>
			</g>
			<g>
				<polyline class="st1" points="29.12,152.86 29.12,148.62 35.79,148.62 35.79,144.92 				"/>
				<polyline class="st1" points="36.22,152.18 32.21,152.12 32.21,145.5 28.69,145.45 				"/>
			</g>
			<g>
				<polyline class="st1" points="29.12,184.87 29.12,180.37 35.79,180.37 35.79,176.42 				"/>
				<polyline class="st1" points="36.22,184.15 32.21,184.08 32.21,177.05 28.69,176.99 				"/>
			</g>
			<g>
				<polyline class="st1" points="29.12,173.43 29.12,169.19 35.79,169.19 35.79,165.48 				"/>
				<polyline class="st1" points="36.22,172.75 32.21,172.69 32.21,166.07 28.69,166.02 				"/>
			</g>
			<g>
				<polyline class="st1" points="29.12,205.32 29.12,200.82 35.79,200.82 35.79,196.88 				"/>
				<polyline class="st1" points="36.22,204.6 32.21,204.54 32.21,197.5 28.69,197.44 				"/>
			</g>
			<g>
				<polyline class="st1" points="29.12,194.6 29.12,190.36 35.79,190.36 35.79,186.65 				"/>
				<polyline class="st1" points="36.22,193.92 32.21,193.86 32.21,187.24 28.69,187.19 				"/>
			</g>
			<g>
				<polyline class="st1" points="29.12,226.96 29.12,222.46 35.79,222.46 35.79,218.51 				"/>
				<polyline class="st1" points="36.22,226.24 32.21,226.17 32.21,219.14 28.69,219.08 				"/>
			</g>
			<g>
				<polyline class="st1" points="29.12,215.66 29.12,211.42 35.79,211.42 35.79,207.71 				"/>
				<polyline class="st1" points="36.22,214.98 32.21,214.92 32.21,208.3 28.69,208.25 				"/>
			</g>
			<g>
				<polyline class="st1" points="29.12,247.49 29.12,242.99 35.79,242.99 35.79,239.04 				"/>
				<polyline class="st1" points="36.22,246.77 32.21,246.7 32.21,239.67 28.69,239.61 				"/>
			</g>
			<g>
				<polyline class="st1" points="29.12,236.84 29.12,232.6 35.79,232.6 35.79,228.89 				"/>
				<polyline class="st1" points="36.22,236.15 32.21,236.09 32.21,229.47 28.69,229.42 				"/>
			</g>
			<g>
				<polyline class="st1" points="29.12,268.85 29.12,264.35 35.79,264.35 35.79,260.39 				"/>
				<polyline class="st1" points="36.22,268.12 32.21,268.05 32.21,261.02 28.69,260.96 				"/>
			</g>
			<g>
				<polyline class="st1" points="29.12,257.4 29.12,253.16 35.79,253.16 35.79,249.45 				"/>
				<polyline class="st1" points="36.22,256.72 32.21,256.66 32.21,250.04 28.69,249.99 				"/>
			</g>
			<g>
				<polyline class="st1" points="29.12,289.29 29.12,284.79 35.79,284.79 35.79,280.85 				"/>
				<polyline class="st1" points="36.22,288.57 32.21,288.51 32.21,281.47 28.69,281.42 				"/>
			</g>
			<g>
				<polyline class="st1" points="29.12,278.57 29.12,274.33 35.79,274.33 35.79,270.62 				"/>
				<polyline class="st1" points="36.22,277.89 32.21,277.83 32.21,271.21 28.69,271.16 				"/>
			</g>
			<g>
				<polyline class="st1" points="29.12,59.45 29.12,54.95 35.79,54.95 35.79,51 				"/>
				<polyline class="st1" points="36.22,58.73 32.21,58.66 32.21,51.63 28.69,51.57 				"/>
			</g>
			<g>
				<polyline class="st1" points="29.12,48.15 29.12,43.91 35.79,43.91 35.79,40.2 				"/>
				<polyline class="st1" points="36.22,47.47 32.21,47.41 32.21,40.79 28.69,40.74 				"/>
			</g>
			<g>
				<polyline class="st1" points="29.12,79.98 29.12,75.47 35.79,75.47 35.79,71.53 				"/>
				<polyline class="st1" points="36.22,79.26 32.21,79.19 32.21,72.16 28.69,72.1 				"/>
			</g>
			<g>
				<polyline class="st1" points="29.12,69.32 29.12,65.08 35.79,65.08 35.79,61.38 				"/>
				<polyline class="st1" points="36.22,68.64 32.21,68.58 32.21,61.96 28.69,61.91 				"/>
			</g>
			<g>
				<polyline class="st1" points="29.12,101.33 29.12,96.83 35.79,96.83 35.79,92.88 				"/>
				<polyline class="st1" points="36.22,100.61 32.21,100.54 32.21,93.51 28.69,93.45 				"/>
			</g>
			<g>
				<polyline class="st1" points="29.12,89.89 29.12,85.65 35.79,85.65 35.79,81.94 				"/>
				<polyline class="st1" points="36.22,89.21 32.21,89.15 32.21,82.53 28.69,82.48 				"/>
			</g>
			<g>
				<polyline class="st1" points="29.12,121.78 29.12,117.28 35.79,117.28 35.79,113.34 				"/>
				<polyline class="st1" points="36.22,121.06 32.21,121 32.21,113.96 28.69,113.91 				"/>
			</g>
			<g>
				<polyline class="st1" points="29.12,111.06 29.12,106.82 35.79,106.82 35.79,103.11 				"/>
				<polyline class="st1" points="36.22,110.38 32.21,110.32 32.21,103.7 28.69,103.65 				"/>
			</g>
			<g>
				<polyline class="st1" points="29.12,395.07 29.12,390.57 35.79,390.57 35.79,386.62 				"/>
				<polyline class="st1" points="36.22,394.35 32.21,394.29 32.21,387.24 28.69,387.19 				"/>
			</g>
			<g>
				<polyline class="st1" points="29.12,383.76 29.12,379.52 35.79,379.52 35.79,375.82 				"/>
				<polyline class="st1" points="36.22,383.08 32.21,383.02 32.21,376.4 28.69,376.35 				"/>
			</g>
			<g>
				<polyline class="st1" points="29.12,415.6 29.12,411.1 35.79,411.1 35.79,407.15 				"/>
				<polyline class="st1" points="36.22,414.88 32.21,414.82 32.21,407.77 28.69,407.72 				"/>
			</g>
			<g>
				<polyline class="st1" points="29.12,404.94 29.12,400.7 35.79,400.7 35.79,396.99 				"/>
				<polyline class="st1" points="36.22,404.26 32.21,404.2 32.21,397.58 28.69,397.52 				"/>
			</g>
			<g>
				<polyline class="st1" points="29.12,436.95 29.12,432.44 35.79,432.44 35.79,428.5 				"/>
				<polyline class="st1" points="36.22,436.22 32.21,436.16 32.21,429.12 28.69,429.07 				"/>
			</g>
			<g>
				<polyline class="st1" points="29.12,425.5 29.12,421.26 35.79,421.26 35.79,417.55 				"/>
				<polyline class="st1" points="36.22,424.82 32.21,424.76 32.21,418.14 28.69,418.1 				"/>
			</g>
			<g>
				<polyline class="st1" points="29.12,457.4 29.12,452.89 35.79,452.89 35.79,448.95 				"/>
				<polyline class="st1" points="36.22,456.67 32.21,456.61 32.21,449.57 28.69,449.52 				"/>
			</g>
			<g>
				<polyline class="st1" points="29.12,446.67 29.12,442.43 35.79,442.43 35.79,438.72 				"/>
				<polyline class="st1" points="36.22,445.99 32.21,445.93 32.21,439.32 28.69,439.26 				"/>
			</g>
			<g>
				<polyline class="st1" points="29.12,479.04 29.12,474.54 35.79,474.54 35.79,470.6 				"/>
				<polyline class="st1" points="36.22,478.32 32.21,478.25 32.21,471.21 28.69,471.16 				"/>
			</g>
			<g>
				<polyline class="st1" points="29.12,467.73 29.12,463.49 35.79,463.49 35.79,459.79 				"/>
				<polyline class="st1" points="36.22,467.05 32.21,466.99 32.21,460.38 28.69,460.32 				"/>
			</g>
			<g>
				<polyline class="st1" points="29.12,499.57 29.12,495.07 35.79,495.07 35.79,491.12 				"/>
				<polyline class="st1" points="36.22,498.85 32.21,498.79 32.21,491.74 28.69,491.69 				"/>
			</g>
			<g>
				<polyline class="st1" points="29.12,488.91 29.12,484.67 35.79,484.67 35.79,480.96 				"/>
				<polyline class="st1" points="36.22,488.23 32.21,488.17 32.21,481.55 28.69,481.5 				"/>
			</g>
			<g>
				<polyline class="st1" points="29.12,520.92 29.12,516.41 35.79,516.41 35.79,512.47 				"/>
				<polyline class="st1" points="36.22,520.19 32.21,520.13 32.21,513.09 28.69,513.04 				"/>
			</g>
			<g>
				<polyline class="st1" points="29.12,509.47 29.12,505.24 35.79,505.24 35.79,501.54 				"/>
				<polyline class="st1" points="36.22,508.79 32.21,508.73 32.21,502.11 28.69,502.07 				"/>
			</g>
			<g>
				<polyline class="st1" points="29.12,541.37 29.12,536.86 35.79,536.86 35.79,532.92 				"/>
				<polyline class="st1" points="36.22,540.64 32.21,540.58 32.21,533.55 28.69,533.49 				"/>
			</g>
			<g>
				<polyline class="st1" points="29.12,530.64 29.12,526.4 35.79,526.4 35.79,522.69 				"/>
				<polyline class="st1" points="36.22,529.96 32.21,529.9 32.21,523.28 28.69,523.23 				"/>
			</g>
			<g>
				<polyline class="st1" points="29.12,311.52 29.12,307.02 35.79,307.02 35.79,303.08 				"/>
				<polyline class="st1" points="36.22,310.8 32.21,310.74 32.21,303.7 28.69,303.65 				"/>
			</g>
			<g>
				<polyline class="st1" points="29.12,300.22 29.12,295.98 35.79,295.98 35.79,292.27 				"/>
				<polyline class="st1" points="36.22,299.54 32.21,299.48 32.21,292.86 28.69,292.82 				"/>
			</g>
			<g>
				<polyline class="st1" points="29.12,332.05 29.12,327.55 35.79,327.55 35.79,323.61 				"/>
				<polyline class="st1" points="36.22,331.33 32.21,331.27 32.21,324.23 28.69,324.18 				"/>
			</g>
			<g>
				<polyline class="st1" points="29.12,321.4 29.12,317.16 35.79,317.16 35.79,313.45 				"/>
				<polyline class="st1" points="36.22,320.72 32.21,320.66 32.21,314.04 28.69,313.98 				"/>
			</g>
			<g>
				<polyline class="st1" points="29.12,353.41 29.12,348.9 35.79,348.9 35.79,344.96 				"/>
				<polyline class="st1" points="36.22,352.68 32.21,352.62 32.21,345.58 28.69,345.54 				"/>
			</g>
			<g>
				<polyline class="st1" points="29.12,341.96 29.12,337.72 35.79,337.72 35.79,334.01 				"/>
				<polyline class="st1" points="36.22,341.29 32.21,341.22 32.21,334.6 28.69,334.55 				"/>
			</g>
			<g>
				<polyline class="st1" points="29.12,373.86 29.12,369.35 35.79,369.35 35.79,365.41 				"/>
				<polyline class="st1" points="36.22,373.13 32.21,373.07 32.21,366.04 28.69,365.98 				"/>
			</g>
			<g>
				<polyline class="st1" points="29.12,363.13 29.12,358.89 35.79,358.89 35.79,355.18 				"/>
				<polyline class="st1" points="36.22,362.45 32.21,362.39 32.21,355.77 28.69,355.72 				"/>
			</g>
			<polyline class="st1" points="29.12,552.97 29.12,548.47 35.79,548.47 35.79,544.52 			"/>
			<polyline class="st1" points="36.22,552.25 32.21,552.18 32.21,545.15 28.69,545.09 			"/>
			<polyline class="st1" points="29.12,573.42 29.12,568.92 35.79,568.92 35.79,564.98 			"/>
			<polyline class="st1" points="36.22,572.7 32.21,572.64 32.21,565.6 28.69,565.54 			"/>
			<polyline class="st1" points="29.12,562.7 29.12,558.46 35.79,558.46 35.79,554.75 			"/>
			<polyline class="st1" points="36.22,562.02 32.21,561.96 32.21,555.34 28.69,555.29 			"/>
			<g>
				<g>
					<g>
						<polyline class="st1" points="28.63,30.32 32.35,30.32 32.35,37.76 35.61,37.76 						"/>
						<polyline class="st1" points="29.23,38.24 29.28,33.77 35.09,33.77 35.13,29.84 						"/>
					</g>
					<g>
						<polyline class="st1" points="38.12,30.32 41.84,30.32 41.84,37.76 45.09,37.76 						"/>
						<polyline class="st1" points="38.71,38.24 38.77,33.77 44.58,33.77 44.62,29.84 						"/>
					</g>
					<g>
						<polyline class="st1" points="46.6,30.32 50.33,30.32 50.33,37.76 53.58,37.76 						"/>
						<polyline class="st1" points="47.2,38.24 47.26,33.77 53.07,33.77 53.11,29.84 						"/>
					</g>
					<g>
						<polyline class="st1" points="56.09,30.32 59.81,30.32 59.81,37.76 63.07,37.76 						"/>
						<polyline class="st1" points="56.69,38.24 56.74,33.77 62.55,33.77 62.6,29.84 						"/>
					</g>
					<g>
						<polyline class="st1" points="65.58,30.32 69.3,30.32 69.3,37.76 72.56,37.76 						"/>
						<polyline class="st1" points="66.18,38.24 66.23,33.77 72.04,33.77 72.09,29.84 						"/>
					</g>
					<g>
						<polyline class="st1" points="74.07,30.32 77.79,30.32 77.79,37.76 81.05,37.76 						"/>
						<polyline class="st1" points="74.67,38.24 74.72,33.77 80.53,33.77 80.58,29.84 						"/>
					</g>
					<g>
						<polyline class="st1" points="83.32,30.32 87.04,30.32 87.04,37.76 90.3,37.76 						"/>
						<polyline class="st1" points="83.92,38.24 83.97,33.77 89.78,33.77 89.83,29.84 						"/>
					</g>
					<g>
						<polyline class="st1" points="92.58,30.32 96.3,30.32 96.3,37.76 99.55,37.76 						"/>
						<polyline class="st1" points="93.17,38.24 93.23,33.77 99.04,33.77 99.08,29.84 						"/>
					</g>
					<g>
						<polyline class="st1" points="102.07,30.32 105.79,30.32 105.79,37.76 109.04,37.76 						"/>
						<polyline class="st1" points="102.66,38.24 102.72,33.77 108.53,33.77 108.57,29.84 						"/>
					</g>
					<g>
						<polyline class="st1" points="111.02,30.32 114.74,30.32 114.74,37.76 118,37.76 						"/>
						<polyline class="st1" points="111.62,38.24 111.67,33.77 117.48,33.77 117.53,29.84 						"/>
					</g>
					<g>
						<polyline class="st1" points="120.11,30.32 123.83,30.32 123.83,37.76 127.09,37.76 						"/>
						<polyline class="st1" points="120.71,38.24 120.76,33.77 126.57,33.77 126.62,29.84 						"/>
					</g>
					<g>
						<polyline class="st1" points="129,30.32 132.72,30.32 132.72,37.76 135.98,37.76 						"/>
						<polyline class="st1" points="129.6,38.24 129.65,33.77 135.46,33.77 135.51,29.84 						"/>
					</g>
					<g>
						<polyline class="st1" points="138.89,30.32 142.61,30.32 142.61,37.76 145.87,37.76 						"/>
						<polyline class="st1" points="139.49,38.24 139.54,33.77 145.35,33.77 145.4,29.84 						"/>
					</g>
					<g>
						<polyline class="st1" points="147.78,30.32 151.5,30.32 151.5,37.76 154.76,37.76 						"/>
						<polyline class="st1" points="148.38,38.24 148.43,33.77 154.24,33.77 154.29,29.84 						"/>
					</g>
					<g>
						<polyline class="st1" points="156.67,30.32 160.39,30.32 160.39,37.76 163.65,37.76 						"/>
						<polyline class="st1" points="157.27,38.24 157.32,33.77 163.13,33.77 163.18,29.84 						"/>
					</g>
					<g>
						<polyline class="st1" points="165.56,30.32 169.28,30.32 169.28,37.76 172.54,37.76 						"/>
						<polyline class="st1" points="166.16,38.24 166.21,33.77 172.02,33.77 172.07,29.84 						"/>
					</g>
					<g>
						<polyline class="st1" points="175.45,30.32 179.17,30.32 179.17,37.76 182.43,37.76 						"/>
						<polyline class="st1" points="176.05,38.24 176.1,33.77 181.91,33.77 181.96,29.84 						"/>
					</g>
				</g>
				<g>
					<g>
						<polyline class="st1" points="28.53,575.23 32.25,575.23 32.25,582.67 35.5,582.67 						"/>
						<polyline class="st1" points="29.13,583.15 29.18,578.68 34.99,578.68 35.03,574.75 						"/>
					</g>
					<g>
						<polyline class="st1" points="38.02,575.23 41.74,575.23 41.74,582.67 44.99,582.67 						"/>
						<polyline class="st1" points="38.61,583.15 38.67,578.68 44.48,578.68 44.52,574.75 						"/>
					</g>
					<g>
						<polyline class="st1" points="46.5,575.23 50.22,575.23 50.22,582.67 53.48,582.67 						"/>
						<polyline class="st1" points="47.1,583.15 47.15,578.68 52.96,578.68 53.01,574.75 						"/>
					</g>
					<g>
						<polyline class="st1" points="55.99,575.23 59.71,575.23 59.71,582.67 62.97,582.67 						"/>
						<polyline class="st1" points="56.59,583.15 56.64,578.68 62.45,578.68 62.5,574.75 						"/>
					</g>
					<g>
						<polyline class="st1" points="65.48,575.23 69.2,575.23 69.2,582.67 72.46,582.67 						"/>
						<polyline class="st1" points="66.08,583.15 66.13,578.68 71.94,578.68 71.99,574.75 						"/>
					</g>
					<g>
						<polyline class="st1" points="73.97,575.23 77.69,575.23 77.69,582.67 80.95,582.67 						"/>
						<polyline class="st1" points="74.57,583.15 74.62,578.68 80.43,578.68 80.48,574.75 						"/>
					</g>
					<g>
						<polyline class="st1" points="83.22,575.23 86.94,575.23 86.94,582.67 90.2,582.67 						"/>
						<polyline class="st1" points="83.82,583.15 83.87,578.68 89.68,578.68 89.73,574.75 						"/>
					</g>
					<g>
						<polyline class="st1" points="92.48,575.23 96.2,575.23 96.2,582.67 99.45,582.67 						"/>
						<polyline class="st1" points="93.07,583.15 93.13,578.68 98.94,578.68 98.98,574.75 						"/>
					</g>
					<g>
						<polyline class="st1" points="101.96,575.23 105.68,575.23 105.68,582.67 108.94,582.67 						"/>
						<polyline class="st1" points="102.56,583.15 102.61,578.68 108.42,578.68 108.47,574.75 						"/>
					</g>
					<g>
						<polyline class="st1" points="110.92,575.23 114.64,575.23 114.64,582.67 117.9,582.67 						"/>
						<polyline class="st1" points="111.52,583.15 111.57,578.68 117.38,578.68 117.43,574.75 						"/>
					</g>
					<g>
						<polyline class="st1" points="120.01,575.23 123.73,575.23 123.73,582.67 126.99,582.67 						"/>
						<polyline class="st1" points="120.61,583.15 120.66,578.68 126.47,578.68 126.52,574.75 						"/>
					</g>
					<g>
						<polyline class="st1" points="128.9,575.23 132.62,575.23 132.62,582.67 135.88,582.67 						"/>
						<polyline class="st1" points="129.5,583.15 129.55,578.68 135.36,578.68 135.41,574.75 						"/>
					</g>
					<g>
						<polyline class="st1" points="138.79,575.23 142.51,575.23 142.51,582.67 145.77,582.67 						"/>
						<polyline class="st1" points="139.39,583.15 139.44,578.68 145.25,578.68 145.3,574.75 						"/>
					</g>
					<g>
						<polyline class="st1" points="147.68,575.23 151.4,575.23 151.4,582.67 154.66,582.67 						"/>
						<polyline class="st1" points="148.28,583.15 148.33,578.68 154.14,578.68 154.19,574.75 						"/>
					</g>
					<g>
						<polyline class="st1" points="156.57,575.23 160.29,575.23 160.29,582.67 163.55,582.67 						"/>
						<polyline class="st1" points="157.17,583.15 157.22,578.68 163.03,578.68 163.08,574.75 						"/>
					</g>
					<g>
						<polyline class="st1" points="165.46,575.23 169.18,575.23 169.18,582.67 172.44,582.67 						"/>
						<polyline class="st1" points="166.06,583.15 166.11,578.68 171.92,578.68 171.97,574.75 						"/>
					</g>
					<g>
						<polyline class="st1" points="175.35,575.23 179.07,575.23 179.07,582.67 182.33,582.67 						"/>
						<polyline class="st1" points="175.95,583.15 176,578.68 181.81,578.68 181.86,574.75 						"/>
					</g>
				</g>
				<g>
					<polyline class="st1" points="175.29,142.99 175.29,138.49 181.97,138.49 181.97,134.54 					"/>
					<polyline class="st1" points="182.4,142.27 178.38,142.2 178.38,135.17 174.86,135.11 					"/>
				</g>
				<g>
					<polyline class="st1" points="175.29,131.69 175.29,127.45 181.97,127.45 181.97,123.74 					"/>
					<polyline class="st1" points="182.4,131.01 178.38,130.95 178.38,124.33 174.86,124.28 					"/>
				</g>
				<g>
					<polyline class="st1" points="175.29,163.52 175.29,159.01 181.97,159.01 181.97,155.07 					"/>
					<polyline class="st1" points="182.4,162.8 178.38,162.73 178.38,155.7 174.86,155.64 					"/>
				</g>
				<g>
					<polyline class="st1" points="175.29,152.86 175.29,148.62 181.97,148.62 181.97,144.92 					"/>
					<polyline class="st1" points="182.4,152.18 178.38,152.12 178.38,145.5 174.86,145.45 					"/>
				</g>
				<g>
					<polyline class="st1" points="175.29,184.87 175.29,180.37 181.97,180.37 181.97,176.42 					"/>
					<polyline class="st1" points="182.4,184.15 178.38,184.08 178.38,177.05 174.86,176.99 					"/>
				</g>
				<g>
					<polyline class="st1" points="175.29,173.43 175.29,169.19 181.97,169.19 181.97,165.48 					"/>
					<polyline class="st1" points="182.4,172.75 178.38,172.69 178.38,166.07 174.86,166.02 					"/>
				</g>
				<g>
					<polyline class="st1" points="175.29,205.32 175.29,200.82 181.97,200.82 181.97,196.88 					"/>
					<polyline class="st1" points="182.4,204.6 178.38,204.54 178.38,197.5 174.86,197.44 					"/>
				</g>
				<g>
					<polyline class="st1" points="175.29,194.6 175.29,190.36 181.97,190.36 181.97,186.65 					"/>
					<polyline class="st1" points="182.4,193.92 178.38,193.86 178.38,187.24 174.86,187.19 					"/>
				</g>
				<g>
					<polyline class="st1" points="175.29,226.96 175.29,222.46 181.97,222.46 181.97,218.51 					"/>
					<polyline class="st1" points="182.4,226.24 178.38,226.17 178.38,219.14 174.86,219.08 					"/>
				</g>
				<g>
					<polyline class="st1" points="175.29,215.66 175.29,211.42 181.97,211.42 181.97,207.71 					"/>
					<polyline class="st1" points="182.4,214.98 178.38,214.92 178.38,208.3 174.86,208.25 					"/>
				</g>
				<g>
					<polyline class="st1" points="175.29,247.49 175.29,242.99 181.97,242.99 181.97,239.04 					"/>
					<polyline class="st1" points="182.4,246.77 178.38,246.7 178.38,239.67 174.86,239.61 					"/>
				</g>
				<g>
					<polyline class="st1" points="175.29,236.84 175.29,232.6 181.97,232.6 181.97,228.89 					"/>
					<polyline class="st1" points="182.4,236.15 178.38,236.09 178.38,229.47 174.86,229.42 					"/>
				</g>
				<g>
					<polyline class="st1" points="175.29,268.85 175.29,264.35 181.97,264.35 181.97,260.39 					"/>
					<polyline class="st1" points="182.4,268.12 178.38,268.05 178.38,261.02 174.86,260.96 					"/>
				</g>
				<g>
					<polyline class="st1" points="175.29,257.4 175.29,253.16 181.97,253.16 181.97,249.45 					"/>
					<polyline class="st1" points="182.4,256.72 178.38,256.66 178.38,250.04 174.86,249.99 					"/>
				</g>
				<g>
					<polyline class="st1" points="175.29,289.29 175.29,284.79 181.97,284.79 181.97,280.85 					"/>
					<polyline class="st1" points="182.4,288.57 178.38,288.51 178.38,281.47 174.86,281.42 					"/>
				</g>
				<g>
					<polyline class="st1" points="175.29,278.57 175.29,274.33 181.97,274.33 181.97,270.62 					"/>
					<polyline class="st1" points="182.4,277.89 178.38,277.83 178.38,271.21 174.86,271.16 					"/>
				</g>
				<g>
					<polyline class="st1" points="175.29,59.45 175.29,54.95 181.97,54.95 181.97,51 					"/>
					<polyline class="st1" points="182.4,58.73 178.38,58.66 178.38,51.63 174.86,51.57 					"/>
				</g>
				<g>
					<polyline class="st1" points="175.29,48.15 175.29,43.91 181.97,43.91 181.97,40.2 					"/>
					<polyline class="st1" points="182.4,47.47 178.38,47.41 178.38,40.79 174.86,40.74 					"/>
				</g>
				<g>
					<polyline class="st1" points="175.29,79.98 175.29,75.47 181.97,75.47 181.97,71.53 					"/>
					<polyline class="st1" points="182.4,79.26 178.38,79.19 178.38,72.16 174.86,72.1 					"/>
				</g>
				<g>
					<polyline class="st1" points="175.29,69.32 175.29,65.08 181.97,65.08 181.97,61.38 					"/>
					<polyline class="st1" points="182.4,68.64 178.38,68.58 178.38,61.96 174.86,61.91 					"/>
				</g>
				<g>
					<polyline class="st1" points="175.29,101.33 175.29,96.83 181.97,96.83 181.97,92.88 					"/>
					<polyline class="st1" points="182.4,100.61 178.38,100.54 178.38,93.51 174.86,93.45 					"/>
				</g>
				<g>
					<polyline class="st1" points="175.29,89.89 175.29,85.65 181.97,85.65 181.97,81.94 					"/>
					<polyline class="st1" points="182.4,89.21 178.38,89.15 178.38,82.53 174.86,82.48 					"/>
				</g>
				<g>
					<polyline class="st1" points="175.29,121.78 175.29,117.28 181.97,117.28 181.97,113.34 					"/>
					<polyline class="st1" points="182.4,121.06 178.38,121 178.38,113.96 174.86,113.91 					"/>
				</g>
				<g>
					<polyline class="st1" points="175.29,111.06 175.29,106.82 181.97,106.82 181.97,103.11 					"/>
					<polyline class="st1" points="182.4,110.38 178.38,110.32 178.38,103.7 174.86,103.65 					"/>
				</g>
				<g>
					<polyline class="st1" points="175.29,395.07 175.29,390.57 181.97,390.57 181.97,386.62 					"/>
					<polyline class="st1" points="182.4,394.35 178.38,394.29 178.38,387.24 174.86,387.19 					"/>
				</g>
				<g>
					<polyline class="st1" points="175.29,383.76 175.29,379.52 181.97,379.52 181.97,375.82 					"/>
					<polyline class="st1" points="182.4,383.08 178.38,383.02 178.38,376.4 174.86,376.35 					"/>
				</g>
				<g>
					<polyline class="st1" points="175.29,415.6 175.29,411.1 181.97,411.1 181.97,407.15 					"/>
					<polyline class="st1" points="182.4,414.88 178.38,414.82 178.38,407.77 174.86,407.72 					"/>
				</g>
				<g>
					<polyline class="st1" points="175.29,404.94 175.29,400.7 181.97,400.7 181.97,396.99 					"/>
					<polyline class="st1" points="182.4,404.26 178.38,404.2 178.38,397.58 174.86,397.52 					"/>
				</g>
				<g>
					<polyline class="st1" points="175.29,436.95 175.29,432.44 181.97,432.44 181.97,428.5 					"/>
					<polyline class="st1" points="182.4,436.22 178.38,436.16 178.38,429.12 174.86,429.07 					"/>
				</g>
				<g>
					<polyline class="st1" points="175.29,425.5 175.29,421.26 181.97,421.26 181.97,417.55 					"/>
					<polyline class="st1" points="182.4,424.82 178.38,424.76 178.38,418.14 174.86,418.1 					"/>
				</g>
				<g>
					<polyline class="st1" points="175.29,457.4 175.29,452.89 181.97,452.89 181.97,448.95 					"/>
					<polyline class="st1" points="182.4,456.67 178.38,456.61 178.38,449.57 174.86,449.52 					"/>
				</g>
				<g>
					<polyline class="st1" points="175.29,446.67 175.29,442.43 181.97,442.43 181.97,438.72 					"/>
					<polyline class="st1" points="182.4,445.99 178.38,445.93 178.38,439.32 174.86,439.26 					"/>
				</g>
				<g>
					<polyline class="st1" points="175.29,479.04 175.29,474.54 181.97,474.54 181.97,470.6 					"/>
					<polyline class="st1" points="182.4,478.32 178.38,478.25 178.38,471.21 174.86,471.16 					"/>
				</g>
				<g>
					<polyline class="st1" points="175.29,467.73 175.29,463.49 181.97,463.49 181.97,459.79 					"/>
					<polyline class="st1" points="182.4,467.05 178.38,466.99 178.38,460.38 174.86,460.32 					"/>
				</g>
				<g>
					<polyline class="st1" points="175.29,499.57 175.29,495.07 181.97,495.07 181.97,491.12 					"/>
					<polyline class="st1" points="182.4,498.85 178.38,498.79 178.38,491.74 174.86,491.69 					"/>
				</g>
				<g>
					<polyline class="st1" points="175.29,488.91 175.29,484.67 181.97,484.67 181.97,480.96 					"/>
					<polyline class="st1" points="182.4,488.23 178.38,488.17 178.38,481.55 174.86,481.5 					"/>
				</g>
				<g>
					<polyline class="st1" points="175.29,520.92 175.29,516.41 181.97,516.41 181.97,512.47 					"/>
					<polyline class="st1" points="182.4,520.19 178.38,520.13 178.38,513.09 174.86,513.04 					"/>
				</g>
				<g>
					<polyline class="st1" points="175.29,509.47 175.29,505.24 181.97,505.24 181.97,501.54 					"/>
					<polyline class="st1" points="182.4,508.79 178.38,508.73 178.38,502.11 174.86,502.07 					"/>
				</g>
				<g>
					<polyline class="st1" points="175.29,541.37 175.29,536.86 181.97,536.86 181.97,532.92 					"/>
					<polyline class="st1" points="182.4,540.64 178.38,540.58 178.38,533.55 174.86,533.49 					"/>
				</g>
				<g>
					<polyline class="st1" points="175.29,530.64 175.29,526.4 181.97,526.4 181.97,522.69 					"/>
					<polyline class="st1" points="182.4,529.96 178.38,529.9 178.38,523.28 174.86,523.23 					"/>
				</g>
				<g>
					<polyline class="st1" points="175.29,311.52 175.29,307.02 181.97,307.02 181.97,303.08 					"/>
					<polyline class="st1" points="182.4,310.8 178.38,310.74 178.38,303.7 174.86,303.65 					"/>
				</g>
				<g>
					<polyline class="st1" points="175.29,300.22 175.29,295.98 181.97,295.98 181.97,292.27 					"/>
					<polyline class="st1" points="182.4,299.54 178.38,299.48 178.38,292.86 174.86,292.82 					"/>
				</g>
				<g>
					<polyline class="st1" points="175.29,332.05 175.29,327.55 181.97,327.55 181.97,323.61 					"/>
					<polyline class="st1" points="182.4,331.33 178.38,331.27 178.38,324.23 174.86,324.18 					"/>
				</g>
				<g>
					<polyline class="st1" points="175.29,321.4 175.29,317.16 181.97,317.16 181.97,313.45 					"/>
					<polyline class="st1" points="182.4,320.72 178.38,320.66 178.38,314.04 174.86,313.98 					"/>
				</g>
				<g>
					<polyline class="st1" points="175.29,353.41 175.29,348.9 181.97,348.9 181.97,344.96 					"/>
					<polyline class="st1" points="182.4,352.68 178.38,352.62 178.38,345.58 174.86,345.54 					"/>
				</g>
				<g>
					<polyline class="st1" points="175.29,341.96 175.29,337.72 181.97,337.72 181.97,334.01 					"/>
					<polyline class="st1" points="182.4,341.29 178.38,341.22 178.38,334.6 174.86,334.55 					"/>
				</g>
				<g>
					<polyline class="st1" points="175.29,373.86 175.29,369.35 181.97,369.35 181.97,365.41 					"/>
					<polyline class="st1" points="182.4,373.13 178.38,373.07 178.38,366.04 174.86,365.98 					"/>
				</g>
				<g>
					<polyline class="st1" points="175.29,363.13 175.29,358.89 181.97,358.89 181.97,355.18 					"/>
					<polyline class="st1" points="182.4,362.45 178.38,362.39 178.38,355.77 174.86,355.72 					"/>
				</g>
				<polyline class="st1" points="175.29,552.97 175.29,548.47 181.97,548.47 181.97,544.52 				"/>
				<polyline class="st1" points="182.4,552.25 178.38,552.18 178.38,545.15 174.86,545.09 				"/>
				<polyline class="st1" points="175.29,573.42 175.29,568.92 181.97,568.92 181.97,564.98 				"/>
				<polyline class="st1" points="182.4,572.7 178.38,572.64 178.38,565.6 174.86,565.54 				"/>
				<polyline class="st1" points="175.29,562.7 175.29,558.46 181.97,558.46 181.97,554.75 				"/>
				<polyline class="st1" points="182.4,562.02 178.38,561.96 178.38,555.34 174.86,555.29 				"/>
			</g>
		</g>
		<path class="st1" d="M133.18,474.82H77.63c-1.89,0-3.42-1.53-3.42-3.42V159.42c0-1.89,1.53-3.42,3.42-3.42h55.55
			c1.89,0,3.42,1.53,3.42,3.42v311.97C136.6,473.29,135.07,474.82,133.18,474.82z"/>
		<g>
			<path class="st2" d="M103.37,165.75l0.2,0.14c-0.08,0.35-0.18,0.62-0.31,0.82s-0.32,0.36-0.58,0.48
				c-0.25,0.12-0.54,0.17-0.87,0.17c-0.17,0-0.39-0.01-0.64-0.03v5.42c0.54-0.16,0.97-0.38,1.29-0.63c0.32-0.26,0.62-0.63,0.89-1.12
				l0.21,0.1c-0.16,0.48-0.34,0.86-0.55,1.15c-0.33,0.47-0.76,0.84-1.29,1.11s-1.13,0.41-1.83,0.41c-0.67,0-1.3-0.13-1.89-0.39
				c-0.34-0.15-0.65-0.36-0.93-0.63s-0.51-0.6-0.7-0.99s-0.27-0.83-0.27-1.32s0.1-0.97,0.29-1.42c0.2-0.45,0.49-0.88,0.87-1.29
				c0.24-0.26,0.59-0.54,1.03-0.85l-0.67-0.04c-0.25-0.01-0.53,0.04-0.83,0.16c-0.3,0.12-0.54,0.28-0.71,0.48s-0.32,0.5-0.44,0.9
				l-0.21-0.12c0.12-0.51,0.28-0.9,0.47-1.19c0.26-0.38,0.6-0.67,1.02-0.87s0.9-0.31,1.44-0.31c0.38,0,1.04,0.08,1.99,0.24
				s1.61,0.24,1.96,0.24c0.24,0,0.42-0.04,0.55-0.11C103.02,166.19,103.18,166.02,103.37,165.75z M98.91,166.94l-0.28-0.03
				c-0.48,0.41-0.83,0.82-1.06,1.24c-0.3,0.56-0.46,1.13-0.46,1.71c0,1,0.41,1.82,1.24,2.45c0.26-0.22,0.42-0.4,0.48-0.53
				c0.06-0.14,0.09-0.41,0.09-0.83v-4.01L98.91,166.94L98.91,166.94z M100.93,167.28c-0.34-0.05-0.64-0.1-0.9-0.15v3.21
				c0,0.38-0.02,0.62-0.05,0.72s-0.1,0.22-0.21,0.35c-0.2,0.22-0.6,0.57-1.2,1.05c0.3,0.15,0.54,0.24,0.73,0.29
				c0.32,0.09,0.63,0.13,0.93,0.13c0.16,0,0.39-0.02,0.7-0.06V167.28L100.93,167.28z"/>
			<path class="st2" d="M106.29,166.08l0.05,0.13c-0.26,0.16-0.43,0.34-0.53,0.53s-0.14,0.48-0.14,0.89v1.75l1.66-1.32
				c0.35,0.23,0.58,0.45,0.69,0.66s0.16,0.58,0.16,1.09v2.43c0,0.47-0.05,0.81-0.15,1.02c-0.15,0.35-0.44,0.68-0.85,0.99
				c-0.54,0.41-1.24,0.76-2.08,1.06l-0.08-0.2c0.68-0.28,1.16-0.54,1.43-0.77c0.27-0.23,0.44-0.48,0.53-0.74
				c0.06-0.2,0.09-0.71,0.09-1.54v-2.25c0-0.25-0.02-0.42-0.08-0.52c-0.08-0.13-0.21-0.26-0.41-0.39l-0.92,0.74v2.99l0.38,0.38
				l-0.94,0.77l-0.96-0.77l0.42-0.42v-4.88c0-0.44-0.04-0.75-0.12-0.91s-0.23-0.31-0.46-0.45l0.06-0.13
				c0.19,0.05,0.34,0.11,0.46,0.18c0.11,0.07,0.26,0.18,0.45,0.35c0.22-0.21,0.43-0.36,0.63-0.46
				C105.8,166.18,106.03,166.12,106.29,166.08z"/>
			<path class="st2" d="M111.42,168.05l1.51,1.77l-2.41,1.69v0.98l1.25,0.49l0.84-0.57l0.12,0.16l-1.74,1.21
				c-0.35-0.19-0.65-0.33-0.88-0.41s-0.56-0.17-0.98-0.26v-0.13c0.12-0.07,0.2-0.16,0.24-0.27s0.06-0.33,0.06-0.68v-3.07
				c0.34-0.12,0.62-0.23,0.84-0.33C110.45,168.55,110.83,168.36,111.42,168.05z M110.61,168.67l-0.08,0.04v2.44l1.42-0.99
				L110.61,168.67z"/>
			<path class="st2" d="M87.4,180.07l0.11,0.19l-2.14,1.58c0.42,0,0.85,0.11,1.28,0.32c0.44,0.21,0.77,0.5,0.99,0.88
				s0.33,0.77,0.33,1.18c0,0.65-0.23,1.28-0.68,1.88s-1.09,1.1-1.93,1.49s-1.62,0.59-2.36,0.59c-0.71,0-1.35-0.16-1.94-0.47
				s-1.02-0.71-1.29-1.19s-0.42-1-0.42-1.58c0-0.64,0.16-1.24,0.47-1.8s0.89-1.17,1.74-1.84l2.37-1.88
				c0.66,0.32,1.17,0.53,1.55,0.64c0.37,0.11,0.74,0.16,1.09,0.16C86.85,180.21,87.12,180.17,87.4,180.07z M81.72,181.51
				c-0.45,0.46-0.76,0.89-0.95,1.3s-0.27,0.88-0.27,1.42c0,0.43,0.06,0.82,0.18,1.15s0.3,0.65,0.53,0.96
				c0.22-0.2,0.36-0.38,0.42-0.52s0.09-0.4,0.09-0.79V181.51z M83.71,183.18c-0.31,0.15-0.57,0.3-0.77,0.46v0.98
				c0,0.3-0.02,0.5-0.06,0.61s-0.13,0.21-0.28,0.33c-0.09,0.07-0.16,0.12-0.21,0.16l-1.01,0.84c0.35,0.37,0.71,0.64,1.07,0.82
				c0.36,0.18,0.78,0.28,1.26,0.31L83.71,183.18L83.71,183.18z M83.04,180.43l-0.1,0.1v2.77l2.74-2.06
				C84.83,181.02,83.94,180.76,83.04,180.43z M83.97,184.47c0.27,0.19,0.52,0.32,0.75,0.4s0.48,0.12,0.75,0.12
				c0.25,0,0.48-0.03,0.69-0.09s0.48-0.19,0.8-0.37c-0.1-0.41-0.28-0.74-0.54-0.99c-0.43-0.41-0.96-0.62-1.59-0.62
				c-0.27,0-0.56,0.05-0.86,0.16C83.97,183.08,83.97,184.47,83.97,184.47z M83.97,186.1c0.49-0.26,0.95-0.39,1.39-0.39
				c0.42,0,0.87,0.12,1.34,0.36c0.2-0.41,0.3-0.81,0.3-1.18v-0.08c-0.35,0.18-0.63,0.3-0.85,0.36c-0.21,0.06-0.45,0.09-0.7,0.09
				c-0.24,0-0.49-0.04-0.73-0.11s-0.49-0.19-0.74-0.33L83.97,186.1L83.97,186.1z M83.97,187.68c0.36-0.02,0.66-0.07,0.89-0.15
				c0.35-0.12,0.68-0.3,1-0.53c0.23-0.17,0.47-0.41,0.71-0.71c-0.47-0.2-0.89-0.29-1.25-0.29c-0.44,0-0.89,0.13-1.35,0.39V187.68z"
				/>
			<path class="st2" d="M92.89,181.93l1.05,0.87l-0.47,0.43v3.08c0,0.36,0.05,0.61,0.15,0.76c0.06,0.11,0.13,0.16,0.21,0.16
				c0.06,0,0.16-0.06,0.32-0.19l0.14,0.18l-1.25,0.96c-0.31-0.22-0.51-0.42-0.61-0.59c-0.09-0.17-0.15-0.45-0.15-0.83
				c-0.61,0.39-1.22,0.86-1.85,1.42c-0.38-0.3-0.62-0.56-0.74-0.78s-0.17-0.52-0.17-0.89v-2.89c0-0.2-0.02-0.34-0.05-0.4
				c-0.06-0.11-0.15-0.16-0.26-0.16c-0.08,0-0.2,0.07-0.37,0.2l-0.14-0.18l1.39-1.14l1.06,0.87l-0.44,0.39v3.12
				c0,0.23,0.03,0.4,0.09,0.51s0.2,0.24,0.43,0.41l1.07-0.79v-3.2l-0.42-0.43L92.89,181.93z"/>
			<path class="st2" d="M99.12,182.18l0.21,0.08c-0.21,0.33-0.34,0.58-0.4,0.75s-0.08,0.41-0.08,0.71v2.5
				c0,0.41,0.03,0.67,0.09,0.78s0.13,0.16,0.21,0.16c0.04,0,0.09-0.01,0.13-0.03c0.03-0.02,0.11-0.09,0.25-0.2l0.14,0.18l-1.25,1.08
				c-0.3-0.23-0.5-0.44-0.61-0.63c-0.1-0.19-0.16-0.44-0.17-0.78l-1.78,1.41c-0.67-0.55-1-1.09-1-1.62c0-0.36,0.07-0.69,0.22-1
				c0.19-0.41,0.52-0.89,0.99-1.44l-0.71-1.51l0.08-0.15c0.15,0.01,0.26,0.02,0.34,0.02c0.46,0,0.87-0.18,1.22-0.54
				c0.28,0.17,0.6,0.3,0.93,0.4c0.34,0.1,0.59,0.15,0.77,0.15c0.08,0,0.14-0.01,0.19-0.04C98.94,182.41,99.02,182.32,99.12,182.18z
				 M97.65,183.3l-2-0.62l0.71,1.51l1.29,0.61V183.3z M97.65,185.04l-1.42-0.67c-0.22,0.48-0.33,0.9-0.33,1.26
				c0,0.63,0.29,1.16,0.86,1.57l0.88-0.71v-1.45H97.65z"/>
			<path class="st2" d="M103.98,181.93l0.8,0.88l0.57-0.55l0.17,0.16c-0.28,0.25-0.44,0.44-0.5,0.57c-0.08,0.17-0.12,0.41-0.12,0.71
				v2.79c0,0.26,0.04,0.45,0.12,0.58c0.05,0.08,0.11,0.12,0.17,0.12s0.18-0.08,0.39-0.23l0.14,0.18l-1.26,1.03
				c-0.33-0.24-0.53-0.46-0.63-0.65c-0.09-0.19-0.14-0.49-0.14-0.91v-3.21l-0.52-0.55l-1,0.8v3.25l0.44,0.42l-1.03,0.84l-1.04-0.84
				l0.44-0.42v-2.99c0-0.43-0.04-0.71-0.13-0.86c-0.06-0.1-0.12-0.15-0.2-0.15c-0.08,0-0.2,0.08-0.35,0.23l-0.14-0.18l1.25-1.03
				c0.34,0.26,0.56,0.46,0.65,0.61s0.13,0.36,0.13,0.62v0.21L103.98,181.93z"/>
			<path class="st2" d="M106.74,180.03l-0.13-0.23c0.27-0.23,0.5-0.37,0.67-0.44s0.37-0.1,0.59-0.1c0.32,0,0.61,0.06,0.89,0.19
				s0.49,0.29,0.65,0.5c0.12,0.16,0.22,0.4,0.3,0.72c0.57-0.43,1.06-0.72,1.46-0.88s0.79-0.25,1.16-0.25c0.7,0,1.3,0.29,1.81,0.87
				s0.76,1.38,0.76,2.4c0,0.58-0.1,1.13-0.29,1.65s-0.48,0.95-0.86,1.28s-0.83,0.57-1.34,0.72s-0.95,0.22-1.31,0.22l-2.49-0.05
				c-0.38,0-0.73,0.06-1.05,0.18c-0.33,0.12-0.56,0.29-0.71,0.5s-0.22,0.43-0.22,0.67c0,0.31,0.11,0.57,0.34,0.79
				s0.51,0.33,0.83,0.33c0.18,0,0.36-0.03,0.55-0.08s0.54-0.19,1.07-0.42c0.76-0.33,1.39-0.5,1.89-0.5c0.52,0,0.92,0.12,1.23,0.36
				c0.23,0.19,0.34,0.43,0.34,0.73c0,0.18-0.05,0.32-0.16,0.43s-0.23,0.16-0.38,0.16c-0.13,0-0.24-0.05-0.33-0.15
				s-0.14-0.22-0.14-0.38c0-0.12,0.04-0.26,0.13-0.41c0.05-0.09,0.08-0.16,0.08-0.2c0-0.05-0.02-0.1-0.06-0.13
				c-0.07-0.05-0.15-0.07-0.26-0.07c-0.13,0-0.28,0.03-0.43,0.08s-0.43,0.2-0.83,0.43c-0.57,0.32-1.02,0.54-1.35,0.66
				s-0.63,0.17-0.9,0.17c-0.53,0-0.97-0.17-1.34-0.52s-0.55-0.76-0.55-1.22c0-0.45,0.17-0.84,0.52-1.16s0.89-0.5,1.63-0.55
				c0-0.08,0.01-0.14,0.01-0.18c0-0.44-0.1-0.83-0.29-1.16s-0.44-0.57-0.75-0.73c-0.2-0.1-0.45-0.16-0.76-0.16v-0.21
				c0.17-0.03,0.32-0.05,0.43-0.05c0.25,0,0.48,0.04,0.69,0.11s0.43,0.19,0.66,0.36c0.01-0.11,0.01-0.21,0.01-0.3
				c0-0.48-0.15-0.87-0.44-1.18s-0.65-0.47-1.05-0.47c-0.09,0-0.21,0.01-0.36,0.03v-0.23c0.25-0.13,0.5-0.2,0.74-0.2
				c0.18,0,0.35,0.03,0.5,0.08s0.35,0.15,0.6,0.31c0-0.2,0-0.38,0-0.52c0-0.75-0.11-1.27-0.34-1.56s-0.51-0.45-0.83-0.45
				C107.16,179.82,106.95,179.89,106.74,180.03z M110.37,180.6c-0.22,0.13-0.44,0.28-0.65,0.43v5.31c0.14,0,0.25,0.01,0.33,0.01
				l0.32-0.01V180.6z M110.64,182.04c0.24,0.21,0.46,0.36,0.66,0.45c0.2,0.08,0.42,0.12,0.68,0.12c0.27,0,0.52-0.05,0.75-0.14
				c0.23-0.1,0.49-0.27,0.78-0.53c-0.12-0.36-0.24-0.64-0.38-0.84c-0.2-0.3-0.44-0.52-0.71-0.67s-0.55-0.22-0.84-0.22
				c-0.27,0-0.58,0.08-0.95,0.25L110.64,182.04L110.64,182.04z M110.64,184.16c0.3-0.2,0.55-0.34,0.77-0.41
				c0.22-0.08,0.45-0.11,0.7-0.11s0.48,0.04,0.7,0.11c0.22,0.08,0.47,0.21,0.76,0.41c0.06-0.34,0.09-0.64,0.09-0.9
				s-0.03-0.6-0.09-1.03c-0.33,0.25-0.62,0.42-0.87,0.51c-0.24,0.09-0.51,0.14-0.78,0.14c-0.21,0-0.41-0.04-0.61-0.11
				c-0.19-0.07-0.42-0.2-0.67-0.38L110.64,184.16L110.64,184.16z M110.64,186.34c0.57-0.01,1.03-0.08,1.39-0.21s0.65-0.32,0.88-0.57
				s0.43-0.61,0.6-1.08c-0.29-0.21-0.53-0.36-0.73-0.43c-0.2-0.07-0.43-0.11-0.67-0.11c-0.25,0-0.48,0.04-0.7,0.12
				c-0.22,0.08-0.47,0.22-0.76,0.43L110.64,186.34L110.64,186.34L110.64,186.34z"/>
			<path class="st2" d="M116.73,181.93l1.04,0.86l-0.46,0.45v3.19c0,0.34,0.03,0.55,0.08,0.66c0.06,0.1,0.11,0.15,0.17,0.15
				c0.04,0,0.08-0.01,0.12-0.03c0.05-0.03,0.15-0.11,0.31-0.23l0.14,0.18l-1.26,1.02c-0.31-0.22-0.52-0.43-0.61-0.63
				c-0.09-0.2-0.14-0.54-0.14-1.03v-3.27l-0.44-0.45L116.73,181.93z M117.17,179.93h0.74l-0.81,1.27h-0.23L117.17,179.93z"/>
			<path class="st2" d="M122.65,181.93l0.8,0.88l0.57-0.55l0.17,0.16c-0.28,0.25-0.44,0.44-0.5,0.57c-0.08,0.17-0.12,0.41-0.12,0.71
				v2.79c0,0.26,0.04,0.45,0.12,0.58c0.05,0.08,0.11,0.12,0.17,0.12s0.18-0.08,0.39-0.23l0.14,0.18l-1.26,1.03
				c-0.33-0.24-0.53-0.46-0.63-0.65c-0.09-0.19-0.14-0.49-0.14-0.91v-3.21l-0.52-0.55l-1,0.8v3.25l0.44,0.42l-1.03,0.84l-1.04-0.84
				l0.44-0.42v-2.99c0-0.43-0.04-0.71-0.13-0.86c-0.06-0.1-0.12-0.15-0.2-0.15s-0.2,0.08-0.35,0.23l-0.14-0.18l1.25-1.03
				c0.34,0.26,0.56,0.46,0.65,0.61s0.13,0.36,0.13,0.62v0.21L122.65,181.93z"/>
			<path class="st2" d="M125.5,180.28l0.87-0.86l0.86,0.81c-0.22,0.95-0.75,1.62-1.59,2.03l-0.14-0.21
				c0.26-0.21,0.42-0.36,0.47-0.45c0.09-0.15,0.13-0.29,0.13-0.44c0-0.13-0.04-0.26-0.12-0.39
				C125.91,180.64,125.75,180.48,125.5,180.28z"/>
			<path class="st2" d="M130.07,184.1l1.36,0.71v2.47c-0.33,0.03-0.63,0.11-0.89,0.24c-0.27,0.13-0.57,0.35-0.9,0.66
				c-0.29-0.17-0.54-0.29-0.75-0.36s-0.44-0.1-0.68-0.1c-0.37,0-0.69,0.11-0.98,0.33c-0.11,0.08-0.18,0.12-0.23,0.12
				c-0.04,0-0.09-0.02-0.13-0.06s-0.06-0.09-0.06-0.13c0-0.05,0.04-0.11,0.12-0.19c0.05-0.05,0.13-0.14,0.24-0.27l0.53-0.66l0.75-1
				l-1.28-0.69v-2.19c0.4-0.12,0.72-0.26,0.95-0.42c0.23-0.15,0.45-0.37,0.66-0.64c0.5,0.21,0.9,0.36,1.21,0.45
				c0.22,0.06,0.43,0.09,0.63,0.09c0.22,0,0.39-0.05,0.51-0.14c0.12-0.1,0.18-0.2,0.18-0.3c0-0.07-0.04-0.14-0.12-0.21
				c-0.15-0.14-0.23-0.27-0.23-0.4c0-0.12,0.03-0.22,0.1-0.29s0.14-0.11,0.22-0.11c0.11,0,0.21,0.05,0.3,0.15s0.13,0.23,0.13,0.4
				s-0.04,0.33-0.11,0.49s-0.21,0.37-0.41,0.62L130.07,184.1z M129.36,185.04l-1.41,1.89c0.17-0.06,0.33-0.1,0.48-0.13
				s0.28-0.04,0.4-0.04c0.45,0,0.92,0.15,1.4,0.45v-1.7L129.36,185.04z M128.36,184.51l0.8,0.42l1.28-1.7
				c-0.26,0.08-0.49,0.11-0.68,0.11c-0.48,0-0.95-0.16-1.4-0.48L128.36,184.51L128.36,184.51z"/>
		</g>
		<g>
			<path class="st2" d="M87.88,197.01l0.09,0.12c-0.38,0.3-0.67,0.61-0.86,0.95c-0.24,0.43-0.36,0.91-0.36,1.42
				c0,0.62,0.18,1.19,0.54,1.71c0.15-0.14,0.25-0.26,0.28-0.36s0.05-0.37,0.05-0.81v-1.97l1.66-1.57c0.39,0.17,0.69,0.29,0.91,0.34
				s0.48,0.08,0.78,0.08h0.09l0.06,0.16l-0.64,0.69c-0.43-0.05-0.91-0.23-1.45-0.54l0.04,5.02h0.15c0.37,0,0.71-0.07,1.01-0.22
				c0.3-0.14,0.62-0.38,0.95-0.7l0.12,0.13c-0.24,0.38-0.47,0.67-0.71,0.88c-0.23,0.21-0.51,0.38-0.83,0.5
				c-0.33,0.12-0.65,0.19-0.97,0.19c-0.47,0-0.92-0.13-1.34-0.39s-0.75-0.63-0.98-1.12c-0.24-0.49-0.36-0.99-0.36-1.5
				c0-0.64,0.17-1.22,0.5-1.77C86.87,197.82,87.29,197.41,87.88,197.01z M88.85,197.2l-0.45,0.45v2.01c0,0.25-0.01,0.42-0.04,0.5
				c-0.03,0.11-0.08,0.22-0.18,0.35c-0.19,0.25-0.45,0.53-0.79,0.85c0.21,0.26,0.43,0.46,0.66,0.6c0.24,0.14,0.51,0.23,0.83,0.28
				L88.85,197.2z"/>
			<path class="st2" d="M94.48,198.99v3.29c-0.39,0.18-0.67,0.33-0.84,0.44c-0.13,0.08-0.26,0.19-0.38,0.32
				c-0.37-0.26-0.68-0.44-0.93-0.54c-0.19-0.08-0.4-0.12-0.63-0.13l-0.04-0.09c0.1-0.09,0.16-0.18,0.19-0.25
				c0.04-0.1,0.05-0.27,0.05-0.51v-2.41c0.47-0.18,0.88-0.43,1.21-0.76C93.48,198.62,93.94,198.83,94.48,198.99z M92.69,201.85
				l1.01,0.47v-2.79c-0.32-0.17-0.54-0.28-0.67-0.33c-0.09-0.04-0.2-0.07-0.34-0.1C92.69,199.1,92.69,201.85,92.69,201.85z"/>
			<path class="st2" d="M100.33,198.6l0.11,0.12c-0.15,0.15-0.25,0.26-0.3,0.35s-0.08,0.18-0.1,0.26c-0.02,0.09-0.02,0.27-0.02,0.54
				v1.83c0,0.24,0.02,0.4,0.06,0.48s0.08,0.12,0.12,0.12c0.05,0,0.14-0.06,0.27-0.18l0.09,0.14l-0.84,0.77
				c-0.19-0.17-0.32-0.31-0.37-0.42c-0.08-0.16-0.12-0.34-0.12-0.52v-2.65l-0.39-0.38l-0.61,0.65v2.38l0.29,0.35l-0.67,0.59
				l-0.69-0.59l0.28-0.35v-2.18c0-0.25-0.02-0.42-0.05-0.49c-0.05-0.1-0.16-0.22-0.34-0.36l-0.61,0.58v2.45l0.3,0.35l-0.68,0.59
				l-0.69-0.59l0.3-0.35v-2.35c0-0.24-0.03-0.42-0.08-0.53c-0.04-0.08-0.08-0.12-0.12-0.12s-0.13,0.06-0.25,0.17l-0.09-0.14
				l0.8-0.77c0.18,0.14,0.29,0.26,0.36,0.34c0.06,0.09,0.11,0.19,0.13,0.29c0.02,0.08,0.02,0.23,0.02,0.45l1.15-1.09
				c0.25,0.23,0.42,0.42,0.5,0.57c0.08,0.15,0.12,0.34,0.14,0.57l1.08-1.14l0.63,0.67L100.33,198.6z"/>
			<path class="st2" d="M100.8,199.02l0.81-0.68c0.21,0.16,0.35,0.32,0.42,0.46s0.1,0.33,0.1,0.58l1-1.04
				c0.34,0.28,0.56,0.52,0.68,0.72c0.07,0.13,0.11,0.32,0.11,0.58v2.46c-0.34,0.17-0.72,0.48-1.14,0.93
				c-0.15-0.11-0.37-0.24-0.65-0.39v0.31c0,0.37,0.03,0.63,0.1,0.79c0.06,0.16,0.18,0.3,0.35,0.42l-0.05,0.12
				c-0.28-0.11-0.5-0.22-0.64-0.33c-0.1-0.08-0.19-0.18-0.27-0.31c-0.19,0.19-0.36,0.31-0.53,0.38l-0.05-0.09
				c0.11-0.12,0.19-0.24,0.23-0.37c0.04-0.13,0.07-0.3,0.07-0.53v-0.64c-0.14-0.03-0.29-0.05-0.45-0.05c-0.01,0-0.03,0-0.06,0v-0.37
				c0.19-0.05,0.36-0.08,0.51-0.1v-2.19c0-0.24-0.03-0.4-0.09-0.49s-0.12-0.14-0.18-0.14c-0.05,0-0.11,0.04-0.19,0.11L100.8,199.02z
				 M102.14,199.61v2.27c0.3,0.07,0.51,0.12,0.62,0.16c0.11,0.04,0.24,0.09,0.38,0.17v-2.47c0-0.13,0-0.21-0.01-0.24
				s-0.05-0.07-0.11-0.13c-0.15-0.15-0.27-0.25-0.35-0.32L102.14,199.61z"/>
			<path class="st2" d="M107.3,198.53l0.14,0.06c-0.14,0.25-0.23,0.43-0.26,0.56c-0.04,0.13-0.06,0.31-0.06,0.53v1.87
				c0,0.31,0.02,0.5,0.06,0.58s0.08,0.12,0.14,0.12c0.03,0,0.06-0.01,0.09-0.02c0.02-0.01,0.07-0.06,0.17-0.15l0.09,0.14l-0.82,0.81
				c-0.2-0.18-0.33-0.33-0.4-0.47s-0.1-0.33-0.11-0.58l-1.17,1.05c-0.44-0.41-0.66-0.82-0.66-1.21c0-0.27,0.05-0.52,0.14-0.75
				c0.13-0.31,0.35-0.67,0.66-1.08l-0.46-1.13l0.05-0.11c0.1,0.01,0.17,0.01,0.22,0.01c0.3,0,0.57-0.14,0.8-0.41
				c0.19,0.12,0.39,0.22,0.62,0.3c0.22,0.08,0.39,0.11,0.51,0.11c0.05,0,0.09-0.01,0.12-0.03S107.23,198.64,107.3,198.53z
				 M106.33,199.37l-1.32-0.46l0.47,1.13l0.85,0.45V199.37L106.33,199.37z M106.33,200.68l-0.93-0.5c-0.14,0.36-0.22,0.67-0.22,0.94
				c0,0.48,0.19,0.87,0.57,1.18l0.58-0.54V200.68L106.33,200.68z"/>
			<path class="st2" d="M110.09,199.98l0.9,0.53v1.85c-0.22,0.02-0.41,0.08-0.59,0.18c-0.17,0.1-0.37,0.26-0.6,0.49
				c-0.19-0.13-0.36-0.22-0.5-0.27s-0.29-0.07-0.45-0.07c-0.24,0-0.46,0.08-0.65,0.25c-0.07,0.06-0.12,0.09-0.15,0.09
				s-0.06-0.02-0.08-0.05s-0.04-0.06-0.04-0.1c0-0.04,0.03-0.08,0.08-0.14c0.03-0.04,0.08-0.1,0.16-0.2l0.35-0.5l0.5-0.75
				l-0.84-0.52v-1.64c0.27-0.09,0.47-0.2,0.62-0.31c0.15-0.12,0.3-0.27,0.44-0.48c0.33,0.16,0.59,0.27,0.79,0.33
				c0.14,0.04,0.28,0.07,0.41,0.07c0.14,0,0.26-0.04,0.34-0.11s0.12-0.15,0.12-0.23c0-0.05-0.03-0.11-0.08-0.16
				c-0.1-0.1-0.15-0.2-0.15-0.3c0-0.09,0.02-0.16,0.07-0.22s0.09-0.08,0.15-0.08c0.07,0,0.14,0.04,0.2,0.11
				c0.06,0.08,0.09,0.17,0.09,0.3s-0.02,0.25-0.07,0.37s-0.14,0.28-0.27,0.47L110.09,199.98z M109.62,200.68l-0.93,1.42
				c0.11-0.04,0.22-0.08,0.32-0.1s0.19-0.03,0.27-0.03c0.3,0,0.6,0.11,0.92,0.33v-1.27L109.62,200.68z M108.96,200.28l0.53,0.31
				l0.84-1.27c-0.17,0.06-0.32,0.08-0.45,0.08c-0.32,0-0.62-0.12-0.92-0.36V200.28L108.96,200.28z"/>
			<path class="st2" d="M113.67,199.98l0.9,0.53v1.85c-0.22,0.02-0.41,0.08-0.59,0.18c-0.17,0.1-0.37,0.26-0.6,0.49
				c-0.19-0.13-0.36-0.22-0.5-0.27s-0.29-0.07-0.45-0.07c-0.24,0-0.46,0.08-0.65,0.25c-0.07,0.06-0.12,0.09-0.15,0.09
				s-0.06-0.02-0.08-0.05s-0.04-0.06-0.04-0.1c0-0.04,0.03-0.08,0.08-0.14c0.03-0.04,0.08-0.1,0.16-0.2l0.35-0.5l0.5-0.75
				l-0.84-0.52v-1.64c0.27-0.09,0.47-0.2,0.62-0.31c0.15-0.12,0.3-0.27,0.44-0.48c0.33,0.16,0.59,0.27,0.79,0.33
				c0.14,0.04,0.28,0.07,0.41,0.07c0.14,0,0.26-0.04,0.34-0.11s0.12-0.15,0.12-0.23c0-0.05-0.03-0.11-0.08-0.16
				c-0.1-0.1-0.15-0.2-0.15-0.3c0-0.09,0.02-0.16,0.07-0.22s0.09-0.08,0.15-0.08c0.07,0,0.14,0.04,0.2,0.11
				c0.06,0.08,0.09,0.17,0.09,0.3s-0.02,0.25-0.07,0.37s-0.14,0.28-0.27,0.47L113.67,199.98z M113.2,200.68l-0.93,1.42
				c0.11-0.04,0.22-0.08,0.32-0.1s0.19-0.03,0.27-0.03c0.3,0,0.6,0.11,0.92,0.33v-1.27L113.2,200.68z M112.54,200.28l0.53,0.31
				l0.84-1.27c-0.17,0.06-0.32,0.08-0.45,0.08c-0.32,0-0.62-0.12-0.92-0.36V200.28L112.54,200.28z"/>
			<path class="st2" d="M115.97,198.35l0.69,0.65l-0.3,0.34v2.39c0,0.25,0.02,0.42,0.06,0.49s0.08,0.11,0.12,0.11
				c0.03,0,0.05-0.01,0.08-0.02c0.03-0.02,0.1-0.08,0.2-0.18l0.09,0.14l-0.83,0.76c-0.21-0.17-0.34-0.32-0.4-0.47
				s-0.09-0.41-0.09-0.78v-2.45l-0.29-0.34L115.97,198.35z M116.26,196.84h0.49l-0.53,0.95h-0.16L116.26,196.84z"/>
			<path class="st2" d="M120.26,198.99v3.29c-0.39,0.18-0.67,0.33-0.84,0.44c-0.13,0.08-0.26,0.19-0.38,0.32
				c-0.37-0.26-0.68-0.44-0.93-0.54c-0.19-0.08-0.4-0.12-0.63-0.13l-0.04-0.09c0.1-0.09,0.16-0.18,0.19-0.25
				c0.04-0.1,0.05-0.27,0.05-0.51v-2.41c0.47-0.18,0.88-0.43,1.21-0.76C119.26,198.62,119.72,198.83,120.26,198.99z M118.47,201.85
				l1.01,0.47v-2.79c-0.32-0.17-0.54-0.28-0.67-0.33c-0.09-0.04-0.2-0.07-0.34-0.1C118.47,199.1,118.47,201.85,118.47,201.85z"/>
			<path class="st2" d="M123.42,198.35l0.53,0.66l0.38-0.41l0.11,0.12c-0.18,0.19-0.29,0.33-0.33,0.43
				c-0.05,0.13-0.08,0.31-0.08,0.53v2.1c0,0.19,0.03,0.34,0.08,0.43c0.03,0.06,0.07,0.09,0.11,0.09s0.12-0.06,0.26-0.17l0.09,0.14
				l-0.83,0.77c-0.21-0.18-0.35-0.35-0.41-0.49s-0.09-0.37-0.09-0.68v-2.4l-0.34-0.41l-0.66,0.6v2.44l0.29,0.31l-0.68,0.63
				l-0.69-0.63l0.29-0.31v-2.24c0-0.32-0.03-0.53-0.09-0.65c-0.04-0.08-0.08-0.11-0.13-0.11s-0.13,0.06-0.23,0.17l-0.09-0.14
				l0.82-0.77c0.23,0.19,0.37,0.34,0.43,0.46s0.09,0.27,0.09,0.47v0.16L123.42,198.35z"/>
			<path class="st2" d="M99.1,207.17l0.09,0.16c-0.3,0.05-0.52,0.15-0.66,0.29c-0.15,0.15-0.22,0.36-0.22,0.64
				c0,0.16,0.01,0.38,0.04,0.67c0.05,0.5,0.08,0.92,0.08,1.23c0,0.43-0.08,0.81-0.25,1.13s-0.56,0.79-1.18,1.39
				c0.41-0.15,0.77-0.23,1.1-0.23c0.3,0,0.56,0.05,0.8,0.14s0.5,0.25,0.79,0.48l0.39-0.4l0.11,0.15l-1,0.98
				c-0.27-0.23-0.54-0.4-0.82-0.51c-0.27-0.11-0.59-0.16-0.95-0.16c-0.34,0-0.65,0.05-0.95,0.14c-0.3,0.09-0.68,0.27-1.15,0.53
				l-0.08-0.12c0.47-0.39,0.78-0.71,0.93-0.94c0.15-0.24,0.23-0.46,0.23-0.67c0-0.2-0.06-0.37-0.17-0.5s-0.24-0.2-0.38-0.2
				c-0.07,0-0.15,0.02-0.25,0.07l-0.12-0.13c0.1-0.1,0.18-0.16,0.26-0.2s0.17-0.06,0.28-0.06c0.06,0,0.12,0.01,0.19,0.03
				c0.06,0.02,0.13,0.05,0.19,0.09c0.01-0.07,0.01-0.12,0.01-0.16c0-0.19-0.06-0.35-0.18-0.49s-0.28-0.21-0.46-0.21
				c-0.13,0-0.26,0.06-0.4,0.18l-0.14-0.11c0.09-0.14,0.19-0.24,0.29-0.3c0.16-0.1,0.33-0.14,0.51-0.14c0.04,0,0.08,0,0.13,0.01
				c0.05,0.01,0.1,0.02,0.15,0.04c-0.01-0.18-0.02-0.33-0.02-0.45c0-0.35,0.05-0.66,0.14-0.91s0.26-0.51,0.48-0.78
				c-0.25,0.1-0.46,0.15-0.63,0.15s-0.38-0.05-0.64-0.14c-0.12-0.04-0.21-0.06-0.28-0.06c-0.13,0-0.25,0.05-0.34,0.14
				c-0.09,0.1-0.14,0.21-0.14,0.35c0,0.05,0.01,0.11,0.03,0.18l-0.17,0.07c-0.03-0.14-0.04-0.25-0.04-0.34
				c0-0.28,0.1-0.53,0.29-0.74s0.42-0.31,0.69-0.31c0.12,0,0.31,0.05,0.57,0.16s0.46,0.16,0.6,0.16c0.26,0,0.51-0.11,0.75-0.32
				l0.11,0.16c-0.26,0.22-0.44,0.44-0.54,0.65s-0.16,0.47-0.16,0.78c0,0.23,0.01,0.49,0.04,0.78c0.05,0.56,0.08,0.93,0.08,1.13
				c0,0.42-0.06,0.81-0.18,1.15s-0.34,0.74-0.65,1.19c0.48-0.39,0.83-0.79,1.03-1.2c0.21-0.41,0.31-0.87,0.31-1.38
				c0-0.29-0.02-0.61-0.05-0.96c-0.04-0.35-0.05-0.64-0.05-0.88c0-0.21,0.04-0.42,0.13-0.62s0.2-0.37,0.35-0.48s0.3-0.2,0.48-0.25
				C98.64,207.2,98.84,207.18,99.1,207.17z"/>
			<path class="st2" d="M101.29,209.15l0.69,0.65l-0.3,0.34v2.39c0,0.25,0.02,0.42,0.06,0.49s0.08,0.11,0.12,0.11
				c0.03,0,0.05-0.01,0.08-0.02c0.03-0.02,0.1-0.08,0.2-0.18l0.09,0.14l-0.83,0.76c-0.21-0.17-0.34-0.32-0.4-0.47
				s-0.09-0.41-0.09-0.78v-2.45l-0.29-0.34L101.29,209.15z M101.59,207.64h0.49l-0.53,0.95h-0.16L101.59,207.64z"/>
			<path class="st2" d="M104.48,209.15l1.2,0.64l0.72-0.41v0.99l-0.7-0.15v2c0,0.32,0.02,0.54,0.05,0.65
				c0.04,0.15,0.14,0.32,0.27,0.52c0.22,0.33,0.34,0.56,0.34,0.7s-0.06,0.28-0.18,0.4s-0.43,0.33-0.94,0.6
				c-0.17-0.07-0.34-0.12-0.49-0.16s-0.31-0.05-0.45-0.05c-0.34,0-0.73,0.07-1.18,0.21l-0.05-0.15l0.91-1.21l-0.91-0.75v-3.18
				C103.59,209.66,104.06,209.45,104.48,209.15z M103.76,214.28c0.33-0.06,0.61-0.09,0.81-0.09c0.19,0,0.37,0.03,0.56,0.08
				c0.19,0.06,0.38,0.14,0.57,0.25l0.16-0.11c-0.35-0.37-0.58-0.67-0.71-0.9c-0.12-0.23-0.2-0.48-0.24-0.75L103.76,214.28z
				 M104.92,210.2l-1.05-0.41v2.88l0.57,0.47l0.48-0.66V210.2L104.92,210.2z"/>
			<path class="st2" d="M108.35,207.53l0.04,0.11c-0.18,0.13-0.31,0.28-0.38,0.43s-0.1,0.39-0.1,0.73v1.43l1.2-1.08
				c0.25,0.19,0.42,0.37,0.5,0.54s0.12,0.47,0.12,0.89v1.99c0,0.38-0.03,0.66-0.1,0.84c-0.11,0.29-0.32,0.56-0.61,0.81
				c-0.39,0.33-0.89,0.62-1.5,0.87l-0.05-0.17c0.49-0.23,0.83-0.44,1.03-0.63c0.19-0.19,0.32-0.39,0.38-0.61
				c0.04-0.16,0.07-0.58,0.07-1.26v-1.84c0-0.21-0.02-0.35-0.05-0.43c-0.05-0.11-0.15-0.22-0.3-0.32l-0.66,0.61v2.45l0.27,0.31
				l-0.68,0.63l-0.69-0.63l0.3-0.34v-4c0-0.36-0.03-0.61-0.08-0.75c-0.06-0.13-0.17-0.26-0.33-0.36l0.04-0.11
				c0.14,0.04,0.25,0.09,0.33,0.15c0.08,0.05,0.19,0.15,0.32,0.28c0.16-0.17,0.31-0.29,0.45-0.37S108.16,207.56,108.35,207.53z"/>
			<path class="st2" d="M110.25,209.62l1.08-1.51h0.11l-0.04,1.21h0.78v0.49h-0.78v2.96l0.43,0.36l0.25-0.22l0.1,0.13l-0.85,0.77
				c-0.29-0.34-0.62-0.57-0.98-0.69v-0.09c0.1-0.08,0.17-0.16,0.21-0.25c0.04-0.11,0.07-0.27,0.07-0.47v-2.52h-0.36v-0.17
				L110.25,209.62L110.25,209.62z"/>
			<path class="st2" d="M114.59,210.78l0.9,0.53v1.85c-0.22,0.02-0.41,0.08-0.59,0.18c-0.17,0.1-0.37,0.26-0.6,0.49
				c-0.19-0.13-0.36-0.22-0.5-0.27s-0.29-0.07-0.45-0.07c-0.24,0-0.46,0.08-0.65,0.25c-0.07,0.06-0.12,0.09-0.15,0.09
				s-0.06-0.02-0.08-0.05s-0.04-0.06-0.04-0.1c0-0.04,0.03-0.08,0.08-0.14c0.03-0.04,0.08-0.1,0.16-0.2l0.35-0.5l0.5-0.75
				l-0.84-0.52v-1.64c0.27-0.09,0.47-0.2,0.62-0.31c0.15-0.12,0.3-0.27,0.44-0.48c0.33,0.16,0.59,0.27,0.79,0.33
				c0.14,0.04,0.28,0.07,0.41,0.07c0.14,0,0.26-0.04,0.34-0.11s0.12-0.15,0.12-0.23c0-0.05-0.03-0.11-0.08-0.16
				c-0.1-0.1-0.15-0.2-0.15-0.3c0-0.09,0.02-0.16,0.07-0.22s0.09-0.08,0.15-0.08c0.07,0,0.14,0.04,0.2,0.11
				c0.06,0.08,0.09,0.17,0.09,0.3s-0.02,0.25-0.07,0.37s-0.14,0.28-0.27,0.47L114.59,210.78z M114.12,211.48l-0.93,1.42
				c0.11-0.04,0.22-0.08,0.32-0.1s0.19-0.03,0.27-0.03c0.3,0,0.6,0.11,0.92,0.33v-1.27L114.12,211.48z M113.46,211.08l0.53,0.31
				l0.84-1.27c-0.17,0.06-0.32,0.08-0.45,0.08c-0.32,0-0.62-0.12-0.92-0.36V211.08L113.46,211.08z"/>
			<path class="st2" d="M88.72,218.06l1.74,0.66l0.13-0.26c0.05-0.09,0.08-0.15,0.1-0.17s0.04-0.03,0.07-0.03s0.05,0.01,0.06,0.03
				c0.02,0.02,0.03,0.04,0.03,0.07c0,0.04-0.03,0.12-0.1,0.25l-0.84,1.63l0.67-0.05c0.2-0.01,0.43,0.02,0.7,0.1s0.5,0.19,0.69,0.34
				s0.34,0.34,0.45,0.54c0.11,0.21,0.17,0.44,0.17,0.69c0,0.46-0.17,0.92-0.51,1.36c-0.34,0.45-0.95,0.92-1.82,1.41
				c-0.31-0.13-0.66-0.27-1.07-0.41c-0.72,0.38-1.32,0.57-1.79,0.57c-0.33,0-0.59-0.08-0.77-0.25s-0.27-0.36-0.27-0.57
				c0-0.23,0.11-0.44,0.32-0.64c0.22-0.19,0.54-0.29,0.96-0.29c0.17,0,0.37,0.02,0.62,0.07l0.31-0.63L88,222.54
				c-0.13,0-0.31-0.02-0.54-0.06s-0.41-0.12-0.56-0.22s-0.25-0.23-0.33-0.38s-0.11-0.31-0.11-0.47c0-0.26,0.08-0.49,0.24-0.69
				c0.1-0.13,0.27-0.24,0.51-0.35v-0.05c0-0.27,0.11-0.58,0.32-0.94C87.77,219.01,88.16,218.58,88.72,218.06z M88.92,224.12
				c-0.64-0.24-1.17-0.37-1.58-0.36c-0.21,0-0.38,0.05-0.5,0.16c-0.08,0.07-0.13,0.16-0.13,0.26c0,0.11,0.04,0.19,0.13,0.26
				c0.13,0.11,0.33,0.16,0.58,0.16C87.81,224.59,88.31,224.43,88.92,224.12z M89.31,221.05c-0.34,0.05-0.66,0.08-0.97,0.08
				c-0.35,0-0.6-0.05-0.75-0.14s-0.26-0.24-0.33-0.44c-0.19,0.13-0.28,0.3-0.28,0.5c0,0.18,0.07,0.33,0.22,0.45
				c0.19,0.15,0.52,0.23,0.98,0.23c0.22,0,0.49-0.02,0.83-0.07L89.31,221.05z M90.11,219.43c-0.4-0.23-0.72-0.38-0.94-0.46
				s-0.43-0.12-0.6-0.12c-0.24,0-0.44,0.08-0.59,0.23c-0.15,0.16-0.23,0.34-0.23,0.54c0,0.21,0.07,0.37,0.2,0.51s0.33,0.2,0.59,0.2
				c0.17,0,0.56-0.03,1.17-0.09L90.11,219.43z M88.45,223.15c0.24,0.06,0.44,0.12,0.59,0.17s0.43,0.15,0.82,0.31
				c0.62-0.32,0.93-0.64,0.93-0.94c0-0.09-0.04-0.18-0.11-0.26s-0.17-0.11-0.28-0.11c-0.14,0-0.31,0.01-0.51,0.04
				c-0.56,0.07-0.93,0.1-1.11,0.1L88.45,223.15z M89.21,221.64c0.61-0.07,1.04-0.1,1.28-0.1c0.33,0,0.58,0.08,0.75,0.25
				s0.26,0.37,0.26,0.6c0,0.21-0.08,0.41-0.25,0.6s-0.53,0.44-1.09,0.72l0.79,0.24c0.34-0.24,0.6-0.49,0.78-0.77S92,222.6,92,222.27
				c0-0.22-0.06-0.43-0.17-0.64c-0.12-0.21-0.29-0.38-0.53-0.5s-0.51-0.19-0.82-0.19c-0.25,0-0.57,0.03-0.96,0.08L89.21,221.64z"/>
			<path class="st2" d="M94.72,218.33l0.04,0.11c-0.18,0.13-0.31,0.28-0.38,0.43s-0.1,0.39-0.1,0.73v1.43l1.2-1.08
				c0.25,0.19,0.42,0.37,0.5,0.54s0.12,0.47,0.12,0.89v1.99c0,0.38-0.03,0.66-0.1,0.84c-0.11,0.29-0.32,0.56-0.61,0.81
				c-0.39,0.33-0.89,0.62-1.5,0.87l-0.05-0.17c0.49-0.23,0.83-0.44,1.03-0.63c0.19-0.19,0.32-0.39,0.38-0.61
				c0.04-0.16,0.07-0.58,0.07-1.26v-1.84c0-0.21-0.02-0.35-0.05-0.43c-0.05-0.11-0.15-0.22-0.3-0.32l-0.66,0.61v2.45l0.27,0.31
				l-0.68,0.63L93.21,224l0.3-0.34v-4c0-0.36-0.03-0.61-0.08-0.75c-0.06-0.13-0.17-0.26-0.33-0.36l0.04-0.11
				c0.14,0.04,0.25,0.09,0.33,0.15c0.08,0.05,0.19,0.15,0.32,0.28c0.16-0.17,0.31-0.29,0.45-0.37S94.53,218.36,94.72,218.33z"/>
			<path class="st2" d="M97.46,219.95l0.69,0.65l-0.3,0.34v2.39c0,0.25,0.02,0.42,0.06,0.49s0.08,0.11,0.12,0.11
				c0.03,0,0.05-0.01,0.08-0.02c0.03-0.02,0.1-0.08,0.2-0.18l0.09,0.14l-0.83,0.76c-0.21-0.17-0.34-0.32-0.4-0.47
				s-0.09-0.41-0.09-0.78v-2.45l-0.29-0.34L97.46,219.95z M97.76,218.44h0.49l-0.53,0.95h-0.16L97.76,218.44z"/>
			<path class="st2" d="M101.37,219.95l0.53,0.66l0.38-0.41l0.11,0.12c-0.18,0.19-0.29,0.33-0.33,0.43
				c-0.05,0.13-0.08,0.31-0.08,0.53v2.1c0,0.19,0.03,0.34,0.08,0.43c0.03,0.06,0.07,0.09,0.11,0.09s0.12-0.06,0.26-0.17l0.09,0.14
				l-0.83,0.77c-0.21-0.18-0.35-0.35-0.41-0.49s-0.09-0.37-0.09-0.68v-2.4l-0.34-0.41l-0.66,0.6v2.44l0.29,0.31l-0.68,0.63
				l-0.69-0.63l0.29-0.31v-2.24c0-0.32-0.03-0.53-0.09-0.65c-0.04-0.08-0.08-0.11-0.13-0.11c-0.05,0-0.13,0.06-0.23,0.17l-0.09-0.14
				l0.82-0.77c0.23,0.19,0.37,0.34,0.43,0.46s0.09,0.27,0.09,0.47v0.16L101.37,219.95z"/>
			<path class="st2" d="M104.66,219.95l1.09,1.45l-1.73,1.38v0.8l0.9,0.4l0.61-0.47l0.08,0.13l-1.25,0.99
				c-0.25-0.16-0.47-0.27-0.63-0.33s-0.4-0.14-0.7-0.21v-0.11c0.09-0.06,0.15-0.13,0.18-0.22s0.04-0.27,0.04-0.56v-2.51
				c0.24-0.1,0.44-0.19,0.6-0.27C103.96,220.35,104.23,220.19,104.66,219.95z M104.07,220.45l-0.05,0.03v2l1.02-0.81L104.07,220.45z
				"/>
			<path class="st2" d="M108.12,221.58l0.9,0.53v1.85c-0.22,0.02-0.41,0.08-0.59,0.18c-0.17,0.1-0.37,0.26-0.6,0.49
				c-0.19-0.13-0.36-0.22-0.5-0.27s-0.29-0.07-0.45-0.07c-0.24,0-0.46,0.08-0.65,0.25c-0.07,0.06-0.12,0.09-0.15,0.09
				s-0.06-0.02-0.08-0.05s-0.04-0.06-0.04-0.1c0-0.04,0.03-0.08,0.08-0.14c0.03-0.04,0.08-0.1,0.16-0.2l0.35-0.5l0.5-0.75
				l-0.84-0.52v-1.64c0.27-0.09,0.47-0.2,0.62-0.31c0.15-0.12,0.3-0.27,0.44-0.48c0.33,0.16,0.59,0.27,0.79,0.33
				c0.14,0.04,0.28,0.07,0.41,0.07c0.14,0,0.26-0.04,0.34-0.11s0.12-0.15,0.12-0.23c0-0.05-0.03-0.11-0.08-0.16
				c-0.1-0.1-0.15-0.2-0.15-0.3c0-0.09,0.02-0.16,0.07-0.22s0.09-0.08,0.15-0.08c0.07,0,0.14,0.04,0.2,0.11
				c0.06,0.08,0.09,0.17,0.09,0.3s-0.02,0.25-0.07,0.37s-0.14,0.28-0.27,0.47L108.12,221.58z M107.66,222.28l-0.93,1.42
				c0.11-0.04,0.22-0.08,0.32-0.1s0.19-0.03,0.27-0.03c0.3,0,0.6,0.11,0.92,0.33v-1.27L107.66,222.28z M106.99,221.88l0.53,0.31
				l0.84-1.27c-0.17,0.06-0.32,0.08-0.45,0.08c-0.32,0-0.62-0.12-0.92-0.36V221.88L106.99,221.88z"/>
			<path class="st2" d="M114.88,218.06c0.45,0.05,0.8,0.13,1.05,0.22c0.38,0.14,0.71,0.33,1,0.59c0.29,0.25,0.51,0.55,0.67,0.9
				s0.24,0.72,0.24,1.12c0,0.38-0.08,0.74-0.25,1.11s-0.46,0.77-0.88,1.23s-0.83,0.8-1.25,1.04c-0.42,0.24-0.83,0.36-1.23,0.36
				c-0.43,0-0.85-0.12-1.25-0.36s-0.71-0.58-0.93-1c-0.22-0.43-0.33-0.9-0.33-1.41c0-0.3,0.03-0.58,0.08-0.85s0.15-0.59,0.28-0.95
				c0.25-0.14,0.55-0.34,0.9-0.59c0.18-0.14,0.65-0.47,1.39-1C114.52,218.34,114.69,218.21,114.88,218.06z M113.27,219.48
				c-0.22,0.18-0.38,0.34-0.47,0.47c-0.13,0.17-0.23,0.37-0.32,0.61s-0.13,0.5-0.13,0.79c0,0.62,0.21,1.2,0.63,1.74
				c0.12-0.13,0.2-0.25,0.23-0.38s0.05-0.37,0.05-0.73L113.27,219.48L113.27,219.48z M114.58,218.93c-0.18-0.01-0.35-0.02-0.52-0.03
				v2.6c0,0.28-0.02,0.48-0.05,0.59c-0.03,0.11-0.09,0.23-0.18,0.35l-0.71,0.78c0.24,0.23,0.47,0.4,0.68,0.5s0.48,0.16,0.78,0.18
				V218.93z M114.75,220.11c0.19,0.18,0.36,0.31,0.53,0.39s0.35,0.12,0.54,0.12c0.18,0,0.35-0.04,0.5-0.12s0.31-0.21,0.48-0.39
				c-0.15-0.22-0.28-0.38-0.41-0.48c-0.23-0.19-0.48-0.34-0.75-0.45s-0.57-0.18-0.9-0.23v1.16L114.75,220.11L114.75,220.11z
				 M114.75,221.94c0.18-0.21,0.35-0.35,0.51-0.43s0.34-0.12,0.55-0.12c0.22,0,0.42,0.04,0.59,0.13c0.17,0.09,0.36,0.24,0.56,0.46
				c0.07-0.29,0.1-0.54,0.1-0.76c0-0.2-0.01-0.37-0.04-0.51c-0.02-0.11-0.06-0.24-0.13-0.4c-0.22,0.21-0.42,0.35-0.58,0.42
				c-0.17,0.08-0.35,0.11-0.55,0.11c-0.18,0-0.35-0.03-0.5-0.1s-0.33-0.19-0.52-0.37v1.57L114.75,221.94L114.75,221.94z
				 M114.75,223.91c0.32-0.02,0.59-0.08,0.79-0.18c0.31-0.15,0.58-0.35,0.8-0.62s0.41-0.58,0.56-0.95
				c-0.36-0.38-0.72-0.57-1.09-0.57c-0.22,0-0.42,0.07-0.62,0.2c-0.14,0.09-0.29,0.25-0.45,0.47L114.75,223.91L114.75,223.91z"/>
			<path class="st2" d="M120.81,219.95l0.53,0.66l0.38-0.41l0.11,0.12c-0.18,0.19-0.29,0.33-0.33,0.43
				c-0.05,0.13-0.08,0.31-0.08,0.53v2.1c0,0.19,0.03,0.34,0.08,0.43c0.03,0.06,0.07,0.09,0.11,0.09s0.12-0.06,0.26-0.17l0.09,0.14
				l-0.83,0.77c-0.21-0.18-0.35-0.35-0.41-0.49s-0.09-0.37-0.09-0.68v-2.4l-0.34-0.41l-0.66,0.6v2.44l0.29,0.31l-0.68,0.63
				l-0.69-0.63l0.29-0.31v-2.24c0-0.32-0.03-0.53-0.09-0.65c-0.04-0.08-0.08-0.11-0.13-0.11s-0.13,0.06-0.23,0.17l-0.09-0.14
				l0.82-0.77c0.23,0.19,0.37,0.34,0.43,0.46s0.09,0.27,0.09,0.47v0.16L120.81,219.95z"/>
		</g>
		<path class="st3" d="M120.11,53.74c-0.85-0.16-0.69,0.72-1.53,0.56c0.03-0.99-0.23-1.93-0.58-2.86c-0.95-2.58-1.95-1.05-2.47-0.21
			c0.03-1.36-1.27-3.4-2.57-3.84l-1.68,2.73c-0.18-1.58-1.1-3.1-2.06-4.19c-0.11-0.13-0.33-0.08-0.37,0.09
			c-0.34,1.39-1.89,0.88-3.38,3.67c-2.42-2.51-3.84-2.12-4.17-3.83c-1.06,0.56-0.25,1.71-1.76,3.97l-1.67-2.5
			c-1.57,1.04-2.76,2.65-3.27,4.47c-0.39-0.58-0.78-1.16-1.17-1.73c-1.87,0.91-1.58,4.23-0.87,6.19c-0.67-0.37-2.08-1.72-2.75-2.09
			c0.47,0.32,0.31,4.99,1.58,6.42c2.73,3.07,7.46,3.66,11.56,4.03c4.24,0.39,8.95-0.4,12.79-2.08c1.36-0.6,2.83-1.37,3.39-2.27
			C120.11,58.7,120.11,56.25,120.11,53.74z"/>
		<path class="st4" d="M93.8,57.78c0.97-2.07,1.66-2.97,3.79-3.79s5.1-0.38,7.38-0.46c2.33-0.09,5.44-0.42,7.63,0.36
			s3.41,1.74,4.13,3.96c0.31,0.95,0.63,3.76-0.98,4.67c-3.03,1.72-6.38,1.64-9.85,1.85c-2.46,0.15-4.93,0.23-7.36-0.17
			c-1.25-0.21-2.53-0.56-3.49-1.39C93.53,61.51,92.95,59.61,93.8,57.78z"/>
		<path class="st3" d="M108.63,70.33c1.34-0.97,2.71-1.96,3.7-3.3c0.98-1.34,1.28-3.66,0.79-5.24c-0.36-1.16-0.9-2.27-1.77-3.12
			c-1.26-1.22-2.67-1.62-4.09-2.67c-0.64,0.85-0.9,1.49-1.78,2.1c0,0-1.77-1.25-2.4-2.1c-1.42,1.05-2.82,1.44-4.09,2.67
			c-0.87,0.85-1.42,1.96-1.77,3.12c-0.49,1.58-0.19,3.91,0.79,5.24c0.98,1.34,2.35,2.33,3.7,3.3"/>
		<g>
			<path class="st3" d="M92.69,69.52c-2.25-0.65-4.62-1.51-5.98-3.41c-1.36-1.91-1.7-4.85-1.58-7.19c3.22,0.48,5.63,0.54,8.48,2.12
				c2.85,1.58,6.01,4.39,6.01,8.82"/>
			<path class="st3" d="M80.58,69.01c-3.61-1.32-6.08-5.26-5.68-9.09c3.18-0.34,6.47,0.49,9.1,2.3s4.6,4.57,5.43,7.66"/>
			<path class="st3" d="M67.59,69.21c-2.5-1.73-4.31-3.38-4.97-7.15c3.59-0.76,6.73-0.3,10.13,1.08c3.4,1.37,6.37,3.78,8.43,6.81"/>
			<g>
				<g>
					<circle class="st2" cx="65.66" cy="64.05" r="0.46"/>
					<g>
						<path class="st5" d="M68.81,65.22c1.46,1.38,3.21,2.45,5.11,3.12"/>
						<path class="st5" d="M71.61,65.59c2.17,0.49,4.19,1.62,5.73,3.22"/>
					</g>
				</g>
				<g>
					<circle class="st2" cx="77.97" cy="62.16" r="0.46"/>
					<path class="st5" d="M80.44,65.16c1.68,0.92,3.18,2.17,4.39,3.65"/>
					<path class="st5" d="M82.63,64.13c1.94,1.09,3.5,2.85,4.34,4.91"/>
				</g>
				<g>
					<circle class="st2" cx="87.94" cy="60.97" r="0.46"/>
					<path class="st5" d="M96.62,68.5c-1.46,0.03-2.58-0.25-3.79-1.05s-2.51-1.78-3.27-3.02"/>
					<path class="st5" d="M91.7,64.05c1.65,2.04,3.25,2.96,5.46,4.37"/>
					<path class="st5" d="M92.24,62.54c2.47,1.25,4.26,2.97,5.27,5.56"/>
				</g>
			</g>
		</g>
		<g>
			<path class="st3" d="M118.03,69.52c2.25-0.65,4.62-1.51,5.98-3.41c1.36-1.91,1.7-4.85,1.58-7.19c-3.22,0.48-5.63,0.54-8.48,2.12
				c-2.85,1.58-6.01,4.39-6.01,8.82"/>
			<path class="st3" d="M130.15,69.01c3.61-1.32,6.08-5.26,5.68-9.09c-3.18-0.34-6.47,0.49-9.1,2.3s-4.6,4.57-5.43,7.66"/>
			<path class="st3" d="M143.13,69.21c2.5-1.73,4.31-3.38,4.97-7.15c-3.59-0.76-6.73-0.3-10.13,1.08c-3.4,1.37-6.37,3.78-8.43,6.81"
				/>
			<g>
				<g>
					<circle class="st2" cx="145.07" cy="64.05" r="0.46"/>
					<g>
						<path class="st5" d="M141.92,65.22c-1.46,1.38-3.21,2.45-5.11,3.12"/>
						<path class="st5" d="M139.12,65.59c-2.17,0.49-4.19,1.62-5.73,3.22"/>
					</g>
				</g>
				<g>
					<circle class="st2" cx="132.75" cy="62.16" r="0.46"/>
					<path class="st5" d="M130.28,65.16c-1.68,0.92-3.18,2.17-4.39,3.65"/>
					<path class="st5" d="M128.1,64.13c-1.94,1.09-3.5,2.85-4.34,4.91"/>
				</g>
				<g>
					<circle class="st2" cx="122.78" cy="60.97" r="0.46"/>
					<path class="st5" d="M114.1,68.5c1.46,0.03,2.58-0.25,3.79-1.05s2.51-1.78,3.27-3.02"/>
					<path class="st5" d="M119.02,64.05c-1.65,2.04-3.25,2.96-5.46,4.37"/>
					<path class="st5" d="M118.48,62.54c-2.47,1.25-4.26,2.97-5.27,5.56"/>
				</g>
			</g>
		</g>
		<g>
			<circle class="st2" cx="102.98" cy="59.55" r="0.65"/>
			<circle class="st2" cx="107.29" cy="59.55" r="0.65"/>
			<g>
				<path class="st5" d="M100.3,63.23c-0.11,2.6,1.43,5.2,3.76,6.37"/>
				<path class="st5" d="M103.67,62.71c0.13,1.93-0.16,4.73-0.04,6.66"/>
			</g>
			<g>
				<path class="st5" d="M110.12,63.23c0.11,2.6-1.43,5.2-3.76,6.37"/>
				<path class="st5" d="M106.75,62.71c-0.13,1.93,0.16,4.73,0.04,6.66"/>
			</g>
		</g>
		<polyline class="st1" points="64.34,73.84 64.34,68.42 146.31,68.42 146.31,73.84 		"/>
		<path class="st3" d="M83.64,80.49h44.69c0-0.21,11.05-7.33,14.84-11.99c-1.94,0-33.38,0-39.57,0c-6.08,0-32.97-0.17-36.98,0
			c0.86,1.12,3.68,3.42,4.41,4.06C73.02,74.27,82.79,80.49,83.64,80.49z"/>
		<g>
			<path class="st5" d="M105.41,69.96c0.75,0,1.35,0.6,1.35,1.35s-0.6,1.35-1.35,1.35s-1.35-0.6-1.35-1.35
				C104.06,70.57,104.66,69.96,105.41,69.96z"/>
			<g>
				<g>
					<path class="st5" d="M77.79,72.63c0.86,0.04,1.47,1.05,1.26,1.89s-1.07,1.41-1.93,1.48s-1.71-0.29-2.41-0.8
						c-1.18-0.86-2.05-2.4-1.55-3.78c0.52-1.46,2.38-2.08,3.88-1.72c1.51,0.36,2.73,1.45,3.83,2.53s2.21,2.25,3.64,2.85
						c1.21,0.51,2.58,0.57,3.87,0.32c0.88-0.17,1.78-0.53,2.35-1.23c0.71-0.89,0.71-2.25,0.09-3.21s-1.77-1.51-2.91-1.52
						c-0.66-0.01-1.35,0.17-1.86,0.6s-0.8,1.14-0.62,1.78s0.88,1.12,1.52,0.95"/>
					<path class="st5" d="M79.05,74.52c1.34,2.21,4.91,4.2,7.5,4.28c2.58,0.08,5.17-1.22,6.65-3.34"/>
				</g>
				<g>
					<path class="st5" d="M132.38,72.63c-0.86,0.04-1.47,1.05-1.26,1.89s1.07,1.41,1.93,1.48c0.86,0.07,1.71-0.29,2.41-0.8
						c1.18-0.86,2.05-2.4,1.55-3.78c-0.52-1.46-2.38-2.08-3.88-1.72c-1.51,0.36-2.73,1.45-3.83,2.53c-1.1,1.09-2.21,2.25-3.64,2.85
						c-1.21,0.51-2.58,0.57-3.87,0.32c-0.88-0.17-1.78-0.53-2.35-1.23c-0.71-0.89-0.71-2.25-0.09-3.21s1.77-1.51,2.91-1.52
						c0.66-0.01,1.35,0.17,1.86,0.6s0.8,1.14,0.62,1.78s-0.88,1.12-1.52,0.95"/>
					<path class="st5" d="M131.13,74.52c-1.34,2.21-4.91,4.2-7.5,4.28c-2.58,0.08-5.59-1.8-7.06-3.92"/>
				</g>
				<g>
					<path class="st5" d="M95.84,72.82c0.6,0.3,0.87,1.09,0.65,1.72c-0.23,0.63-0.88,1.06-1.55,1.1c-0.67,0.04-1.33-0.28-1.79-0.78
						c-0.75-0.82-0.93-2.12-0.41-3.11c0.78-1.49,2.81-1.94,4.41-1.42c1.6,0.52,2.84,1.76,3.97,3.01c0.82,0.9,1.66,1.86,2.82,2.25
						c1.85,0.62,3.84-0.44,5.35-1.67c1.51-1.24,2.83-3.29,4.72-3.79c1.22-0.32,2.85,0.51,3.4,1.64c0.5,1.03-0.04,2.29-0.84,3.11
						c-0.55,0.56-1.36,1.01-2.1,0.75c-0.44-0.16-0.78-0.58-0.84-1.04s0.16-0.96,0.54-1.22"/>
					<path class="st5" d="M94.08,75.5c0.56,1.47,4.9,4.27,6.22,5.13"/>
					<path class="st1" d="M115.79,75.46c0,1.46-3.19,4.31-4.39,5.17"/>
					<path class="st5" d="M96.62,75.17c0.46-0.28,1.07-0.2,1.54,0.05s0.86,0.65,1.24,1.02c1.02,1,4.81,3.15,6,3.92"/>
					<path class="st1" d="M113.54,75.17c-0.46-0.28-1.07-0.2-1.54,0.05s-0.86,0.65-1.24,1.02c-1.02,1-4.89,3.61-6.09,4.38"/>
				</g>
			</g>
		</g>
		<g>
			<g>
				<line class="st1" x1="68.81" y1="70.42" x2="68.81" y2="76.5"/>
				<line class="st1" x1="72.91" y1="73.84" x2="72.91" y2="79.92"/>
			</g>
			<g>
				<circle class="st2" cx="63.91" cy="76.79" r="1.22"/>
				<circle class="st2" cx="68.81" cy="79.41" r="1.22"/>
				<circle class="st2" cx="72.56" cy="83.16" r="1.22"/>
			</g>
		</g>
		<g>
			<g>
				<line class="st1" x1="141.34" y1="70.42" x2="141.34" y2="76.5"/>
				<line class="st1" x1="137.24" y1="73.84" x2="137.24" y2="79.92"/>
			</g>
			<g>
				<circle class="st2" cx="146.24" cy="76.79" r="1.22"/>
				<circle class="st2" cx="141.34" cy="79.41" r="1.22"/>
				<circle class="st2" cx="137.59" cy="83.16" r="1.22"/>
			</g>
		</g>
		<g>
			<g>
				<circle class="st1" cx="43.21" cy="85.38" r="0.47"/>
				<circle class="st1" cx="43.21" cy="89.26" r="0.47"/>
				<circle class="st1" cx="43.21" cy="93.15" r="0.47"/>
				<circle class="st1" cx="43.21" cy="97.03" r="0.47"/>
			</g>
			<circle class="st5" cx="43.65" cy="104.39" r="3.72"/>
			<circle class="st2" cx="43.92" cy="103.81" r="1.43"/>
		</g>
		<g>
			<g>
				<circle class="st1" cx="56.54" cy="104.11" r="0.47"/>
				<circle class="st1" cx="56.54" cy="108" r="0.47"/>
				<circle class="st1" cx="56.54" cy="111.88" r="0.47"/>
			</g>
			<g>
				<circle class="st5" cx="56.27" cy="119.91" r="3.72"/>
				<circle class="st2" cx="56.54" cy="119.33" r="1.43"/>
			</g>
		</g>
		<g>
			<g>
				<circle class="st1" cx="166.47" cy="85.38" r="0.47"/>
				<circle class="st1" cx="166.47" cy="89.26" r="0.47"/>
				<circle class="st1" cx="166.47" cy="93.15" r="0.47"/>
				<circle class="st1" cx="166.47" cy="97.03" r="0.47"/>
			</g>
			<circle class="st5" cx="166.02" cy="104.39" r="3.72"/>
			<circle class="st2" cx="165.75" cy="103.81" r="1.43"/>
		</g>
		<g>
			<g>
				<circle class="st1" cx="153.13" cy="104.11" r="0.47"/>
				<circle class="st1" cx="153.13" cy="108" r="0.47"/>
				<circle class="st1" cx="153.13" cy="111.88" r="0.47"/>
			</g>
			<g>
				<circle class="st5" cx="153.4" cy="119.91" r="3.72"/>
				<circle class="st2" cx="153.13" cy="119.33" r="1.43"/>
			</g>
		</g>
		<g>
			<path class="st6" d="M83.5,80.77c-2.74-0.28-5.33,3.76-6.11,4.85c-4.05,5.64-8.69,11.05-14.26,15.19h83.19
				c-0.05,0.17-7.84-7.59-14.16-16.37c-1.16-1.61-2.39-3.82-4.38-3.82L83.5,80.77z"/>
			<g>
				<g>
					<circle class="st2" cx="92.37" cy="83.16" r="0.61"/>
					<circle class="st2" cx="91.15" cy="86.43" r="0.61"/>
					<circle class="st2" cx="86.52" cy="83.16" r="0.61"/>
					<circle class="st2" cx="84.56" cy="87.06" r="0.61"/>
					<circle class="st2" cx="82.97" cy="83.5" r="0.61"/>
					<circle class="st2" cx="80.76" cy="87.06" r="0.61"/>
					<circle class="st2" cx="78.53" cy="90.64" r="0.61"/>
					<circle class="st2" cx="85.3" cy="90.03" r="0.61"/>
					<circle class="st2" cx="89.92" cy="91.08" r="0.61"/>
					<circle class="st2" cx="80.33" cy="93.83" r="0.61"/>
					<circle class="st2" cx="68.52" cy="98.05" r="0.61"/>
					<circle class="st2" cx="141.92" cy="98.66" r="0.61"/>
					<circle class="st2" cx="89.45" cy="83.5" r="0.61"/>
					<circle class="st2" cx="88.22" cy="87.42" r="0.61"/>
				</g>
				<g>
					<circle class="st2" cx="117.92" cy="83.16" r="0.61"/>
					<circle class="st2" cx="119.15" cy="86.43" r="0.61"/>
					<circle class="st2" cx="123.77" cy="83.16" r="0.61"/>
					<circle class="st2" cx="125.73" cy="87.06" r="0.61"/>
					<circle class="st2" cx="127.32" cy="83.5" r="0.61"/>
					<circle class="st2" cx="129.53" cy="87.06" r="0.61"/>
					<circle class="st2" cx="131.77" cy="90.64" r="0.61"/>
					<circle class="st2" cx="124.99" cy="90.03" r="0.61"/>
					<circle class="st2" cx="120.37" cy="91.08" r="0.61"/>
					<circle class="st2" cx="129.97" cy="93.83" r="0.61"/>
					<circle class="st2" cx="120.85" cy="83.5" r="0.61"/>
					<circle class="st2" cx="122.07" cy="87.42" r="0.61"/>
				</g>
			</g>
		</g>
		<g>
			<path class="st3" d="M99.24,101.68c-2.43-0.87-4.1-2.46-5.16-4.82s-0.96-5.34,0-7.74c1.13-2.83,2.56-4.95,4.86-6.95
				c1.33-1.16,3.07-2.42,4.4-3.58c0.64,0.51,1.29,1.02,1.93,1.53c0.51-0.6,1.2-1.16,1.89-1.52c1.19,1.77,3.46,2.91,5.08,4.31
				c2.73,2.37,4.14,5.72,4.66,9.3c0.98,6.75-5.81,9.47-5.88,9.44C110.13,101.62,99.24,101.68,99.24,101.68z"/>
			<path class="st3" d="M103.78,82.38c-1.42,1.25-2.6,2.75-3.77,4.23c-0.89,1.13-1.63,2.35-2.04,3.73c-0.72,2.38-0.9,4.69,0.73,6.3
				c0.99,0.98,1.6,1.27,3.39,2.04c0.07-1.43-0.01-1.54-0.01-2.66c0-1.11,0.04-2.25,0.47-3.28c0.43-1.02,1.32-1.92,2.43-2.06
				c1.13-0.14,2.25,0.56,2.86,1.52s0.79,2.14,0.8,3.28s-0.15,2.28-0.14,3.42c2.28-0.75,4.08-2.81,4.5-5.18
				c0.37-2.1-0.62-4.78-1.73-6.6s-4.07-4.59-4.24-4.63c-0.66,0.77-1.78,1.53-1.78,1.53C104.84,83.53,104.21,82.86,103.78,82.38z"/>
			<g>
				<circle class="st2" cx="103.48" cy="87.06" r="0.61"/>
				<circle class="st2" cx="100.07" cy="90.47" r="0.61"/>
				<circle class="st2" cx="106.36" cy="87.06" r="0.61"/>
				<circle class="st2" cx="110.12" cy="90.47" r="0.61"/>
			</g>
		</g>
		<g>
			<g>
				<path class="st5" d="M63.42,90.47c-1.65-2.85-4.22-5.75-7.11-7.33c-3.77-2.07-8.43-1.71-12.58-0.59
					c2.15,0.89,3.92,2.47,5.65,4.03c2.1,1.89,4.21,3.8,5.83,6.11c1.61,2.32,1.61,2.32,2.46,7.92c0.06,0.42,3.96,0.2,9.32-0.01
					C66,94.45,64.33,92.05,63.42,90.47z"/>
				<path class="st5" d="M56.1,94.37c1.37,0.27,2.62,1.11,3.38,2.28s1.03,2.65,0.73,4.01"/>
				<path class="st5" d="M48.39,85.24c3.94-1.19,8.28,0.97,10.87,4.18c2.58,3.21,3.78,7.29,4.91,11.25"/>
			</g>
			<g>
				<path class="st3" d="M72.25,100.86c-1.51-1.21-2.24-2.38-2.65-4.38c-0.41-1.99-0.21-4.05,0-6.08c1.65,1.15,3.61,1.74,5.48,2.49
					c1.86,0.75,3.74,1.74,4.87,3.4s1.21,3.12-0.24,4.52"/>
				<path class="st5" d="M85.33,101.13c-2.35-2.59-3.2-6.46-2.14-9.79c1.62,0.54,3.26,1.08,4.74,1.93c1.48,0.85,2.82,2.04,3.56,3.58
					s0.8,3.46-0.11,4.91"/>
				<path class="st5" d="M87.41,101.1c-1.09-0.85-1.66-1.33-1.71-2.71c-0.03-0.73,0.11-2.47,0.81-2.67
					c0.64-0.18,1.27,0.29,1.76,0.74c0.39,0.36,0.85,0.69,1.07,1.17c0.59,1.26,0.26,2.95,0.11,3.46"/>
			</g>
			<path class="st3" d="M75.06,100.86c-0.82-0.39-1.48-1.11-1.79-1.97s-0.26-1.84,0.13-2.66c0.1-0.22,0.26-0.45,0.5-0.49
				c0.2-0.03,0.39,0.08,0.57,0.18c1.01,0.62,2.04,1.27,2.75,2.22c0.71,0.95,1.23,1.63,0.7,2.68"/>
		</g>
		<g>
			<g>
				<path class="st5" d="M147.39,90.47c1.65-2.85,4.22-5.75,7.11-7.33c3.77-2.07,8.43-1.71,12.58-0.59
					c-2.15,0.89-3.92,2.47-5.65,4.03c-2.1,1.89-4.21,3.8-5.83,6.11c-1.61,2.32-1.61,2.32-2.46,7.92c-0.06,0.42-3.96,0.2-9.32-0.01
					C144.81,94.45,146.48,92.05,147.39,90.47z"/>
				<path class="st5" d="M154.71,94.37c-1.37,0.27-2.62,1.11-3.38,2.28s-1.03,2.65-0.73,4.01"/>
				<path class="st5" d="M162.42,85.24c-3.94-1.19-8.28,0.97-10.87,4.18s-3.78,7.29-4.91,11.25"/>
			</g>
			<g>
				<path class="st3" d="M138.06,101.1c1.84-0.87,2.73-2.62,3.15-4.62c0.41-1.99,0.21-4.05,0-6.08c-1.65,1.15-3.61,1.74-5.48,2.49
					c-1.86,0.75-3.74,1.74-4.87,3.4s0.17,4.48,0.38,4.8"/>
				<path class="st5" d="M125.48,101.13c2.35-2.59,3.2-6.46,2.14-9.79c-1.62,0.54-3.26,1.08-4.74,1.93
					c-1.48,0.85-2.82,2.04-3.56,3.58s-0.8,3.46,0.11,4.91"/>
				<path class="st5" d="M123.4,101.1c1.09-0.85,1.66-1.33,1.71-2.71c0.03-0.73-0.11-2.47-0.81-2.67c-0.64-0.18-1.27,0.29-1.76,0.74
					c-0.39,0.36-0.85,0.69-1.07,1.17c-0.59,1.26-0.26,2.95-0.11,3.46"/>
			</g>
			<path class="st5" d="M135.74,100.86c0.82-0.39,1.48-1.11,1.79-1.97s0.26-1.84-0.13-2.66c-0.1-0.22-0.26-0.45-0.5-0.49
				c-0.2-0.03-0.39,0.08-0.57,0.18c-1.01,0.62-2.04,1.27-2.75,2.22c-0.71,0.95-1.04,2.28-0.5,3.33"/>
		</g>
		<path class="st3" d="M57.43,100.87c2.31,4.82,5.51,9.15,9.39,12.59h77.17c0.02,0.24,6.74-7.66,8.65-12.79L57.43,100.87z"/>
		<line class="st1" x1="55.35" y1="100.82" x2="154.71" y2="100.82"/>
		<g>
			<circle class="st2" cx="64.99" cy="104.02" r="0.8"/>
			<circle class="st2" cx="145.02" cy="104.02" r="0.8"/>
			<circle class="st2" cx="91.15" cy="104.58" r="0.8"/>
			<circle class="st2" cx="119.15" cy="104.58" r="0.8"/>
			<circle class="st2" cx="89.26" cy="111.28" r="0.61"/>
			<circle class="st2" cx="121.13" cy="111.28" r="0.61"/>
		</g>
		<g>
			<path class="st5" d="M72.38,104.74c2.68-3.88,7.87-3.69,10.94-2.09c1.44,0.75,2.71,2.04,3,3.64c0.3,1.67-0.62,3.49-2.15,4.24
				s-3.53,0.36-4.66-0.91c-0.6-0.66-0.96-1.57-0.83-2.45s0.82-1.69,1.7-1.82c1.18-0.17,2.21,0.83,2.74,1.89"/>
			<path class="st5" d="M71.61,109.35c-0.73-0.25-1.47-0.53-2.04-1.05c-0.57-0.51-0.95-1.32-0.76-2.06
				c0.23-0.89,1.18-1.42,2.09-1.55c1.65-0.25,3.41,0.53,4.35,1.9c0.94,1.38,1.01,3.3,0.18,4.74c-0.83,1.44-3.85,2.36-5.51,2.23"/>
			<path class="st5" d="M97.92,108.65c-0.69,0.05-1.4,0.06-2.03-0.21c-0.64-0.26-1.18-0.86-1.19-1.54
				c-0.02-1.01,1.04-1.71,2.04-1.88c1.48-0.26,3.12,0.26,4.05,1.44s0.99,3.02,0.02,4.17c-0.98,1.15-2.81,1.98-4.3,2.14
				c-1.11,0.12-2.13-0.37-3.07-0.97c-0.71-0.45-1.77-1.71-2.28-2.38c-1.19-1.57-2.37-2.19-4.31-2.52"/>
			<g>
				<path class="st5" d="M137.87,104.74c-2.68-3.88-7.87-3.69-10.94-2.09c-1.44,0.75-2.71,2.04-3,3.64
					c-0.3,1.67,0.62,3.49,2.15,4.24s3.53,0.36,4.66-0.91c0.6-0.66,0.96-1.57,0.83-2.45s-0.82-1.69-1.7-1.82
					c-1.18-0.17-2.21,0.83-2.74,1.89"/>
				<path class="st5" d="M138.64,109.35c0.73-0.25,1.47-0.53,2.04-1.05c0.57-0.51,0.95-1.32,0.76-2.06
					c-0.23-0.89-1.18-1.42-2.09-1.55c-1.65-0.25-3.41,0.53-4.35,1.9c-0.94,1.38-1.01,3.3-0.18,4.74c0.83,1.44,3.85,2.36,5.51,2.23"
					/>
				<path class="st5" d="M112.33,108.65c0.69,0.05,1.4,0.06,2.03-0.21c0.64-0.26,1.18-0.86,1.19-1.54c0.02-1.01-1.04-1.71-2.04-1.88
					c-1.48-0.26-3.12,0.26-4.05,1.44s-0.99,3.02-0.02,4.17c0.98,1.15,2.81,1.98,4.3,2.14c1.11,0.12,2.13-0.37,3.07-0.97
					c0.71-0.45,1.77-1.71,2.28-2.38c1.19-1.57,2.37-2.19,4.31-2.52"/>
			</g>
			<ellipse class="st5" cx="105.27" cy="107.34" rx="3.37" ry="6.24"/>
		</g>
		<rect x="66.82" y="113.46" class="st7" width="77.02" height="10.28"/>
		<path class="st5" d="M67.91,113.34c0.13,1.8,0.14,4.43,1.94,4.57c0.82,0.07,2.81,0.85,3.22-4.33c0,1,1.54,4.72,4.15,4.83
			c2.1,0.09,3.68-2.73,3.72-4.83c0.22,2.23,2.8,4.96,5.03,4.77s4.1-2.38,3.93-4.62c-0.07,2.21,1.87,4.28,4.08,4.36
			s5.39-1.98,5.49-4.19c0.08,1.47,0.77,3.41,2.05,4.14c1.28,0.73,2.01,0.38,3.32-0.31c0.92,1.21,2.98,1.01,4.09,0.43
			c1.34-0.71,1.77-2.53,1.62-4.04c0.47,2.17,2.58,3.87,4.8,3.85s4.6-2.09,4.73-3.93c0.26,2.25,2.38,4.12,4.65,4.1
			s4.35-1.92,4.59-4.17c0.14,2.01,2.02,3.73,4.03,3.71c2.01-0.02,3.85-1.79,3.95-3.8c-0.31,1.85,1.28,3.78,3.15,3.82
			s2.32-2.39,2.09-4.25"/>
		<g>
			<g>
				<ellipse class="st1" cx="73.07" cy="121.21" rx="1.3" ry="0.86"/>
				<ellipse class="st1" cx="82.14" cy="120.86" rx="1.3" ry="0.86"/>
				<ellipse class="st1" cx="90.66" cy="121.21" rx="1.3" ry="0.86"/>
				<ellipse class="st1" cx="99.31" cy="120.86" rx="1.3" ry="0.86"/>
			</g>
			<g>
				<ellipse class="st1" cx="137.24" cy="121.04" rx="1.3" ry="0.86"/>
				<ellipse class="st1" cx="129.1" cy="121.04" rx="1.3" ry="0.86"/>
				<ellipse class="st1" cx="119.95" cy="121.39" rx="1.3" ry="0.86"/>
				<ellipse class="st1" cx="111.06" cy="121.04" rx="1.3" ry="0.86"/>
			</g>
		</g>
		<g>
			<path class="st3" d="M60.17,132.85c-1.25,0.69-2.25,1.84-2.74,3.19c-0.35,0.96-0.51,2.1-1.34,2.7c1.34-0.13,2.68-0.27,3.97-0.65
				c1.29-0.38,2.53-1.02,3.42-2.03c0.63-0.71,1.82-2.75,0.93-3.64C63.53,131.51,61.06,132.37,60.17,132.85z"/>
			<g>
				<path class="st3" d="M65.68,129.77c-0.19-0.76-0.04-1.58,0.27-2.3s0.77-1.37,1.23-2.01c0.94,0.74,1.52,1.92,1.53,3.12
					c0.01,0.73-0.29,2.35-1.07,2.71C66.73,131.72,65.89,130.56,65.68,129.77z"/>
				<path class="st3" d="M58.8,130.62c0.59-0.18,1.14-0.48,1.73-0.67c2.23-0.74,4.88,0.25,6.16,2.29c-1.96-0.14-3.91,0.65-5.87,0.44
					c-0.59-0.06-1.16-0.22-1.71-0.46c-0.72-0.32-1.6-0.86-2.01-1.56C57.67,130.81,58.23,130.8,58.8,130.62z"/>
				<path class="st3" d="M69.99,135.26c0.42,1.24,0.43,2.65-0.12,3.84c-0.65,1.42-2.06,2.5-2.25,4.05c-1-1.18-1.98-2.4-2.63-3.81
					s-0.93-3.03-0.51-4.52c0.3-1.06,1.48-2.92,2.78-2.91C68.55,131.92,69.64,134.23,69.99,135.26z"/>
				<g>
					<path class="st3" d="M75.67,130.62c-0.59-0.18-1.14-0.48-1.73-0.67c-2.23-0.74-4.88,0.25-6.16,2.29
						c1.96-0.14,3.91,0.65,5.87,0.44c0.59-0.06,1.16-0.22,1.71-0.46c0.72-0.32,1.6-0.86,2.01-1.56
						C76.8,130.81,76.24,130.8,75.67,130.62z"/>
					<path class="st3" d="M74.29,132.85c1.25,0.69,2.25,1.84,2.74,3.19c0.35,0.96,0.51,2.1,1.34,2.7c-1.34-0.13-2.68-0.27-3.97-0.65
						c-1.29-0.38-2.53-1.02-3.42-2.03c-0.63-0.71-1.82-2.75-0.93-3.64C70.93,131.51,73.4,132.37,74.29,132.85z"/>
				</g>
			</g>
		</g>
		<g>
			<path class="st3" d="M136.37,132.85c-1.25,0.69-2.25,1.84-2.74,3.19c-0.35,0.96-0.51,2.1-1.34,2.7c1.34-0.13,2.68-0.27,3.97-0.65
				c1.29-0.38,2.53-1.02,3.42-2.03c0.63-0.71,1.82-2.75,0.93-3.64C139.73,131.51,137.26,132.37,136.37,132.85z"/>
			<g>
				<path class="st3" d="M141.88,129.77c-0.19-0.76-0.04-1.58,0.27-2.3s0.77-1.37,1.23-2.01c0.94,0.74,1.52,1.92,1.53,3.12
					c0.01,0.73-0.29,2.35-1.07,2.71C142.93,131.72,142.08,130.56,141.88,129.77z"/>
				<path class="st3" d="M134.99,130.62c0.59-0.18,1.14-0.48,1.73-0.67c2.23-0.74,4.88,0.25,6.16,2.29
					c-1.96-0.14-3.91,0.65-5.87,0.44c-0.59-0.06-1.16-0.22-1.71-0.46c-0.72-0.32-1.6-0.86-2.01-1.56
					C133.86,130.81,134.43,130.8,134.99,130.62z"/>
				<path class="st3" d="M146.19,135.26c0.42,1.24,0.43,2.65-0.12,3.84c-0.65,1.42-2.06,2.5-2.25,4.05c-1-1.18-1.98-2.4-2.63-3.81
					s-0.93-3.03-0.51-4.52c0.3-1.06,1.48-2.92,2.78-2.91C144.74,131.92,145.84,134.23,146.19,135.26z"/>
				<g>
					<path class="st3" d="M151.86,130.62c-0.59-0.18-1.14-0.48-1.73-0.67c-2.23-0.74-4.88,0.25-6.16,2.29
						c1.96-0.14,3.91,0.65,5.87,0.44c0.59-0.06,1.16-0.22,1.71-0.46c0.72-0.32,1.6-0.86,2.01-1.56
						C152.99,130.81,152.43,130.8,151.86,130.62z"/>
					<path class="st3" d="M150.49,132.85c1.25,0.69,2.25,1.84,2.74,3.19c0.35,0.96,0.51,2.1,1.34,2.7
						c-1.34-0.13-2.68-0.27-3.97-0.65c-1.29-0.38-2.53-1.02-3.42-2.03c-0.63-0.71-1.82-2.75-0.93-3.64
						C147.13,131.51,149.6,132.37,150.49,132.85z"/>
				</g>
			</g>
		</g>
		<g>
			<g>
				<line class="st1" x1="80.24" y1="123.74" x2="80.24" y2="127.79"/>
				<line class="st1" x1="85.17" y1="124.53" x2="85.17" y2="135.38"/>
				<line class="st1" x1="90.66" y1="123.74" x2="90.66" y2="127.79"/>
				<line class="st1" x1="105.27" y1="123.74" x2="105.27" y2="127.79"/>
			</g>
			<circle class="st2" cx="79.94" cy="129.38" r="0.92"/>
			<circle class="st2" cx="85.44" cy="138.45" r="0.92"/>
			<circle class="st2" cx="90.66" cy="129.38" r="0.92"/>
		</g>
		<g>
			<g>
				<line class="st1" x1="119.5" y1="123.74" x2="119.5" y2="127.79"/>
				<line class="st1" x1="124.43" y1="124.53" x2="124.43" y2="135.38"/>
				<line class="st1" x1="129.92" y1="123.74" x2="129.92" y2="127.79"/>
			</g>
			<circle class="st2" cx="119.19" cy="129.38" r="0.92"/>
			<circle class="st2" cx="124.69" cy="138.45" r="0.92"/>
			<circle class="st2" cx="129.92" cy="129.38" r="0.92"/>
		</g>
		<g>
			<g>
				<path class="st3" d="M99.33,138.16c-1.06,0.73-1.91,1.96-2.32,3.39c-0.3,1.02-0.43,2.23-1.13,2.86
					c1.13-0.14,2.28-0.29,3.37-0.69c1.09-0.4,2.15-1.09,2.9-2.16c0.54-0.76,1.54-2.92,0.79-3.87
					C102.17,136.73,100.08,137.64,99.33,138.16z"/>
				<g>
					<path class="st3" d="M104,134.88c-0.16-0.81-0.04-1.68,0.23-2.45c0.26-0.77,0.66-1.45,1.04-2.13c0.8,0.79,1.29,2.04,1.3,3.31
						c0.01,0.77-0.25,2.5-0.91,2.88C104.89,136.95,104.17,135.73,104,134.88z"/>
					<path class="st3" d="M98.16,135.79c0.5-0.19,0.97-0.51,1.47-0.72c1.89-0.78,4.14,0.26,5.22,2.43c-1.66-0.15-3.32,0.7-4.98,0.47
						c-0.5-0.07-0.99-0.23-1.45-0.49c-0.61-0.34-1.36-0.92-1.71-1.65C97.2,135.99,97.68,135.97,98.16,135.79z"/>
					<path class="st3" d="M107.65,140.71c0.36,1.32,0.37,2.81-0.1,4.08c-0.55,1.5-1.75,2.66-1.91,4.3
						c-0.85-1.25-1.68-2.55-2.23-4.04c-0.55-1.49-0.79-3.22-0.43-4.8c0.26-1.12,1.26-3.1,2.36-3.09
						C106.43,137.17,107.36,139.62,107.65,140.71z"/>
					<g>
						<path class="st3" d="M112.47,135.79c-0.5-0.19-0.97-0.51-1.47-0.72c-1.89-0.78-4.14,0.26-5.22,2.43
							c1.66-0.15,3.32,0.7,4.98,0.47c0.5-0.07,0.99-0.23,1.45-0.49c0.61-0.34,1.36-0.92,1.71-1.65
							C113.42,135.99,112.95,135.97,112.47,135.79z"/>
						<path class="st3" d="M111.3,138.16c1.06,0.73,1.91,1.96,2.32,3.39c0.3,1.02,0.43,2.23,1.13,2.86
							c-1.13-0.14-2.28-0.29-3.37-0.69c-1.09-0.4-2.15-1.09-2.9-2.16c-0.54-0.76-1.54-2.92-0.79-3.87
							C108.45,136.73,110.54,137.64,111.3,138.16z"/>
					</g>
				</g>
			</g>
			<path class="st5" d="M108.62,130.32c0.43-0.23,1.01,0.05,1.18,0.5s-0.01,0.99-0.37,1.31c-0.36,0.32-0.86,0.46-1.34,0.46
				c-0.48,0.01-0.96-0.11-1.43-0.22"/>
			<path class="st5" d="M101.91,130.32c-0.43-0.23-1.01,0.05-1.18,0.5s0.01,0.99,0.37,1.31s0.86,0.46,1.34,0.46s0.96-0.11,1.43-0.22
				"/>
		</g>
		<g>
			<path class="st8" d="M104.65,130.24c0.53-0.78,1.46-1.18,2.37-1.43c2.62-0.75,5.47-0.7,8.07,0.15c-1.63-0.79-3.29-1.58-5.08-1.88
				s-4.81,1.13-4.81,1.13c-1.39-1.16-3.36-1.43-5.14-1.13c-1.79,0.3-3.45,1.09-5.08,1.88c2.6-0.85,5.44-0.9,8.07-0.15
				c0.91,0.26,1.84,0.65,2.37,1.43"/>
		</g>
		<g>
			<path class="st9" d="M86.96,499.77c0.73-0.52,1.88,0.11,2.01,1c0.12,0.89-0.6,1.74-1.46,1.98s-1.8-0.05-2.55-0.54
				c-0.9-0.59-1.63-1.55-1.7-2.63c-0.08-1.29,0.8-2.5,1.92-3.16c1.9-1.12,4.35-0.91,6.36,0c0.82,0.37,1.6,0.86,2.17,1.56
				s0.91,2.21,0.48,3.56"/>
			<path class="st9" d="M85.72,506.68c0.18-0.4,0.75-0.51,1.13-0.29s0.57,0.67,0.59,1.11c0.06,1.2-1.12,2.26-2.31,2.21
				c-1.2-0.05-2.24-1.08-2.45-2.26c-0.21-1.18,0.34-2.43,1.26-3.2c0.92-0.77,2.16-1.09,3.36-1.04s2.36,0.46,3.43,1.01
				c0.84,0.44,1.68,1.02,2.02,1.91c0.34,0.88,0.12,1.89-0.31,2.73c-0.72,1.43-2.02,2.56-3.54,3.08c-2.73,0.94-5.73-0.12-8.31-1.42
				c-2.58-1.31-5.13-2.91-8.01-3.15c-2.34-0.19-4.75,0.6-6.51,2.15c0.14-1.57,1.59-2.68,3.01-3.35c4.06-1.9,9.63-1.49,13.55,0.68"/>
			<path class="st9" d="M91.65,504.79c0.84-3.02,4.53-4.29,7.22-4.28c1.42,0.01,2.87,0.42,3.91,1.38s1.57,2.52,1.09,3.86
				c-0.38,1.07-1.36,1.86-2.43,2.22c-1.07,0.36-2.31,0.31-3.25-0.32c-0.93-0.63-1.45-1.9-1.04-2.95c0.41-1.05,1.85-1.61,2.78-0.97"
				/>
			<path class="st9" d="M65.92,509.72c1.27-1.01,1.91-0.89,3.09-0.91c1.12-0.02,2.32,0.3,3.14,0.79c4.04,2.42,7.56,5.88,12.23,6.46
				c5.53,0.68,11.25-3.48,13.82-8.42"/>
		</g>
		<g>
			<g>
				<path class="st5" d="M127.41,486.47c-0.76-1.62,0.31-3.63,1.87-4.49c1.57-0.86,3.45-0.86,5.23-0.74
					c1.81,0.12,3.61,0.33,5.39,0.63c-0.24,1.29-1.44,2.22-2.71,2.55s-2.61,0.16-3.91-0.01c-0.47-0.06-0.96-0.12-1.42,0
					c-0.46,0.12-0.89,0.49-0.94,0.96c-0.07,0.62,0.54,1.15,1.16,1.24s1.24-0.13,1.84-0.31c2.8-0.83,5.83-0.84,8.63-0.03
					c-1.26,1.51-3.37,2.04-5.33,2.08c-1.97,0.04-3.94-0.31-5.9-0.17c-0.86,0.06-1.91,0.41-2,1.27c-0.06,0.57,0.39,1.1,0.92,1.31
					s1.12,0.2,1.7,0.17c2.56-0.11,5.12-0.27,7.68-0.43c1.96-0.12,4.24-0.42,5.24-2.11c1-1.68,0.19-3.87,0.63-5.77
					c0.41-1.75,2-3.17,3.79-3.37c0.26-0.03,0.57-0.02,0.74,0.19c0.3,0.36-0.1,0.87-0.44,1.19c-1.28,1.23-2.08,2.96-2.19,4.73
					c-0.04,0.61,0.01,1.24,0.31,1.77s0.9,0.92,1.51,0.82c0.82-0.14,1.26-1.06,1.38-1.89c0.12-0.83,0.09-1.73,0.56-2.42
					c0.7-1.04,2.71-2.18,3.96-2.17c0.33,0,1.47,0,1.12,1.18c-0.07,0.23-0.91,0.7-1.05,0.89c-0.5,0.68-1.92,1.5-2.09,2.25
					c-0.34,1.52-0.85,3.71-2.09,4.4c-0.99,0.54-1.41,1.06-1.55,2.18c-0.13,1.12,0.51,2.42,1.62,2.59c0.89,0.14,1.75-0.47,2.26-1.21
					s0.79-1.62,1.24-2.4s1.46-3.29,2.35-3.39c0.14,0.76-0.56,2.08-0.77,3.14c-0.31,1.58-0.3,2.96-0.84,3.9
					c-0.91,1.59-2.47,2.87-4.28,3.1s-3.8-0.77-4.41-2.49c-0.26-0.73-0.27-1.55-0.67-2.22c-0.61-1.01-1.94-1.33-3.12-1.33
					c-1.03,0-2.09,0.17-2.98,0.69s-1.6,1.42-1.71,2.44c-0.11,1.03,0.47,2.13,1.45,2.47s2.22-0.29,2.38-1.3
					c0.17-1.02-1-2.04-1.95-1.62c0.25-0.1,0.51-0.19,0.76-0.29"/>
				<path class="st5" d="M127.41,486.47c-3,0.32-3.66,2.49-3.11,3.96c-2.68,0.51-4.96,2.68-5.6,5.33s0.4,5.63,2.55,7.3
					c2.3,1.78,6.71,2.08,7.04,5.73"/>
				<path class="st5" d="M138.04,495.72c-1.95-1.11-4.83-1.56-7-1.01c-0.82,0.21-1.76,0.79-1.62,1.62c0.1,0.59,0.73,0.96,1.33,1.02
					s1.2-0.07,1.8-0.11c2.87-0.17,4.02,2.11,5.46,3.58c0.37,0.38-2.27-1.23-3.63-0.92s-3.47,1-4.86,0.91s-2.85-0.9-3.2-2.25
					c-0.15-0.59-0.07-1.22-0.22-1.81c-0.26-1.07-1.22-1.95-1.16-3.05c0.07-1.2,1.47-2.01,2.64-1.73c0.58,0.14,1.12,0.51,1.36,1.05
					c0.24,0.54,0.12,1.25-0.36,1.61c-0.48,0.35-1.27,0.21-1.52-0.33"/>
				<path class="st5" d="M124.79,494.39c-2.06,1.08-2.58,2.76-2.23,4.15c0.34,1.4,1.67,2.49,2.85,3.31s2.51,1.4,3.75,2.13
					s2.43,1.64,3.1,2.92c0.92,1.75,0.66,4.01-0.54,5.58s-3.25,2.41-5.21,2.25c-1.28-0.1-2.57-0.63-3.37-1.64
					c-1.26-1.6-0.83-4.26,0.87-5.37c0.96-0.63,2.28-0.76,3.26-0.17c0.99,0.59,1.5,1.94,0.99,2.97c-0.5,1.03-2.05,1.43-2.9,0.66"/>
			</g>
			<path class="st5" d="M113.08,511.5c-2.64,3.74-3.22,8.76-1.8,13.11c0.6,1.84,1.58,3.62,3.15,4.74c2.07,1.47,4.77,1.58,7.31,1.63
				c2.36,0.05,4.71,0.09,7.07,0.14c1.19,0.02,2.41,0.05,3.56-0.27c2.13-0.58,4.14-1.4,5.67-2.98c1.27-1.31,2.21-3.49,2.89-5.18
				c0.93-2.29,0.95-4.11,0.61-6.56c-0.25-1.81-0.87-4.49-2.02-5.9c-1.01-1.25-2.55-1.94-4.07-2.46c-5.58-1.93-13.07-3.12-18.42,0.09
				C115.49,508.79,114.12,510.04,113.08,511.5z"/>
			<g>
				<circle class="st5" cx="118.95" cy="511.61" r="1.31"/>
				<circle class="st5" cx="120.67" cy="516.91" r="1.31"/>
				<circle class="st5" cx="126.14" cy="517.95" r="1.31"/>
				<circle class="st5" cx="131.79" cy="517.57" r="1.31"/>
				<circle class="st5" cx="135.71" cy="513.52" r="1.31"/>
			</g>
		</g>
		<g>
			<g>
				<path class="st5" d="M71.32,536.4c0.97-0.55,2.36,0.16,2.58,1.26c0.22,1.09-0.66,2.24-1.76,2.43s-2.25-0.5-2.72-1.51
					s-0.31-2.26,0.3-3.19s1.61-1.58,2.68-1.88c2.26-0.64,4.86,0.24,6.27,2.11"/>
				<g>
					<path class="st10" d="M85.05,530.61c-1.19-1.7-3.03-2.89-5.02-3.47c-1.99-0.57-4.13-0.55-6.16-0.13
						c-1.48,0.31-2.95,0.85-4.09,1.84c-1.14,0.99-1.91,2.49-1.75,4c-2.01-0.08-4.07,0.53-5.57,1.87c-1.5,1.34-2.35,3.43-2,5.41
						c0.34,1.98,1.97,3.72,3.96,4.02c-0.13,1.54,0.84,3.12,2.28,3.69"/>
					<path class="st5" d="M73.36,531.14c1.21-0.88,2.9-0.89,4.28-0.29c1.37,0.6,2.46,1.71,3.32,2.93"/>
					<path class="st10" d="M75.98,550.72c-0.87-0.89-2.61-0.43-3.04,0.74c-0.43,1.16,0.4,2.57,1.6,2.9s2.54-0.33,3.17-1.4
						s0.59-2.45,0.08-3.59c-0.51-1.13-1.46-2.03-2.52-2.67c-1.66-1-3.71-1.42-5.58-0.89c-1.86,0.53-3.46,2.08-3.8,3.99
						c-1.41-1.13-3.64-1.03-4.99,0.17c-1.36,1.2-1.74,3.34-0.96,4.97c0.78,1.63,2.63,2.66,4.44,2.55c-0.96,1.29-0.73,3.25,0.35,4.45
						c1.08,1.2,2.83,1.66,4.42,1.41s3.03-1.15,4.17-2.29c0.62,1.19,1.74,2.07,2.98,2.59s2.6,0.69,3.94,0.71
						c1.66,0.03,3.37-0.17,4.84-0.94c1.6-0.85,2.82-2.37,3.29-4.11c0.48-1.74,0.2-3.68-0.75-5.21c-1.18-1.91-3.49-3.17-5.71-2.78
						c-2.21,0.39-4.04,2.61-3.71,4.83c0.2,1.32,1.12,2.51,2.36,3.03c1.23,0.52,2.73,0.34,3.81-0.44c0.73-0.53,1.28-1.35,1.37-2.26
						c0.09-0.9-0.33-1.86-1.12-2.32c-0.79-0.45-1.9-0.29-2.45,0.43s-0.34,1.93,0.47,2.34"/>
					<path class="st5" d="M70.26,548.03c-1.42,1.17-2.12,3.17-1.74,4.97c0.38,1.81,1.83,3.34,3.61,3.84"/>
					<path class="st5" d="M75.98,557.53c0.3,1.28,1.14,2.42,2.28,3.08s2.54,0.83,3.8,0.46"/>
					<g>
						<path class="st5" d="M92.87,555.25c-0.52,0.59-0.36,1.61,0.28,2.07c0.63,0.47,1.58,0.37,2.17-0.15s0.81-1.38,0.64-2.15
							s-0.69-1.43-1.34-1.87c-1.03-0.69-2.4-0.84-3.55-0.39s-2.06,1.5-2.33,2.71"/>
						<path class="st5" d="M88.27,561.86c1.62,1.32,3.77,1.97,5.85,1.78c1.12-0.1,2.21-0.44,3.19-0.98
							c0.69-0.38,1.77-1.67,2.43-1.63c0.46,0.03,1.18,0.57,1.61,0.76c0.55,0.23,1.11,0.45,1.67,0.64c1.08,0.38,2.19,0.68,3.31,0.92
							c4.58,0.98,9.38,0.87,13.95-0.08c2.09-0.43,4.33-1.37,6.7-1.64c2.51-0.28,3.77,0.06,5.4,0.19c-1.33-1.68-4.27-3.15-6.38-3.52"
							/>
						<path class="st5" d="M89.14,558.33c0.97,0.99,2.29,1.65,3.68,1.81s2.82-0.15,4-0.88c0.65,0.41,2.27,1.36,2.92,1.77"/>
					</g>
				</g>
			</g>
			<path class="st5" d="M96.94,547.05c-0.94,2.35-0.34,5.8,1.14,7.85s3.76,3.42,6.17,4.19c2.41,0.78,4.95,1.01,7.48,1.15
				c4.86,0.27,9.9,0.2,14.38-1.71"/>
			<path class="st5" d="M131.78,552.2c2.95-0.03,6.56-0.04,9.4,0.76s6.44,2.45,7.71,5.11c-1.29-0.2-3.46-0.3-4.75-0.5
				c-2.85-0.44-5.71-0.88-8.6-0.89c-2.88-0.01-5.81,0.42-8.42,1.65"/>
			<g>
				<path class="st5" d="M103.05,549.77c-0.54-0.12-1.09,0.44-1.04,0.99c0.05,0.56,0.59,0.99,1.15,1.02s1.1-0.28,1.45-0.71
					c0.98-1.23,0.3-3.32-1.17-3.87s-3.26,0.42-3.77,1.91s0.22,3.24,1.53,4.1s3.09,0.87,4.5,0.19c1.42-0.68,3.21-1.85,3.8-3.3"/>
				<path class="st5" d="M104.5,553.9c3.02,1.89,7.65,2.71,10.96,1.39"/>
				<path class="st5" d="M111.3,543.74c-1.83,2.34-1.76,6.52,0.17,8.79c1.92,2.27,5.03,3.29,8,3.26c2.97-0.04,5.86-1.02,8.59-2.19
					s5.39-2.55,8.22-3.46c6.29-2.02,13.33-1.56,19.31,1.25c-0.52-2.44-2.61-3.7-5.02-4.34s-5.52-0.47-8-0.2
					c-5.13,0.56-8.93,1.4-15.01,1.28"/>
				<path class="st5" d="M126.47,544.92c1.29,0.55,3.42,0.24,4.81,0.06c2.78-0.36,5.31-0.8,8.11-0.68c1.6,0.07,5.39,1.41,6.71,2.32"
					/>
				<path class="st5" d="M121.31,547.18c-0.59-0.02-1.05,0.63-0.95,1.21c0.11,0.58,0.66,1,1.25,1.07c1.06,0.14,2.08-0.81,2.19-1.87
					c0.11-1.07-0.56-2.12-1.5-2.64s-2.08-0.56-3.12-0.32c-0.89,0.21-1.77,0.66-2.23,1.44c-0.3,0.5-0.4,1.11-0.36,1.69
					c0.1,1.42,1.02,2.72,2.25,3.44c1.23,0.72,2.72,0.92,4.14,0.75c0.91-0.11,1.82-0.37,2.59-0.88s1.39-1.27,1.6-2.17
					c0.24-0.97-0.01-2-0.43-2.9c-0.91-1.96-2.67-3.51-4.73-4.17"/>
			</g>
		</g>
		<g>
			<g>
				<path class="st5" d="M79.13,535.53c-0.33,0.1-1.78,1.34-1.73,1.68s0.27,0.63,0.48,0.89c4.14,5.23,10.49,8.56,17.1,9.39
					c0.46,0.06,1.04,0.22,1.38-0.1c0.6-0.56,1.11-1.39,1.37-1.97"/>
				<path class="st1" d="M77.94,536.72c-0.53,0.48-1.78,1.34-1.73,1.68s0.27,0.63,0.48,0.89c4.14,5.23,10.49,8.56,17.1,9.39
					c0.46,0.06,1.04,0.22,1.38-0.1c0.6-0.56,0.94-0.61,1.19-1.19"/>
				<g>
					<path class="st5" d="M76.21,537.88c-0.51,0.57-1.54,1.5-2.01,2.11c-0.16,0.21-0.32,0.43-0.37,0.69s0.05,0.56,0.29,0.67
						c0.3,0.13,0.62-0.09,0.87-0.3c0.5-0.42,1-0.84,1.5-1.26"/>
					<path class="st5" d="M78.33,541.14c-0.22,0.41-0.8,1.2-1.14,1.52s-0.81,0.54-1.27,0.44c-0.38-0.08-0.7-0.37-0.84-0.73
						s-0.07-0.79,0.14-1.11"/>
					<path class="st5" d="M79.91,542.62c-0.2,0.33-0.85,1.29-1.13,1.55c-0.44,0.4-1.08,0.49-0.49,1.21c0.34,0.42,1.03,0.4,1.49,0.09
						c0.45-0.3,0.93-1.29,1.18-1.77"/>
					<path class="st5" d="M76.84,543.42c0.08,0.52,0.59,0.94,1.12,0.93"/>
					<path class="st5" d="M79.61,546.02c-0.03,0.39,0.17,0.78,0.5,0.99c0.33,0.21,0.77,0.22,1.11,0.03c0.67-0.38,1.19-1.78,1.9-2.09
						"/>
					<path class="st5" d="M81.74,547.65c0.1,0.55,0.69,0.95,1.24,0.83c0.41-0.09,0.72-0.4,1.01-0.7c0.4-0.41,0.79-0.83,1.19-1.24"/>
					<path class="st5" d="M83.62,548.73c-0.01,0.41,0.38,0.74,0.79,0.79c0.4,0.05,0.8-0.12,1.15-0.33c0.79-0.48,1.44-1.19,1.84-2.02
						"/>
					<path class="st5" d="M86.12,549.65c0.01,0.33,0.18,0.66,0.45,0.85c0.27,0.2,0.63,0.26,0.95,0.17c0.53-0.15,0.87-0.66,1.16-1.13
						c0.25-0.4,1.06-1.22,1.31-1.63"/>
					<path class="st5" d="M88.75,550.69c-0.08,0.24,0.09,0.52,0.33,0.61c0.24,0.09,0.52,0.03,0.73-0.1s0.39-0.33,0.56-0.52
						c0.5-0.57,1.4-1.66,2-2.33"/>
					<path class="st5" d="M91.2,550.83c-0.06,0.39-0.1,0.85,0.18,1.12c0.27,0.25,0.71,0.21,1.02,0.01s0.52-0.5,0.75-0.79
						c0.48-0.62,0.94-1.32,1.7-2.12"/>
				</g>
			</g>
			<g>
				<g>
					<path class="st1" d="M112.09,504.35c0.66,0.65,0.8,1.67,0.66,2.58c-0.23,1.49-1.13,2.85-2.41,3.64
						c-0.52,0.32-3.27,1.27-3.88,0.86c0,0,1.36-1.41,1.78-1.81C109.83,508.1,111.15,506.33,112.09,504.35z"/>
					<path class="st5" d="M112.76,506.92c1.53,1.26,0.14,4.92-1.09,6.65c-1.22,1.73-3.08,3-5.13,3.52c-0.44,2.04-1.9,3.74-3.63,4.9
						c-1.73,1.16-3.72,1.86-5.69,2.55"/>
					<path class="st11" d="M106.13,511.77c-4.88,2.14-9.91,4.39-13.51,8.33c-2.34,2.56-3.94,5.7-5.87,8.59s-4.36,5.65-7.62,6.84
						c2.28,4.71,7.05,7.86,12.11,9.19s9.57,0.51,14.74-0.23c10.35-1.48,21.61-2.65,31.33-8.58c1.15-0.7,2.21-0.18,3.47-0.66
						c3.84-1.48,11.04-3.59,11.04-5.46c-0.76-1.56-5.92-1.17-8.86-0.42c-2.93,0.74-5.79,1.92-8.8,2.17
						c-2.45,0.2-4.91-0.21-7.36-0.36c-7.67-0.48-15.49,1.72-21.79,6.12"/>
					<path class="st5" d="M140.24,525.3c4.37-2.03,9.47-3.63,13.8-2.81c0.46,0.09,0.99,0.27,1.11,0.72c0.13,0.48-0.3,0.91-0.69,1.21
						c-1.91,1.46-6.48,3.48-8.78,4.17"/>
					<path class="st5" d="M141.51,513.41c2.34-0.86,4.83-1.32,7.32-1.35c0.51-0.01,1.1,0.05,1.38,0.47
						c0.36,0.54-0.05,1.26-0.51,1.73c-0.96,0.97-2.28,1.5-3.47,2.17c2.27-0.86,4.73-1.2,7.15-1.01c0.42,0.03,0.85,0.09,1.22,0.29
						c0.37,0.21,0.66,0.6,0.63,1.02c-0.04,0.5-0.49,0.86-0.9,1.14c-2.34,1.61-4.74,3.15-7.18,4.61"/>
					<path class="st1" d="M147.16,512.75c0.34-0.16,0.76,0.08,0.9,0.42c0.14,0.34,0.03,0.75-0.17,1.05
						c-0.21,0.31-0.51,0.54-0.8,0.76c-1.04,0.79-2.08,1.58-3.12,2.37c-0.7,0.53-1.45,1.08-2.33,1.15"/>
					<path class="st1" d="M151.8,515.6c0.58,0.07,1.04,0.59,1.16,1.16c0.11,0.57-0.08,1.18-0.42,1.65
						c-0.34,0.47-0.82,0.83-1.32,1.13"/>
					<path class="st1" d="M154.04,522.49c-1.2-0.04-3.43,1.1-4.37,1.84s-1.6,1.82-1.84,3"/>
					<path class="st1" d="M150.94,529.53c-2.57-0.46-5.45,1.94-6.11,4.21"/>
				</g>
				<g>
					<g>
						<path class="st5" d="M89.88,535.17c-0.49-3.31,5.58-1.87,7.29-1.89c2.57-0.03,5.09-1.08,6.99-2.78
							c0.87-0.78,1.42-2.13,2.31-2.81c0.94-0.71,2.31,0.19,3.15,0.76"/>
						<path class="st5" d="M89.85,533.59c0-1.77,3-3.08,4.29-3.46s2.64-0.51,3.92-0.9c2.48-0.76,3.77-2.6,9.32-1.81"/>
					</g>
					<g>
						<ellipse class="st2" cx="99.74" cy="530.81" rx="2.22" ry="1.88"/>
						<circle class="st12" cx="99.74" cy="530.81" r="0.6"/>
					</g>
				</g>
				<path class="st5" d="M106.19,519.87c0.87-0.51,1.89-0.73,2.89-0.63"/>
			</g>
		</g>
	</g>
</g>
<rect x="50.83" y="569.35" class="st13" width="108.95" height="20.93"/>
</svg>
