<?xml version="1.0" encoding="UTF-8"?><svg id="Layer_1" xmlns="http://www.w3.org/2000/svg" viewBox="0 0 161.41 564.54"><defs><style>.cls-1,.cls-2,.cls-3,.cls-4,.cls-5,.cls-6,.cls-7,.cls-8{fill:none;}.cls-2{stroke-width:1.5px;}.cls-2,.cls-3,.cls-4,.cls-5,.cls-6,.cls-7,.cls-8{stroke:#231f20;stroke-miterlimit:10;}.cls-3{stroke-width:.4px;}.cls-9,.cls-10,.cls-11{fill:#231f20;}.cls-12{letter-spacing:-.12em;}.cls-10{font-size:9px;}.cls-10,.cls-11{font-family:OldEnglishTextMT, 'Old English Text MT';}.cls-4{stroke-width:1.25px;}.cls-13{letter-spacing:-.03em;}.cls-5{stroke-width:1.45px;}.cls-6{stroke-width:1.15px;}.cls-8{stroke-width:1.35px;}.cls-14{font-size:12px;}.cls-15{font-size:11px;}</style></defs><g><g><g><polyline class="cls-7" points="4.53 116.46 4.53 111.95 11.2 111.95 11.2 108.01"/><polyline class="cls-7" points="11.63 115.73 7.62 115.67 7.62 108.63 4.1 108.58"/></g><g><polyline class="cls-7" points="4.53 105.16 4.53 100.92 11.2 100.92 11.2 97.21"/><polyline class="cls-7" points="11.63 104.47 7.62 104.41 7.62 97.79 4.1 97.74"/></g><g><polyline class="cls-7" points="4.53 136.99 4.53 132.48 11.2 132.48 11.2 128.54"/><polyline class="cls-7" points="11.63 136.26 7.62 136.2 7.62 129.16 4.1 129.11"/></g><g><polyline class="cls-7" points="4.53 126.33 4.53 122.09 11.2 122.09 11.2 118.38"/><polyline class="cls-7" points="11.63 125.65 7.62 125.59 7.62 118.97 4.1 118.92"/></g><g><polyline class="cls-7" points="4.53 158.34 4.53 153.83 11.2 153.83 11.2 149.89"/><polyline class="cls-7" points="11.63 157.61 7.62 157.55 7.62 150.52 4.1 150.46"/></g><g><polyline class="cls-7" points="4.53 146.9 4.53 142.66 11.2 142.66 11.2 138.95"/><polyline class="cls-7" points="11.63 146.22 7.62 146.16 7.62 139.54 4.1 139.48"/></g><g><polyline class="cls-7" points="4.53 178.79 4.53 174.28 11.2 174.28 11.2 170.34"/><polyline class="cls-7" points="11.63 178.07 7.62 178 7.62 170.97 4.1 170.91"/></g><g><polyline class="cls-7" points="4.53 168.07 4.53 163.83 11.2 163.83 11.2 160.12"/><polyline class="cls-7" points="11.63 167.38 7.62 167.32 7.62 160.7 4.1 160.65"/></g><g><polyline class="cls-7" points="4.53 200.43 4.53 195.92 11.2 195.92 11.2 191.98"/><polyline class="cls-7" points="11.63 199.7 7.62 199.64 7.62 192.61 4.1 192.55"/></g><g><polyline class="cls-7" points="4.53 189.13 4.53 184.89 11.2 184.89 11.2 181.18"/><polyline class="cls-7" points="11.63 188.44 7.62 188.38 7.62 181.76 4.1 181.71"/></g><g><polyline class="cls-7" points="4.53 220.96 4.53 216.45 11.2 216.45 11.2 212.51"/><polyline class="cls-7" points="11.63 220.23 7.62 220.17 7.62 213.13 4.1 213.08"/></g><g><polyline class="cls-7" points="4.53 210.3 4.53 206.06 11.2 206.06 11.2 202.35"/><polyline class="cls-7" points="11.63 209.62 7.62 209.56 7.62 202.94 4.1 202.89"/></g><g><polyline class="cls-7" points="4.53 242.31 4.53 237.8 11.2 237.8 11.2 233.86"/><polyline class="cls-7" points="11.63 241.58 7.62 241.52 7.62 234.49 4.1 234.43"/></g><g><polyline class="cls-7" points="4.53 230.87 4.53 226.63 11.2 226.63 11.2 222.92"/><polyline class="cls-7" points="11.63 230.19 7.62 230.13 7.62 223.51 4.1 223.45"/></g><g><polyline class="cls-7" points="4.53 262.76 4.53 258.26 11.2 258.26 11.2 254.31"/><polyline class="cls-7" points="11.63 262.04 7.62 261.97 7.62 254.94 4.1 254.88"/></g><g><polyline class="cls-7" points="4.53 252.04 4.53 247.8 11.2 247.8 11.2 244.09"/><polyline class="cls-7" points="11.63 251.36 7.62 251.3 7.62 244.68 4.1 244.62"/></g><g><polyline class="cls-7" points="4.53 32.92 4.53 28.41 11.2 28.41 11.2 24.47"/><polyline class="cls-7" points="11.63 32.19 7.62 32.13 7.62 25.09 4.1 25.04"/></g><g><polyline class="cls-7" points="4.53 21.62 4.53 17.38 11.2 17.38 11.2 13.67"/><polyline class="cls-7" points="11.63 20.93 7.62 20.87 7.62 14.25 4.1 14.2"/></g><g><polyline class="cls-7" points="4.53 53.45 4.53 48.94 11.2 48.94 11.2 45"/><polyline class="cls-7" points="11.63 52.72 7.62 52.66 7.62 45.62 4.1 45.57"/></g><g><polyline class="cls-7" points="4.53 42.79 4.53 38.55 11.2 38.55 11.2 34.84"/><polyline class="cls-7" points="11.63 42.11 7.62 42.05 7.62 35.43 4.1 35.38"/></g><g><polyline class="cls-7" points="4.53 74.8 4.53 70.29 11.2 70.29 11.2 66.35"/><polyline class="cls-7" points="11.63 74.07 7.62 74.01 7.62 66.98 4.1 66.92"/></g><g><polyline class="cls-7" points="4.53 63.36 4.53 59.12 11.2 59.12 11.2 55.41"/><polyline class="cls-7" points="11.63 62.68 7.62 62.62 7.62 56 4.1 55.94"/></g><g><polyline class="cls-7" points="4.53 95.25 4.53 90.74 11.2 90.74 11.2 86.8"/><polyline class="cls-7" points="11.63 94.53 7.62 94.46 7.62 87.43 4.1 87.37"/></g><g><polyline class="cls-7" points="4.53 84.53 4.53 80.29 11.2 80.29 11.2 76.58"/><polyline class="cls-7" points="11.63 83.84 7.62 83.78 7.62 77.16 4.1 77.11"/></g><g><polyline class="cls-7" points="4.53 368.53 4.53 364.03 11.2 364.03 11.2 360.08"/><polyline class="cls-7" points="11.63 367.81 7.62 367.74 7.62 360.71 4.1 360.65"/></g><g><polyline class="cls-7" points="4.53 357.23 4.53 352.99 11.2 352.99 11.2 349.28"/><polyline class="cls-7" points="11.63 356.55 7.62 356.49 7.62 349.87 4.1 349.81"/></g><g><polyline class="cls-7" points="4.53 389.06 4.53 384.55 11.2 384.55 11.2 380.61"/><polyline class="cls-7" points="11.63 388.34 7.62 388.27 7.62 381.24 4.1 381.18"/></g><g><polyline class="cls-7" points="4.53 378.4 4.53 374.16 11.2 374.16 11.2 370.45"/><polyline class="cls-7" points="11.63 377.72 7.62 377.66 7.62 371.04 4.1 370.99"/></g><g><polyline class="cls-7" points="4.53 410.41 4.53 405.91 11.2 405.91 11.2 401.96"/><polyline class="cls-7" points="11.63 409.69 7.62 409.62 7.62 402.59 4.1 402.53"/></g><g><polyline class="cls-7" points="4.53 398.97 4.53 394.73 11.2 394.73 11.2 391.02"/><polyline class="cls-7" points="11.63 398.29 7.62 398.23 7.62 391.61 4.1 391.56"/></g><g><polyline class="cls-7" points="4.53 430.86 4.53 426.36 11.2 426.36 11.2 422.42"/><polyline class="cls-7" points="11.63 430.14 7.62 430.08 7.62 423.04 4.1 422.98"/></g><g><polyline class="cls-7" points="4.53 420.14 4.53 415.9 11.2 415.9 11.2 412.19"/><polyline class="cls-7" points="11.63 419.46 7.62 419.4 7.62 412.78 4.1 412.73"/></g><g><polyline class="cls-7" points="4.53 452.5 4.53 448 11.2 448 11.2 444.05"/><polyline class="cls-7" points="11.63 451.78 7.62 451.71 7.62 444.68 4.1 444.62"/></g><g><polyline class="cls-7" points="4.53 441.2 4.53 436.96 11.2 436.96 11.2 433.25"/><polyline class="cls-7" points="11.63 440.52 7.62 440.46 7.62 433.84 4.1 433.79"/></g><g><polyline class="cls-7" points="4.53 473.03 4.53 468.53 11.2 468.53 11.2 464.58"/><polyline class="cls-7" points="11.63 472.31 7.62 472.24 7.62 465.21 4.1 465.15"/></g><g><polyline class="cls-7" points="4.53 462.38 4.53 458.14 11.2 458.14 11.2 454.43"/><polyline class="cls-7" points="11.63 461.69 7.62 461.63 7.62 455.01 4.1 454.96"/></g><g><polyline class="cls-7" points="4.53 494.38 4.53 489.88 11.2 489.88 11.2 485.93"/><polyline class="cls-7" points="11.63 493.66 7.62 493.59 7.62 486.56 4.1 486.5"/></g><g><polyline class="cls-7" points="4.53 482.94 4.53 478.7 11.2 478.7 11.2 474.99"/><polyline class="cls-7" points="11.63 482.26 7.62 482.2 7.62 475.58 4.1 475.53"/></g><g><polyline class="cls-7" points="4.53 514.83 4.53 510.33 11.2 510.33 11.2 506.39"/><polyline class="cls-7" points="11.63 514.11 7.62 514.05 7.62 507.01 4.1 506.96"/></g><g><polyline class="cls-7" points="4.53 504.11 4.53 499.87 11.2 499.87 11.2 496.16"/><polyline class="cls-7" points="11.63 503.43 7.62 503.37 7.62 496.75 4.1 496.7"/></g><g><polyline class="cls-7" points="4.53 284.99 4.53 280.49 11.2 280.49 11.2 276.54"/><polyline class="cls-7" points="11.63 284.27 7.62 284.2 7.62 277.17 4.1 277.11"/></g><g><polyline class="cls-7" points="4.53 273.69 4.53 269.45 11.2 269.45 11.2 265.74"/><polyline class="cls-7" points="11.63 273.01 7.62 272.95 7.62 266.33 4.1 266.27"/></g><g><polyline class="cls-7" points="4.53 305.52 4.53 301.01 11.2 301.01 11.2 297.07"/><polyline class="cls-7" points="11.63 304.8 7.62 304.73 7.62 297.7 4.1 297.64"/></g><g><polyline class="cls-7" points="4.53 294.86 4.53 290.62 11.2 290.62 11.2 286.92"/><polyline class="cls-7" points="11.63 294.18 7.62 294.12 7.62 287.5 4.1 287.45"/></g><g><polyline class="cls-7" points="4.53 326.87 4.53 322.37 11.2 322.37 11.2 318.42"/><polyline class="cls-7" points="11.63 326.15 7.62 326.08 7.62 319.05 4.1 318.99"/></g><g><polyline class="cls-7" points="4.53 315.43 4.53 311.19 11.2 311.19 11.2 307.48"/><polyline class="cls-7" points="11.63 314.75 7.62 314.69 7.62 308.07 4.1 308.02"/></g><g><polyline class="cls-7" points="4.53 347.32 4.53 342.82 11.2 342.82 11.2 338.88"/><polyline class="cls-7" points="11.63 346.6 7.62 346.54 7.62 339.5 4.1 339.44"/></g><g><polyline class="cls-7" points="4.53 336.6 4.53 332.36 11.2 332.36 11.2 328.65"/><polyline class="cls-7" points="11.63 335.92 7.62 335.86 7.62 329.24 4.1 329.19"/></g><polyline class="cls-7" points="4.53 526.44 4.53 521.93 11.2 521.93 11.2 517.99"/><polyline class="cls-7" points="11.63 525.71 7.62 525.65 7.62 518.61 4.1 518.56"/><polyline class="cls-7" points="4.53 546.89 4.53 542.38 11.2 542.38 11.2 538.44"/><polyline class="cls-7" points="11.63 546.17 7.62 546.1 7.62 539.07 4.1 539.01"/><polyline class="cls-7" points="4.53 536.17 4.53 531.93 11.2 531.93 11.2 528.22"/><polyline class="cls-7" points="11.63 535.48 7.62 535.42 7.62 528.8 4.1 528.75"/><g><g><g><polyline class="cls-7" points="4.04 3.79 7.76 3.79 7.76 11.23 11.01 11.23"/><polyline class="cls-7" points="4.64 11.71 4.69 7.23 10.5 7.23 10.54 3.31"/></g><g><polyline class="cls-7" points="13.53 3.79 17.25 3.79 17.25 11.23 20.5 11.23"/><polyline class="cls-7" points="14.12 11.71 14.18 7.23 19.99 7.23 20.03 3.31"/></g><g><polyline class="cls-7" points="22.01 3.79 25.74 3.79 25.74 11.23 28.99 11.23"/><polyline class="cls-7" points="22.61 11.71 22.67 7.23 28.48 7.23 28.52 3.31"/></g><g><polyline class="cls-7" points="31.5 3.79 35.22 3.79 35.22 11.23 38.48 11.23"/><polyline class="cls-7" points="32.1 11.71 32.15 7.23 37.96 7.23 38.01 3.31"/></g><g><polyline class="cls-7" points="40.99 3.79 44.71 3.79 44.71 11.23 47.97 11.23"/><polyline class="cls-7" points="41.59 11.71 41.64 7.23 47.45 7.23 47.5 3.31"/></g><g><polyline class="cls-7" points="49.48 3.79 53.2 3.79 53.2 11.23 56.46 11.23"/><polyline class="cls-7" points="50.08 11.71 50.13 7.23 55.94 7.23 55.99 3.31"/></g><g><polyline class="cls-7" points="58.73 3.79 62.45 3.79 62.45 11.23 65.71 11.23"/><polyline class="cls-7" points="59.33 11.71 59.38 7.23 65.19 7.23 65.24 3.31"/></g><g><polyline class="cls-7" points="67.99 3.79 71.71 3.79 71.71 11.23 74.96 11.23"/><polyline class="cls-7" points="68.58 11.71 68.64 7.23 74.45 7.23 74.49 3.31"/></g><g><polyline class="cls-7" points="77.47 3.79 81.2 3.79 81.2 11.23 84.45 11.23"/><polyline class="cls-7" points="78.07 11.71 78.13 7.23 83.94 7.23 83.98 3.31"/></g><g><polyline class="cls-7" points="86.43 3.79 90.15 3.79 90.15 11.23 93.41 11.23"/><polyline class="cls-7" points="87.03 11.71 87.08 7.23 92.89 7.23 92.94 3.31"/></g><g><polyline class="cls-7" points="95.52 3.79 99.24 3.79 99.24 11.23 102.5 11.23"/><polyline class="cls-7" points="96.12 11.71 96.17 7.23 101.98 7.23 102.03 3.31"/></g><g><polyline class="cls-7" points="104.41 3.79 108.13 3.79 108.13 11.23 111.39 11.23"/><polyline class="cls-7" points="105.01 11.71 105.06 7.23 110.87 7.23 110.92 3.31"/></g><g><polyline class="cls-7" points="114.3 3.79 118.02 3.79 118.02 11.23 121.28 11.23"/><polyline class="cls-7" points="114.9 11.71 114.95 7.23 120.76 7.23 120.81 3.31"/></g><g><polyline class="cls-7" points="123.19 3.79 126.91 3.79 126.91 11.23 130.17 11.23"/><polyline class="cls-7" points="123.79 11.71 123.84 7.23 129.65 7.23 129.7 3.31"/></g><g><polyline class="cls-7" points="132.08 3.79 135.8 3.79 135.8 11.23 139.06 11.23"/><polyline class="cls-7" points="132.68 11.71 132.73 7.23 138.54 7.23 138.59 3.31"/></g><g><polyline class="cls-7" points="140.97 3.79 144.69 3.79 144.69 11.23 147.95 11.23"/><polyline class="cls-7" points="141.57 11.71 141.62 7.23 147.43 7.23 147.48 3.31"/></g><g><polyline class="cls-7" points="150.86 3.79 154.58 3.79 154.58 11.23 157.84 11.23"/><polyline class="cls-7" points="151.46 11.71 151.51 7.23 157.32 7.23 157.37 3.31"/></g></g><g><g><polyline class="cls-7" points="3.94 548.7 7.66 548.7 7.66 556.14 10.91 556.14"/><polyline class="cls-7" points="4.53 556.62 4.59 552.14 10.4 552.14 10.44 548.22"/></g><g><polyline class="cls-7" points="13.43 548.7 17.15 548.7 17.15 556.14 20.4 556.14"/><polyline class="cls-7" points="14.02 556.62 14.08 552.14 19.89 552.14 19.93 548.22"/></g><g><polyline class="cls-7" points="140.87 548.7 144.59 548.7 144.59 556.14 147.85 556.14"/><polyline class="cls-7" points="141.47 556.62 141.52 552.14 147.33 552.14 147.38 548.22"/></g><g><polyline class="cls-7" points="150.76 548.7 154.48 548.7 154.48 556.14 157.74 556.14"/><polyline class="cls-7" points="151.36 556.62 151.41 552.14 157.22 552.14 157.27 548.22"/></g></g><g><polyline class="cls-7" points="150.7 116.46 150.7 111.95 157.38 111.95 157.38 108.01"/><polyline class="cls-7" points="157.81 115.73 153.79 115.67 153.79 108.63 150.27 108.58"/></g><g><polyline class="cls-7" points="150.7 105.16 150.7 100.92 157.38 100.92 157.38 97.21"/><polyline class="cls-7" points="157.81 104.47 153.79 104.41 153.79 97.79 150.27 97.74"/></g><g><polyline class="cls-7" points="150.7 136.99 150.7 132.48 157.38 132.48 157.38 128.54"/><polyline class="cls-7" points="157.81 136.26 153.79 136.2 153.79 129.16 150.27 129.11"/></g><g><polyline class="cls-7" points="150.7 126.33 150.7 122.09 157.38 122.09 157.38 118.38"/><polyline class="cls-7" points="157.81 125.65 153.79 125.59 153.79 118.97 150.27 118.92"/></g><g><polyline class="cls-7" points="150.7 158.34 150.7 153.83 157.38 153.83 157.38 149.89"/><polyline class="cls-7" points="157.81 157.61 153.79 157.55 153.79 150.52 150.27 150.46"/></g><g><polyline class="cls-7" points="150.7 146.9 150.7 142.66 157.38 142.66 157.38 138.95"/><polyline class="cls-7" points="157.81 146.22 153.79 146.16 153.79 139.54 150.27 139.48"/></g><g><polyline class="cls-7" points="150.7 178.79 150.7 174.28 157.38 174.28 157.38 170.34"/><polyline class="cls-7" points="157.81 178.07 153.79 178 153.79 170.97 150.27 170.91"/></g><g><polyline class="cls-7" points="150.7 168.07 150.7 163.83 157.38 163.83 157.38 160.12"/><polyline class="cls-7" points="157.81 167.38 153.79 167.32 153.79 160.7 150.27 160.65"/></g><g><polyline class="cls-7" points="150.7 200.43 150.7 195.92 157.38 195.92 157.38 191.98"/><polyline class="cls-7" points="157.81 199.7 153.79 199.64 153.79 192.61 150.27 192.55"/></g><g><polyline class="cls-7" points="150.7 189.13 150.7 184.89 157.38 184.89 157.38 181.18"/><polyline class="cls-7" points="157.81 188.44 153.79 188.38 153.79 181.76 150.27 181.71"/></g><g><polyline class="cls-7" points="150.7 220.96 150.7 216.45 157.38 216.45 157.38 212.51"/><polyline class="cls-7" points="157.81 220.23 153.79 220.17 153.79 213.13 150.27 213.08"/></g><g><polyline class="cls-7" points="150.7 210.3 150.7 206.06 157.38 206.06 157.38 202.35"/><polyline class="cls-7" points="157.81 209.62 153.79 209.56 153.79 202.94 150.27 202.89"/></g><g><polyline class="cls-7" points="150.7 242.31 150.7 237.8 157.38 237.8 157.38 233.86"/><polyline class="cls-7" points="157.81 241.58 153.79 241.52 153.79 234.49 150.27 234.43"/></g><g><polyline class="cls-7" points="150.7 230.87 150.7 226.63 157.38 226.63 157.38 222.92"/><polyline class="cls-7" points="157.81 230.19 153.79 230.13 153.79 223.51 150.27 223.45"/></g><g><polyline class="cls-7" points="150.7 262.76 150.7 258.26 157.38 258.26 157.38 254.31"/><polyline class="cls-7" points="157.81 262.04 153.79 261.97 153.79 254.94 150.27 254.88"/></g><g><polyline class="cls-7" points="150.7 252.04 150.7 247.8 157.38 247.8 157.38 244.09"/><polyline class="cls-7" points="157.81 251.36 153.79 251.3 153.79 244.68 150.27 244.62"/></g><g><polyline class="cls-7" points="150.7 32.92 150.7 28.41 157.38 28.41 157.38 24.47"/><polyline class="cls-7" points="157.81 32.19 153.79 32.13 153.79 25.09 150.27 25.04"/></g><g><polyline class="cls-7" points="150.7 21.62 150.7 17.38 157.38 17.38 157.38 13.67"/><polyline class="cls-7" points="157.81 20.93 153.79 20.87 153.79 14.25 150.27 14.2"/></g><g><polyline class="cls-7" points="150.7 53.45 150.7 48.94 157.38 48.94 157.38 45"/><polyline class="cls-7" points="157.81 52.72 153.79 52.66 153.79 45.62 150.27 45.57"/></g><g><polyline class="cls-7" points="150.7 42.79 150.7 38.55 157.38 38.55 157.38 34.84"/><polyline class="cls-7" points="157.81 42.11 153.79 42.05 153.79 35.43 150.27 35.38"/></g><g><polyline class="cls-7" points="150.7 74.8 150.7 70.29 157.38 70.29 157.38 66.35"/><polyline class="cls-7" points="157.81 74.07 153.79 74.01 153.79 66.98 150.27 66.92"/></g><g><polyline class="cls-7" points="150.7 63.36 150.7 59.12 157.38 59.12 157.38 55.41"/><polyline class="cls-7" points="157.81 62.68 153.79 62.62 153.79 56 150.27 55.94"/></g><g><polyline class="cls-7" points="150.7 95.25 150.7 90.74 157.38 90.74 157.38 86.8"/><polyline class="cls-7" points="157.81 94.53 153.79 94.46 153.79 87.43 150.27 87.37"/></g><g><polyline class="cls-7" points="150.7 84.53 150.7 80.29 157.38 80.29 157.38 76.58"/><polyline class="cls-7" points="157.81 83.84 153.79 83.78 153.79 77.16 150.27 77.11"/></g><g><polyline class="cls-7" points="150.7 368.53 150.7 364.03 157.38 364.03 157.38 360.08"/><polyline class="cls-7" points="157.81 367.81 153.79 367.74 153.79 360.71 150.27 360.65"/></g><g><polyline class="cls-7" points="150.7 357.23 150.7 352.99 157.38 352.99 157.38 349.28"/><polyline class="cls-7" points="157.81 356.55 153.79 356.49 153.79 349.87 150.27 349.81"/></g><g><polyline class="cls-7" points="150.7 389.06 150.7 384.55 157.38 384.55 157.38 380.61"/><polyline class="cls-7" points="157.81 388.34 153.79 388.27 153.79 381.24 150.27 381.18"/></g><g><polyline class="cls-7" points="150.7 378.4 150.7 374.16 157.38 374.16 157.38 370.45"/><polyline class="cls-7" points="157.81 377.72 153.79 377.66 153.79 371.04 150.27 370.99"/></g><g><polyline class="cls-7" points="150.7 410.41 150.7 405.91 157.38 405.91 157.38 401.96"/><polyline class="cls-7" points="157.81 409.69 153.79 409.62 153.79 402.59 150.27 402.53"/></g><g><polyline class="cls-7" points="150.7 398.97 150.7 394.73 157.38 394.73 157.38 391.02"/><polyline class="cls-7" points="157.81 398.29 153.79 398.23 153.79 391.61 150.27 391.56"/></g><g><polyline class="cls-7" points="150.7 430.86 150.7 426.36 157.38 426.36 157.38 422.42"/><polyline class="cls-7" points="157.81 430.14 153.79 430.08 153.79 423.04 150.27 422.98"/></g><g><polyline class="cls-7" points="150.7 420.14 150.7 415.9 157.38 415.9 157.38 412.19"/><polyline class="cls-7" points="157.81 419.46 153.79 419.4 153.79 412.78 150.27 412.73"/></g><g><polyline class="cls-7" points="150.7 452.5 150.7 448 157.38 448 157.38 444.05"/><polyline class="cls-7" points="157.81 451.78 153.79 451.71 153.79 444.68 150.27 444.62"/></g><g><polyline class="cls-7" points="150.7 441.2 150.7 436.96 157.38 436.96 157.38 433.25"/><polyline class="cls-7" points="157.81 440.52 153.79 440.46 153.79 433.84 150.27 433.79"/></g><g><polyline class="cls-7" points="150.7 473.03 150.7 468.53 157.38 468.53 157.38 464.58"/><polyline class="cls-7" points="157.81 472.31 153.79 472.24 153.79 465.21 150.27 465.15"/></g><g><polyline class="cls-7" points="150.7 462.38 150.7 458.14 157.38 458.14 157.38 454.43"/><polyline class="cls-7" points="157.81 461.69 153.79 461.63 153.79 455.01 150.27 454.96"/></g><g><polyline class="cls-7" points="150.7 494.38 150.7 489.88 157.38 489.88 157.38 485.93"/><polyline class="cls-7" points="157.81 493.66 153.79 493.59 153.79 486.56 150.27 486.5"/></g><g><polyline class="cls-7" points="150.7 482.94 150.7 478.7 157.38 478.7 157.38 474.99"/><polyline class="cls-7" points="157.81 482.26 153.79 482.2 153.79 475.58 150.27 475.53"/></g><g><polyline class="cls-7" points="150.7 514.83 150.7 510.33 157.38 510.33 157.38 506.39"/><polyline class="cls-7" points="157.81 514.11 153.79 514.05 153.79 507.01 150.27 506.96"/></g><g><polyline class="cls-7" points="150.7 504.11 150.7 499.87 157.38 499.87 157.38 496.16"/><polyline class="cls-7" points="157.81 503.43 153.79 503.37 153.79 496.75 150.27 496.7"/></g><g><polyline class="cls-7" points="150.7 284.99 150.7 280.49 157.38 280.49 157.38 276.54"/><polyline class="cls-7" points="157.81 284.27 153.79 284.2 153.79 277.17 150.27 277.11"/></g><g><polyline class="cls-7" points="150.7 273.69 150.7 269.45 157.38 269.45 157.38 265.74"/><polyline class="cls-7" points="157.81 273.01 153.79 272.95 153.79 266.33 150.27 266.27"/></g><g><polyline class="cls-7" points="150.7 305.52 150.7 301.01 157.38 301.01 157.38 297.07"/><polyline class="cls-7" points="157.81 304.8 153.79 304.73 153.79 297.7 150.27 297.64"/></g><g><polyline class="cls-7" points="150.7 294.86 150.7 290.62 157.38 290.62 157.38 286.92"/><polyline class="cls-7" points="157.81 294.18 153.79 294.12 153.79 287.5 150.27 287.45"/></g><g><polyline class="cls-7" points="150.7 326.87 150.7 322.37 157.38 322.37 157.38 318.42"/><polyline class="cls-7" points="157.81 326.15 153.79 326.08 153.79 319.05 150.27 318.99"/></g><g><polyline class="cls-7" points="150.7 315.43 150.7 311.19 157.38 311.19 157.38 307.48"/><polyline class="cls-7" points="157.81 314.75 153.79 314.69 153.79 308.07 150.27 308.02"/></g><g><polyline class="cls-7" points="150.7 347.32 150.7 342.82 157.38 342.82 157.38 338.88"/><polyline class="cls-7" points="157.81 346.6 153.79 346.54 153.79 339.5 150.27 339.44"/></g><g><polyline class="cls-7" points="150.7 336.6 150.7 332.36 157.38 332.36 157.38 328.65"/><polyline class="cls-7" points="157.81 335.92 153.79 335.86 153.79 329.24 150.27 329.19"/></g><polyline class="cls-7" points="150.7 526.44 150.7 521.93 157.38 521.93 157.38 517.99"/><polyline class="cls-7" points="157.81 525.71 153.79 525.65 153.79 518.61 150.27 518.56"/><polyline class="cls-7" points="150.7 546.89 150.7 542.38 157.38 542.38 157.38 538.44"/><polyline class="cls-7" points="157.81 546.17 153.79 546.1 153.79 539.07 150.27 539.01"/><polyline class="cls-7" points="150.7 536.17 150.7 531.93 157.38 531.93 157.38 528.22"/><polyline class="cls-7" points="157.81 535.48 153.79 535.42 153.79 528.8 150.27 528.75"/></g></g><rect class="cls-7" x="49.63" y="129.47" width="62.38" height="318.81" rx="3.42" ry="3.42"/><text class="cls-11" transform="translate(70.48 147.24)"><tspan class="cls-15"><tspan x="0" y="0">The </tspan></tspan><tspan class="cls-14"><tspan x="-16.17" y="14.4">Guan</tspan><tspan class="cls-13" x="10.95" y="14.4">Y</tspan><tspan x="20.13" y="14.4">in</tspan><tspan class="cls-12" x="29.62" y="14.4">’</tspan><tspan x="31.55" y="14.4">s</tspan></tspan></text><text class="cls-10" transform="translate(61.05 176.5) scale(.88 1)"><tspan x="0" y="0">Compassion</tspan><tspan x="10.1" y="10.8">Lights</tspan><tspan x=".67" y="21.6">Shines On </tspan></text><g><path class="cls-2" d="M62.37,469.23c.73-.52,1.88,.11,2.01,1s-.6,1.74-1.46,1.98-1.8-.05-2.55-.54c-.9-.59-1.63-1.55-1.7-2.63-.08-1.29,.8-2.5,1.92-3.16,1.9-1.12,4.35-.91,6.36,0,.82,.37,1.6,.86,2.17,1.56s.91,2.21,.48,3.56"/><path class="cls-2" d="M61.13,476.15c.18-.4,.75-.51,1.13-.29s.57,.67,.59,1.11c.06,1.2-1.12,2.26-2.31,2.21s-2.24-1.08-2.45-2.26,.34-2.43,1.26-3.2c.92-.77,2.16-1.09,3.36-1.04,1.2,.05,2.36,.46,3.43,1.01,.84,.44,1.68,1.02,2.02,1.91,.34,.88,.12,1.89-.31,2.73-.72,1.43-2.02,2.56-3.54,3.08-2.73,.94-5.73-.12-8.31-1.42s-5.13-2.91-8.01-3.15c-2.34-.19-4.75,.6-6.51,2.15,.14-1.57,1.59-2.68,3.01-3.35,4.06-1.9,9.63-1.49,13.55,.68"/><path class="cls-2" d="M67.06,474.26c.84-3.02,4.53-4.29,7.22-4.28,1.42,0,2.87,.42,3.91,1.38s1.57,2.52,1.09,3.86c-.38,1.07-1.36,1.86-2.43,2.22-1.07,.36-2.31,.31-3.25-.32s-1.45-1.9-1.04-2.95,1.85-1.61,2.78-.97"/><path class="cls-2" d="M41.33,479.19c1.27-1.01,1.91-.89,3.09-.91,1.12-.02,2.32,.3,3.14,.79,4.04,2.42,7.56,5.88,12.23,6.46,5.53,.68,11.25-3.48,13.82-8.42"/></g><g><g><path class="cls-4" d="M102.82,455.94c-.76-1.62,.31-3.63,1.87-4.49s3.45-.86,5.23-.74c1.81,.12,3.61,.33,5.39,.63-.24,1.29-1.44,2.22-2.71,2.55-1.27,.33-2.61,.16-3.91,0-.47-.06-.96-.12-1.42,0s-.89,.49-.94,.96c-.07,.62,.54,1.15,1.16,1.24s1.24-.13,1.84-.31c2.8-.83,5.83-.84,8.63-.03-1.26,1.51-3.37,2.04-5.33,2.09-1.97,.04-3.94-.31-5.9-.17-.86,.06-1.91,.41-2,1.27-.06,.57,.39,1.1,.92,1.31s1.12,.2,1.7,.17c2.56-.11,5.12-.27,7.68-.43,1.96-.12,4.24-.42,5.24-2.11,1-1.68,.19-3.87,.63-5.77,.41-1.75,2-3.17,3.79-3.37,.26-.03,.57-.02,.74,.19,.3,.36-.1,.87-.44,1.19-1.28,1.23-2.08,2.96-2.19,4.73-.04,.61,.01,1.24,.31,1.77s.9,.92,1.51,.82c.82-.14,1.26-1.06,1.38-1.89s.09-1.73,.56-2.42c.7-1.04,2.71-2.18,3.96-2.17,.33,0,1.47,0,1.12,1.18-.07,.23-.91,.7-1.05,.89-.5,.68-1.92,1.5-2.09,2.25-.34,1.52-.85,3.71-2.09,4.4-.99,.54-1.41,1.06-1.55,2.18s.51,2.42,1.62,2.59c.89,.14,1.75-.47,2.26-1.21s.79-1.62,1.24-2.4,1.46-3.29,2.35-3.39c.14,.76-.56,2.08-.77,3.14-.31,1.58-.3,2.96-.84,3.9-.91,1.59-2.47,2.87-4.28,3.1-1.81,.23-3.8-.77-4.41-2.49-.26-.73-.27-1.55-.67-2.22-.61-1.01-1.94-1.33-3.12-1.33-1.03,0-2.09,.17-2.98,.69s-1.6,1.42-1.71,2.44,.47,2.13,1.45,2.47,2.22-.29,2.38-1.3-1-2.04-1.95-1.62l.76-.29"/><path class="cls-4" d="M102.82,455.94c-3,.32-3.66,2.49-3.11,3.96-2.68,.51-4.96,2.68-5.6,5.33s.4,5.63,2.55,7.3c2.3,1.78,6.71,2.08,7.04,5.73"/><path class="cls-4" d="M113.45,465.19c-1.95-1.11-4.83-1.56-7-1.01-.82,.21-1.76,.79-1.62,1.62,.1,.59,.73,.96,1.33,1.02s1.2-.07,1.8-.11c2.87-.17,4.02,2.11,5.46,3.58,.37,.38-2.27-1.23-3.63-.92s-3.47,1-4.86,.91-2.85-.9-3.2-2.25c-.15-.59-.07-1.22-.22-1.81-.26-1.07-1.22-1.95-1.16-3.05,.07-1.2,1.47-2.01,2.64-1.73,.58,.14,1.12,.51,1.36,1.05s.12,1.25-.36,1.61-1.27,.21-1.52-.33"/><path class="cls-4" d="M100.2,463.86c-2.06,1.08-2.58,2.76-2.23,4.15s1.67,2.49,2.85,3.31c1.18,.82,2.51,1.4,3.75,2.13,1.24,.73,2.43,1.64,3.1,2.92,.92,1.75,.66,4.01-.54,5.58s-3.25,2.41-5.21,2.25c-1.28-.1-2.57-.63-3.37-1.64-1.26-1.6-.83-4.26,.87-5.37,.96-.63,2.28-.76,3.26-.17s1.5,1.94,.99,2.97-2.05,1.43-2.9,.66"/></g><path class="cls-4" d="M88.49,480.97c-2.64,3.74-3.22,8.76-1.8,13.11,.6,1.84,1.58,3.62,3.15,4.74,2.07,1.47,4.77,1.58,7.31,1.63l7.07,.14c1.19,.02,2.41,.05,3.56-.27,2.13-.58,4.14-1.4,5.67-2.98,1.27-1.31,2.21-3.49,2.89-5.18,.93-2.29,.95-4.11,.61-6.56-.25-1.81-.87-4.49-2.02-5.91-1.01-1.25-2.55-1.94-4.07-2.46-5.58-1.93-13.07-3.12-18.42,.09-1.55,.93-2.92,2.17-3.96,3.65Z"/><g><circle class="cls-4" cx="94.36" cy="481.07" r="1.31"/><circle class="cls-4" cx="96.08" cy="486.37" r="1.31"/><circle class="cls-4" cx="101.55" cy="487.42" r="1.31"/><circle class="cls-4" cx="107.2" cy="487.03" r="1.31"/><circle class="cls-4" cx="111.12" cy="482.98" r="1.31"/></g></g><g><g><path class="cls-4" d="M46.73,505.87c.97-.55,2.36,.16,2.58,1.26s-.66,2.24-1.76,2.43-2.25-.5-2.72-1.51-.31-2.26,.3-3.19,1.61-1.58,2.68-1.88c2.26-.64,4.86,.24,6.27,2.11"/><g><path class="cls-5" d="M60.46,500.08c-1.19-1.7-3.03-2.89-5.02-3.47s-4.13-.55-6.16-.13c-1.48,.31-2.95,.85-4.09,1.84-1.14,.99-1.91,2.49-1.75,4-2.01-.08-4.07,.53-5.57,1.87s-2.35,3.43-2,5.41,1.97,3.72,3.96,4.02c-.13,1.54,.84,3.12,2.28,3.69"/><path class="cls-4" d="M48.77,500.61c1.21-.88,2.9-.89,4.28-.29s2.46,1.71,3.32,2.93"/><path class="cls-5" d="M51.39,520.19c-.87-.89-2.61-.43-3.04,.74s.4,2.57,1.6,2.9,2.54-.33,3.17-1.4,.59-2.45,.08-3.59-1.46-2.03-2.52-2.67c-1.66-1-3.71-1.42-5.58-.89s-3.46,2.08-3.8,3.99c-1.41-1.13-3.64-1.03-4.99,.17s-1.74,3.34-.96,4.97,2.63,2.66,4.44,2.55c-.96,1.29-.73,3.25,.35,4.45s2.83,1.66,4.42,1.41,3.03-1.15,4.17-2.29c.62,1.19,1.74,2.07,2.98,2.59s2.6,.69,3.94,.71c1.66,.03,3.37-.17,4.84-.94,1.6-.85,2.82-2.37,3.29-4.11s.2-3.68-.75-5.21c-1.18-1.91-3.49-3.17-5.71-2.78s-4.04,2.61-3.71,4.83c.2,1.32,1.12,2.51,2.36,3.03s2.73,.34,3.81-.44c.73-.53,1.28-1.35,1.37-2.26s-.33-1.86-1.12-2.32c-.79-.45-1.9-.29-2.45,.43s-.34,1.93,.47,2.34"/><path class="cls-4" d="M45.67,517.5c-1.42,1.17-2.12,3.17-1.74,4.97s1.83,3.34,3.61,3.84"/><path class="cls-4" d="M51.39,526.99c.3,1.28,1.14,2.42,2.28,3.08s2.54,.83,3.8,.46"/><g><path class="cls-4" d="M68.28,524.72c-.52,.59-.36,1.61,.28,2.07s1.58,.37,2.17-.15,.81-1.38,.64-2.15-.69-1.43-1.34-1.87c-1.03-.69-2.4-.84-3.55-.39-1.15,.45-2.06,1.5-2.34,2.71"/><path class="cls-4" d="M63.68,531.33c1.62,1.32,3.77,1.97,5.85,1.78,1.12-.1,2.21-.44,3.19-.98,.69-.38,1.77-1.67,2.43-1.63,.46,.03,1.18,.57,1.61,.76,.55,.23,1.11,.45,1.67,.64,1.08,.38,2.19,.68,3.31,.92,4.58,.98,9.38,.87,13.95-.08,2.09-.43,4.33-1.37,6.7-1.64,2.51-.28,3.77,.06,5.4,.19-1.33-1.68-4.27-3.15-6.38-3.52"/><path class="cls-4" d="M64.55,527.8c.97,.99,2.29,1.65,3.68,1.81,1.38,.17,2.82-.15,4-.88,.65,.41,2.27,1.36,2.92,1.77"/></g></g></g><path class="cls-4" d="M72.35,516.52c-.94,2.35-.34,5.8,1.14,7.85s3.76,3.42,6.17,4.19c2.41,.78,4.95,1.01,7.48,1.15,4.86,.27,9.9,.2,14.38-1.71"/><path class="cls-4" d="M107.19,521.66c2.95-.03,6.56-.04,9.4,.76,2.84,.8,6.44,2.45,7.71,5.11-1.29-.2-3.46-.3-4.75-.5-2.85-.44-5.71-.88-8.6-.89-2.88-.01-5.81,.42-8.42,1.65"/><g><path class="cls-4" d="M78.46,519.24c-.54-.12-1.09,.44-1.04,.99s.59,.99,1.15,1.02,1.1-.28,1.45-.71c.98-1.23,.3-3.32-1.17-3.87s-3.26,.42-3.77,1.91,.22,3.24,1.53,4.1,3.09,.87,4.5,.19c1.42-.68,3.21-1.85,3.8-3.3"/><path class="cls-4" d="M79.91,523.37c3.02,1.89,7.65,2.71,10.96,1.39"/><path class="cls-4" d="M86.71,513.2c-1.83,2.34-1.76,6.52,.17,8.79,1.92,2.27,5.03,3.29,8,3.26,2.98-.04,5.86-1.02,8.59-2.19,2.73-1.17,5.39-2.55,8.22-3.46,6.29-2.02,13.33-1.56,19.31,1.25-.52-2.44-2.61-3.7-5.02-4.34-2.41-.64-5.52-.47-8-.2-5.13,.56-8.93,1.4-15.01,1.28"/><path class="cls-4" d="M101.87,514.39c1.29,.55,3.42,.24,4.81,.06,2.78-.36,5.31-.8,8.11-.68,1.6,.07,5.39,1.41,6.71,2.32"/><path class="cls-4" d="M96.72,516.64c-.59-.02-1.05,.63-.95,1.21s.66,1,1.25,1.07c1.06,.14,2.08-.81,2.19-1.87s-.56-2.12-1.5-2.64c-.94-.52-2.08-.56-3.12-.32-.89,.21-1.77,.66-2.23,1.44-.3,.5-.4,1.11-.36,1.69,.1,1.42,1.02,2.72,2.25,3.44s2.72,.92,4.14,.75c.91-.11,1.82-.37,2.59-.88s1.39-1.27,1.6-2.17c.24-.97-.01-2-.43-2.9-.91-1.96-2.67-3.51-4.73-4.17"/></g></g><g><g><path class="cls-4" d="M54.54,504.99c-.33,.1-1.78,1.34-1.73,1.68s.27,.63,.48,.89c4.14,5.23,10.49,8.56,17.1,9.39,.46,.06,1.04,.22,1.38-.1,.6-.56,1.11-1.39,1.37-1.97"/><path class="cls-7" d="M53.34,506.19c-.53,.48-1.78,1.34-1.73,1.68s.27,.63,.48,.89c4.14,5.23,10.49,8.56,17.1,9.39,.46,.06,1.04,.22,1.38-.1,.6-.56,.94-.61,1.19-1.19"/><g><path class="cls-4" d="M51.62,507.35c-.51,.57-1.54,1.5-2.01,2.11-.16,.21-.32,.43-.37,.69s.05,.56,.29,.67c.3,.13,.62-.09,.87-.3l1.5-1.26"/><path class="cls-4" d="M53.74,510.61c-.22,.41-.8,1.2-1.14,1.52s-.81,.54-1.27,.44c-.38-.08-.7-.37-.84-.73s-.07-.79,.14-1.11"/><path class="cls-4" d="M55.32,512.09c-.2,.33-.85,1.29-1.13,1.55-.44,.4-1.08,.49-.49,1.21,.34,.42,1.03,.4,1.49,.09s.93-1.29,1.18-1.77"/><path class="cls-4" d="M52.25,512.88c.08,.52,.59,.94,1.12,.93"/><path class="cls-4" d="M55.02,515.49c-.03,.39,.17,.78,.5,.99s.77,.22,1.11,.03c.67-.38,1.19-1.78,1.9-2.09"/><path class="cls-4" d="M57.15,517.11c.1,.55,.69,.95,1.24,.83,.41-.09,.72-.4,1.01-.7l1.19-1.24"/><path class="cls-4" d="M59.03,518.2c-.01,.41,.38,.74,.79,.79s.8-.12,1.15-.33c.79-.48,1.44-1.19,1.84-2.02"/><path class="cls-4" d="M61.53,519.12c.01,.33,.18,.66,.45,.85s.63,.26,.95,.17c.53-.15,.87-.66,1.16-1.13,.25-.4,1.06-1.22,1.31-1.63"/><path class="cls-4" d="M64.16,520.15c-.08,.24,.09,.52,.33,.61s.52,.03,.73-.1,.39-.33,.56-.52c.5-.57,1.4-1.66,2-2.33"/><path class="cls-4" d="M66.61,520.29c-.06,.39-.1,.85,.18,1.12,.27,.25,.71,.21,1.02,.01s.52-.5,.75-.79c.48-.62,.94-1.32,1.7-2.12"/></g></g><g><g><path class="cls-7" d="M87.5,473.81c.66,.65,.8,1.67,.66,2.58-.23,1.49-1.13,2.85-2.41,3.64-.52,.32-3.27,1.27-3.88,.86,0,0,1.36-1.41,1.78-1.81,1.59-1.52,2.91-3.29,3.85-5.27Z"/><path class="cls-4" d="M88.17,476.39c1.53,1.26,.14,4.92-1.09,6.65s-3.08,3-5.13,3.52c-.44,2.04-1.9,3.74-3.63,4.9-1.73,1.16-3.72,1.86-5.69,2.55"/><path class="cls-8" d="M81.54,481.23c-4.88,2.14-9.91,4.39-13.51,8.33-2.34,2.56-3.94,5.7-5.87,8.59-1.93,2.89-4.36,5.65-7.62,6.84,2.28,4.71,7.05,7.86,12.11,9.19,5.06,1.33,9.57,.51,14.74-.23,10.35-1.48,21.61-2.65,31.33-8.58,1.15-.7,2.21-.18,3.47-.66,3.84-1.48,11.04-3.59,11.04-5.46-.76-1.56-5.92-1.17-8.86-.42-2.93,.74-5.79,1.92-8.8,2.17-2.45,.2-4.91-.21-7.36-.36-7.67-.48-15.49,1.72-21.79,6.12"/><path class="cls-4" d="M115.65,494.77c4.37-2.03,9.47-3.63,13.8-2.81,.46,.09,.99,.27,1.11,.72,.13,.48-.3,.91-.69,1.21-1.91,1.46-6.48,3.48-8.78,4.17"/><path class="cls-4" d="M116.92,482.87c2.34-.86,4.83-1.32,7.32-1.35,.51,0,1.1,.05,1.38,.47,.36,.54-.05,1.26-.51,1.73-.96,.98-2.28,1.5-3.47,2.17,2.27-.86,4.73-1.2,7.15-1.01,.42,.03,.85,.09,1.22,.29s.66,.6,.63,1.02c-.04,.5-.49,.86-.9,1.14-2.34,1.61-4.74,3.15-7.18,4.61"/><path class="cls-7" d="M122.57,482.22c.34-.16,.76,.08,.9,.42s.03,.75-.17,1.06-.51,.54-.8,.76l-3.12,2.37c-.7,.53-1.45,1.08-2.33,1.15"/><path class="cls-7" d="M127.21,485.06c.58,.07,1.04,.59,1.16,1.16s-.08,1.18-.42,1.65-.82,.83-1.32,1.13"/><path class="cls-7" d="M129.45,491.96c-1.2-.04-3.43,1.1-4.37,1.84s-1.6,1.82-1.84,3"/><path class="cls-7" d="M126.35,498.99c-2.57-.46-5.45,1.94-6.11,4.21"/></g><g><g><path class="cls-4" d="M65.29,504.64c-.49-3.31,5.58-1.87,7.29-1.89,2.57-.03,5.09-1.08,6.99-2.78,.87-.78,1.42-2.13,2.31-2.81,.94-.71,2.31,.19,3.15,.76"/><path class="cls-4" d="M65.26,503.06c0-1.77,3-3.08,4.29-3.46s2.64-.51,3.92-.9c2.48-.76,3.77-2.6,9.32-1.81"/></g><g><ellipse class="cls-9" cx="75.15" cy="500.28" rx="2.22" ry="1.88"/><circle class="cls-1" cx="75.15" cy="500.28" r=".6"/></g></g><path class="cls-4" d="M81.6,489.34c.87-.51,1.89-.73,2.89-.63"/></g></g></g><rect class="cls-3" x="25.8" y="537.64" width="108.95" height="20.93"/><g><path class="cls-4" d="M91.13,35.37c1.36-.6,2.82-1.48,3.38-2.38,.97-1.57,1.06-3.27,1.06-5.78-.85-.16-.69,.72-1.53,.56,.03-.99-.23-1.93-.58-2.86-.95-2.58-1.95-1.05-2.47-.21,.03-1.36-1.27-3.4-2.57-3.84l-1.68,2.73c-.18-1.58-1.1-3.1-2.06-4.19-.11-.13-.33-.08-.37,.09-.34,1.39-1.89,.88-3.38,3.67-2.42-2.51-3.84-2.12-4.17-3.83-1.06,.56-.25,1.71-1.76,3.97l-1.67-2.5c-1.57,1.04-2.76,2.65-3.27,4.47l-1.17-1.73c-1.87,.91-1.58,4.23-.87,6.19-.67-.37-2.07-1.72-2.75-2.09,.47,.32,.1,4.21,1.36,5.63"/><path class="cls-7" d="M71.03,35.8c-1.52-1.31-2.61-2.72-1.76-4.55,.97-2.07,1.66-2.97,3.79-3.79,2.13-.82,5.1-.38,7.38-.46,2.33-.09,5.44-.42,7.63,.36s3.41,1.74,4.13,3.96c.31,.95,.81,2.81-.8,3.72"/><path class="cls-4" d="M88.82,36.88c.05-.75-.04-1-.23-1.62-.36-1.16-.9-2.27-1.77-3.12-1.26-1.22-2.67-1.62-4.09-2.67-.64,.85-.9,1.49-1.78,2.1,0,0-1.77-1.25-2.4-2.1-1.42,1.05-2.82,1.44-4.09,2.67-.87,.85-1.42,1.96-1.77,3.12-.49,1.58,.27,1.95,1.26,3.28"/><g><path class="cls-4" d="M65.08,42.07c-2.25-.65-1.54-.59-2.9-2.5-1.36-1.91-1.7-4.85-1.58-7.19,3.22,.48,5.63,.54,8.48,2.12,2.84,1.58,5.65,3.27,5.64,7.69"/><path class="cls-4" d="M55.44,41.91c-3.61-1.32-5.39-4.61-4.99-8.44,3.18-.34,6.47,.49,9.1,2.3,2.64,1.81,3.33,3.22,4.16,6.3"/><path class="cls-4" d="M43.06,42.68c-2.5-1.73-4.31-3.38-4.97-7.15,3.59-.76,6.73-.3,10.13,1.08s4.75,2.1,6.8,5.13"/><g><g><circle class="cls-9" cx="41.12" cy="37.52" r=".46"/><g><path class="cls-4" d="M44.28,38.69c1.46,1.38,3.21,2.45,5.11,3.12"/><path class="cls-4" d="M47.08,39.05c2.17,.49,4.19,1.62,5.73,3.22"/></g></g><g><circle class="cls-9" cx="53.44" cy="35.63" r=".46"/><path class="cls-4" d="M55.91,38.63c1.68,.92,2.81,1.67,4.02,3.15"/><path class="cls-4" d="M58.1,37.6c1.94,1.09,3.5,2.85,4.34,4.91"/></g><g><circle class="cls-9" cx="63.41" cy="34.44" r=".46"/><path class="cls-4" d="M72.09,41.97c-1.46,.03-2.58-.25-3.79-1.05s-2.51-1.78-3.27-3.02"/><path class="cls-4" d="M67.17,37.52c1.65,2.04,3.25,2.96,5.46,4.37"/><path class="cls-4" d="M67.71,36.01c2.47,1.25,4.26,2.97,5.27,5.56"/></g></g></g><g><path class="cls-4" d="M95.39,42.03c2.25-.65,2.73-.55,4.09-2.46s1.7-4.85,1.58-7.19c-3.22,.48-5.63,.54-8.48,2.12s-5.76,3.06-5.75,7.49"/><path class="cls-4" d="M105.65,41.99c3.61-1.32,6.04-4.78,5.64-8.6-3.18-.34-6.47,.49-9.1,2.3-2.64,1.81-3.69,2.97-4.52,6.06"/><path class="cls-4" d="M119.21,42.11c2.5-1.73,3.7-2.82,4.36-6.58-3.59-.76-6.73-.3-10.13,1.08s-5.11,2.43-7.16,5.46"/><g><g><circle class="cls-9" cx="120.54" cy="37.52" r=".46"/><g><path class="cls-4" d="M117.39,38.69c-1.46,1.38-3.21,2.45-5.11,3.12"/><path class="cls-4" d="M114.59,39.05c-2.17,.49-4.19,1.62-5.73,3.22"/></g></g><g><circle class="cls-9" cx="108.22" cy="35.63" r=".46"/><path class="cls-4" d="M105.75,38.63c-1.68,.92-3.18,2.17-4.39,3.65"/><path class="cls-4" d="M103.57,37.6c-1.94,1.09-3.5,2.85-4.34,4.91"/></g><g><circle class="cls-9" cx="98.25" cy="34.44" r=".46"/><path class="cls-4" d="M89.57,41.97c1.46,.03,2.58-.25,3.79-1.05s2.51-1.78,3.27-3.02"/><path class="cls-4" d="M94.49,37.52c-1.65,2.04-3.25,2.96-5.46,4.37"/><path class="cls-4" d="M93.95,36.01c-2.47,1.25-4.26,2.97-5.27,5.56"/></g></g></g><g><circle class="cls-9" cx="78.45" cy="33.02" r=".65"/><circle class="cls-9" cx="82.75" cy="33.02" r=".65"/><g><path class="cls-4" d="M75.77,36.7c-.07,1.73,1.1,3.93,2.23,5.24"/><path class="cls-4" d="M79.14,36.18c.13,1.93-.05,3.44,.08,5.37"/></g><g><path class="cls-4" d="M85.58,36.7c.07,1.63-.87,3.8-1.88,5.07"/><path class="cls-4" d="M82.22,36.18c-.13,1.93,.16,4.73,.04,6.66"/></g></g><polyline class="cls-7" points="39.8 47.3 39.8 41.89 121.78 41.89 121.78 47.3"/><path class="cls-4" d="M59.11,53.96h44.69c0-.21,11.05-7.33,14.84-11.99h-39.57c-6.08,0-32.97-.17-36.98,0,.86,1.12,3.68,3.42,4.41,4.06,1.99,1.71,11.76,7.93,12.61,7.93Z"/><g><circle class="cls-4" cx="80.88" cy="44.78" r="1.35"/><g><g><path class="cls-4" d="M53.26,46.1c.86,.04,1.47,1.05,1.26,1.89s-1.07,1.41-1.93,1.48-1.71-.29-2.41-.8c-1.18-.86-2.05-2.4-1.55-3.78,.52-1.46,2.38-2.08,3.88-1.72,1.51,.36,2.73,1.45,3.83,2.53s2.21,2.25,3.64,2.85c1.21,.51,2.58,.57,3.87,.32,.88-.17,1.78-.53,2.35-1.23,.71-.89,.71-2.25,.09-3.21s-1.77-1.51-2.91-1.52c-.66,0-1.35,.17-1.86,.6s-.8,1.14-.62,1.78,.88,1.12,1.52,.95"/><path class="cls-4" d="M54.52,47.99c1.34,2.21,4.91,4.2,7.5,4.28s5.17-1.22,6.65-3.34"/></g><g><path class="cls-4" d="M107.85,46.1c-.86,.04-1.47,1.05-1.26,1.89s1.07,1.41,1.93,1.48,1.71-.29,2.41-.8c1.18-.86,2.05-2.4,1.55-3.78-.52-1.46-2.38-2.08-3.88-1.72-1.51,.36-2.73,1.45-3.83,2.53s-2.21,2.25-3.64,2.85c-1.21,.51-2.58,.57-3.87,.32-.88-.17-1.78-.53-2.35-1.23-.71-.89-.71-2.25-.09-3.21s1.77-1.51,2.91-1.52c.66,0,1.35,.17,1.86,.6s.8,1.14,.62,1.78-.88,1.12-1.52,.95"/><path class="cls-4" d="M106.6,47.99c-1.34,2.21-4.91,4.2-7.5,4.28-2.58,.08-5.59-1.8-7.06-3.92"/></g><g><path class="cls-4" d="M71.31,46.29c.6,.3,.87,1.09,.65,1.72s-.88,1.06-1.55,1.1-1.33-.28-1.79-.78c-.75-.82-.93-2.12-.41-3.11,.78-1.49,2.81-1.94,4.41-1.42s2.84,1.76,3.97,3.01c.82,.9,1.66,1.86,2.82,2.25,1.85,.62,3.84-.44,5.35-1.67s2.83-3.29,4.72-3.79c1.22-.32,2.85,.51,3.4,1.64,.5,1.03-.04,2.29-.84,3.11-.55,.56-1.36,1.01-2.1,.75-.44-.16-.78-.58-.84-1.04s.16-.96,.54-1.22"/><path class="cls-4" d="M69.55,48.97c.56,1.47,4.9,4.27,6.22,5.13"/><path class="cls-7" d="M91.26,48.93c0,1.46-3.19,4.31-4.39,5.17"/><path class="cls-4" d="M72.09,48.63c.46-.28,1.07-.2,1.54,.05s.86,.65,1.24,1.02c1.02,1,4.81,3.15,6,3.92"/><path class="cls-7" d="M89.01,48.63c-.46-.28-1.07-.2-1.54,.05s-.86,.65-1.24,1.02c-1.02,1-4.89,3.61-6.09,4.38"/></g></g></g><g><g><line class="cls-7" x1="44.28" y1="43.88" x2="44.28" y2="49.97"/><line class="cls-7" x1="48.38" y1="47.3" x2="48.38" y2="53.39"/></g><g><circle class="cls-9" cx="39.38" cy="50.26" r="1.22"/><circle class="cls-9" cx="44.28" cy="52.87" r="1.22"/><circle class="cls-9" cx="48.03" cy="56.62" r="1.22"/></g></g><g><g><line class="cls-7" x1="116.81" y1="43.88" x2="116.81" y2="49.97"/><line class="cls-7" x1="112.7" y1="47.3" x2="112.7" y2="53.39"/></g><g><circle class="cls-9" cx="121.71" cy="50.26" r="1.22"/><circle class="cls-9" cx="116.81" cy="52.87" r="1.22"/><circle class="cls-9" cx="113.06" cy="56.62" r="1.22"/></g></g><g><g><circle class="cls-7" cx="18.68" cy="58.84" r=".47"/><circle class="cls-7" cx="18.68" cy="62.73" r=".47"/><circle class="cls-7" cx="18.68" cy="66.61" r=".47"/><circle class="cls-7" cx="18.68" cy="70.5" r=".47"/></g><circle class="cls-4" cx="19.12" cy="77.86" r="3.72"/><circle class="cls-9" cx="19.39" cy="77.28" r="1.43"/></g><g><g><circle class="cls-7" cx="32.01" cy="77.58" r=".47"/><circle class="cls-7" cx="32.01" cy="81.46" r=".47"/><circle class="cls-7" cx="32.01" cy="85.35" r=".47"/></g><g><circle class="cls-4" cx="31.74" cy="93.38" r="3.72"/><circle class="cls-9" cx="32.01" cy="92.8" r="1.43"/></g></g><g><g><circle class="cls-7" cx="141.94" cy="58.84" r=".47"/><circle class="cls-7" cx="141.94" cy="62.73" r=".47"/><circle class="cls-7" cx="141.94" cy="66.61" r=".47"/><circle class="cls-7" cx="141.94" cy="70.5" r=".47"/></g><circle class="cls-4" cx="141.49" cy="77.86" r="3.72"/><circle class="cls-9" cx="141.22" cy="77.28" r="1.43"/></g><g><g><circle class="cls-7" cx="128.6" cy="77.58" r=".47"/><circle class="cls-7" cx="128.6" cy="81.46" r=".47"/><circle class="cls-7" cx="128.6" cy="85.35" r=".47"/></g><g><circle class="cls-4" cx="128.87" cy="93.38" r="3.72"/><circle class="cls-9" cx="128.6" cy="92.8" r="1.43"/></g></g><g><path class="cls-5" d="M113.45,65.33c-1.91-2.26-3.93-4.8-5.82-7.42-1.16-1.61-2.39-3.82-4.38-3.82l-44.27,.14c-2.74-.28-5.33,3.76-6.11,4.85-1.52,2.11-3.12,4.19-4.82,6.18"/><path class="cls-5" d="M45.35,68.65c-1.85,1.87-4.65,4.07-6.76,5.63H121.78c-.03,.09-2.04-1.86-4.84-4.95"/><g><g><circle class="cls-9" cx="67.84" cy="56.62" r=".61"/><circle class="cls-9" cx="66.62" cy="59.9" r=".61"/><circle class="cls-9" cx="61.99" cy="56.62" r=".61"/><circle class="cls-9" cx="60.03" cy="60.53" r=".61"/><circle class="cls-9" cx="58.44" cy="56.96" r=".61"/><circle class="cls-9" cx="56.23" cy="60.53" r=".61"/><circle class="cls-9" cx="54" cy="64.1" r=".61"/><circle class="cls-9" cx="60.77" cy="63.49" r=".61"/><circle class="cls-9" cx="65.39" cy="64.55" r=".61"/><circle class="cls-9" cx="55.79" cy="67.3" r=".61"/><circle class="cls-9" cx="43.99" cy="71.51" r=".61"/><circle class="cls-9" cx="117.39" cy="72.12" r=".61"/><circle class="cls-9" cx="64.92" cy="56.96" r=".61"/><circle class="cls-9" cx="63.69" cy="60.88" r=".61"/></g><g><circle class="cls-9" cx="93.39" cy="56.62" r=".61"/><circle class="cls-9" cx="94.62" cy="59.9" r=".61"/><circle class="cls-9" cx="99.24" cy="56.62" r=".61"/><circle class="cls-9" cx="101.2" cy="60.53" r=".61"/><circle class="cls-9" cx="102.79" cy="56.96" r=".61"/><circle class="cls-9" cx="105" cy="60.53" r=".61"/><circle class="cls-9" cx="107.24" cy="64.1" r=".61"/><circle class="cls-9" cx="100.46" cy="63.49" r=".61"/><circle class="cls-9" cx="95.84" cy="64.55" r=".61"/><circle class="cls-9" cx="105.44" cy="67.3" r=".61"/><circle class="cls-9" cx="96.32" cy="56.96" r=".61"/><circle class="cls-9" cx="97.54" cy="60.88" r=".61"/></g></g></g><g><path class="cls-4" d="M74.71,75.14c-2.43-.87-4.1-2.46-5.16-4.82s-.96-5.34,0-7.74c1.13-2.83,2.56-4.95,4.86-6.95,1.33-1.16,3.07-2.42,4.4-3.58l1.93,1.53c.51-.6,1.2-1.16,1.89-1.52,1.19,1.77,3.46,2.91,5.08,4.31,2.73,2.37,4.14,5.72,4.66,9.3,.98,6.75-5.81,9.47-5.88,9.44-.89-.03-11.78,.03-11.78,.03Z"/><path class="cls-4" d="M79.25,55.84c-1.42,1.25-2.6,2.75-3.77,4.23-.89,1.13-1.63,2.35-2.04,3.73-.72,2.38-.9,4.69,.73,6.3,.99,.98,1.6,1.27,3.39,2.04,.07-1.43,0-1.54-.01-2.66s.04-2.25,.47-3.28,1.32-1.92,2.43-2.06c1.13-.14,2.25,.56,2.86,1.52s.79,2.14,.8,3.28-.15,2.28-.14,3.42c2.28-.75,4.08-2.81,4.5-5.18,.37-2.1-.62-4.78-1.73-6.6-1.11-1.82-4.07-4.59-4.24-4.63-.66,.77-1.78,1.53-1.78,1.53-.4-.5-1.03-1.16-1.46-1.65Z"/><g><circle class="cls-9" cx="78.95" cy="60.53" r=".61"/><circle class="cls-9" cx="75.54" cy="63.94" r=".61"/><circle class="cls-9" cx="81.83" cy="60.53" r=".61"/><circle class="cls-9" cx="85.59" cy="63.94" r=".61"/></g></g><g><g><path class="cls-4" d="M38.89,63.94c-1.65-2.85-4.22-5.75-7.11-7.33-3.77-2.07-8.43-1.71-12.58-.59,2.15,.89,3.92,2.47,5.65,4.03,2.1,1.89,4.21,3.8,5.83,6.11s1.61,2.32,2.46,7.92c.06,.42,3.96,.2,9.32-.01-.97-6.16-2.64-8.56-3.55-10.14Z"/><path class="cls-4" d="M31.57,67.83c1.37,.27,2.62,1.11,3.38,2.28s1.03,2.65,.73,4.01"/><path class="cls-4" d="M23.86,58.71c3.94-1.19,8.28,.97,10.87,4.18s3.78,7.29,4.91,11.25"/></g><g><path class="cls-4" d="M47.72,74.32c-1.51-1.21-2.24-2.38-2.65-4.38s-.21-4.05,0-6.08c1.65,1.15,3.61,1.74,5.48,2.49,1.86,.75,3.74,1.74,4.87,3.4,1.13,1.66,1.21,3.12-.24,4.52"/><path class="cls-4" d="M60.8,74.6c-2.35-2.59-3.2-6.46-2.14-9.79,1.62,.54,3.26,1.08,4.74,1.93s2.82,2.04,3.56,3.58,.8,3.46-.11,4.91"/><path class="cls-4" d="M62.87,74.56c-1.09-.85-1.66-1.33-1.71-2.71-.03-.73,.11-2.47,.81-2.67,.64-.18,1.27,.29,1.76,.74,.39,.36,.85,.69,1.07,1.17,.59,1.26,.26,2.95,.11,3.46"/></g><path class="cls-4" d="M50.53,74.33c-.82-.39-1.48-1.11-1.79-1.97s-.26-1.84,.13-2.66c.1-.22,.26-.45,.5-.49,.2-.03,.39,.08,.57,.18,1.01,.62,2.04,1.27,2.75,2.22s1.23,1.63,.7,2.68"/></g><g><g><path class="cls-4" d="M122.86,63.94c1.65-2.85,4.22-5.75,7.11-7.33,3.77-2.07,8.43-1.71,12.58-.59-2.15,.89-3.92,2.47-5.65,4.03-2.1,1.89-4.21,3.8-5.83,6.11s-1.61,2.32-2.46,7.92c-.06,.42-3.96,.2-9.32-.01,.97-6.16,2.64-8.56,3.55-10.14Z"/><path class="cls-4" d="M130.18,67.83c-1.37,.27-2.62,1.11-3.38,2.28s-1.03,2.65-.73,4.01"/><path class="cls-4" d="M137.89,58.71c-3.94-1.19-8.28,.97-10.87,4.18-2.58,3.21-3.78,7.29-4.91,11.25"/></g><g><path class="cls-4" d="M113.53,74.56c1.84-.87,2.73-2.62,3.15-4.62s.21-4.05,0-6.08c-1.65,1.15-3.61,1.74-5.48,2.49s-3.74,1.74-4.87,3.4c-1.13,1.66,.17,4.48,.38,4.8"/><path class="cls-4" d="M100.95,74.6c2.35-2.59,3.2-6.46,2.14-9.79-1.62,.54-3.26,1.08-4.74,1.93-1.48,.85-2.82,2.04-3.56,3.58s-.8,3.46,.11,4.91"/><path class="cls-4" d="M98.87,74.56c1.09-.85,1.66-1.33,1.71-2.71,.03-.73-.11-2.47-.81-2.67-.64-.18-1.27,.29-1.76,.74-.39,.36-.85,.69-1.07,1.17-.59,1.26-.26,2.95-.11,3.46"/></g><path class="cls-4" d="M111.21,74.33c.82-.39,1.48-1.11,1.79-1.97s.26-1.84-.13-2.66c-.1-.22-.26-.45-.5-.49-.2-.03-.39,.08-.57,.18-1.01,.62-2.04,1.27-2.75,2.22s-1.04,2.28-.5,3.33"/></g><path class="cls-4" d="M32.89,74.33c2.31,4.82,5.51,9.15,9.39,12.59H119.45c.02,.24,6.74-7.66,8.65-12.79l-95.2,.2Z"/><line class="cls-7" x1="30.82" y1="74.28" x2="130.18" y2="74.28"/><g><circle class="cls-9" cx="40.46" cy="77.48" r=".8"/><circle class="cls-9" cx="120.49" cy="77.48" r=".8"/><circle class="cls-9" cx="66.62" cy="78.05" r=".8"/><circle class="cls-9" cx="94.62" cy="78.05" r=".8"/><circle class="cls-9" cx="64.72" cy="84.74" r=".61"/><circle class="cls-9" cx="96.6" cy="84.74" r=".61"/></g><g><path class="cls-4" d="M47.85,78.21c2.68-3.88,7.87-3.69,10.94-2.09,1.44,.75,2.71,2.04,3,3.64,.3,1.67-.62,3.49-2.15,4.24s-3.53,.36-4.66-.91c-.6-.66-.96-1.57-.83-2.45s.82-1.69,1.7-1.82c1.18-.17,2.21,.83,2.74,1.89"/><path class="cls-4" d="M47.08,82.82c-.73-.25-1.47-.53-2.04-1.05s-.95-1.32-.76-2.06c.23-.89,1.18-1.42,2.09-1.55,1.65-.25,3.41,.53,4.35,1.9,.94,1.38,1.01,3.3,.18,4.74s-3.85,2.36-5.51,2.23"/><path class="cls-4" d="M73.39,82.12c-.69,.05-1.4,.06-2.03-.21s-1.18-.86-1.19-1.54c-.02-1.01,1.04-1.71,2.04-1.88,1.48-.26,3.12,.26,4.05,1.44s.99,3.02,.02,4.17c-.98,1.15-2.81,1.98-4.3,2.14-1.11,.12-2.13-.37-3.07-.97-.71-.45-1.77-1.71-2.28-2.38-1.19-1.57-2.37-2.19-4.31-2.52"/><g><path class="cls-4" d="M113.34,78.21c-2.68-3.88-7.87-3.69-10.94-2.09-1.44,.75-2.71,2.04-3,3.64-.3,1.67,.62,3.49,2.15,4.24s3.53,.36,4.66-.91c.6-.66,.96-1.57,.83-2.45s-.82-1.69-1.7-1.82c-1.18-.17-2.21,.83-2.74,1.89"/><path class="cls-4" d="M114.11,82.82c.73-.25,1.47-.53,2.04-1.05s.95-1.32,.76-2.06c-.23-.89-1.18-1.42-2.09-1.55-1.65-.25-3.41,.53-4.35,1.9s-1.01,3.3-.18,4.74,3.85,2.36,5.51,2.23"/><path class="cls-4" d="M87.8,82.12c.69,.05,1.4,.06,2.03-.21s1.18-.86,1.19-1.54c.02-1.01-1.04-1.71-2.04-1.88-1.48-.26-3.12,.26-4.05,1.44s-.99,3.02-.02,4.17c.98,1.15,2.81,1.98,4.3,2.14,1.11,.12,2.13-.37,3.07-.97,.71-.45,1.77-1.71,2.28-2.38,1.19-1.57,2.37-2.19,4.31-2.52"/></g><ellipse class="cls-4" cx="80.74" cy="80.81" rx="3.37" ry="6.24"/></g><rect class="cls-8" x="42.29" y="86.92" width="77.02" height="10.28"/><path class="cls-4" d="M43.38,86.8c.13,1.8,.14,4.43,1.94,4.57,.82,.07,2.81,.85,3.22-4.33,0,1,1.54,4.72,4.15,4.83,2.1,.09,3.68-2.73,3.72-4.83,.22,2.23,2.8,4.96,5.03,4.77s4.1-2.38,3.93-4.62c-.07,2.21,1.87,4.28,4.08,4.36s5.39-1.98,5.49-4.19c.08,1.47,.77,3.41,2.05,4.14,1.28,.73,2.01,.38,3.32-.31,.92,1.21,2.98,1.01,4.09,.43,1.34-.71,1.77-2.53,1.62-4.04,.47,2.17,2.58,3.87,4.8,3.85s4.6-2.09,4.73-3.93c.26,2.25,2.38,4.12,4.65,4.1,2.26-.02,4.35-1.92,4.59-4.17,.14,2.01,2.02,3.73,4.03,3.71s3.85-1.79,3.95-3.8c-.31,1.85,1.28,3.78,3.15,3.82s2.32-2.39,2.09-4.25"/><g><g><ellipse class="cls-7" cx="48.54" cy="94.68" rx="1.3" ry=".86"/><ellipse class="cls-7" cx="57.61" cy="94.33" rx="1.3" ry=".86"/><ellipse class="cls-7" cx="66.13" cy="94.68" rx="1.3" ry=".86"/><ellipse class="cls-7" cx="74.78" cy="94.33" rx="1.3" ry=".86"/></g><g><ellipse class="cls-7" cx="112.7" cy="94.5" rx="1.3" ry=".86"/><ellipse class="cls-7" cx="104.57" cy="94.5" rx="1.3" ry=".86"/><ellipse class="cls-7" cx="95.41" cy="94.86" rx="1.3" ry=".86"/><ellipse class="cls-7" cx="86.53" cy="94.5" rx="1.3" ry=".86"/></g></g><g><path class="cls-4" d="M35.64,106.32c-1.25,.69-2.25,1.84-2.74,3.19-.35,.96-.51,2.1-1.34,2.7,1.34-.13,2.68-.27,3.97-.65s2.53-1.02,3.42-2.03c.63-.71,1.82-2.75,.93-3.64s-3.36-.05-4.25,.44Z"/><g><path class="cls-4" d="M41.15,103.24c-.19-.76-.04-1.58,.27-2.3s.77-1.37,1.23-2.01c.94,.74,1.52,1.92,1.53,3.12,0,.73-.29,2.35-1.07,2.71-.91,.43-1.76-.73-1.96-1.52Z"/><path class="cls-4" d="M34.27,104.09c.59-.18,1.14-.48,1.73-.67,2.23-.74,4.88,.25,6.16,2.29-1.96-.14-3.91,.65-5.87,.44-.59-.06-1.16-.22-1.71-.46-.72-.32-1.6-.86-2.01-1.56,.57,.15,1.13,.13,1.7-.04Z"/><path class="cls-4" d="M45.46,108.72c.42,1.24,.43,2.65-.12,3.84-.65,1.42-2.06,2.5-2.25,4.05-1-1.18-1.98-2.4-2.63-3.81s-.93-3.03-.51-4.52c.3-1.06,1.48-2.92,2.78-2.91s2.37,2.31,2.72,3.34Z"/><g><path class="cls-4" d="M51.14,104.09c-.59-.18-1.14-.48-1.73-.67-2.23-.74-4.88,.25-6.16,2.29,1.96-.14,3.91,.65,5.87,.44,.59-.06,1.16-.22,1.71-.46,.72-.32,1.6-.86,2.01-1.56-.57,.15-1.13,.13-1.7-.04Z"/><path class="cls-4" d="M49.76,106.32c1.25,.69,2.25,1.84,2.74,3.19,.35,.96,.51,2.1,1.34,2.7-1.34-.13-2.68-.27-3.97-.65s-2.53-1.02-3.42-2.03c-.63-.71-1.82-2.75-.93-3.64s3.36-.05,4.25,.44Z"/></g></g></g><g><path class="cls-4" d="M111.84,106.32c-1.25,.69-2.25,1.84-2.74,3.19-.35,.96-.51,2.1-1.34,2.7,1.34-.13,2.68-.27,3.97-.65s2.53-1.02,3.42-2.03c.63-.71,1.82-2.75,.93-3.64s-3.36-.05-4.25,.44Z"/><g><path class="cls-4" d="M117.35,103.24c-.19-.76-.04-1.58,.27-2.3s.77-1.37,1.23-2.01c.94,.74,1.52,1.92,1.53,3.12,0,.73-.29,2.35-1.07,2.71-.91,.43-1.76-.73-1.96-1.52Z"/><path class="cls-4" d="M110.46,104.09c.59-.18,1.14-.48,1.73-.67,2.23-.74,4.88,.25,6.16,2.29-1.96-.14-3.91,.65-5.87,.44-.59-.06-1.16-.22-1.71-.46-.72-.32-1.6-.86-2.01-1.56,.57,.15,1.13,.13,1.7-.04Z"/><path class="cls-4" d="M121.66,108.72c.42,1.24,.43,2.65-.12,3.84-.65,1.42-2.06,2.5-2.25,4.05-1-1.18-1.98-2.4-2.63-3.81s-.93-3.03-.51-4.52c.3-1.06,1.48-2.92,2.78-2.91s2.37,2.31,2.72,3.34Z"/><g><path class="cls-4" d="M127.33,104.09c-.59-.18-1.14-.48-1.73-.67-2.23-.74-4.88,.25-6.16,2.29,1.96-.14,3.91,.65,5.87,.44,.59-.06,1.16-.22,1.71-.46,.72-.32,1.6-.86,2.01-1.56-.57,.15-1.13,.13-1.7-.04Z"/><path class="cls-4" d="M125.96,106.32c1.25,.69,2.25,1.84,2.74,3.19,.35,.96,.51,2.1,1.34,2.7-1.34-.13-2.68-.27-3.97-.65s-2.53-1.02-3.42-2.03c-.63-.71-1.82-2.75-.93-3.64s3.36-.05,4.25,.44Z"/></g></g></g><g><g><line class="cls-7" x1="55.71" y1="97.21" x2="55.71" y2="101.26"/><line class="cls-7" x1="60.64" y1="98" x2="60.64" y2="108.84"/><line class="cls-7" x1="66.13" y1="97.21" x2="66.13" y2="101.26"/><line class="cls-7" x1="80.74" y1="97.21" x2="80.74" y2="101.26"/></g><circle class="cls-9" cx="55.41" cy="102.85" r=".92"/><circle class="cls-9" cx="60.91" cy="111.92" r=".92"/><circle class="cls-9" cx="66.13" cy="102.85" r=".92"/></g><g><g><line class="cls-7" x1="94.97" y1="97.21" x2="94.97" y2="101.26"/><line class="cls-7" x1="99.9" y1="98" x2="99.9" y2="108.84"/><line class="cls-7" x1="105.39" y1="97.21" x2="105.39" y2="101.26"/></g><circle class="cls-9" cx="94.66" cy="102.85" r=".92"/><circle class="cls-9" cx="100.16" cy="111.92" r=".92"/><circle class="cls-9" cx="105.39" cy="102.85" r=".92"/></g><g><g><path class="cls-4" d="M74.79,111.62c-1.06,.73-1.91,1.96-2.32,3.39-.3,1.02-.43,2.23-1.13,2.86,1.13-.14,2.28-.29,3.37-.69s2.15-1.09,2.9-2.16c.54-.76,1.54-2.92,.79-3.87s-2.85-.05-3.61,.47Z"/><g><path class="cls-4" d="M79.47,108.35c-.16-.81-.04-1.68,.23-2.45s.66-1.45,1.04-2.13c.8,.79,1.29,2.04,1.3,3.31,0,.77-.25,2.5-.91,2.88-.77,.45-1.49-.77-1.66-1.62Z"/><path class="cls-4" d="M73.63,109.25c.5-.19,.97-.51,1.47-.72,1.89-.78,4.14,.26,5.22,2.43-1.66-.15-3.32,.7-4.98,.47-.5-.07-.99-.23-1.45-.49-.61-.34-1.36-.92-1.71-1.65,.49,.16,.96,.14,1.44-.04Z"/><path class="cls-4" d="M83.12,114.18c.36,1.32,.37,2.81-.1,4.08-.55,1.5-1.75,2.66-1.91,4.3-.85-1.25-1.68-2.55-2.23-4.04s-.79-3.22-.43-4.8c.26-1.12,1.26-3.1,2.36-3.09s2.01,2.46,2.31,3.55Z"/><g><path class="cls-4" d="M87.94,109.25c-.5-.19-.97-.51-1.47-.72-1.89-.78-4.14,.26-5.22,2.43,1.66-.15,3.32,.7,4.98,.47,.5-.07,.99-.23,1.45-.49,.61-.34,1.36-.92,1.71-1.65-.49,.16-.96,.14-1.44-.04Z"/><path class="cls-4" d="M86.77,111.62c1.06,.73,1.91,1.96,2.32,3.39,.3,1.02,.43,2.23,1.13,2.86-1.13-.14-2.28-.29-3.37-.69s-2.15-1.09-2.9-2.16c-.54-.76-1.54-2.92-.79-3.87s2.85-.05,3.61,.47Z"/></g></g></g><path class="cls-4" d="M84.09,103.79c.43-.23,1.01,.05,1.18,.5s-.01,.99-.37,1.31-.86,.46-1.34,.46-.96-.11-1.43-.22"/><path class="cls-4" d="M77.38,103.79c-.43-.23-1.01,.05-1.18,.5s.01,.99,.37,1.31,.86,.46,1.34,.46,.96-.11,1.43-.22"/></g><path class="cls-6" d="M80.12,103.71c.53-.78,1.46-1.18,2.37-1.43,2.62-.75,5.47-.7,8.07,.15-1.63-.79-3.29-1.58-5.08-1.88-1.79-.3-4.81,1.13-4.81,1.13-1.39-1.16-3.36-1.43-5.14-1.13s-3.45,1.09-5.08,1.88c2.6-.85,5.44-.9,8.07-.15,.91,.26,1.84,.65,2.37,1.43"/></g></svg>